0
SECTION
2
HEADER
9
$ACADVER
1
AC1009
9
$INSUNITS
70
4
9
$MEASUREMENT
70
1
0
ENDSEC
0
SECTION
2
TABLES
0
TABLE
2
LAYER
70
11
0
LAYER
2
0
70
0
62
7
6
CONTINUOUS
0
LAYER
2
CVB_00_KHUNG
70
0
62
7
6
CONTINUOUS
0
LAYER
2
CVB_01_DIA_HINH
70
0
62
34
6
CONTINUOUS
0
LAYER
2
CVB_02_MUC_NUOC
70
0
62
5
6
CONTINUOUS
0
LAYER
2
CVB_03_COC_BE_TONG
70
0
62
8
6
CONTINUOUS
0
LAYER
2
CVB_04_COT_THEP
70
0
62
1
6
CONTINUOUS
0
LAYER
2
CVB_05_BAN_MA_TAI_NEO
70
0
62
6
6
CONTINUOUS
0
LAYER
2
CVB_06_CAP_BE
70
0
62
3
6
CONTINUOUS
0
LAYER
2
CVB_07_KICH_THUOC
70
0
62
2
6
CONTINUOUS
0
LAYER
2
CVB_08_GHI_CHU
70
0
62
7
6
CONTINUOUS
0
LAYER
2
CVB_09_BUOC_THI_CONG
70
0
62
4
6
CONTINUOUS
0
ENDTAB
0
TABLE
2
STYLE
70
1
0
STYLE
2
VN
70
0
40
0
41
1
50
0
71
0
42
180
3
arial.ttf
4

0
ENDTAB
0
ENDSEC
0
SECTION
2
ENTITIES
0
TEXT
8
CVB_08_GHI_CHU
10
-7000
20
5200
30
0.0
40
288
1
A. M\U+1EB6T C\U+1EAET \U+0110I\U+1EC2N H\U+00CCNH C\U+1ECCC KHOAN NH\U+1ED2I VEN B\U+1EDC (T\U+1EF6 L\U+1EC6 1:1, S\U+01A0 \U+0110\U+1ED2)
7
VN
0
LINE
8
CVB_08_GHI_CHU
10
-7000
20
5090
30
0.0
11
3540.8
21
5090
31
0.0
0
TEXT
8
CVB_08_GHI_CHU
10
-7000
20
4780
30
0.0
40
180
1
\U+0110\U+1ED9 d\U+1ED1c taluy v\U+1EBD minh h\U+1ECDa 27\U+00B0; th\U+1EF1c t\U+1EBF 20\U+201335\U+00B0 theo kh\U+1EA3o s\U+00E1t t\U+1EEBng v\U+1ECB tr\U+00ED. Cao \U+0111\U+1ED9 \U+0111\U+1EA7u c\U+1ECDc v\U+00E0 t\U+1ECDa \U+0111\U+1ED9 theo b\U+1EA3ng t\U+1ECDa \U+0111\U+1ED9 c\U+1ECDc c\U+1EE7a d\U+1EF1 \U+00E1n.
7
VN
0
LINE
8
CVB_01_DIA_HINH
10
-7000
20
3566.678
30
0.0
11
17000
21
-8661.933
31
0.0
0
LINE
8
CVB_01_DIA_HINH
10
-6500
20
3311.915
30
0.0
11
-6750
21
3061.915
31
0.0
0
LINE
8
CVB_01_DIA_HINH
10
-5800
20
2955.248
30
0.0
11
-6050
21
2705.248
31
0.0
0
LINE
8
CVB_01_DIA_HINH
10
-5100
20
2598.58
30
0.0
11
-5350
21
2348.58
31
0.0
0
LINE
8
CVB_01_DIA_HINH
10
-4400
20
2241.912
30
0.0
11
-4650
21
1991.912
31
0.0
0
LINE
8
CVB_01_DIA_HINH
10
-3700
20
1885.244
30
0.0
11
-3950
21
1635.244
31
0.0
0
LINE
8
CVB_01_DIA_HINH
10
-3000
20
1528.576
30
0.0
11
-3250
21
1278.576
31
0.0
0
LINE
8
CVB_01_DIA_HINH
10
-2300
20
1171.909
30
0.0
11
-2550
21
921.909
31
0.0
0
LINE
8
CVB_01_DIA_HINH
10
-1600
20
815.241
30
0.0
11
-1850
21
565.241
31
0.0
0
LINE
8
CVB_01_DIA_HINH
10
-900
20
458.573
30
0.0
11
-1150
21
208.573
31
0.0
0
LINE
8
CVB_01_DIA_HINH
10
-200
20
101.905
30
0.0
11
-450
21
-148.095
31
0.0
0
LINE
8
CVB_01_DIA_HINH
10
500
20
-254.763
30
0.0
11
250
21
-504.763
31
0.0
0
LINE
8
CVB_01_DIA_HINH
10
1200
20
-611.431
30
0.0
11
950
21
-861.431
31
0.0
0
LINE
8
CVB_01_DIA_HINH
10
1900
20
-968.098
30
0.0
11
1650
21
-1218.098
31
0.0
0
LINE
8
CVB_01_DIA_HINH
10
2600
20
-1324.766
30
0.0
11
2350
21
-1574.766
31
0.0
0
LINE
8
CVB_01_DIA_HINH
10
3300
20
-1681.434
30
0.0
11
3050
21
-1931.434
31
0.0
0
LINE
8
CVB_01_DIA_HINH
10
4000
20
-2038.102
30
0.0
11
3750
21
-2288.102
31
0.0
0
LINE
8
CVB_01_DIA_HINH
10
4700
20
-2394.77
30
0.0
11
4450
21
-2644.77
31
0.0
0
LINE
8
CVB_01_DIA_HINH
10
5400
20
-2751.437
30
0.0
11
5150
21
-3001.437
31
0.0
0
LINE
8
CVB_01_DIA_HINH
10
6100
20
-3108.105
30
0.0
11
5850
21
-3358.105
31
0.0
0
LINE
8
CVB_01_DIA_HINH
10
6800
20
-3464.773
30
0.0
11
6550
21
-3714.773
31
0.0
0
LINE
8
CVB_01_DIA_HINH
10
7500
20
-3821.441
30
0.0
11
7250
21
-4071.441
31
0.0
0
LINE
8
CVB_01_DIA_HINH
10
8200
20
-4178.109
30
0.0
11
7950
21
-4428.109
31
0.0
0
LINE
8
CVB_01_DIA_HINH
10
8900
20
-4534.777
30
0.0
11
8650
21
-4784.777
31
0.0
0
LINE
8
CVB_01_DIA_HINH
10
9600
20
-4891.444
30
0.0
11
9350
21
-5141.444
31
0.0
0
LINE
8
CVB_01_DIA_HINH
10
10300
20
-5248.112
30
0.0
11
10050
21
-5498.112
31
0.0
0
LINE
8
CVB_01_DIA_HINH
10
11000
20
-5604.78
30
0.0
11
10750
21
-5854.78
31
0.0
0
LINE
8
CVB_01_DIA_HINH
10
11700
20
-5961.448
30
0.0
11
11450
21
-6211.448
31
0.0
0
LINE
8
CVB_01_DIA_HINH
10
12400
20
-6318.116
30
0.0
11
12150
21
-6568.116
31
0.0
0
LINE
8
CVB_01_DIA_HINH
10
13100
20
-6674.783
30
0.0
11
12850
21
-6924.783
31
0.0
0
LINE
8
CVB_01_DIA_HINH
10
13800
20
-7031.451
30
0.0
11
13550
21
-7281.451
31
0.0
0
LINE
8
CVB_01_DIA_HINH
10
14500
20
-7388.119
30
0.0
11
14250
21
-7638.119
31
0.0
0
LINE
8
CVB_01_DIA_HINH
10
15200
20
-7744.787
30
0.0
11
14950
21
-7994.787
31
0.0
0
LINE
8
CVB_01_DIA_HINH
10
15900
20
-8101.455
30
0.0
11
15650
21
-8351.455
31
0.0
0
LINE
8
CVB_01_DIA_HINH
10
16600
20
-8458.122
30
0.0
11
16350
21
-8708.122
31
0.0
0
TEXT
8
CVB_01_DIA_HINH
10
-6800
20
3714.773
30
0.0
40
180
1
M\U+1EB7t \U+0111\U+1EA5t t\U+1EF1 nhi\U+00EAn (s\U+00E9t d\U+1EBBo c\U+1EE9ng: \U+03C6 = 28\U+00B0, c = 12 kPa, \U+03B3 = 18 kN/m\U+00B3 \U+2014 GI\U+1EA2 \U+0110\U+1ECANH, ch\U+01B0a c\U+00F3 khoan kh\U+1EA3o s\U+00E1t)
7
VN
0
LINE
8
CVB_02_MUC_NUOC
10
2943.916
20
-1500
30
0.0
11
17500
21
-1500
31
0.0
0
TEXT
8
CVB_02_MUC_NUOC
10
15200
20
-1420
30
0.0
40
180
1
MNLKT 386,0
7
VN
0
LINE
8
CVB_02_MUC_NUOC
10
5887.832
20
-3000
30
0.0
11
17500
21
-3000
31
0.0
0
TEXT
8
CVB_02_MUC_NUOC
10
15200
20
-2920
30
0.0
40
180
1
MNDB 384,5
7
VN
0
LINE
8
CVB_02_MUC_NUOC
10
14719.579
20
-7500
30
0.0
11
17500
21
-7500
31
0.0
0
TEXT
8
CVB_02_MUC_NUOC
10
15200
20
-7420
30
0.0
40
180
1
MNC 380,0
7
VN
0
LINE
8
CVB_03_COC_BE_TONG
10
-175
20
-6500
30
0.0
11
175
21
-6500
31
0.0
0
LINE
8
CVB_03_COC_BE_TONG
10
175
20
-6500
30
0.0
11
175
21
20
31
0.0
0
LINE
8
CVB_03_COC_BE_TONG
10
175
20
20
30
0.0
11
-175
21
20
31
0.0
0
LINE
8
CVB_03_COC_BE_TONG
10
-175
20
20
30
0.0
11
-175
21
-6500
31
0.0
0
LINE
8
CVB_03_COC_BE_TONG
10
-200
20
-280
30
0.0
11
200
21
-280
31
0.0
0
LINE
8
CVB_03_COC_BE_TONG
10
200
20
-280
30
0.0
11
200
21
20
31
0.0
0
LINE
8
CVB_03_COC_BE_TONG
10
200
20
20
30
0.0
11
-200
21
20
31
0.0
0
LINE
8
CVB_03_COC_BE_TONG
10
-200
20
20
30
0.0
11
-200
21
-280
31
0.0
0
LINE
8
CVB_04_COT_THEP
10
-125
20
-6400
30
0.0
11
-125
21
-50
31
0.0
0
LINE
8
CVB_04_COT_THEP
10
125
20
-6400
30
0.0
11
125
21
-50
31
0.0
0
LINE
8
CVB_03_COC_BE_TONG
10
0
20
-6800
30
0.0
11
0
21
600
31
0.0
0
LINE
8
CVB_05_BAN_MA_TAI_NEO
10
-200
20
20
30
0.0
11
200
21
20
31
0.0
0
LINE
8
CVB_05_BAN_MA_TAI_NEO
10
200
20
20
30
0.0
11
200
21
40
31
0.0
0
LINE
8
CVB_05_BAN_MA_TAI_NEO
10
200
20
40
30
0.0
11
-200
21
40
31
0.0
0
LINE
8
CVB_05_BAN_MA_TAI_NEO
10
-200
20
40
30
0.0
11
-200
21
20
31
0.0
0
LINE
8
CVB_05_BAN_MA_TAI_NEO
10
-100
20
40
30
0.0
11
100
21
40
31
0.0
0
LINE
8
CVB_05_BAN_MA_TAI_NEO
10
100
20
40
30
0.0
11
100
21
150
31
0.0
0
LINE
8
CVB_05_BAN_MA_TAI_NEO
10
100
20
150
30
0.0
11
-100
21
150
31
0.0
0
LINE
8
CVB_05_BAN_MA_TAI_NEO
10
-100
20
150
30
0.0
11
-100
21
40
31
0.0
0
LINE
8
CVB_06_CAP_BE
10
14000
20
-3150
30
0.0
11
17200
21
-3150
31
0.0
0
LINE
8
CVB_06_CAP_BE
10
17200
20
-3150
30
0.0
11
17200
21
-2750
31
0.0
0
LINE
8
CVB_06_CAP_BE
10
17200
20
-2750
30
0.0
11
14000
21
-2750
31
0.0
0
LINE
8
CVB_06_CAP_BE
10
14000
20
-2750
30
0.0
11
14000
21
-3150
31
0.0
0
TEXT
8
CVB_06_CAP_BE
10
14200
20
-2650
30
0.0
40
180
1
B\U+00E8 pin n\U+1ED5i (m\U+00E9p b\U+00E8)
7
VN
0
LINE
8
CVB_06_CAP_BE
10
70
20
100
30
0.0
11
14000
21
-2800
31
0.0
0
TEXT
8
CVB_06_CAP_BE
10
6200
20
-1050
30
0.0
40
180
1
C\U+00E1p neo polyester (PES) v\U+1EC1 \U+0111i\U+1EC3m m\U+00F3c tr\U+00EAn b\U+00E8
7
VN
0
LINE
8
CVB_07_KICH_THUOC
10
-2600
20
-6500
30
0.0
11
-2600
21
0
31
0.0
0
LINE
8
CVB_07_KICH_THUOC
10
-2720
20
-6500
30
0.0
11
-2480
21
-6500
31
0.0
0
LINE
8
CVB_07_KICH_THUOC
10
-2720
20
0
30
0.0
11
-2480
21
0
31
0.0
0
TEXT
8
CVB_07_KICH_THUOC
10
-2440
20
-3340
30
0.0
40
180
1
L_tk = 6,5 \U+2013 6,5 m (theo b\U+1EA3ng E)
7
VN
0
LINE
8
CVB_08_GHI_CHU
10
175
20
-3250
30
0.0
11
1500
21
-3850
31
0.0
0
TEXT
8
CVB_08_GHI_CHU
10
1580
20
-3940
30
0.0
40
180
1
C\U+1ECDc khoan nh\U+1ED3i D350, b\U+00EA t\U+00F4ng B25 \U+0111\U+1ED5 t\U+1EA1i ch\U+1ED7
7
VN
0
LINE
8
CVB_08_GHI_CHU
10
0
20
100
30
0.0
11
1500
21
1900
31
0.0
0
TEXT
8
CVB_08_GHI_CHU
10
1580
20
1810
30
0.0
40
180
1
Tim ch\U+1ED1t c\U+00E1p c\U+00E1ch m\U+1EB7t \U+0111\U+1EA5t e \U+2264 100 mm (B\U+1EAET BU\U+1ED8C)
7
VN
0
LINE
8
CVB_08_GHI_CHU
10
200
20
-100
30
0.0
11
1500
21
2700
31
0.0
0
TEXT
8
CVB_08_GHI_CHU
10
1580
20
2610
30
0.0
40
180
1
M\U+0169 c\U+1ECDc 400\U+00D7400\U+00D7300 + b\U+1EA3n m\U+00E3 + tai neo: xem chi ti\U+1EBFt D
7
VN
0
LINE
8
CVB_08_GHI_CHU
10
1200
20
-611.431
30
0.0
11
3200
21
900
31
0.0
0
TEXT
8
CVB_08_GHI_CHU
10
3280
20
810
30
0.0
40
180
1
S\U+00E0n c\U+00F4ng t\U+00E1c t\U+1EA1m / b\U+1EADc \U+0111\U+1EA5t 2,0 \U+00D7 2,0 m, ho\U+00E0n tr\U+1EA3 v\U+00E0 gia c\U+1ED1 taluy sau thi c\U+00F4ng
7
VN
0
TEXT
8
CVB_08_GHI_CHU
10
-7000
20
-7400
30
0.0
40
180
1
C\U+1ECDc \U+0111\U+1EB7t TH\U+1EB2NG \U+0110\U+1EE8NG. \U+0110\U+1EA7u c\U+1ECDc n\U+00EAn n\U+1EB1m tr\U+00EAn MNLKT; n\U+1EBFu \U+0111\U+1EA7u c\U+1ECDc th\U+1EA5p h\U+01A1n MNLKT th\U+00EC b\U+00EA t\U+00F4ng m\U+0169 c\U+1ECDc v\U+00E0 b\U+1EA3n m\U+00E3 ph\U+1EA3i \U+0111\U+01B0\U+1EE3c b\U+1EA3o v\U+1EC7 ch\U+1ED1ng g\U+1EC9.
7
VN
0
TEXT
8
CVB_08_GHI_CHU
10
24500
20
5200
30
0.0
40
288
1
B. C\U+1EA4U T\U+1EA0O C\U+1ECCC V\U+00C0 L\U+1ED2NG TH\U+00C9P (T\U+1EF6 L\U+1EC6 PH\U+00D3NG 4:1, C\U+1EAET NG\U+1EAEN)
7
VN
0
LINE
8
CVB_08_GHI_CHU
10
24500
20
5090
30
0.0
11
34004
21
5090
31
0.0
0
TEXT
8
CVB_08_GHI_CHU
10
24500
20
4780
30
0.0
40
180
1
L\U+1ED3ng th\U+00E9p gia c\U+00F4ng s\U+1EB5n th\U+00E0nh m\U+1ED9t \U+0111o\U+1EA1n, kh\U+00F4ng n\U+1ED1i th\U+00E9p ch\U+1EE7 (L \U+2264 11,7 m).
7
VN
0
LINE
8
CVB_03_COC_BE_TONG
10
25300
20
3000
30
0.0
11
25300
21
-3800
31
0.0
0
LINE
8
CVB_03_COC_BE_TONG
10
26700
20
3000
30
0.0
11
26700
21
-3800
31
0.0
0
LINE
8
CVB_03_COC_BE_TONG
10
25300
20
-4300
30
0.0
11
25300
21
-7900
31
0.0
0
LINE
8
CVB_03_COC_BE_TONG
10
26700
20
-4300
30
0.0
11
26700
21
-7900
31
0.0
0
LINE
8
CVB_03_COC_BE_TONG
10
25300
20
3000
30
0.0
11
26700
21
3000
31
0.0
0
LINE
8
CVB_03_COC_BE_TONG
10
25300
20
-7900
30
0.0
11
26700
21
-7900
31
0.0
0
LINE
8
CVB_03_COC_BE_TONG
10
25150
20
-3860
30
0.0
11
26000
21
-3740
31
0.0
0
LINE
8
CVB_03_COC_BE_TONG
10
26000
20
-3740
30
0.0
11
26850
21
-3860
31
0.0
0
LINE
8
CVB_03_COC_BE_TONG
10
25150
20
-4360
30
0.0
11
26000
21
-4240
31
0.0
0
LINE
8
CVB_03_COC_BE_TONG
10
26000
20
-4240
30
0.0
11
26850
21
-4360
31
0.0
0
LINE
8
CVB_04_COT_THEP
10
25500
20
2800
30
0.0
11
25500
21
-3800
31
0.0
0
LINE
8
CVB_04_COT_THEP
10
26500
20
2800
30
0.0
11
26500
21
-3800
31
0.0
0
LINE
8
CVB_04_COT_THEP
10
26000
20
2800
30
0.0
11
26000
21
-3800
31
0.0
0
LINE
8
CVB_04_COT_THEP
10
25500
20
-4300
30
0.0
11
25500
21
-7500
31
0.0
0
LINE
8
CVB_04_COT_THEP
10
26500
20
-4300
30
0.0
11
26500
21
-7500
31
0.0
0
LINE
8
CVB_04_COT_THEP
10
26000
20
-4300
30
0.0
11
26000
21
-7500
31
0.0
0
LINE
8
CVB_04_COT_THEP
10
25500
20
2600
30
0.0
11
26500
21
2300
31
0.0
0
LINE
8
CVB_04_COT_THEP
10
25500
20
2000
30
0.0
11
26500
21
1700
31
0.0
0
LINE
8
CVB_04_COT_THEP
10
25500
20
1400
30
0.0
11
26500
21
1100
31
0.0
0
LINE
8
CVB_04_COT_THEP
10
25500
20
800
30
0.0
11
26500
21
500
31
0.0
0
LINE
8
CVB_04_COT_THEP
10
25500
20
200
30
0.0
11
26500
21
-100
31
0.0
0
LINE
8
CVB_04_COT_THEP
10
25500
20
-400
30
0.0
11
26500
21
-700
31
0.0
0
LINE
8
CVB_04_COT_THEP
10
25500
20
-1000
30
0.0
11
26500
21
-1300
31
0.0
0
LINE
8
CVB_04_COT_THEP
10
25500
20
-1600
30
0.0
11
26500
21
-1900
31
0.0
0
LINE
8
CVB_04_COT_THEP
10
25500
20
-2200
30
0.0
11
26500
21
-2500
31
0.0
0
LINE
8
CVB_04_COT_THEP
10
25500
20
-2800
30
0.0
11
26500
21
-3100
31
0.0
0
LINE
8
CVB_04_COT_THEP
10
25500
20
-3400
30
0.0
11
26500
21
-3700
31
0.0
0
LINE
8
CVB_04_COT_THEP
10
25500
20
-4350
30
0.0
11
26500
21
-4650
31
0.0
0
LINE
8
CVB_04_COT_THEP
10
25500
20
-4950
30
0.0
11
26500
21
-5250
31
0.0
0
LINE
8
CVB_04_COT_THEP
10
25500
20
-5550
30
0.0
11
26500
21
-5850
31
0.0
0
LINE
8
CVB_04_COT_THEP
10
25500
20
-6150
30
0.0
11
26500
21
-6450
31
0.0
0
LINE
8
CVB_04_COT_THEP
10
25500
20
-6750
30
0.0
11
26500
21
-7050
31
0.0
0
CIRCLE
8
CVB_04_COT_THEP
10
25380
20
1000
30
0.0
40
88
0
CIRCLE
8
CVB_04_COT_THEP
10
26620
20
1000
30
0.0
40
88
0
CIRCLE
8
CVB_04_COT_THEP
10
25380
20
-6300
30
0.0
40
88
0
CIRCLE
8
CVB_04_COT_THEP
10
26620
20
-6300
30
0.0
40
88
0
LINE
8
CVB_01_DIA_HINH
10
22800
20
2920
30
0.0
11
25300
21
2920
31
0.0
0
LINE
8
CVB_01_DIA_HINH
10
26700
20
2920
30
0.0
11
28200
21
2920
31
0.0
0
TEXT
8
CVB_01_DIA_HINH
10
22800
20
3000
30
0.0
40
180
1
M\U+1EB7t \U+0111\U+1EA5t
7
VN
0
LINE
8
CVB_05_BAN_MA_TAI_NEO
10
25640
20
3000
30
0.0
11
25640
21
600
31
0.0
0
LINE
8
CVB_05_BAN_MA_TAI_NEO
10
26360
20
3000
30
0.0
11
26360
21
600
31
0.0
0
LINE
8
CVB_08_GHI_CHU
10
26360
20
1800
30
0.0
11
27900
21
1800
31
0.0
0
TEXT
8
CVB_08_GHI_CHU
10
27980
20
1710
30
0.0
40
180
1
4\U+03A622 neo b\U+1EA3n m\U+00E3, c\U+1EAFm 600 mm v\U+00E0o b\U+00EA t\U+00F4ng (n\U+1EB1m TRONG l\U+1ED3ng th\U+00E9p)
7
VN
0
LINE
8
CVB_08_GHI_CHU
10
26500
20
-600
30
0.0
11
27900
21
-600
31
0.0
0
TEXT
8
CVB_08_GHI_CHU
10
27980
20
-690
30
0.0
40
180
1
Th\U+00E9p ch\U+1EE7: n thanh tr\U+00EAn v\U+00F2ng tr\U+00F2n, s\U+1ED1 thanh v\U+00E0 \U+0111\U+01B0\U+1EDDng k\U+00EDnh theo b\U+1EA3ng E
7
VN
0
LINE
8
CVB_08_GHI_CHU
10
26250
20
-2000
30
0.0
11
27900
21
-2000
31
0.0
0
TEXT
8
CVB_08_GHI_CHU
10
27980
20
-2090
30
0.0
40
180
1
\U+0110ai xo\U+1EAFn \U+03A68 a150 su\U+1ED1t chi\U+1EC1u d\U+00E0i (c\U+1EA5u t\U+1EA1o, ch\U+01B0a t\U+00EDnh l\U+1EF1c c\U+1EAFt); h\U+00E0n \U+0111\U+00EDnh / bu\U+1ED9c ch\U+1EAFc v\U+00E0o th\U+00E9p ch\U+1EE7
7
VN
0
LINE
8
CVB_08_GHI_CHU
10
26620
20
1000
30
0.0
11
27900
21
600
31
0.0
0
TEXT
8
CVB_08_GHI_CHU
10
27980
20
510
30
0.0
40
180
1
Con k\U+00EA b\U+00EA t\U+00F4ng d\U+1EA1ng b\U+00E1nh xe: 3 con / m\U+1EB7t c\U+1EAFt, c\U+00E1ch nhau \U+2264 2,0 m
7
VN
0
LINE
8
CVB_08_GHI_CHU
10
26500
20
-7500
30
0.0
11
27900
21
-6700
31
0.0
0
TEXT
8
CVB_08_GHI_CHU
10
27980
20
-6790
30
0.0
40
180
1
Th\U+00E9p ch\U+1EE7 d\U+1EEBng c\U+00E1ch \U+0111\U+00E1y l\U+1ED7 100 mm
7
VN
0
LINE
8
CVB_07_KICH_THUOC
10
25300
20
-8400
30
0.0
11
26700
21
-8400
31
0.0
0
LINE
8
CVB_07_KICH_THUOC
10
25300
20
-8520
30
0.0
11
25300
21
-8280
31
0.0
0
LINE
8
CVB_07_KICH_THUOC
10
26700
20
-8520
30
0.0
11
26700
21
-8280
31
0.0
0
TEXT
8
CVB_07_KICH_THUOC
10
25784
20
-8260
30
0.0
40
180
1
D350
7
VN
0
LINE
8
CVB_07_KICH_THUOC
10
23800
20
-7900
30
0.0
11
23800
21
3000
31
0.0
0
LINE
8
CVB_07_KICH_THUOC
10
23680
20
-7900
30
0.0
11
23920
21
-7900
31
0.0
0
LINE
8
CVB_07_KICH_THUOC
10
23680
20
3000
30
0.0
11
23920
21
3000
31
0.0
0
TEXT
8
CVB_07_KICH_THUOC
10
23960
20
-2540
30
0.0
40
180
1
L c\U+1ECDc = L_tk + \U+0111\U+1EA7u c\U+1ECDc (theo b\U+1EA3ng E)
7
VN
0
TEXT
8
CVB_08_GHI_CHU
10
43250
20
5200
30
0.0
40
288
1
C. M\U+1EB6T C\U+1EAET NGANG TH\U+00C2N C\U+1ECCC (T\U+1EF6 L\U+1EC6 PH\U+00D3NG 10:1)
7
VN
0
LINE
8
CVB_08_GHI_CHU
10
43250
20
5090
30
0.0
11
50853.2
21
5090
31
0.0
0
TEXT
8
CVB_08_GHI_CHU
10
43250
20
4780
30
0.0
40
180
1
a_s = 50 mm t\U+1EEB m\U+1EB7t b\U+00EA t\U+00F4ng \U+0111\U+1EBFn tim th\U+00E9p ch\U+1EE7 (gi\U+00E1 tr\U+1ECB d\U+00F9ng trong t\U+00EDnh to\U+00E1n u\U+1ED1n).
7
VN
0
CIRCLE
8
CVB_03_COC_BE_TONG
10
45000
20
500
30
0.0
40
1750
0
CIRCLE
8
CVB_04_COT_THEP
10
45000
20
500
30
0.0
40
1430
0
CIRCLE
8
CVB_04_COT_THEP
10
45000
20
1750
30
0.0
40
140
0
CIRCLE
8
CVB_04_COT_THEP
10
43750
20
500
30
0.0
40
140
0
CIRCLE
8
CVB_04_COT_THEP
10
45000
20
-750
30
0.0
40
140
0
CIRCLE
8
CVB_04_COT_THEP
10
46250
20
500
30
0.0
40
140
0
CIRCLE
8
CVB_04_COT_THEP
10
46385.641
20
1300
30
0.0
40
140
0
CIRCLE
8
CVB_04_COT_THEP
10
43614.359
20
1300
30
0.0
40
140
0
CIRCLE
8
CVB_04_COT_THEP
10
45000
20
-1100
30
0.0
40
140
0
TEXT
8
CVB_08_GHI_CHU
10
43250
20
2750
30
0.0
40
234
1
M\U+1EB6T C\U+1EAET 1-1: 4 THANH
7
VN
0
TEXT
8
CVB_08_GHI_CHU
10
43250
20
-1650
30
0.0
40
180
1
4\U+03A625 / \U+03A628 \U+2014 CB400-V
7
VN
0
TEXT
8
CVB_08_GHI_CHU
10
43250
20
-2000
30
0.0
40
180
1
\U+00C1p d\U+1EE5ng: B\U+00C8 1, B\U+00C8 2, B\U+00C8 3, B\U+00C8 6, B\U+00C8 7, B\U+00C8 9
7
VN
0
TEXT
8
CVB_08_GHI_CHU
10
43250
20
-2350
30
0.0
40
180
1
\U+0110ai xo\U+1EAFn \U+03A68 a150; 3 con k\U+00EA / m\U+1EB7t c\U+1EAFt
7
VN
0
LINE
8
CVB_07_KICH_THUOC
10
43250
20
-2950
30
0.0
11
46750
21
-2950
31
0.0
0
LINE
8
CVB_07_KICH_THUOC
10
43250
20
-3070
30
0.0
11
43250
21
-2830
31
0.0
0
LINE
8
CVB_07_KICH_THUOC
10
46750
20
-3070
30
0.0
11
46750
21
-2830
31
0.0
0
TEXT
8
CVB_07_KICH_THUOC
10
44784
20
-2810
30
0.0
40
180
1
D350
7
VN
0
CIRCLE
8
CVB_03_COC_BE_TONG
10
53000
20
500
30
0.0
40
1750
0
CIRCLE
8
CVB_04_COT_THEP
10
53000
20
500
30
0.0
40
1450
0
CIRCLE
8
CVB_04_COT_THEP
10
53000
20
1750
30
0.0
40
160
0
CIRCLE
8
CVB_04_COT_THEP
10
51917.468
20
1125
30
0.0
40
160
0
CIRCLE
8
CVB_04_COT_THEP
10
51917.468
20
-125
30
0.0
40
160
0
CIRCLE
8
CVB_04_COT_THEP
10
53000
20
-750
30
0.0
40
160
0
CIRCLE
8
CVB_04_COT_THEP
10
54082.532
20
-125
30
0.0
40
160
0
CIRCLE
8
CVB_04_COT_THEP
10
54082.532
20
1125
30
0.0
40
160
0
CIRCLE
8
CVB_04_COT_THEP
10
54385.641
20
1300
30
0.0
40
140
0
CIRCLE
8
CVB_04_COT_THEP
10
51614.359
20
1300
30
0.0
40
140
0
CIRCLE
8
CVB_04_COT_THEP
10
53000
20
-1100
30
0.0
40
140
0
TEXT
8
CVB_08_GHI_CHU
10
51250
20
2750
30
0.0
40
234
1
M\U+1EB6T C\U+1EAET 2-2: 6 THANH
7
VN
0
TEXT
8
CVB_08_GHI_CHU
10
51250
20
-1650
30
0.0
40
180
1
6\U+03A625 / \U+03A628 / \U+03A632 \U+2014 CB400-V
7
VN
0
TEXT
8
CVB_08_GHI_CHU
10
51250
20
-2000
30
0.0
40
180
1
\U+00C1p d\U+1EE5ng: B\U+00C8 3A, B\U+00C8 5A, B\U+00C8 8
7
VN
0
TEXT
8
CVB_08_GHI_CHU
10
51250
20
-2350
30
0.0
40
180
1
\U+0110ai xo\U+1EAFn \U+03A68 a150; 3 con k\U+00EA / m\U+1EB7t c\U+1EAFt
7
VN
0
LINE
8
CVB_07_KICH_THUOC
10
51250
20
-2950
30
0.0
11
54750
21
-2950
31
0.0
0
LINE
8
CVB_07_KICH_THUOC
10
51250
20
-3070
30
0.0
11
51250
21
-2830
31
0.0
0
LINE
8
CVB_07_KICH_THUOC
10
54750
20
-3070
30
0.0
11
54750
21
-2830
31
0.0
0
TEXT
8
CVB_07_KICH_THUOC
10
52784
20
-2810
30
0.0
40
180
1
D350
7
VN
0
TEXT
8
CVB_08_GHI_CHU
10
24000
20
-15000
30
0.0
40
288
1
D. CHI TI\U+1EBET \U+0110\U+1EA6U C\U+1ECCC, B\U+1EA2N M\U+00C3 V\U+00C0 TAI NEO C\U+00C1P (T\U+1EF6 L\U+1EC6 PH\U+00D3NG 10:1)
7
VN
0
LINE
8
CVB_08_GHI_CHU
10
24000
20
-15110
30
0.0
11
34540.8
21
-15110
31
0.0
0
TEXT
8
CVB_08_GHI_CHU
10
24000
20
-15420
30
0.0
40
180
1
Chi ti\U+1EBFt \U+0110\U+1EC0 XU\U+1EA4T, \U+0111\U+00E3 ki\U+1EC3m tra s\U+01A1 b\U+1ED9; b\U+1EA3n v\U+1EBD gia c\U+00F4ng do k\U+1EF9 s\U+01B0 k\U+1EBFt c\U+1EA5u ph\U+00E1t h\U+00E0nh.
7
VN
0
TEXT
8
CVB_08_GHI_CHU
10
31000
20
-17700
30
0.0
40
216
1
M\U+1EB6T \U+0110\U+1EE8NG (c\U+1EAFt d\U+1ECDc tim c\U+1ECDc, theo ph\U+01B0\U+01A1ng c\U+00E1p)
7
VN
0
LINE
8
CVB_01_DIA_HINH
10
24000
20
-22000
30
0.0
11
31000
21
-22000
31
0.0
0
LINE
8
CVB_01_DIA_HINH
10
35000
20
-22000
30
0.0
11
44000
21
-22000
31
0.0
0
TEXT
8
CVB_01_DIA_HINH
10
39500
20
-22450
30
0.0
40
180
1
M\U+1EB7t \U+0111\U+1EA5t
7
VN
0
LINE
8
CVB_03_COC_BE_TONG
10
31000
20
-24800
30
0.0
11
35000
21
-24800
31
0.0
0
LINE
8
CVB_03_COC_BE_TONG
10
35000
20
-24800
30
0.0
11
35000
21
-21800
31
0.0
0
LINE
8
CVB_03_COC_BE_TONG
10
35000
20
-21800
30
0.0
11
31000
21
-21800
31
0.0
0
LINE
8
CVB_03_COC_BE_TONG
10
31000
20
-21800
30
0.0
11
31000
21
-24800
31
0.0
0
LINE
8
CVB_03_COC_BE_TONG
10
31250
20
-24800
30
0.0
11
31250
21
-30000
31
0.0
0
LINE
8
CVB_03_COC_BE_TONG
10
34750
20
-24800
30
0.0
11
34750
21
-30000
31
0.0
0
LINE
8
CVB_03_COC_BE_TONG
10
30950
20
-30000
30
0.0
11
33000
21
-29700
31
0.0
0
LINE
8
CVB_03_COC_BE_TONG
10
33000
20
-29700
30
0.0
11
35050
21
-30000
31
0.0
0
LINE
8
CVB_05_BAN_MA_TAI_NEO
10
31000
20
-21800
30
0.0
11
35000
21
-21800
31
0.0
0
LINE
8
CVB_05_BAN_MA_TAI_NEO
10
35000
20
-21800
30
0.0
11
35000
21
-21600
31
0.0
0
LINE
8
CVB_05_BAN_MA_TAI_NEO
10
35000
20
-21600
30
0.0
11
31000
21
-21600
31
0.0
0
LINE
8
CVB_05_BAN_MA_TAI_NEO
10
31000
20
-21600
30
0.0
11
31000
21
-21800
31
0.0
0
LINE
8
CVB_05_BAN_MA_TAI_NEO
10
32000
20
-21600
30
0.0
11
34000
21
-21600
31
0.0
0
LINE
8
CVB_05_BAN_MA_TAI_NEO
10
34000
20
-21600
30
0.0
11
34000
21
-20500
31
0.0
0
LINE
8
CVB_05_BAN_MA_TAI_NEO
10
34000
20
-20500
30
0.0
11
32000
21
-20500
31
0.0
0
LINE
8
CVB_05_BAN_MA_TAI_NEO
10
32000
20
-20500
30
0.0
11
32000
21
-21600
31
0.0
0
CIRCLE
8
CVB_05_BAN_MA_TAI_NEO
10
33000
20
-21000
30
0.0
40
180
0
LINE
8
CVB_05_BAN_MA_TAI_NEO
10
32100
20
-21800
30
0.0
11
32100
21
-27800
31
0.0
0
LINE
8
CVB_05_BAN_MA_TAI_NEO
10
33900
20
-21800
30
0.0
11
33900
21
-27800
31
0.0
0
LINE
8
CVB_04_COT_THEP
10
31750
20
-22300
30
0.0
11
31750
21
-29800
31
0.0
0
LINE
8
CVB_04_COT_THEP
10
34250
20
-22300
30
0.0
11
34250
21
-29800
31
0.0
0
CIRCLE
8
CVB_06_CAP_BE
10
33750
20
-21000
30
0.0
40
550
0
LINE
8
CVB_06_CAP_BE
10
34300
20
-21000
30
0.0
11
44000
21
-22100
31
0.0
0
TEXT
8
CVB_06_CAP_BE
10
40000
20
-20900
30
0.0
40
180
1
C\U+00E1p v\U+1EC1 ph\U+00EDa b\U+00E8
7
VN
0
LINE
8
CVB_08_GHI_CHU
10
33750
20
-20450
30
0.0
11
36500
21
-18700
31
0.0
0
TEXT
8
CVB_08_GHI_CHU
10
36580
20
-18790
30
0.0
40
180
1
Ma-n\U+00ED m\U+00F3ng ng\U+1EF1a WLL 9,5 T, ch\U+1ED1t \U+03A632
7
VN
0
LINE
8
CVB_08_GHI_CHU
10
34000
20
-21300
30
0.0
11
36500
21
-20100
31
0.0
0
TEXT
8
CVB_08_GHI_CHU
10
36580
20
-20190
30
0.0
40
180
1
Tai neo t = 25, 200\U+00D7110, l\U+1ED7 \U+03A636; h\U+00E0n g\U+00F3c hf = 10 hai m\U+1EB7t, h\U+00E0n k\U+00EDn
7
VN
0
LINE
8
CVB_08_GHI_CHU
10
35000
20
-21700
30
0.0
11
36500
21
-22900
31
0.0
0
TEXT
8
CVB_08_GHI_CHU
10
36580
20
-22990
30
0.0
40
180
1
B\U+1EA3n m\U+00E3 400\U+00D7400\U+00D720, th\U+00E9p SS400
7
VN
0
LINE
8
CVB_08_GHI_CHU
10
35000
20
-23800
30
0.0
11
36500
21
-24100
31
0.0
0
TEXT
8
CVB_08_GHI_CHU
10
36580
20
-24190
30
0.0
40
180
1
M\U+0169 c\U+1ECDc b\U+00EA t\U+00F4ng B25 400\U+00D7400, s\U+00E2u 300, \U+0111\U+1ED5 li\U+1EC1n kh\U+1ED1i v\U+1EDBi \U+0111\U+1EA7u c\U+1ECDc
7
VN
0
LINE
8
CVB_08_GHI_CHU
10
33900
20
-26300
30
0.0
11
36500
21
-25800
31
0.0
0
TEXT
8
CVB_08_GHI_CHU
10
36580
20
-25890
30
0.0
40
180
1
4\U+03A622 CB400-V h\U+00E0n v\U+00E0o b\U+1EA3n m\U+00E3 (h\U+00E0n l\U+1ED7 / h\U+00E0n g\U+00F3c chu vi), neo 600 mm
7
VN
0
LINE
8
CVB_08_GHI_CHU
10
34250
20
-28500
30
0.0
11
36500
21
-28000
31
0.0
0
TEXT
8
CVB_08_GHI_CHU
10
36580
20
-28090
30
0.0
40
180
1
Th\U+00E9p ch\U+1EE7 c\U+1ECDc k\U+00E9o l\U+00EAn \U+0111\U+1EBFn c\U+00E1ch \U+0111\U+1EC9nh c\U+1ECDc 50 mm
7
VN
0
LINE
8
CVB_07_KICH_THUOC
10
29500
20
-22000
30
0.0
11
29500
21
-21000
31
0.0
0
LINE
8
CVB_07_KICH_THUOC
10
29100
20
-22000
30
0.0
11
29900
21
-22000
31
0.0
0
LINE
8
CVB_07_KICH_THUOC
10
29100
20
-21000
30
0.0
11
29900
21
-21000
31
0.0
0
TEXT
8
CVB_07_KICH_THUOC
10
22500
20
-21600
30
0.0
40
180
1
e = 100 mm
7
VN
0
TEXT
8
CVB_08_GHI_CHU
10
60000
20
-20400
30
0.0
40
216
1
M\U+1EB6T B\U+1EB0NG \U+0110\U+1EC8NH C\U+1ECCC
7
VN
0
LINE
8
CVB_03_COC_BE_TONG
10
60000
20
-25500
30
0.0
11
64000
21
-25500
31
0.0
0
LINE
8
CVB_03_COC_BE_TONG
10
64000
20
-25500
30
0.0
11
64000
21
-21500
31
0.0
0
LINE
8
CVB_03_COC_BE_TONG
10
64000
20
-21500
30
0.0
11
60000
21
-21500
31
0.0
0
LINE
8
CVB_03_COC_BE_TONG
10
60000
20
-21500
30
0.0
11
60000
21
-25500
31
0.0
0
CIRCLE
8
CVB_03_COC_BE_TONG
10
62000
20
-23500
30
0.0
40
1750
0
LINE
8
CVB_05_BAN_MA_TAI_NEO
10
61000
20
-23625
30
0.0
11
63000
21
-23625
31
0.0
0
LINE
8
CVB_05_BAN_MA_TAI_NEO
10
63000
20
-23625
30
0.0
11
63000
21
-23375
31
0.0
0
LINE
8
CVB_05_BAN_MA_TAI_NEO
10
63000
20
-23375
30
0.0
11
61000
21
-23375
31
0.0
0
LINE
8
CVB_05_BAN_MA_TAI_NEO
10
61000
20
-23375
30
0.0
11
61000
21
-23625
31
0.0
0
CIRCLE
8
CVB_05_BAN_MA_TAI_NEO
10
61100
20
-24400
30
0.0
40
110
0
CIRCLE
8
CVB_05_BAN_MA_TAI_NEO
10
61100
20
-22600
30
0.0
40
110
0
CIRCLE
8
CVB_05_BAN_MA_TAI_NEO
10
62900
20
-24400
30
0.0
40
110
0
CIRCLE
8
CVB_05_BAN_MA_TAI_NEO
10
62900
20
-22600
30
0.0
40
110
0
LINE
8
CVB_06_CAP_BE
10
63000
20
-23500
30
0.0
11
66800
21
-23500
31
0.0
0
TEXT
8
CVB_06_CAP_BE
10
64400
20
-23200
30
0.0
40
180
1
Ph\U+01B0\U+01A1ng c\U+00E1p
7
VN
0
TEXT
8
CVB_08_GHI_CHU
10
60000
20
-26100
30
0.0
40
180
1
Tai neo \U+0111\U+1EB7t \U+0110\U+00DANG PH\U+01AF\U+01A0NG C\U+00C1P (theo g\U+00F3c ph\U+01B0\U+01A1ng v\U+1ECB trong b\U+1EA3ng t\U+1ECDa \U+0111\U+1ED9). Th\U+00E9p neo tr\U+00EAn \U+00F4 vu\U+00F4ng 180\U+00D7180.
7
VN
0
TEXT
8
CVB_08_GHI_CHU
10
24000
20
-32000
30
0.0
40
216
1
KI\U+1EC2M TRA S\U+01A0 B\U+1ED8 \U+2014 l\U+1EF1c k\U+00E9o thi\U+1EBFt k\U+1EBF 104,8 kN (c\U+1ECDc b\U+1EDD ch\U+1ECBu l\U+1EF1c l\U+1EDBn nh\U+1EA5t \U+00D7 h\U+1EC7 s\U+1ED1 1,2)
7
VN
0
TEXT
8
CVB_08_GHI_CHU
10
24000
20
-32380
30
0.0
40
180
1
H-1  Ma-n\U+00ED: t\U+1EA3i l\U+00E0m vi\U+1EC7c WLL: 8,9 / 9,5 t  \U+2192  0,94  \U+0110\U+1EA0T
7
VN
0
TEXT
8
CVB_08_GHI_CHU
10
24000
20
-32760
30
0.0
40
180
1
H-2  Ma-n\U+00ED kh\U+00F4ng y\U+1EBFu h\U+01A1n c\U+00E1p: MBL c\U+00E1p / MBL ma-n\U+00ED: 31,1 / 57,0 t  \U+2192  0,55  \U+0110\U+1EA0T
7
VN
0
TEXT
8
CVB_08_GHI_CHU
10
24000
20
-33140
30
0.0
40
180
1
H-3  Tai neo: \U+00E9p m\U+1EB7t t\U+1EA1i ch\U+1ED1t: 104,8 / 168,0 kN  \U+2192  0,62  \U+0110\U+1EA0T
7
VN
0
TEXT
8
CVB_08_GHI_CHU
10
24000
20
-33520
30
0.0
40
180
1
H-4  Tai neo: c\U+1EAFt x\U+00E9 m\U+00E9p l\U+1ED7: 104,8 / 499,4 kN  \U+2192  0,21  \U+0110\U+1EA0T
7
VN
0
TEXT
8
CVB_08_GHI_CHU
10
24000
20
-33900
30
0.0
40
180
1
H-5  \U+0110\U+01B0\U+1EDDng h\U+00E0n g\U+00F3c tai neo \U+2013 b\U+1EA3n m\U+00E3: 77,1 / 180,0 MPa  \U+2192  0,43  \U+0110\U+1EA0T
7
VN
0
TEXT
8
CVB_08_GHI_CHU
10
24000
20
-34280
30
0.0
40
180
1
H-6  Th\U+00E9p neo b\U+1EA3n m\U+00E3: k\U+00E9o + c\U+1EAFt (t\U+01B0\U+01A1ng t\U+00E1c): 0,09 / 1,00   \U+2192  0,09  \U+0110\U+1EA0T
7
VN
0
TEXT
8
CVB_08_GHI_CHU
10
24000
20
-34660
30
0.0
40
180
1
H-7  Chi\U+1EC1u d\U+00E0i neo th\U+00E9p v\U+00E0o b\U+00EA t\U+00F4ng: 330,0 / 600,0 mm  \U+2192  0,55  \U+0110\U+1EA0T
7
VN
0
TEXT
8
CVB_08_GHI_CHU
10
24000
20
-35040
30
0.0
40
180
1
H-8  Cao \U+0111\U+1ED9 ch\U+1ED1t c\U+00E1p so v\U+1EDBi y\U+00EAu c\U+1EA7u thi\U+1EBFt k\U+1EBF c\U+1ECDc: 100,0 / 100,0 mm  \U+2192  1,00  \U+0110\U+1EA0T
7
VN
0
TEXT
8
CVB_08_GHI_CHU
10
-7000
20
-10400
30
0.0
40
288
1
E. B\U+1EA2NG TH\U+1ED0NG K\U+00CA C\U+1ECCC KHOAN NH\U+1ED2I VEN B\U+1EDC (m\U+1EB7t b\U+1EB1ng 9 b\U+00E8, b\U+1EA3n 08/10/2026)
7
VN
0
LINE
8
CVB_08_GHI_CHU
10
-7000
20
-10510
30
0.0
11
5096
21
-10510
31
0.0
0
TEXT
8
CVB_08_GHI_CHU
10
-7000
20
-10820
30
0.0
40
180
1
\U+03B3 = 1,2; c\U+1ECDc \U+0111\U+00F4i: m\U+1ED7i c\U+1ECDc ch\U+1ECBu T / (2 \U+00D7 0,9). HSSD u\U+1ED1n = \U+03B3\U+00B7M_max / M_rd (TCVN 5574:2018, h\U+01B0\U+1EDBng l\U+1ED3ng th\U+00E9p b\U+1EA5t l\U+1EE3i nh\U+1EA5t).
7
VN
0
TEXT
8
CVB_08_GHI_CHU
10
-6920
20
-11390
30
0.0
40
180
1
B\U+00E8
7
VN
0
TEXT
8
CVB_08_GHI_CHU
10
-5420
20
-11390
30
0.0
40
180
1
\U+0110i\U+1EC3m neo
7
VN
0
TEXT
8
CVB_08_GHI_CHU
10
-4020
20
-11390
30
0.0
40
180
1
C\U+1ECDc/\U+0111i\U+1EC3m
7
VN
0
TEXT
8
CVB_08_GHI_CHU
10
-2620
20
-11390
30
0.0
40
180
1
S\U+1ED1 c\U+1ECDc
7
VN
0
TEXT
8
CVB_08_GHI_CHU
10
-1420
20
-11390
30
0.0
40
180
1
D (mm)
7
VN
0
TEXT
8
CVB_08_GHI_CHU
10
-220
20
-11390
30
0.0
40
180
1
L_tk (m)
7
VN
0
TEXT
8
CVB_08_GHI_CHU
10
1180
20
-11390
30
0.0
40
180
1
Th\U+00E9p ch\U+1EE7
7
VN
0
TEXT
8
CVB_08_GHI_CHU
10
2680
20
-11390
30
0.0
40
180
1
M\U+00E1c th\U+00E9p
7
VN
0
TEXT
8
CVB_08_GHI_CHU
10
4180
20
-11390
30
0.0
40
180
1
T d\U+00E2y (kN)
7
VN
0
TEXT
8
CVB_08_GHI_CHU
10
5780
20
-11390
30
0.0
40
180
1
\U+03B3\U+00B7T/c\U+1ECDc (kN)
7
VN
0
TEXT
8
CVB_08_GHI_CHU
10
7780
20
-11390
30
0.0
40
180
1
HSSD u\U+1ED1n
7
VN
0
TEXT
8
CVB_08_GHI_CHU
10
9280
20
-11390
30
0.0
40
180
1
BT/c\U+1ECDc (m\U+00B3)
7
VN
0
TEXT
8
CVB_08_GHI_CHU
10
11080
20
-11390
30
0.0
40
180
1
Th\U+00E9p/c\U+1ECDc (kg)
7
VN
0
TEXT
8
CVB_08_GHI_CHU
10
-6920
20
-11810
30
0.0
40
180
1
B\U+00C8 1
7
VN
0
TEXT
8
CVB_08_GHI_CHU
10
-5420
20
-11810
30
0.0
40
180
1
17
7
VN
0
TEXT
8
CVB_08_GHI_CHU
10
-4020
20
-11810
30
0.0
40
180
1
1
7
VN
0
TEXT
8
CVB_08_GHI_CHU
10
-2620
20
-11810
30
0.0
40
180
1
17
7
VN
0
TEXT
8
CVB_08_GHI_CHU
10
-1420
20
-11810
30
0.0
40
180
1
350
7
VN
0
TEXT
8
CVB_08_GHI_CHU
10
-220
20
-11810
30
0.0
40
180
1
6,5
7
VN
0
TEXT
8
CVB_08_GHI_CHU
10
1180
20
-11810
30
0.0
40
180
1
4\U+03A625
7
VN
0
TEXT
8
CVB_08_GHI_CHU
10
2680
20
-11810
30
0.0
40
180
1
CB400-V
7
VN
0
TEXT
8
CVB_08_GHI_CHU
10
4180
20
-11810
30
0.0
40
180
1
30,2
7
VN
0
TEXT
8
CVB_08_GHI_CHU
10
5780
20
-11810
30
0.0
40
180
1
36,3
7
VN
0
TEXT
8
CVB_08_GHI_CHU
10
7780
20
-11810
30
0.0
40
180
1
0,63
7
VN
0
TEXT
8
CVB_08_GHI_CHU
10
9280
20
-11810
30
0.0
40
180
1
0,63
7
VN
0
TEXT
8
CVB_08_GHI_CHU
10
11080
20
-11810
30
0.0
40
180
1
118
7
VN
0
TEXT
8
CVB_08_GHI_CHU
10
-6920
20
-12230
30
0.0
40
180
1
B\U+00C8 2
7
VN
0
TEXT
8
CVB_08_GHI_CHU
10
-5420
20
-12230
30
0.0
40
180
1
15
7
VN
0
TEXT
8
CVB_08_GHI_CHU
10
-4020
20
-12230
30
0.0
40
180
1
1
7
VN
0
TEXT
8
CVB_08_GHI_CHU
10
-2620
20
-12230
30
0.0
40
180
1
15
7
VN
0
TEXT
8
CVB_08_GHI_CHU
10
-1420
20
-12230
30
0.0
40
180
1
350
7
VN
0
TEXT
8
CVB_08_GHI_CHU
10
-220
20
-12230
30
0.0
40
180
1
6,5
7
VN
0
TEXT
8
CVB_08_GHI_CHU
10
1180
20
-12230
30
0.0
40
180
1
4\U+03A625
7
VN
0
TEXT
8
CVB_08_GHI_CHU
10
2680
20
-12230
30
0.0
40
180
1
CB400-V
7
VN
0
TEXT
8
CVB_08_GHI_CHU
10
4180
20
-12230
30
0.0
40
180
1
27,8
7
VN
0
TEXT
8
CVB_08_GHI_CHU
10
5780
20
-12230
30
0.0
40
180
1
33,3
7
VN
0
TEXT
8
CVB_08_GHI_CHU
10
7780
20
-12230
30
0.0
40
180
1
0,57
7
VN
0
TEXT
8
CVB_08_GHI_CHU
10
9280
20
-12230
30
0.0
40
180
1
0,63
7
VN
0
TEXT
8
CVB_08_GHI_CHU
10
11080
20
-12230
30
0.0
40
180
1
118
7
VN
0
TEXT
8
CVB_08_GHI_CHU
10
-6920
20
-12650
30
0.0
40
180
1
B\U+00C8 3
7
VN
0
TEXT
8
CVB_08_GHI_CHU
10
-5420
20
-12650
30
0.0
40
180
1
15
7
VN
0
TEXT
8
CVB_08_GHI_CHU
10
-4020
20
-12650
30
0.0
40
180
1
1
7
VN
0
TEXT
8
CVB_08_GHI_CHU
10
-2620
20
-12650
30
0.0
40
180
1
15
7
VN
0
TEXT
8
CVB_08_GHI_CHU
10
-1420
20
-12650
30
0.0
40
180
1
350
7
VN
0
TEXT
8
CVB_08_GHI_CHU
10
-220
20
-12650
30
0.0
40
180
1
6,5
7
VN
0
TEXT
8
CVB_08_GHI_CHU
10
1180
20
-12650
30
0.0
40
180
1
4\U+03A625
7
VN
0
TEXT
8
CVB_08_GHI_CHU
10
2680
20
-12650
30
0.0
40
180
1
CB400-V
7
VN
0
TEXT
8
CVB_08_GHI_CHU
10
4180
20
-12650
30
0.0
40
180
1
40,1
7
VN
0
TEXT
8
CVB_08_GHI_CHU
10
5780
20
-12650
30
0.0
40
180
1
48,2
7
VN
0
TEXT
8
CVB_08_GHI_CHU
10
7780
20
-12650
30
0.0
40
180
1
0,88
7
VN
0
TEXT
8
CVB_08_GHI_CHU
10
9280
20
-12650
30
0.0
40
180
1
0,63
7
VN
0
TEXT
8
CVB_08_GHI_CHU
10
11080
20
-12650
30
0.0
40
180
1
118
7
VN
0
TEXT
8
CVB_08_GHI_CHU
10
-6920
20
-13070
30
0.0
40
180
1
B\U+00C8 3A
7
VN
0
TEXT
8
CVB_08_GHI_CHU
10
-5420
20
-13070
30
0.0
40
180
1
31
7
VN
0
TEXT
8
CVB_08_GHI_CHU
10
-4020
20
-13070
30
0.0
40
180
1
1
7
VN
0
TEXT
8
CVB_08_GHI_CHU
10
-2620
20
-13070
30
0.0
40
180
1
31
7
VN
0
TEXT
8
CVB_08_GHI_CHU
10
-1420
20
-13070
30
0.0
40
180
1
350
7
VN
0
TEXT
8
CVB_08_GHI_CHU
10
-220
20
-13070
30
0.0
40
180
1
6,5
7
VN
0
TEXT
8
CVB_08_GHI_CHU
10
1180
20
-13070
30
0.0
40
180
1
6\U+03A628
7
VN
0
TEXT
8
CVB_08_GHI_CHU
10
2680
20
-13070
30
0.0
40
180
1
CB400-V
7
VN
0
TEXT
8
CVB_08_GHI_CHU
10
4180
20
-13070
30
0.0
40
180
1
73,7
7
VN
0
TEXT
8
CVB_08_GHI_CHU
10
5780
20
-13070
30
0.0
40
180
1
88,4
7
VN
0
TEXT
8
CVB_08_GHI_CHU
10
7780
20
-13070
30
0.0
40
180
1
0,87
7
VN
0
TEXT
8
CVB_08_GHI_CHU
10
9280
20
-13070
30
0.0
40
180
1
0,63
7
VN
0
TEXT
8
CVB_08_GHI_CHU
10
11080
20
-13070
30
0.0
40
180
1
208
7
VN
0
TEXT
8
CVB_08_GHI_CHU
10
-6920
20
-13490
30
0.0
40
180
1
B\U+00C8 5A
7
VN
0
TEXT
8
CVB_08_GHI_CHU
10
-5420
20
-13490
30
0.0
40
180
1
36
7
VN
0
TEXT
8
CVB_08_GHI_CHU
10
-4020
20
-13490
30
0.0
40
180
1
1
7
VN
0
TEXT
8
CVB_08_GHI_CHU
10
-2620
20
-13490
30
0.0
40
180
1
36
7
VN
0
TEXT
8
CVB_08_GHI_CHU
10
-1420
20
-13490
30
0.0
40
180
1
350
7
VN
0
TEXT
8
CVB_08_GHI_CHU
10
-220
20
-13490
30
0.0
40
180
1
6,5
7
VN
0
TEXT
8
CVB_08_GHI_CHU
10
1180
20
-13490
30
0.0
40
180
1
6\U+03A632
7
VN
0
TEXT
8
CVB_08_GHI_CHU
10
2680
20
-13490
30
0.0
40
180
1
CB400-V
7
VN
0
TEXT
8
CVB_08_GHI_CHU
10
4180
20
-13490
30
0.0
40
180
1
87,3
7
VN
0
TEXT
8
CVB_08_GHI_CHU
10
5780
20
-13490
30
0.0
40
180
1
104,8
7
VN
0
TEXT
8
CVB_08_GHI_CHU
10
7780
20
-13490
30
0.0
40
180
1
0,83
7
VN
0
TEXT
8
CVB_08_GHI_CHU
10
9280
20
-13490
30
0.0
40
180
1
0,63
7
VN
0
TEXT
8
CVB_08_GHI_CHU
10
11080
20
-13490
30
0.0
40
180
1
266
7
VN
0
TEXT
8
CVB_08_GHI_CHU
10
-6920
20
-13910
30
0.0
40
180
1
B\U+00C8 6
7
VN
0
TEXT
8
CVB_08_GHI_CHU
10
-5420
20
-13910
30
0.0
40
180
1
28
7
VN
0
TEXT
8
CVB_08_GHI_CHU
10
-4020
20
-13910
30
0.0
40
180
1
1
7
VN
0
TEXT
8
CVB_08_GHI_CHU
10
-2620
20
-13910
30
0.0
40
180
1
28
7
VN
0
TEXT
8
CVB_08_GHI_CHU
10
-1420
20
-13910
30
0.0
40
180
1
350
7
VN
0
TEXT
8
CVB_08_GHI_CHU
10
-220
20
-13910
30
0.0
40
180
1
6,5
7
VN
0
TEXT
8
CVB_08_GHI_CHU
10
1180
20
-13910
30
0.0
40
180
1
4\U+03A625
7
VN
0
TEXT
8
CVB_08_GHI_CHU
10
2680
20
-13910
30
0.0
40
180
1
CB400-V
7
VN
0
TEXT
8
CVB_08_GHI_CHU
10
4180
20
-13910
30
0.0
40
180
1
41,9
7
VN
0
TEXT
8
CVB_08_GHI_CHU
10
5780
20
-13910
30
0.0
40
180
1
50,3
7
VN
0
TEXT
8
CVB_08_GHI_CHU
10
7780
20
-13910
30
0.0
40
180
1
0,93
7
VN
0
TEXT
8
CVB_08_GHI_CHU
10
9280
20
-13910
30
0.0
40
180
1
0,63
7
VN
0
TEXT
8
CVB_08_GHI_CHU
10
11080
20
-13910
30
0.0
40
180
1
118
7
VN
0
TEXT
8
CVB_08_GHI_CHU
10
-6920
20
-14330
30
0.0
40
180
1
B\U+00C8 7
7
VN
0
TEXT
8
CVB_08_GHI_CHU
10
-5420
20
-14330
30
0.0
40
180
1
24
7
VN
0
TEXT
8
CVB_08_GHI_CHU
10
-4020
20
-14330
30
0.0
40
180
1
1
7
VN
0
TEXT
8
CVB_08_GHI_CHU
10
-2620
20
-14330
30
0.0
40
180
1
24
7
VN
0
TEXT
8
CVB_08_GHI_CHU
10
-1420
20
-14330
30
0.0
40
180
1
350
7
VN
0
TEXT
8
CVB_08_GHI_CHU
10
-220
20
-14330
30
0.0
40
180
1
6,5
7
VN
0
TEXT
8
CVB_08_GHI_CHU
10
1180
20
-14330
30
0.0
40
180
1
4\U+03A628
7
VN
0
TEXT
8
CVB_08_GHI_CHU
10
2680
20
-14330
30
0.0
40
180
1
CB400-V
7
VN
0
TEXT
8
CVB_08_GHI_CHU
10
4180
20
-14330
30
0.0
40
180
1
45,6
7
VN
0
TEXT
8
CVB_08_GHI_CHU
10
5780
20
-14330
30
0.0
40
180
1
54,7
7
VN
0
TEXT
8
CVB_08_GHI_CHU
10
7780
20
-14330
30
0.0
40
180
1
0,82
7
VN
0
TEXT
8
CVB_08_GHI_CHU
10
9280
20
-14330
30
0.0
40
180
1
0,63
7
VN
0
TEXT
8
CVB_08_GHI_CHU
10
11080
20
-14330
30
0.0
40
180
1
144
7
VN
0
TEXT
8
CVB_08_GHI_CHU
10
-6920
20
-14750
30
0.0
40
180
1
B\U+00C8 8
7
VN
0
TEXT
8
CVB_08_GHI_CHU
10
-5420
20
-14750
30
0.0
40
180
1
46
7
VN
0
TEXT
8
CVB_08_GHI_CHU
10
-4020
20
-14750
30
0.0
40
180
1
1
7
VN
0
TEXT
8
CVB_08_GHI_CHU
10
-2620
20
-14750
30
0.0
40
180
1
46
7
VN
0
TEXT
8
CVB_08_GHI_CHU
10
-1420
20
-14750
30
0.0
40
180
1
350
7
VN
0
TEXT
8
CVB_08_GHI_CHU
10
-220
20
-14750
30
0.0
40
180
1
6,5
7
VN
0
TEXT
8
CVB_08_GHI_CHU
10
1180
20
-14750
30
0.0
40
180
1
6\U+03A625
7
VN
0
TEXT
8
CVB_08_GHI_CHU
10
2680
20
-14750
30
0.0
40
180
1
CB400-V
7
VN
0
TEXT
8
CVB_08_GHI_CHU
10
4180
20
-14750
30
0.0
40
180
1
59,1
7
VN
0
TEXT
8
CVB_08_GHI_CHU
10
5780
20
-14750
30
0.0
40
180
1
71,0
7
VN
0
TEXT
8
CVB_08_GHI_CHU
10
7780
20
-14750
30
0.0
40
180
1
0,82
7
VN
0
TEXT
8
CVB_08_GHI_CHU
10
9280
20
-14750
30
0.0
40
180
1
0,63
7
VN
0
TEXT
8
CVB_08_GHI_CHU
10
11080
20
-14750
30
0.0
40
180
1
169
7
VN
0
TEXT
8
CVB_08_GHI_CHU
10
-6920
20
-15170
30
0.0
40
180
1
B\U+00C8 9
7
VN
0
TEXT
8
CVB_08_GHI_CHU
10
-5420
20
-15170
30
0.0
40
180
1
19
7
VN
0
TEXT
8
CVB_08_GHI_CHU
10
-4020
20
-15170
30
0.0
40
180
1
1
7
VN
0
TEXT
8
CVB_08_GHI_CHU
10
-2620
20
-15170
30
0.0
40
180
1
19
7
VN
0
TEXT
8
CVB_08_GHI_CHU
10
-1420
20
-15170
30
0.0
40
180
1
350
7
VN
0
TEXT
8
CVB_08_GHI_CHU
10
-220
20
-15170
30
0.0
40
180
1
6,5
7
VN
0
TEXT
8
CVB_08_GHI_CHU
10
1180
20
-15170
30
0.0
40
180
1
4\U+03A625
7
VN
0
TEXT
8
CVB_08_GHI_CHU
10
2680
20
-15170
30
0.0
40
180
1
CB400-V
7
VN
0
TEXT
8
CVB_08_GHI_CHU
10
4180
20
-15170
30
0.0
40
180
1
30,9
7
VN
0
TEXT
8
CVB_08_GHI_CHU
10
5780
20
-15170
30
0.0
40
180
1
37,0
7
VN
0
TEXT
8
CVB_08_GHI_CHU
10
7780
20
-15170
30
0.0
40
180
1
0,65
7
VN
0
TEXT
8
CVB_08_GHI_CHU
10
9280
20
-15170
30
0.0
40
180
1
0,63
7
VN
0
TEXT
8
CVB_08_GHI_CHU
10
11080
20
-15170
30
0.0
40
180
1
118
7
VN
0
TEXT
8
CVB_08_GHI_CHU
10
-6920
20
-15590
30
0.0
40
180
1
T\U+1ED4NG
7
VN
0
TEXT
8
CVB_08_GHI_CHU
10
-5420
20
-15590
30
0.0
40
180
1
231
7
VN
0
TEXT
8
CVB_08_GHI_CHU
10
-4020
20
-15590
30
0.0
40
180
1

7
VN
0
TEXT
8
CVB_08_GHI_CHU
10
-2620
20
-15590
30
0.0
40
180
1
231
7
VN
0
TEXT
8
CVB_08_GHI_CHU
10
-1420
20
-15590
30
0.0
40
180
1

7
VN
0
TEXT
8
CVB_08_GHI_CHU
10
-220
20
-15590
30
0.0
40
180
1
1524,6 m
7
VN
0
TEXT
8
CVB_08_GHI_CHU
10
1180
20
-15590
30
0.0
40
180
1

7
VN
0
TEXT
8
CVB_08_GHI_CHU
10
2680
20
-15590
30
0.0
40
180
1

7
VN
0
TEXT
8
CVB_08_GHI_CHU
10
4180
20
-15590
30
0.0
40
180
1

7
VN
0
TEXT
8
CVB_08_GHI_CHU
10
5780
20
-15590
30
0.0
40
180
1

7
VN
0
TEXT
8
CVB_08_GHI_CHU
10
7780
20
-15590
30
0.0
40
180
1

7
VN
0
TEXT
8
CVB_08_GHI_CHU
10
9280
20
-15590
30
0.0
40
180
1
146,7 m\U+00B3
7
VN
0
TEXT
8
CVB_08_GHI_CHU
10
11080
20
-15590
30
0.0
40
180
1
38,3 t\U+1EA5n
7
VN
0
LINE
8
CVB_00_KHUNG
10
-7000
20
-11080
30
0.0
11
12900
21
-11080
31
0.0
0
LINE
8
CVB_00_KHUNG
10
-7000
20
-11500
30
0.0
11
12900
21
-11500
31
0.0
0
LINE
8
CVB_00_KHUNG
10
-7000
20
-11920
30
0.0
11
12900
21
-11920
31
0.0
0
LINE
8
CVB_00_KHUNG
10
-7000
20
-12340
30
0.0
11
12900
21
-12340
31
0.0
0
LINE
8
CVB_00_KHUNG
10
-7000
20
-12760
30
0.0
11
12900
21
-12760
31
0.0
0
LINE
8
CVB_00_KHUNG
10
-7000
20
-13180
30
0.0
11
12900
21
-13180
31
0.0
0
LINE
8
CVB_00_KHUNG
10
-7000
20
-13600
30
0.0
11
12900
21
-13600
31
0.0
0
LINE
8
CVB_00_KHUNG
10
-7000
20
-14020
30
0.0
11
12900
21
-14020
31
0.0
0
LINE
8
CVB_00_KHUNG
10
-7000
20
-14440
30
0.0
11
12900
21
-14440
31
0.0
0
LINE
8
CVB_00_KHUNG
10
-7000
20
-14860
30
0.0
11
12900
21
-14860
31
0.0
0
LINE
8
CVB_00_KHUNG
10
-7000
20
-15280
30
0.0
11
12900
21
-15280
31
0.0
0
LINE
8
CVB_00_KHUNG
10
-7000
20
-15700
30
0.0
11
12900
21
-15700
31
0.0
0
LINE
8
CVB_00_KHUNG
10
-7000
20
-11080
30
0.0
11
-7000
21
-15700
31
0.0
0
LINE
8
CVB_00_KHUNG
10
-5500
20
-11080
30
0.0
11
-5500
21
-15700
31
0.0
0
LINE
8
CVB_00_KHUNG
10
-4100
20
-11080
30
0.0
11
-4100
21
-15700
31
0.0
0
LINE
8
CVB_00_KHUNG
10
-2700
20
-11080
30
0.0
11
-2700
21
-15700
31
0.0
0
LINE
8
CVB_00_KHUNG
10
-1500
20
-11080
30
0.0
11
-1500
21
-15700
31
0.0
0
LINE
8
CVB_00_KHUNG
10
-300
20
-11080
30
0.0
11
-300
21
-15700
31
0.0
0
LINE
8
CVB_00_KHUNG
10
1100
20
-11080
30
0.0
11
1100
21
-15700
31
0.0
0
LINE
8
CVB_00_KHUNG
10
2600
20
-11080
30
0.0
11
2600
21
-15700
31
0.0
0
LINE
8
CVB_00_KHUNG
10
4100
20
-11080
30
0.0
11
4100
21
-15700
31
0.0
0
LINE
8
CVB_00_KHUNG
10
5700
20
-11080
30
0.0
11
5700
21
-15700
31
0.0
0
LINE
8
CVB_00_KHUNG
10
7700
20
-11080
30
0.0
11
7700
21
-15700
31
0.0
0
LINE
8
CVB_00_KHUNG
10
9200
20
-11080
30
0.0
11
9200
21
-15700
31
0.0
0
LINE
8
CVB_00_KHUNG
10
11000
20
-11080
30
0.0
11
11000
21
-15700
31
0.0
0
LINE
8
CVB_00_KHUNG
10
12900
20
-11080
30
0.0
11
12900
21
-15700
31
0.0
0
TEXT
8
CVB_08_GHI_CHU
10
-7000
20
-18400
30
0.0
40
288
1
F. TR\U+00CCNH T\U+1EF0 THI C\U+00D4NG C\U+1ECCC KHOAN NH\U+1ED2I VEN B\U+1EDC (S\U+01A0 \U+0110\U+1ED2 NGUY\U+00CAN L\U+00DD, KH\U+00D4NG THEO T\U+1EF6 L\U+1EC6)
7
VN
0
LINE
8
CVB_08_GHI_CHU
10
-7000
20
-18510
30
0.0
11
6478.4
21
-18510
31
0.0
0
LINE
8
CVB_00_KHUNG
10
-7000
20
-26600
30
0.0
11
-300
21
-26600
31
0.0
0
LINE
8
CVB_00_KHUNG
10
-300
20
-26600
30
0.0
11
-300
21
-19500
31
0.0
0
LINE
8
CVB_00_KHUNG
10
-300
20
-19500
30
0.0
11
-7000
21
-19500
31
0.0
0
LINE
8
CVB_00_KHUNG
10
-7000
20
-19500
30
0.0
11
-7000
21
-26600
31
0.0
0
TEXT
8
CVB_09_BUOC_THI_CONG
10
-6850
20
-19850
30
0.0
40
207
1
1. \U+0110\U+1ECANH V\U+1ECA, L\U+00C0M S\U+00C0N C\U+00D4NG T\U+00C1C
7
VN
0
LINE
8
CVB_01_DIA_HINH
10
-6700
20
-20395
30
0.0
11
-5300
21
-20885
31
0.0
0
LINE
8
CVB_01_DIA_HINH
10
-5300
20
-21200
30
0.0
11
-3500
21
-21200
31
0.0
0
LINE
8
CVB_01_DIA_HINH
10
-3500
20
-21200
30
0.0
11
-600
21
-22215
31
0.0
0
LINE
8
CVB_01_DIA_HINH
10
-5300
20
-20885
30
0.0
11
-5300
21
-21200
31
0.0
0
LINE
8
CVB_09_BUOC_THI_CONG
10
-4400
20
-21200
30
0.0
11
-4400
21
-20500
31
0.0
0
LINE
8
CVB_09_BUOC_THI_CONG
10
-4600
20
-20500
30
0.0
11
-4200
21
-20500
31
0.0
0
TEXT
8
CVB_09_BUOC_THI_CONG
10
-4150
20
-20700
30
0.0
40
180
1
C\U+1ECDc tim
7
VN
0
TEXT
8
CVB_08_GHI_CHU
10
-6850
20
-25400
30
0.0
40
162
1
Tr\U+1EAFc \U+0111\U+1EA1c tim c\U+1ECDc theo b\U+1EA3ng t\U+1ECDa \U+0111\U+1ED9 (sai s\U+1ED1 \U+2264 75 mm).
7
VN
0
TEXT
8
CVB_08_GHI_CHU
10
-6850
20
-25740
30
0.0
40
162
1
\U+0110\U+00E0o b\U+1EADc / \U+0111\U+1EAFp s\U+00E0n t\U+1EA1m 2,0 \U+00D7 2,0 m, ph\U+1EB3ng, ch\U+1EAFc.
7
VN
0
TEXT
8
CVB_08_GHI_CHU
10
-6850
20
-26080
30
0.0
40
162
1
L\U+00E0m r\U+00E3nh ch\U+1EB7n n\U+01B0\U+1EDBc m\U+1EB7t ph\U+00EDa tr\U+00EAn v\U+00E0 b\U+1EDD bao ph\U+00EDa h\U+1ED3.
7
VN
0
LINE
8
CVB_00_KHUNG
10
0
20
-26600
30
0.0
11
6700
21
-26600
31
0.0
0
LINE
8
CVB_00_KHUNG
10
6700
20
-26600
30
0.0
11
6700
21
-19500
31
0.0
0
LINE
8
CVB_00_KHUNG
10
6700
20
-19500
30
0.0
11
0
21
-19500
31
0.0
0
LINE
8
CVB_00_KHUNG
10
0
20
-19500
30
0.0
11
0
21
-26600
31
0.0
0
TEXT
8
CVB_09_BUOC_THI_CONG
10
150
20
-19850
30
0.0
40
207
1
2. KHOAN T\U+1EA0O L\U+1ED6 + \U+1ED0NG V\U+00C1CH T\U+1EA0M
7
VN
0
LINE
8
CVB_01_DIA_HINH
10
300
20
-20395
30
0.0
11
1700
21
-20885
31
0.0
0
LINE
8
CVB_01_DIA_HINH
10
1700
20
-21200
30
0.0
11
3500
21
-21200
31
0.0
0
LINE
8
CVB_01_DIA_HINH
10
3500
20
-21200
30
0.0
11
6400
21
-22215
31
0.0
0
LINE
8
CVB_01_DIA_HINH
10
1700
20
-20885
30
0.0
11
1700
21
-21200
31
0.0
0
LINE
8
CVB_03_COC_BE_TONG
10
2390
20
-21200
30
0.0
11
2390
21
-24500
31
0.0
0
LINE
8
CVB_03_COC_BE_TONG
10
2810
20
-21200
30
0.0
11
2810
21
-24500
31
0.0
0
LINE
8
CVB_03_COC_BE_TONG
10
2390
20
-24500
30
0.0
11
2810
21
-24500
31
0.0
0
LINE
8
CVB_09_BUOC_THI_CONG
10
2330
20
-22100
30
0.0
11
2390
21
-22100
31
0.0
0
LINE
8
CVB_09_BUOC_THI_CONG
10
2390
20
-22100
30
0.0
11
2390
21
-20950
31
0.0
0
LINE
8
CVB_09_BUOC_THI_CONG
10
2390
20
-20950
30
0.0
11
2330
21
-20950
31
0.0
0
LINE
8
CVB_09_BUOC_THI_CONG
10
2330
20
-20950
30
0.0
11
2330
21
-22100
31
0.0
0
LINE
8
CVB_09_BUOC_THI_CONG
10
2810
20
-22100
30
0.0
11
2870
21
-22100
31
0.0
0
LINE
8
CVB_09_BUOC_THI_CONG
10
2870
20
-22100
30
0.0
11
2870
21
-20950
31
0.0
0
LINE
8
CVB_09_BUOC_THI_CONG
10
2870
20
-20950
30
0.0
11
2810
21
-20950
31
0.0
0
LINE
8
CVB_09_BUOC_THI_CONG
10
2810
20
-20950
30
0.0
11
2810
21
-22100
31
0.0
0
LINE
8
CVB_09_BUOC_THI_CONG
10
2600
20
-19900
30
0.0
11
2600
21
-24300
31
0.0
0
LINE
8
CVB_09_BUOC_THI_CONG
10
2450
20
-21500
30
0.0
11
2750
21
-21650
31
0.0
0
LINE
8
CVB_09_BUOC_THI_CONG
10
2450
20
-21850
30
0.0
11
2750
21
-22000
31
0.0
0
LINE
8
CVB_09_BUOC_THI_CONG
10
2450
20
-22200
30
0.0
11
2750
21
-22350
31
0.0
0
LINE
8
CVB_09_BUOC_THI_CONG
10
2450
20
-22550
30
0.0
11
2750
21
-22700
31
0.0
0
LINE
8
CVB_09_BUOC_THI_CONG
10
2450
20
-22900
30
0.0
11
2750
21
-23050
31
0.0
0
LINE
8
CVB_09_BUOC_THI_CONG
10
2450
20
-23250
30
0.0
11
2750
21
-23400
31
0.0
0
LINE
8
CVB_09_BUOC_THI_CONG
10
2450
20
-23600
30
0.0
11
2750
21
-23750
31
0.0
0
LINE
8
CVB_09_BUOC_THI_CONG
10
2450
20
-23950
30
0.0
11
2750
21
-24100
31
0.0
0
TEXT
8
CVB_09_BUOC_THI_CONG
10
2900
20
-20200
30
0.0
40
180
1
C\U+1EA7n khoan xo\U+1EAFn
7
VN
0
TEXT
8
CVB_08_GHI_CHU
10
150
20
-25400
30
0.0
40
162
1
Khoan mini (g\U+1EA7u xo\U+1EAFn / gu\U+1ED3ng xo\U+1EAFn) D350, th\U+1EB3ng \U+0111\U+1EE9ng.
7
VN
0
TEXT
8
CVB_08_GHI_CHU
10
150
20
-25740
30
0.0
40
162
1
\U+1ED0ng v\U+00E1ch th\U+00E9p t\U+1EA1m D400 d\U+00E0i 1,0\U+20131,5 m gi\U+1EEF mi\U+1EC7ng l\U+1ED7.
7
VN
0
TEXT
8
CVB_08_GHI_CHU
10
150
20
-26080
30
0.0
40
162
1
\U+0110\U+1EA5t khoan gom g\U+1ECDn, KH\U+00D4NG \U+0111\U+1EA9y xu\U+1ED1ng h\U+1ED3.
7
VN
0
LINE
8
CVB_00_KHUNG
10
7000
20
-26600
30
0.0
11
13700
21
-26600
31
0.0
0
LINE
8
CVB_00_KHUNG
10
13700
20
-26600
30
0.0
11
13700
21
-19500
31
0.0
0
LINE
8
CVB_00_KHUNG
10
13700
20
-19500
30
0.0
11
7000
21
-19500
31
0.0
0
LINE
8
CVB_00_KHUNG
10
7000
20
-19500
30
0.0
11
7000
21
-26600
31
0.0
0
TEXT
8
CVB_09_BUOC_THI_CONG
10
7150
20
-19850
30
0.0
40
207
1
3. V\U+1EC6 SINH V\U+00C0 NGHI\U+1EC6M THU L\U+1ED6
7
VN
0
LINE
8
CVB_01_DIA_HINH
10
7300
20
-20395
30
0.0
11
8700
21
-20885
31
0.0
0
LINE
8
CVB_01_DIA_HINH
10
8700
20
-21200
30
0.0
11
10500
21
-21200
31
0.0
0
LINE
8
CVB_01_DIA_HINH
10
10500
20
-21200
30
0.0
11
13400
21
-22215
31
0.0
0
LINE
8
CVB_01_DIA_HINH
10
8700
20
-20885
30
0.0
11
8700
21
-21200
31
0.0
0
LINE
8
CVB_03_COC_BE_TONG
10
9390
20
-21200
30
0.0
11
9390
21
-24500
31
0.0
0
LINE
8
CVB_03_COC_BE_TONG
10
9810
20
-21200
30
0.0
11
9810
21
-24500
31
0.0
0
LINE
8
CVB_03_COC_BE_TONG
10
9390
20
-24500
30
0.0
11
9810
21
-24500
31
0.0
0
LINE
8
CVB_09_BUOC_THI_CONG
10
9330
20
-22100
30
0.0
11
9390
21
-22100
31
0.0
0
LINE
8
CVB_09_BUOC_THI_CONG
10
9390
20
-22100
30
0.0
11
9390
21
-20950
31
0.0
0
LINE
8
CVB_09_BUOC_THI_CONG
10
9390
20
-20950
30
0.0
11
9330
21
-20950
31
0.0
0
LINE
8
CVB_09_BUOC_THI_CONG
10
9330
20
-20950
30
0.0
11
9330
21
-22100
31
0.0
0
LINE
8
CVB_09_BUOC_THI_CONG
10
9810
20
-22100
30
0.0
11
9870
21
-22100
31
0.0
0
LINE
8
CVB_09_BUOC_THI_CONG
10
9870
20
-22100
30
0.0
11
9870
21
-20950
31
0.0
0
LINE
8
CVB_09_BUOC_THI_CONG
10
9870
20
-20950
30
0.0
11
9810
21
-20950
31
0.0
0
LINE
8
CVB_09_BUOC_THI_CONG
10
9810
20
-20950
30
0.0
11
9810
21
-22100
31
0.0
0
LINE
8
CVB_07_KICH_THUOC
10
10500
20
-21200
30
0.0
11
10500
21
-24500
31
0.0
0
LINE
8
CVB_07_KICH_THUOC
10
10400
20
-24500
30
0.0
11
10600
21
-24500
31
0.0
0
TEXT
8
CVB_07_KICH_THUOC
10
10600
20
-22850
30
0.0
40
180
1
\U+2265 L_tk
7
VN
0
TEXT
8
CVB_08_GHI_CHU
10
7150
20
-25400
30
0.0
40
162
1
\U+0110o chi\U+1EC1u s\U+00E2u b\U+1EB1ng th\U+01B0\U+1EDBc d\U+00E2y: \U+2265 L_tk theo b\U+1EA3ng.
7
VN
0
TEXT
8
CVB_08_GHI_CHU
10
7150
20
-25740
30
0.0
40
162
1
V\U+00E9t s\U+1EA1ch \U+0111\U+1EA5t r\U+01A1i \U+0111\U+00E1y l\U+1ED7 (c\U+1EB7n l\U+1EAFng \U+2264 50 mm).
7
VN
0
TEXT
8
CVB_08_GHI_CHU
10
7150
20
-26080
30
0.0
40
162
1
\U+0110\U+1ED9 th\U+1EB3ng \U+0111\U+1EE9ng \U+2264 1%. L\U+1ED7 s\U+1EA1t th\U+00E0nh: d\U+1EEBng, b\U+00E1o thi\U+1EBFt k\U+1EBF.
7
VN
0
LINE
8
CVB_00_KHUNG
10
14000
20
-26600
30
0.0
11
20700
21
-26600
31
0.0
0
LINE
8
CVB_00_KHUNG
10
20700
20
-26600
30
0.0
11
20700
21
-19500
31
0.0
0
LINE
8
CVB_00_KHUNG
10
20700
20
-19500
30
0.0
11
14000
21
-19500
31
0.0
0
LINE
8
CVB_00_KHUNG
10
14000
20
-19500
30
0.0
11
14000
21
-26600
31
0.0
0
TEXT
8
CVB_09_BUOC_THI_CONG
10
14150
20
-19850
30
0.0
40
207
1
4. H\U+1EA0 L\U+1ED2NG TH\U+00C9P
7
VN
0
LINE
8
CVB_01_DIA_HINH
10
14300
20
-20395
30
0.0
11
15700
21
-20885
31
0.0
0
LINE
8
CVB_01_DIA_HINH
10
15700
20
-21200
30
0.0
11
17500
21
-21200
31
0.0
0
LINE
8
CVB_01_DIA_HINH
10
17500
20
-21200
30
0.0
11
20400
21
-22215
31
0.0
0
LINE
8
CVB_01_DIA_HINH
10
15700
20
-20885
30
0.0
11
15700
21
-21200
31
0.0
0
LINE
8
CVB_03_COC_BE_TONG
10
16390
20
-21200
30
0.0
11
16390
21
-24500
31
0.0
0
LINE
8
CVB_03_COC_BE_TONG
10
16810
20
-21200
30
0.0
11
16810
21
-24500
31
0.0
0
LINE
8
CVB_03_COC_BE_TONG
10
16390
20
-24500
30
0.0
11
16810
21
-24500
31
0.0
0
LINE
8
CVB_09_BUOC_THI_CONG
10
16330
20
-22100
30
0.0
11
16390
21
-22100
31
0.0
0
LINE
8
CVB_09_BUOC_THI_CONG
10
16390
20
-22100
30
0.0
11
16390
21
-20950
31
0.0
0
LINE
8
CVB_09_BUOC_THI_CONG
10
16390
20
-20950
30
0.0
11
16330
21
-20950
31
0.0
0
LINE
8
CVB_09_BUOC_THI_CONG
10
16330
20
-20950
30
0.0
11
16330
21
-22100
31
0.0
0
LINE
8
CVB_09_BUOC_THI_CONG
10
16810
20
-22100
30
0.0
11
16870
21
-22100
31
0.0
0
LINE
8
CVB_09_BUOC_THI_CONG
10
16870
20
-22100
30
0.0
11
16870
21
-20950
31
0.0
0
LINE
8
CVB_09_BUOC_THI_CONG
10
16870
20
-20950
30
0.0
11
16810
21
-20950
31
0.0
0
LINE
8
CVB_09_BUOC_THI_CONG
10
16810
20
-20950
30
0.0
11
16810
21
-22100
31
0.0
0
LINE
8
CVB_04_COT_THEP
10
16460
20
-21260
30
0.0
11
16460
21
-24380
31
0.0
0
LINE
8
CVB_04_COT_THEP
10
16740
20
-21260
30
0.0
11
16740
21
-24380
31
0.0
0
LINE
8
CVB_04_COT_THEP
10
16460
20
-21400
30
0.0
11
16740
21
-21550
31
0.0
0
LINE
8
CVB_04_COT_THEP
10
16460
20
-21700
30
0.0
11
16740
21
-21850
31
0.0
0
LINE
8
CVB_04_COT_THEP
10
16460
20
-22000
30
0.0
11
16740
21
-22150
31
0.0
0
LINE
8
CVB_04_COT_THEP
10
16460
20
-22300
30
0.0
11
16740
21
-22450
31
0.0
0
LINE
8
CVB_04_COT_THEP
10
16460
20
-22600
30
0.0
11
16740
21
-22750
31
0.0
0
LINE
8
CVB_04_COT_THEP
10
16460
20
-22900
30
0.0
11
16740
21
-23050
31
0.0
0
LINE
8
CVB_04_COT_THEP
10
16460
20
-23200
30
0.0
11
16740
21
-23350
31
0.0
0
LINE
8
CVB_04_COT_THEP
10
16460
20
-23500
30
0.0
11
16740
21
-23650
31
0.0
0
LINE
8
CVB_04_COT_THEP
10
16460
20
-23800
30
0.0
11
16740
21
-23950
31
0.0
0
LINE
8
CVB_04_COT_THEP
10
16460
20
-24100
30
0.0
11
16740
21
-24250
31
0.0
0
TEXT
8
CVB_08_GHI_CHU
10
14150
20
-25400
30
0.0
40
162
1
L\U+1ED3ng th\U+00E9p gia c\U+00F4ng s\U+1EB5n, nghi\U+1EC7m thu tr\U+01B0\U+1EDBc khi h\U+1EA1.
7
VN
0
TEXT
8
CVB_08_GHI_CHU
10
14150
20
-25740
30
0.0
40
162
1
G\U+1EAFn con k\U+00EA b\U+00E1nh xe; h\U+1EA1 th\U+1EB3ng, kh\U+00F4ng xo\U+1EAFn, kh\U+00F4ng ch\U+1EA1m th\U+00E0nh.
7
VN
0
TEXT
8
CVB_08_GHI_CHU
10
14150
20
-26080
30
0.0
40
162
1
Treo l\U+1ED3ng c\U+00E1ch \U+0111\U+00E1y l\U+1ED7 100 mm, c\U+1ED1 \U+0111\U+1ECBnh tim.
7
VN
0
LINE
8
CVB_00_KHUNG
10
-7000
20
-34000
30
0.0
11
-300
21
-34000
31
0.0
0
LINE
8
CVB_00_KHUNG
10
-300
20
-34000
30
0.0
11
-300
21
-26900
31
0.0
0
LINE
8
CVB_00_KHUNG
10
-300
20
-26900
30
0.0
11
-7000
21
-26900
31
0.0
0
LINE
8
CVB_00_KHUNG
10
-7000
20
-26900
30
0.0
11
-7000
21
-34000
31
0.0
0
TEXT
8
CVB_09_BUOC_THI_CONG
10
-6850
20
-27250
30
0.0
40
207
1
5. \U+0110\U+1ED4 B\U+00CA T\U+00D4NG
7
VN
0
LINE
8
CVB_01_DIA_HINH
10
-6700
20
-27795
30
0.0
11
-5300
21
-28285
31
0.0
0
LINE
8
CVB_01_DIA_HINH
10
-5300
20
-28600
30
0.0
11
-3500
21
-28600
31
0.0
0
LINE
8
CVB_01_DIA_HINH
10
-3500
20
-28600
30
0.0
11
-600
21
-29615
31
0.0
0
LINE
8
CVB_01_DIA_HINH
10
-5300
20
-28285
30
0.0
11
-5300
21
-28600
31
0.0
0
LINE
8
CVB_03_COC_BE_TONG
10
-4610
20
-28600
30
0.0
11
-4610
21
-31900
31
0.0
0
LINE
8
CVB_03_COC_BE_TONG
10
-4190
20
-28600
30
0.0
11
-4190
21
-31900
31
0.0
0
LINE
8
CVB_03_COC_BE_TONG
10
-4610
20
-31900
30
0.0
11
-4190
21
-31900
31
0.0
0
LINE
8
CVB_09_BUOC_THI_CONG
10
-4670
20
-29500
30
0.0
11
-4610
21
-29500
31
0.0
0
LINE
8
CVB_09_BUOC_THI_CONG
10
-4610
20
-29500
30
0.0
11
-4610
21
-28350
31
0.0
0
LINE
8
CVB_09_BUOC_THI_CONG
10
-4610
20
-28350
30
0.0
11
-4670
21
-28350
31
0.0
0
LINE
8
CVB_09_BUOC_THI_CONG
10
-4670
20
-28350
30
0.0
11
-4670
21
-29500
31
0.0
0
LINE
8
CVB_09_BUOC_THI_CONG
10
-4190
20
-29500
30
0.0
11
-4130
21
-29500
31
0.0
0
LINE
8
CVB_09_BUOC_THI_CONG
10
-4130
20
-29500
30
0.0
11
-4130
21
-28350
31
0.0
0
LINE
8
CVB_09_BUOC_THI_CONG
10
-4130
20
-28350
30
0.0
11
-4190
21
-28350
31
0.0
0
LINE
8
CVB_09_BUOC_THI_CONG
10
-4190
20
-28350
30
0.0
11
-4190
21
-29500
31
0.0
0
LINE
8
CVB_04_COT_THEP
10
-4540
20
-28660
30
0.0
11
-4540
21
-31780
31
0.0
0
LINE
8
CVB_04_COT_THEP
10
-4260
20
-28660
30
0.0
11
-4260
21
-31780
31
0.0
0
LINE
8
CVB_04_COT_THEP
10
-4540
20
-28800
30
0.0
11
-4260
21
-28950
31
0.0
0
LINE
8
CVB_04_COT_THEP
10
-4540
20
-29100
30
0.0
11
-4260
21
-29250
31
0.0
0
LINE
8
CVB_04_COT_THEP
10
-4540
20
-29400
30
0.0
11
-4260
21
-29550
31
0.0
0
LINE
8
CVB_04_COT_THEP
10
-4540
20
-29700
30
0.0
11
-4260
21
-29850
31
0.0
0
LINE
8
CVB_04_COT_THEP
10
-4540
20
-30000
30
0.0
11
-4260
21
-30150
31
0.0
0
LINE
8
CVB_04_COT_THEP
10
-4540
20
-30300
30
0.0
11
-4260
21
-30450
31
0.0
0
LINE
8
CVB_04_COT_THEP
10
-4540
20
-30600
30
0.0
11
-4260
21
-30750
31
0.0
0
LINE
8
CVB_04_COT_THEP
10
-4540
20
-30900
30
0.0
11
-4260
21
-31050
31
0.0
0
LINE
8
CVB_04_COT_THEP
10
-4540
20
-31200
30
0.0
11
-4260
21
-31350
31
0.0
0
LINE
8
CVB_04_COT_THEP
10
-4540
20
-31500
30
0.0
11
-4260
21
-31650
31
0.0
0
LINE
8
CVB_09_BUOC_THI_CONG
10
-4450
20
-31400
30
0.0
11
-4350
21
-31400
31
0.0
0
LINE
8
CVB_09_BUOC_THI_CONG
10
-4350
20
-31400
30
0.0
11
-4350
21
-27700
31
0.0
0
LINE
8
CVB_09_BUOC_THI_CONG
10
-4350
20
-27700
30
0.0
11
-4450
21
-27700
31
0.0
0
LINE
8
CVB_09_BUOC_THI_CONG
10
-4450
20
-27700
30
0.0
11
-4450
21
-31400
31
0.0
0
LINE
8
CVB_09_BUOC_THI_CONG
10
-4700
20
-27400
30
0.0
11
-4450
21
-27700
31
0.0
0
LINE
8
CVB_09_BUOC_THI_CONG
10
-4100
20
-27400
30
0.0
11
-4350
21
-27700
31
0.0
0
LINE
8
CVB_09_BUOC_THI_CONG
10
-4700
20
-27400
30
0.0
11
-4100
21
-27400
31
0.0
0
TEXT
8
CVB_09_BUOC_THI_CONG
10
-4000
20
-27600
30
0.0
40
180
1
Ph\U+1EC5u + \U+1ED1ng \U+0111\U+1ED5
7
VN
0
LINE
8
CVB_03_COC_BE_TONG
10
-4590
20
-31750
30
0.0
11
-4210
21
-31750
31
0.0
0
LINE
8
CVB_03_COC_BE_TONG
10
-4590
20
-31530
30
0.0
11
-4210
21
-31530
31
0.0
0
LINE
8
CVB_03_COC_BE_TONG
10
-4590
20
-31310
30
0.0
11
-4210
21
-31310
31
0.0
0
LINE
8
CVB_03_COC_BE_TONG
10
-4590
20
-31090
30
0.0
11
-4210
21
-31090
31
0.0
0
LINE
8
CVB_03_COC_BE_TONG
10
-4590
20
-30870
30
0.0
11
-4210
21
-30870
31
0.0
0
LINE
8
CVB_03_COC_BE_TONG
10
-4590
20
-30650
30
0.0
11
-4210
21
-30650
31
0.0
0
LINE
8
CVB_03_COC_BE_TONG
10
-4590
20
-30430
30
0.0
11
-4210
21
-30430
31
0.0
0
TEXT
8
CVB_08_GHI_CHU
10
-6850
20
-32800
30
0.0
40
162
1
\U+0110\U+1ED5 trong v\U+00F2ng 4 gi\U+1EDD sau khi khoan xong.
7
VN
0
TEXT
8
CVB_08_GHI_CHU
10
-6850
20
-33140
30
0.0
40
162
1
L\U+1ED7 c\U+00F3 n\U+01B0\U+1EDBc: \U+1ED1ng \U+0111\U+1ED5 (tremie) D114\U+2013140, mi\U+1EC7ng \U+1ED1ng ng\U+1EADp \U+2265 1,5 m.
7
VN
0
TEXT
8
CVB_08_GHI_CHU
10
-6850
20
-33480
30
0.0
40
162
1
L\U+1ED7 kh\U+00F4: \U+1ED1ng \U+0111\U+1ED5 / m\U+00E1ng v\U+00F2i, r\U+01A1i t\U+1EF1 do \U+2264 1,5 m. \U+0110\U+1ED5 li\U+00EAn t\U+1EE5c.
7
VN
0
LINE
8
CVB_00_KHUNG
10
0
20
-34000
30
0.0
11
6700
21
-34000
31
0.0
0
LINE
8
CVB_00_KHUNG
10
6700
20
-34000
30
0.0
11
6700
21
-26900
31
0.0
0
LINE
8
CVB_00_KHUNG
10
6700
20
-26900
30
0.0
11
0
21
-26900
31
0.0
0
LINE
8
CVB_00_KHUNG
10
0
20
-26900
30
0.0
11
0
21
-34000
31
0.0
0
TEXT
8
CVB_09_BUOC_THI_CONG
10
150
20
-27250
30
0.0
40
207
1
6. R\U+00DAT \U+1ED0NG V\U+00C1CH, \U+0110\U+1EA6U C\U+1ECCC
7
VN
0
LINE
8
CVB_01_DIA_HINH
10
300
20
-27795
30
0.0
11
1700
21
-28285
31
0.0
0
LINE
8
CVB_01_DIA_HINH
10
1700
20
-28600
30
0.0
11
3500
21
-28600
31
0.0
0
LINE
8
CVB_01_DIA_HINH
10
3500
20
-28600
30
0.0
11
6400
21
-29615
31
0.0
0
LINE
8
CVB_01_DIA_HINH
10
1700
20
-28285
30
0.0
11
1700
21
-28600
31
0.0
0
LINE
8
CVB_03_COC_BE_TONG
10
2390
20
-28600
30
0.0
11
2390
21
-31900
31
0.0
0
LINE
8
CVB_03_COC_BE_TONG
10
2810
20
-28600
30
0.0
11
2810
21
-31900
31
0.0
0
LINE
8
CVB_03_COC_BE_TONG
10
2390
20
-31900
30
0.0
11
2810
21
-31900
31
0.0
0
LINE
8
CVB_04_COT_THEP
10
2460
20
-28660
30
0.0
11
2460
21
-31780
31
0.0
0
LINE
8
CVB_04_COT_THEP
10
2740
20
-28660
30
0.0
11
2740
21
-31780
31
0.0
0
LINE
8
CVB_04_COT_THEP
10
2460
20
-28800
30
0.0
11
2740
21
-28950
31
0.0
0
LINE
8
CVB_04_COT_THEP
10
2460
20
-29100
30
0.0
11
2740
21
-29250
31
0.0
0
LINE
8
CVB_04_COT_THEP
10
2460
20
-29400
30
0.0
11
2740
21
-29550
31
0.0
0
LINE
8
CVB_04_COT_THEP
10
2460
20
-29700
30
0.0
11
2740
21
-29850
31
0.0
0
LINE
8
CVB_04_COT_THEP
10
2460
20
-30000
30
0.0
11
2740
21
-30150
31
0.0
0
LINE
8
CVB_04_COT_THEP
10
2460
20
-30300
30
0.0
11
2740
21
-30450
31
0.0
0
LINE
8
CVB_04_COT_THEP
10
2460
20
-30600
30
0.0
11
2740
21
-30750
31
0.0
0
LINE
8
CVB_04_COT_THEP
10
2460
20
-30900
30
0.0
11
2740
21
-31050
31
0.0
0
LINE
8
CVB_04_COT_THEP
10
2460
20
-31200
30
0.0
11
2740
21
-31350
31
0.0
0
LINE
8
CVB_04_COT_THEP
10
2460
20
-31500
30
0.0
11
2740
21
-31650
31
0.0
0
LINE
8
CVB_03_COC_BE_TONG
10
2410
20
-31750
30
0.0
11
2790
21
-31750
31
0.0
0
LINE
8
CVB_03_COC_BE_TONG
10
2410
20
-31530
30
0.0
11
2790
21
-31530
31
0.0
0
LINE
8
CVB_03_COC_BE_TONG
10
2410
20
-31310
30
0.0
11
2790
21
-31310
31
0.0
0
LINE
8
CVB_03_COC_BE_TONG
10
2410
20
-31090
30
0.0
11
2790
21
-31090
31
0.0
0
LINE
8
CVB_03_COC_BE_TONG
10
2410
20
-30870
30
0.0
11
2790
21
-30870
31
0.0
0
LINE
8
CVB_03_COC_BE_TONG
10
2410
20
-30650
30
0.0
11
2790
21
-30650
31
0.0
0
LINE
8
CVB_03_COC_BE_TONG
10
2410
20
-30430
30
0.0
11
2790
21
-30430
31
0.0
0
LINE
8
CVB_03_COC_BE_TONG
10
2410
20
-30210
30
0.0
11
2790
21
-30210
31
0.0
0
LINE
8
CVB_03_COC_BE_TONG
10
2410
20
-29990
30
0.0
11
2790
21
-29990
31
0.0
0
LINE
8
CVB_03_COC_BE_TONG
10
2410
20
-29770
30
0.0
11
2790
21
-29770
31
0.0
0
LINE
8
CVB_03_COC_BE_TONG
10
2410
20
-29550
30
0.0
11
2790
21
-29550
31
0.0
0
LINE
8
CVB_03_COC_BE_TONG
10
2410
20
-29330
30
0.0
11
2790
21
-29330
31
0.0
0
LINE
8
CVB_03_COC_BE_TONG
10
2410
20
-29110
30
0.0
11
2790
21
-29110
31
0.0
0
LINE
8
CVB_03_COC_BE_TONG
10
2410
20
-28890
30
0.0
11
2790
21
-28890
31
0.0
0
LINE
8
CVB_03_COC_BE_TONG
10
2410
20
-28670
30
0.0
11
2790
21
-28670
31
0.0
0
TEXT
8
CVB_08_GHI_CHU
10
150
20
-32800
30
0.0
40
162
1
R\U+00FAt \U+1ED1ng v\U+00E1ch khi b\U+00EA t\U+00F4ng c\U+00F2n d\U+1EBBo, b\U+00F9 b\U+00EA t\U+00F4ng \U+0111\U+1EC9nh c\U+1ECDc.
7
VN
0
TEXT
8
CVB_08_GHI_CHU
10
150
20
-33140
30
0.0
40
162
1
\U+0110\U+1ED5 cao h\U+01A1n cao \U+0111\U+1ED9 thi\U+1EBFt k\U+1EBF, lo\U+1EA1i b\U+1ECF l\U+1EDBp b\U+00EA t\U+00F4ng x\U+1EA5u.
7
VN
0
TEXT
8
CVB_08_GHI_CHU
10
150
20
-33480
30
0.0
40
162
1
B\U+1EA3o d\U+01B0\U+1EE1ng \U+1EA9m \U+2265 7 ng\U+00E0y.
7
VN
0
LINE
8
CVB_00_KHUNG
10
7000
20
-34000
30
0.0
11
13700
21
-34000
31
0.0
0
LINE
8
CVB_00_KHUNG
10
13700
20
-34000
30
0.0
11
13700
21
-26900
31
0.0
0
LINE
8
CVB_00_KHUNG
10
13700
20
-26900
30
0.0
11
7000
21
-26900
31
0.0
0
LINE
8
CVB_00_KHUNG
10
7000
20
-26900
30
0.0
11
7000
21
-34000
31
0.0
0
TEXT
8
CVB_09_BUOC_THI_CONG
10
7150
20
-27250
30
0.0
40
207
1
7. M\U+0168 C\U+1ECCC, B\U+1EA2N M\U+00C3, TAI NEO
7
VN
0
LINE
8
CVB_01_DIA_HINH
10
7300
20
-27795
30
0.0
11
8700
21
-28285
31
0.0
0
LINE
8
CVB_01_DIA_HINH
10
8700
20
-28600
30
0.0
11
10500
21
-28600
31
0.0
0
LINE
8
CVB_01_DIA_HINH
10
10500
20
-28600
30
0.0
11
13400
21
-29615
31
0.0
0
LINE
8
CVB_01_DIA_HINH
10
8700
20
-28285
30
0.0
11
8700
21
-28600
31
0.0
0
LINE
8
CVB_03_COC_BE_TONG
10
9390
20
-28600
30
0.0
11
9390
21
-31900
31
0.0
0
LINE
8
CVB_03_COC_BE_TONG
10
9810
20
-28600
30
0.0
11
9810
21
-31900
31
0.0
0
LINE
8
CVB_03_COC_BE_TONG
10
9390
20
-31900
30
0.0
11
9810
21
-31900
31
0.0
0
LINE
8
CVB_04_COT_THEP
10
9460
20
-28660
30
0.0
11
9460
21
-31780
31
0.0
0
LINE
8
CVB_04_COT_THEP
10
9740
20
-28660
30
0.0
11
9740
21
-31780
31
0.0
0
LINE
8
CVB_04_COT_THEP
10
9460
20
-28800
30
0.0
11
9740
21
-28950
31
0.0
0
LINE
8
CVB_04_COT_THEP
10
9460
20
-29100
30
0.0
11
9740
21
-29250
31
0.0
0
LINE
8
CVB_04_COT_THEP
10
9460
20
-29400
30
0.0
11
9740
21
-29550
31
0.0
0
LINE
8
CVB_04_COT_THEP
10
9460
20
-29700
30
0.0
11
9740
21
-29850
31
0.0
0
LINE
8
CVB_04_COT_THEP
10
9460
20
-30000
30
0.0
11
9740
21
-30150
31
0.0
0
LINE
8
CVB_04_COT_THEP
10
9460
20
-30300
30
0.0
11
9740
21
-30450
31
0.0
0
LINE
8
CVB_04_COT_THEP
10
9460
20
-30600
30
0.0
11
9740
21
-30750
31
0.0
0
LINE
8
CVB_04_COT_THEP
10
9460
20
-30900
30
0.0
11
9740
21
-31050
31
0.0
0
LINE
8
CVB_04_COT_THEP
10
9460
20
-31200
30
0.0
11
9740
21
-31350
31
0.0
0
LINE
8
CVB_04_COT_THEP
10
9460
20
-31500
30
0.0
11
9740
21
-31650
31
0.0
0
LINE
8
CVB_03_COC_BE_TONG
10
9410
20
-31750
30
0.0
11
9790
21
-31750
31
0.0
0
LINE
8
CVB_03_COC_BE_TONG
10
9410
20
-31530
30
0.0
11
9790
21
-31530
31
0.0
0
LINE
8
CVB_03_COC_BE_TONG
10
9410
20
-31310
30
0.0
11
9790
21
-31310
31
0.0
0
LINE
8
CVB_03_COC_BE_TONG
10
9410
20
-31090
30
0.0
11
9790
21
-31090
31
0.0
0
LINE
8
CVB_03_COC_BE_TONG
10
9410
20
-30870
30
0.0
11
9790
21
-30870
31
0.0
0
LINE
8
CVB_03_COC_BE_TONG
10
9410
20
-30650
30
0.0
11
9790
21
-30650
31
0.0
0
LINE
8
CVB_03_COC_BE_TONG
10
9410
20
-30430
30
0.0
11
9790
21
-30430
31
0.0
0
LINE
8
CVB_03_COC_BE_TONG
10
9410
20
-30210
30
0.0
11
9790
21
-30210
31
0.0
0
LINE
8
CVB_03_COC_BE_TONG
10
9410
20
-29990
30
0.0
11
9790
21
-29990
31
0.0
0
LINE
8
CVB_03_COC_BE_TONG
10
9410
20
-29770
30
0.0
11
9790
21
-29770
31
0.0
0
LINE
8
CVB_03_COC_BE_TONG
10
9410
20
-29550
30
0.0
11
9790
21
-29550
31
0.0
0
LINE
8
CVB_03_COC_BE_TONG
10
9410
20
-29330
30
0.0
11
9790
21
-29330
31
0.0
0
LINE
8
CVB_03_COC_BE_TONG
10
9410
20
-29110
30
0.0
11
9790
21
-29110
31
0.0
0
LINE
8
CVB_03_COC_BE_TONG
10
9410
20
-28890
30
0.0
11
9790
21
-28890
31
0.0
0
LINE
8
CVB_03_COC_BE_TONG
10
9410
20
-28670
30
0.0
11
9790
21
-28670
31
0.0
0
LINE
8
CVB_03_COC_BE_TONG
10
9340
20
-28930
30
0.0
11
9860
21
-28930
31
0.0
0
LINE
8
CVB_03_COC_BE_TONG
10
9860
20
-28930
30
0.0
11
9860
21
-28570
31
0.0
0
LINE
8
CVB_03_COC_BE_TONG
10
9860
20
-28570
30
0.0
11
9340
21
-28570
31
0.0
0
LINE
8
CVB_03_COC_BE_TONG
10
9340
20
-28570
30
0.0
11
9340
21
-28930
31
0.0
0
LINE
8
CVB_05_BAN_MA_TAI_NEO
10
9340
20
-28570
30
0.0
11
9860
21
-28570
31
0.0
0
LINE
8
CVB_05_BAN_MA_TAI_NEO
10
9860
20
-28570
30
0.0
11
9860
21
-28530
31
0.0
0
LINE
8
CVB_05_BAN_MA_TAI_NEO
10
9860
20
-28530
30
0.0
11
9340
21
-28530
31
0.0
0
LINE
8
CVB_05_BAN_MA_TAI_NEO
10
9340
20
-28530
30
0.0
11
9340
21
-28570
31
0.0
0
LINE
8
CVB_05_BAN_MA_TAI_NEO
10
9470
20
-28530
30
0.0
11
9730
21
-28530
31
0.0
0
LINE
8
CVB_05_BAN_MA_TAI_NEO
10
9730
20
-28530
30
0.0
11
9730
21
-28340
31
0.0
0
LINE
8
CVB_05_BAN_MA_TAI_NEO
10
9730
20
-28340
30
0.0
11
9470
21
-28340
31
0.0
0
LINE
8
CVB_05_BAN_MA_TAI_NEO
10
9470
20
-28340
30
0.0
11
9470
21
-28530
31
0.0
0
TEXT
8
CVB_08_GHI_CHU
10
7150
20
-32800
30
0.0
40
162
1
\U+0110\U+1EB7t c\U+1EE5m b\U+1EA3n m\U+00E3 + 4\U+03A622 b\U+1EB1ng d\U+01B0\U+1EE1ng g\U+00E1, tai neo \U+0111\U+00FAng ph\U+01B0\U+01A1ng c\U+00E1p.
7
VN
0
TEXT
8
CVB_08_GHI_CHU
10
7150
20
-33140
30
0.0
40
162
1
\U+0110\U+1ED5 m\U+0169 c\U+1ECDc 400\U+00D7400\U+00D7300 li\U+1EC1n kh\U+1ED1i v\U+1EDBi \U+0111\U+1EA7u c\U+1ECDc.
7
VN
0
TEXT
8
CVB_08_GHI_CHU
10
7150
20
-33480
30
0.0
40
162
1
Ki\U+1EC3m tra: tim l\U+1ED7 ch\U+1ED1t c\U+00E1ch m\U+1EB7t \U+0111\U+1EA5t \U+2264 100 mm.
7
VN
0
LINE
8
CVB_00_KHUNG
10
14000
20
-34000
30
0.0
11
20700
21
-34000
31
0.0
0
LINE
8
CVB_00_KHUNG
10
20700
20
-34000
30
0.0
11
20700
21
-26900
31
0.0
0
LINE
8
CVB_00_KHUNG
10
20700
20
-26900
30
0.0
11
14000
21
-26900
31
0.0
0
LINE
8
CVB_00_KHUNG
10
14000
20
-26900
30
0.0
11
14000
21
-34000
31
0.0
0
TEXT
8
CVB_09_BUOC_THI_CONG
10
14150
20
-27250
30
0.0
40
207
1
8. HO\U+00C0N TR\U+1EA2, L\U+1EAEP C\U+00C1P
7
VN
0
LINE
8
CVB_01_DIA_HINH
10
14300
20
-27795
30
0.0
11
15700
21
-28285
31
0.0
0
LINE
8
CVB_01_DIA_HINH
10
15700
20
-28600
30
0.0
11
17500
21
-28600
31
0.0
0
LINE
8
CVB_01_DIA_HINH
10
17500
20
-28600
30
0.0
11
20400
21
-29615
31
0.0
0
LINE
8
CVB_01_DIA_HINH
10
15700
20
-28285
30
0.0
11
15700
21
-28600
31
0.0
0
LINE
8
CVB_03_COC_BE_TONG
10
16390
20
-28600
30
0.0
11
16390
21
-31900
31
0.0
0
LINE
8
CVB_03_COC_BE_TONG
10
16810
20
-28600
30
0.0
11
16810
21
-31900
31
0.0
0
LINE
8
CVB_03_COC_BE_TONG
10
16390
20
-31900
30
0.0
11
16810
21
-31900
31
0.0
0
LINE
8
CVB_04_COT_THEP
10
16460
20
-28660
30
0.0
11
16460
21
-31780
31
0.0
0
LINE
8
CVB_04_COT_THEP
10
16740
20
-28660
30
0.0
11
16740
21
-31780
31
0.0
0
LINE
8
CVB_04_COT_THEP
10
16460
20
-28800
30
0.0
11
16740
21
-28950
31
0.0
0
LINE
8
CVB_04_COT_THEP
10
16460
20
-29100
30
0.0
11
16740
21
-29250
31
0.0
0
LINE
8
CVB_04_COT_THEP
10
16460
20
-29400
30
0.0
11
16740
21
-29550
31
0.0
0
LINE
8
CVB_04_COT_THEP
10
16460
20
-29700
30
0.0
11
16740
21
-29850
31
0.0
0
LINE
8
CVB_04_COT_THEP
10
16460
20
-30000
30
0.0
11
16740
21
-30150
31
0.0
0
LINE
8
CVB_04_COT_THEP
10
16460
20
-30300
30
0.0
11
16740
21
-30450
31
0.0
0
LINE
8
CVB_04_COT_THEP
10
16460
20
-30600
30
0.0
11
16740
21
-30750
31
0.0
0
LINE
8
CVB_04_COT_THEP
10
16460
20
-30900
30
0.0
11
16740
21
-31050
31
0.0
0
LINE
8
CVB_04_COT_THEP
10
16460
20
-31200
30
0.0
11
16740
21
-31350
31
0.0
0
LINE
8
CVB_04_COT_THEP
10
16460
20
-31500
30
0.0
11
16740
21
-31650
31
0.0
0
LINE
8
CVB_03_COC_BE_TONG
10
16410
20
-31750
30
0.0
11
16790
21
-31750
31
0.0
0
LINE
8
CVB_03_COC_BE_TONG
10
16410
20
-31530
30
0.0
11
16790
21
-31530
31
0.0
0
LINE
8
CVB_03_COC_BE_TONG
10
16410
20
-31310
30
0.0
11
16790
21
-31310
31
0.0
0
LINE
8
CVB_03_COC_BE_TONG
10
16410
20
-31090
30
0.0
11
16790
21
-31090
31
0.0
0
LINE
8
CVB_03_COC_BE_TONG
10
16410
20
-30870
30
0.0
11
16790
21
-30870
31
0.0
0
LINE
8
CVB_03_COC_BE_TONG
10
16410
20
-30650
30
0.0
11
16790
21
-30650
31
0.0
0
LINE
8
CVB_03_COC_BE_TONG
10
16410
20
-30430
30
0.0
11
16790
21
-30430
31
0.0
0
LINE
8
CVB_03_COC_BE_TONG
10
16410
20
-30210
30
0.0
11
16790
21
-30210
31
0.0
0
LINE
8
CVB_03_COC_BE_TONG
10
16410
20
-29990
30
0.0
11
16790
21
-29990
31
0.0
0
LINE
8
CVB_03_COC_BE_TONG
10
16410
20
-29770
30
0.0
11
16790
21
-29770
31
0.0
0
LINE
8
CVB_03_COC_BE_TONG
10
16410
20
-29550
30
0.0
11
16790
21
-29550
31
0.0
0
LINE
8
CVB_03_COC_BE_TONG
10
16410
20
-29330
30
0.0
11
16790
21
-29330
31
0.0
0
LINE
8
CVB_03_COC_BE_TONG
10
16410
20
-29110
30
0.0
11
16790
21
-29110
31
0.0
0
LINE
8
CVB_03_COC_BE_TONG
10
16410
20
-28890
30
0.0
11
16790
21
-28890
31
0.0
0
LINE
8
CVB_03_COC_BE_TONG
10
16410
20
-28670
30
0.0
11
16790
21
-28670
31
0.0
0
LINE
8
CVB_03_COC_BE_TONG
10
16340
20
-28930
30
0.0
11
16860
21
-28930
31
0.0
0
LINE
8
CVB_03_COC_BE_TONG
10
16860
20
-28930
30
0.0
11
16860
21
-28570
31
0.0
0
LINE
8
CVB_03_COC_BE_TONG
10
16860
20
-28570
30
0.0
11
16340
21
-28570
31
0.0
0
LINE
8
CVB_03_COC_BE_TONG
10
16340
20
-28570
30
0.0
11
16340
21
-28930
31
0.0
0
LINE
8
CVB_05_BAN_MA_TAI_NEO
10
16340
20
-28570
30
0.0
11
16860
21
-28570
31
0.0
0
LINE
8
CVB_05_BAN_MA_TAI_NEO
10
16860
20
-28570
30
0.0
11
16860
21
-28530
31
0.0
0
LINE
8
CVB_05_BAN_MA_TAI_NEO
10
16860
20
-28530
30
0.0
11
16340
21
-28530
31
0.0
0
LINE
8
CVB_05_BAN_MA_TAI_NEO
10
16340
20
-28530
30
0.0
11
16340
21
-28570
31
0.0
0
LINE
8
CVB_05_BAN_MA_TAI_NEO
10
16470
20
-28530
30
0.0
11
16730
21
-28530
31
0.0
0
LINE
8
CVB_05_BAN_MA_TAI_NEO
10
16730
20
-28530
30
0.0
11
16730
21
-28340
31
0.0
0
LINE
8
CVB_05_BAN_MA_TAI_NEO
10
16730
20
-28340
30
0.0
11
16470
21
-28340
31
0.0
0
LINE
8
CVB_05_BAN_MA_TAI_NEO
10
16470
20
-28340
30
0.0
11
16470
21
-28530
31
0.0
0
LINE
8
CVB_06_CAP_BE
10
16660
20
-28440
30
0.0
11
20300
21
-29500
31
0.0
0
TEXT
8
CVB_06_CAP_BE
10
17900
20
-28850
30
0.0
40
180
1
C\U+00E1p v\U+1EC1 b\U+00E8
7
VN
0
TEXT
8
CVB_08_GHI_CHU
10
14150
20
-32800
30
0.0
40
162
1
L\U+1EAFp ma-n\U+00ED v\U+00E0 c\U+00E1p khi b\U+00EA t\U+00F4ng \U+0111\U+1EA1t \U+2265 90% c\U+01B0\U+1EDDng \U+0111\U+1ED9 (ho\U+1EB7c 28 ng\U+00E0y).
7
VN
0
TEXT
8
CVB_08_GHI_CHU
10
14150
20
-33140
30
0.0
40
162
1
Ho\U+00E0n tr\U+1EA3 \U+0111\U+1EA5t, \U+0111\U+1EA7m ch\U+1EB7t quanh c\U+1ECDc, gia c\U+1ED1 / tr\U+1ED3ng c\U+1ECF taluy.
7
VN
0
TEXT
8
CVB_08_GHI_CHU
10
14150
20
-33480
30
0.0
40
162
1
Th\U+1EED k\U+00E9o ngang c\U+1ECDc th\U+1EED theo \U+0111\U+1EC1 c\U+01B0\U+01A1ng \U+0111\U+01B0\U+1EE3c duy\U+1EC7t.
7
VN
0
TEXT
8
CVB_08_GHI_CHU
10
80000
20
5100
30
0.0
40
288
1
G. THUY\U+1EBET MINH V\U+00C0 GHI CH\U+00DA BI\U+1EC6N PH\U+00C1P THI C\U+00D4NG
7
VN
0
LINE
8
CVB_08_GHI_CHU
10
80000
20
4990
30
0.0
11
87603.2
21
4990
31
0.0
0
TEXT
8
CVB_08_GHI_CHU
10
80000
20
4000
30
0.0
40
216
1
1. PH\U+1EA0M VI V\U+00C0 S\U+1ED0 LI\U+1EC6U THI\U+1EBET K\U+1EBE
7
VN
0
TEXT
8
CVB_08_GHI_CHU
10
80150
20
3580
30
0.0
40
180
1
\U+2013 C\U+1ECDc khoan nh\U+1ED3i tr\U+00F2n D350 \U+0111\U+1ED5 t\U+1EA1i ch\U+1ED7, 231 c\U+1ECDc t\U+1EA1i 231 \U+0111i\U+1EC3m neo ven b\U+1EDD, t\U+1ED5ng chi\U+1EC1u d\U+00E0i 1524,6 m, b\U+00EA t\U+00F4ng 146,7 m\U+00B3, th\U+00E9p kho\U+1EA3ng 38,3 t\U+1EA5n.
7
VN
0
TEXT
8
CVB_08_GHI_CHU
10
80150
20
3250
30
0.0
40
180
1
\U+2013 T\U+1EA3i tr\U+1ECDng: gi\U+00F3 t\U+00EDnh to\U+00E1n V = 20 m/s, gi\U+00E0n pin nghi\U+00EAng 12\U+00B0. L\U+1EF1c c\U+0103ng d\U+00E2y v\U+00E0 s\U+1ED1 th\U+00E9p t\U+1EEBng b\U+00E8 theo b\U+1EA3ng E. H\U+1EC7 s\U+1ED1 t\U+1EA3i tr\U+1ECDng u\U+1ED1n c\U+1ECDc \U+03B3 = 1,2.
7
VN
0
TEXT
8
CVB_08_GHI_CHU
10
80150
20
2920
30
0.0
40
180
1
\U+2013 CH\U+00DA \U+00DD: Gi\U+00F3 t\U+00EDnh to\U+00E1n V = 20 m/s l\U+00E0 c\U+1EA5p gi\U+00F3 v\U+1EADn h\U+00E0nh, TH\U+1EA4P H\U+01A0N gi\U+00F3 ti\U+00EAu chu\U+1EA9n TCVN 2737:2023 v\U+00F9ng II-B (V \U+2248 29,7 m/s, q0 = 0,54 kN/m\U+00B2): \U+00E1p l\U+1EF1c gi\U+00F3
7
VN
0
TEXT
8
CVB_08_GHI_CHU
10
80150
20
2590
30
0.0
40
180
1
   ch\U+1EC9 b\U+1EB1ng 45% m\U+1EE9c ti\U+00EAu chu\U+1EA9n. C\U+00E1p, c\U+1ECDc v\U+00E0 \U+0111\U+1EBF neo \U+0111\U+1ECBnh c\U+1EE1 \U+1EDF c\U+1EA5p gi\U+00F3 n\U+00E0y CH\U+01AFA \U+0111\U+01B0\U+1EE3c ki\U+1EC3m tra v\U+1EDBi b\U+00E3o thi\U+1EBFt k\U+1EBF; nh\U+1EADp V = 30 m/s \U+1EDF Tab 2 \U+0111\U+1EC3 ki\U+1EC3m tra.
7
VN
0
TEXT
8
CVB_08_GHI_CHU
10
80150
20
2260
30
0.0
40
180
1
\U+2013 S\U+1EE9c ch\U+1ECBu t\U+1EA3i ngang theo Broms v\U+1EDBi \U+0111\U+1EA5t s\U+00E9t d\U+1EBBo c\U+1EE9ng \U+03C6 = 28\U+00B0, c = 12 kPa, \U+03B3 = 18 kN/m\U+00B3: GI\U+1EA2 \U+0110\U+1ECANH, ch\U+01B0a c\U+00F3 khoan kh\U+1EA3o s\U+00E1t \U+0111\U+1ECBa ch\U+1EA5t t\U+1EA1i v\U+1ECB tr\U+00ED c\U+1ECDc.
7
VN
0
TEXT
8
CVB_08_GHI_CHU
10
80150
20
1930
30
0.0
40
180
1
\U+2013 U\U+1ED1n c\U+1ECDc theo TCVN 5574:2018 v\U+1EDBi l\U+1ED3ng th\U+00E9p \U+1EDF h\U+01B0\U+1EDBng b\U+1EA5t l\U+1EE3i nh\U+1EA5t (l\U+1ED3ng kh\U+00F4ng \U+0111\U+1ECBnh h\U+01B0\U+1EDBng khi th\U+1EA3 v\U+00E0o l\U+1ED7).
7
VN
0
TEXT
8
CVB_08_GHI_CHU
10
80000
20
1400
30
0.0
40
216
1
2. V\U+1EACT LI\U+1EC6U
7
VN
0
TEXT
8
CVB_08_GHI_CHU
10
80150
20
980
30
0.0
40
180
1
\U+2013 B\U+00EA t\U+00F4ng c\U+1ECDc v\U+00E0 m\U+0169 c\U+1ECDc: B25 (M350), \U+0111\U+00E1 1\U+00D72 (D_max 20 mm), \U+0111\U+1ED9 s\U+1EE5t 16\U+201318 cm khi \U+0111\U+1ED5 qua \U+1ED1ng, 10\U+201314 cm khi l\U+1ED7 kh\U+00F4 \U+0111\U+1ED5 tr\U+1EF1c ti\U+1EBFp. L\U+1EA5y m\U+1EABu th\U+1EED n\U+00E9n m\U+1ED7i \U+0111\U+1EE3t
7
VN
0
TEXT
8
CVB_08_GHI_CHU
10
80150
20
650
30
0.0
40
180
1
   \U+0111\U+1ED5.
7
VN
0
TEXT
8
CVB_08_GHI_CHU
10
80150
20
320
30
0.0
40
180
1
\U+2013 Th\U+00E9p ch\U+1EE7: CB400-V, theo TCVN 1651-2:2018. Th\U+00E9p \U+0111ai xo\U+1EAFn \U+03A68 CB240-T. Kh\U+00F4ng h\U+00E0n n\U+1ED1i th\U+00E9p ch\U+1EE7 t\U+1EA1i c\U+00F4ng tr\U+01B0\U+1EDDng.
7
VN
0
TEXT
8
CVB_08_GHI_CHU
10
80150
20
-10
30
0.0
40
180
1
\U+2013 B\U+1EA3n m\U+00E3, tai neo: th\U+00E9p t\U+1EA5m SS400 / CT38; que h\U+00E0n E42. Ma-n\U+00ED m\U+00F3ng ng\U+1EF1a WLL 9,5 T c\U+00F3 ch\U+1ED1t an to\U+00E0n, m\U+1EA1 k\U+1EBDm nh\U+00FAng n\U+00F3ng.
7
VN
0
TEXT
8
CVB_08_GHI_CHU
10
80150
20
-340
30
0.0
40
180
1
\U+2013 B\U+1EA3n m\U+00E3, tai neo v\U+00E0 \U+0111\U+01B0\U+1EDDng h\U+00E0n: m\U+1EA1 k\U+1EBDm nh\U+00FAng n\U+00F3ng ho\U+1EB7c s\U+01A1n epoxy 2 l\U+1EDBp (l\U+00E0m vi\U+1EC7c trong v\U+00F9ng m\U+1EF1c n\U+01B0\U+1EDBc dao \U+0111\U+1ED9ng).
7
VN
0
TEXT
8
CVB_08_GHI_CHU
10
80000
20
-870
30
0.0
40
216
1
3. Y\U+00CAU C\U+1EA6U B\U+1EAET BU\U+1ED8C C\U+1EE6A THI\U+1EBET K\U+1EBE
7
VN
0
TEXT
8
CVB_08_GHI_CHU
10
80150
20
-1290
30
0.0
40
180
1
\U+2013 Tim ch\U+1ED1t c\U+00E1p c\U+00E1ch m\U+1EB7t \U+0111\U+1EA5t ho\U+00E0n thi\U+1EC7n \U+2264 100 mm. M\U+00F3c c\U+00E1p cao h\U+01A1n th\U+00EC m\U+00F4men u\U+1ED1n c\U+1ECDc t\U+0103ng v\U+00E0 s\U+1ED1 th\U+00E9p trong b\U+1EA3ng E KH\U+00D4NG c\U+00F2n \U+0111\U+1EE7.
7
VN
0
TEXT
8
CVB_08_GHI_CHU
10
80150
20
-1620
30
0.0
40
180
1
\U+2013 Kh\U+00F4ng \U+0111\U+00E0o h\U+1EA1 th\U+1EA5p m\U+1EB7t \U+0111\U+1EA5t quanh c\U+1ECDc sau khi thi c\U+00F4ng. N\U+1EBFu taluy b\U+1ECB x\U+00F3i l\U+1EDF l\U+00E0m l\U+1ED9 th\U+00E2n c\U+1ECDc: d\U+1EEBng khai th\U+00E1c \U+0111i\U+1EC3m neo \U+0111\U+00F3 v\U+00E0 b\U+00E1o thi\U+1EBFt k\U+1EBF.
7
VN
0
TEXT
8
CVB_08_GHI_CHU
10
80150
20
-1950
30
0.0
40
180
1
\U+2013 Tai neo \U+0111\U+1EB7t \U+0111\U+00FAng ph\U+01B0\U+01A1ng c\U+00E1p (g\U+00F3c ph\U+01B0\U+01A1ng v\U+1ECB trong b\U+1EA3ng t\U+1ECDa \U+0111\U+1ED9), sai l\U+1EC7ch \U+2264 5\U+00B0.
7
VN
0
TEXT
8
CVB_08_GHI_CHU
10
80150
20
-2280
30
0.0
40
180
1
\U+2013 Th\U+00E9p ch\U+1EE7 \U+0111\U+00FAng s\U+1ED1 thanh, \U+0111\U+01B0\U+1EDDng k\U+00EDnh, m\U+00E1c th\U+00E9p theo b\U+1EA3ng E cho T\U+1EEANG B\U+00C8; kh\U+00F4ng d\U+00F9ng chung m\U+1ED9t lo\U+1EA1i l\U+1ED3ng cho m\U+1ECDi b\U+00E8.
7
VN
0
TEXT
8
CVB_08_GHI_CHU
10
80000
20
-2810
30
0.0
40
216
1
4. SAI S\U+1ED0 CHO PH\U+00C9P (\U+0111\U+1EC1 xu\U+1EA5t theo TCVN 9395:2012 \U+2014 k\U+1EF9 s\U+01B0 thi\U+1EBFt k\U+1EBF x\U+00E1c nh\U+1EADn)
7
VN
0
TEXT
8
CVB_08_GHI_CHU
10
80150
20
-3230
30
0.0
40
180
1
\U+2013 V\U+1ECB tr\U+00ED tim c\U+1ECDc tr\U+00EAn m\U+1EB7t b\U+1EB1ng: \U+2264 75 mm. \U+0110\U+1ED9 nghi\U+00EAng: \U+2264 1%. \U+0110\U+01B0\U+1EDDng k\U+00EDnh l\U+1ED7: kh\U+00F4ng nh\U+1ECF h\U+01A1n thi\U+1EBFt k\U+1EBF. Chi\U+1EC1u s\U+00E2u l\U+1ED7: kh\U+00F4ng nh\U+1ECF h\U+01A1n L_tk.
7
VN
0
TEXT
8
CVB_08_GHI_CHU
10
80150
20
-3560
30
0.0
40
180
1
\U+2013 L\U+1ED3ng th\U+00E9p: kho\U+1EA3ng c\U+00E1ch th\U+00E9p ch\U+1EE7 \U+00B110 mm; b\U+01B0\U+1EDBc \U+0111ai \U+00B120 mm; \U+0111\U+01B0\U+1EDDng k\U+00EDnh l\U+1ED3ng \U+00B110 mm; chi\U+1EC1u d\U+00E0i \U+00B150 mm. Cao \U+0111\U+1ED9 \U+0111\U+1EC9nh c\U+1ECDc: \U+00B130 mm.
7
VN
0
TEXT
8
CVB_08_GHI_CHU
10
80000
20
-4090
30
0.0
40
216
1
5. NGHI\U+1EC6M THU V\U+00C0 TH\U+1EEC T\U+1EA2I
7
VN
0
TEXT
8
CVB_08_GHI_CHU
10
80150
20
-4510
30
0.0
40
180
1
\U+2013 Nghi\U+1EC7m thu t\U+1EEBng c\U+1ECDc: t\U+1ECDa \U+0111\U+1ED9, chi\U+1EC1u s\U+00E2u, \U+0111\U+1ED9 s\U+1EA1ch \U+0111\U+00E1y l\U+1ED7, l\U+1ED3ng th\U+00E9p, kh\U+1ED1i l\U+01B0\U+1EE3ng b\U+00EA t\U+00F4ng th\U+1EF1c t\U+1EBF so v\U+1EDBi l\U+00FD thuy\U+1EBFt (hao h\U+1EE5t b\U+1EA5t th\U+01B0\U+1EDDng = s\U+1EA1t th\U+00E0nh).
7
VN
0
TEXT
8
CVB_08_GHI_CHU
10
80150
20
-4840
30
0.0
40
180
1
\U+2013 Th\U+1EED k\U+00E9o ngang \U+00EDt nh\U+1EA5t 2 c\U+1ECDc th\U+1EED (ho\U+1EB7c 1% s\U+1ED1 c\U+1ECDc) \U+0111\U+1EBFn 1,5 l\U+1EA7n l\U+1EF1c k\U+00E9o thi\U+1EBFt k\U+1EBF tr\U+01B0\U+1EDBc khi thi c\U+00F4ng \U+0111\U+1EA1i tr\U+00E0, \U+0111\U+1EC3 ki\U+1EC3m ch\U+1EE9ng th\U+00F4ng s\U+1ED1 \U+0111\U+1EA5t gi\U+1EA3 \U+0111\U+1ECBnh.
7
VN
0
TEXT
8
CVB_08_GHI_CHU
10
80150
20
-5170
30
0.0
40
180
1
\U+2013 Ghi nh\U+1EADt k\U+00FD khoan: lo\U+1EA1i \U+0111\U+1EA5t g\U+1EB7p theo \U+0111\U+1ED9 s\U+00E2u. \U+0110\U+1EA5t y\U+1EBFu / b\U+00F9n / \U+0111\U+00E1 t\U+1EA3ng kh\U+00E1c gi\U+1EA3 \U+0111\U+1ECBnh: d\U+1EEBng v\U+00E0 b\U+00E1o thi\U+1EBFt k\U+1EBF.
7
VN
0
TEXT
8
CVB_08_GHI_CHU
10
80000
20
-5700
30
0.0
40
216
1
6. AN TO\U+00C0N TALUY V\U+00C0 B\U+1EA2O V\U+1EC6 N\U+01AF\U+1EDAC H\U+1ED2
7
VN
0
TEXT
8
CVB_08_GHI_CHU
10
80150
20
-6120
30
0.0
40
180
1
\U+2013 Kh\U+00F4ng thi c\U+00F4ng khi m\U+01B0a l\U+1EDBn ho\U+1EB7c m\U+1EF1c n\U+01B0\U+1EDBc h\U+1ED3 l\U+00EAn nhanh. M\U+00E1y khoan \U+0111\U+1EB7t tr\U+00EAn s\U+00E0n ph\U+1EB3ng, c\U+00F3 neo / ch\U+00E8n ch\U+1ED1ng tr\U+01B0\U+1EE3t; kh\U+00F4ng \U+0111\U+1EB7t m\U+00E1y tr\U+00EAn m\U+00E9p taluy ch\U+01B0a
7
VN
0
TEXT
8
CVB_08_GHI_CHU
10
80150
20
-6450
30
0.0
40
180
1
   gia c\U+1ED1.
7
VN
0
TEXT
8
CVB_08_GHI_CHU
10
80150
20
-6780
30
0.0
40
180
1
\U+2013 Mi\U+1EC7ng l\U+1ED7 khoan ch\U+01B0a \U+0111\U+1ED5 b\U+00EA t\U+00F4ng ph\U+1EA3i c\U+00F3 n\U+1EAFp \U+0111\U+1EADy v\U+00E0 r\U+00E0o c\U+1EA3nh b\U+00E1o. C\U+00F4ng nh\U+00E2n l\U+00E0m vi\U+1EC7c tr\U+00EAn b\U+1EDD d\U+1ED1c \U+0111eo d\U+00E2y an to\U+00E0n v\U+00E0 \U+00E1o phao.
7
VN
0
TEXT
8
CVB_08_GHI_CHU
10
80150
20
-7110
30
0.0
40
180
1
\U+2013 \U+0110\U+1EA5t khoan, n\U+01B0\U+1EDBc r\U+1EEDa, b\U+00EA t\U+00F4ng th\U+1EEBa, d\U+1EA7u m\U+1EE1: thu gom \U+0111\U+01B0a l\U+00EAn b\U+00E3i th\U+1EA3i, kh\U+00F4ng x\U+1EA3 xu\U+1ED1ng h\U+1ED3. C\U+00F3 phao qu\U+00E2y / l\U+01B0\U+1EDBi ch\U+1EAFn b\U+00F9n ph\U+00EDa h\U+1ED3 t\U+1EA1i m\U+1ED7i v\U+1ECB tr\U+00ED thi
7
VN
0
TEXT
8
CVB_08_GHI_CHU
10
80150
20
-7440
30
0.0
40
180
1
   c\U+00F4ng.
7
VN
0
TEXT
8
CVB_08_GHI_CHU
10
80150
20
-7770
30
0.0
40
180
1
\U+2013 Ho\U+00E0n tr\U+1EA3 m\U+1EB7t b\U+1EB1ng, \U+0111\U+1EA7m ch\U+1EB7t \U+0111\U+1EA5t quanh c\U+1ECDc, tr\U+1ED3ng c\U+1ECF ho\U+1EB7c gia c\U+1ED1 \U+0111\U+00E1 h\U+1ED9c taluy sau khi thi c\U+00F4ng.
7
VN
0
TEXT
8
CVB_08_GHI_CHU
10
80000
20
-8300
30
0.0
40
216
1
7. GI\U+1EDAI H\U+1EA0N C\U+1EE6A B\U+1EA2N V\U+1EBC \U+2014 PH\U+1EA2I \U+0110\U+1ECCC
7
VN
0
TEXT
8
CVB_08_GHI_CHU
10
80150
20
-8720
30
0.0
40
180
1
\U+2013 L\U+1EDAP B\U+00CA T\U+00D4NG B\U+1EA2O V\U+1EC6: v\U+1EDBi a_s = 50 mm, l\U+1EDBp b\U+1EA3o v\U+1EC7 th\U+1EF1c t\U+1EBF \U+0111\U+1EBFn \U+0111ai xo\U+1EAFn ch\U+1EC9 c\U+00F2n 26\U+201330 mm, nh\U+1ECF h\U+01A1n m\U+1EE9c th\U+00F4ng th\U+01B0\U+1EDDng \U+2265 50 mm c\U+1EE7a c\U+1ECDc khoan nh\U+1ED3i.
7
VN
0
TEXT
8
CVB_08_GHI_CHU
10
80150
20
-9050
30
0.0
40
180
1
\U+2013 N\U+1EBFu t\U+0103ng l\U+1EDBp b\U+1EA3o v\U+1EC7 l\U+00EAn 50 mm m\U+00E0 gi\U+1EEF D350 th\U+00EC c\U+00E1nh tay \U+0111\U+00F2n th\U+00E9p gi\U+1EA3m kho\U+1EA3ng 20% v\U+00E0 th\U+00E9p trong b\U+1EA3ng E KH\U+00D4NG c\U+00F2n \U+0111\U+1EE7: ph\U+1EA3i t\U+0103ng \U+0111\U+01B0\U+1EDDng k\U+00EDnh l\U+1ED7 khoan
7
VN
0
TEXT
8
CVB_08_GHI_CHU
10
80150
20
-9380
30
0.0
40
180
1
   (D400) ho\U+1EB7c t\U+00EDnh l\U+1EA1i th\U+00E9p. C\U+1EA6N CH\U+1EE6 \U+0110\U+1EA6U T\U+01AF / THI\U+1EBET K\U+1EBE QUY\U+1EBET \U+0110\U+1ECANH TR\U+01AF\U+1EDAC KHI THI C\U+00D4NG.
7
VN
0
TEXT
8
CVB_08_GHI_CHU
10
80150
20
-9710
30
0.0
40
180
1
\U+2013 Kho\U+1EA3ng h\U+1EDF gi\U+1EEFa c\U+00E1c th\U+00E9p ch\U+1EE7 nh\U+1ECF nh\U+1EA5t 99 mm (l\U+1ED3ng 6 thanh): d\U+00F9ng \U+0111\U+00E1 1\U+00D72, b\U+00EA t\U+00F4ng \U+0111\U+1ED9 s\U+1EE5t cao, \U+0111\U+1EA3m b\U+1EA3o b\U+00EA t\U+00F4ng chui qua l\U+1ED3ng.
7
VN
0
TEXT
8
CVB_08_GHI_CHU
10
80150
20
-10040
30
0.0
40
180
1
\U+2013 Ch\U+01B0a thi\U+1EBFt k\U+1EBF: l\U+1EF1c c\U+1EAFt th\U+00E2n c\U+1ECDc (\U+0111ai xo\U+1EAFn l\U+00E0 c\U+1EA5u t\U+1EA1o), b\U+1EA3o v\U+1EC7 ch\U+1ED1ng \U+0103n m\U+00F2n chi ti\U+1EBFt, b\U+00EA t\U+00F4ng c\U+1EE5c b\U+1ED9 m\U+0169 c\U+1ECDc.
7
VN
0
TEXT
8
CVB_08_GHI_CHU
10
80150
20
-10370
30
0.0
40
180
1
\U+2013 B\U+1EA3n v\U+1EBD theo m\U+1EB7t b\U+1EB1ng 9 b\U+00E8 c\U+1EE7a Ch\U+1EE7 \U+0111\U+1EA7u t\U+01B0 (H\U+1ED2 HU\U+1ED4I VANH.dxf, 08/10/2026). Neo \U+0111\U+00E1y h\U+1ED3 (\U+0111\U+1EBF BTCT + v\U+00EDt xo\U+1EAFn) th\U+1EC3 hi\U+1EC7n \U+1EDF b\U+1EA3n v\U+1EBD m\U+1EB7t b\U+1EB1ng h\U+1EC7 neo, kh\U+00F4ng
7
VN
0
TEXT
8
CVB_08_GHI_CHU
10
80150
20
-10700
30
0.0
40
180
1
   thu\U+1ED9c b\U+1EA3n v\U+1EBD n\U+00E0y.
7
VN
0
TEXT
8
CVB_08_GHI_CHU
10
80150
20
-11030
30
0.0
40
180
1
\U+2013 \U+0110\U+00E2y l\U+00E0 b\U+1EA3n v\U+1EBD \U+0111\U+1EC1 xu\U+1EA5t ph\U+1EE5c v\U+1EE5 trao \U+0111\U+1ED5i; h\U+1ED3 s\U+01A1 thi c\U+00F4ng ph\U+1EA3i do \U+0111\U+01A1n v\U+1ECB thi\U+1EBFt k\U+1EBF c\U+00F3 ch\U+1EE9ng ch\U+1EC9 ph\U+00E1t h\U+00E0nh.
7
VN
0
LINE
8
CVB_00_KHUNG
10
-8500
20
-36500
30
0.0
11
105000
21
-36500
31
0.0
0
LINE
8
CVB_00_KHUNG
10
105000
20
-36500
30
0.0
11
105000
21
6800
31
0.0
0
LINE
8
CVB_00_KHUNG
10
105000
20
6800
30
0.0
11
-8500
21
6800
31
0.0
0
LINE
8
CVB_00_KHUNG
10
-8500
20
6800
30
0.0
11
-8500
21
-36500
31
0.0
0
LINE
8
CVB_00_KHUNG
10
83000
20
-36500
30
0.0
11
105000
21
-36500
31
0.0
0
LINE
8
CVB_00_KHUNG
10
105000
20
-36500
30
0.0
11
105000
21
-33900
31
0.0
0
LINE
8
CVB_00_KHUNG
10
105000
20
-33900
30
0.0
11
83000
21
-33900
31
0.0
0
LINE
8
CVB_00_KHUNG
10
83000
20
-33900
30
0.0
11
83000
21
-36500
31
0.0
0
TEXT
8
CVB_00_KHUNG
10
83300
20
-34650
30
0.0
40
216
1
D\U+1EF0 \U+00C1N: \U+0110I\U+1EC6N M\U+1EB6T TR\U+1EDCI N\U+1ED4I H\U+1ED2 TH\U+1EE6Y \U+0110I\U+1EC6N HU\U+1ED4I VANH
7
VN
0
TEXT
8
CVB_00_KHUNG
10
83300
20
-35250
30
0.0
40
216
1
B\U+1EA2N V\U+1EBC: C\U+1ECCC KHOAN NH\U+1ED2I VEN B\U+1EDC D350 \U+2014 C\U+1EA4U T\U+1EA0O V\U+00C0 BI\U+1EC6N PH\U+00C1P THI C\U+00D4NG
7
VN
0
TEXT
8
CVB_00_KHUNG
10
83300
20
-35850
30
0.0
40
180
1
S\U+1ED1 b\U+1EA3n v\U+1EBD: CVB-01   |   \U+0110\U+01A1n v\U+1ECB: mm   |   B\U+1EA3n \U+0110\U+1EC0 XU\U+1EA4T, ch\U+01B0a ph\U+00E1t h\U+00E0nh thi c\U+00F4ng
7
VN
0
TEXT
8
CVB_00_KHUNG
10
83300
20
-36300
30
0.0
40
180
1
Sinh t\U+1EEB b\U+1ED9 t\U+00EDnh c\U+1EE7a d\U+1EF1 \U+00E1n ng\U+00E0y 2026-10-08 (scripts/buildShorePileDrawing.ts)
7
VN
0
ENDSEC
0
EOF
