0
SECTION
2
HEADER
9
$ACADVER
1
AC1009
9
$INSUNITS
70
4
0
ENDSEC
0
SECTION
2
TABLES
0
TABLE
2
LAYER
70
9
0
LAYER
2
0
70
0
62
7
6
CONTINUOUS
0
LAYER
2
00_THAM_CHIEU_C52
70
0
62
8
6
CONTINUOUS
0
LAYER
2
00_THAM_CHIEU_HANG_PHAO
70
0
62
9
6
CONTINUOUS
0
LAYER
2
09_ONG_40X60_NEO
70
0
62
5
6
CONTINUOUS
0
LAYER
2
09_ONG_40X60_GIANG
70
0
62
4
6
CONTINUOUS
0
LAYER
2
10_MOC_CHU_KI
70
0
62
2
6
CONTINUOUS
0
LAYER
2
10_BU_LONG_M10X120
70
0
62
3
6
CONTINUOUS
0
LAYER
2
11_DIEM_NEO_CAP
70
0
62
1
6
CONTINUOUS
0
LAYER
2
12_CHI_TIET_GHI_CHU
70
0
62
7
6
CONTINUOUS
0
ENDTAB
0
ENDSEC
0
SECTION
2
ENTITIES
0
LINE
8
00_THAM_CHIEU_C52
10
-237179.01
20
-59216.22
30
0
11
-237179.01
21
-12503.7
31
0
0
LINE
8
00_THAM_CHIEU_C52
10
-236324.01
20
-59216.22
30
0
11
-236324.01
21
-12503.7
31
0
0
LINE
8
00_THAM_CHIEU_C52
10
-235502.85
20
-59236.22
30
0
11
-235502.85
21
-12523.7
31
0
0
LINE
8
00_THAM_CHIEU_C52
10
-234102.85
20
-59236.22
30
0
11
-234102.85
21
-12562.74
31
0
0
LINE
8
00_THAM_CHIEU_C52
10
-232992.85
20
-59236.22
30
0
11
-232992.85
21
-12523.7
31
0
0
LINE
8
00_THAM_CHIEU_C52
10
-231592.85
20
-59236.22
30
0
11
-231592.85
21
-12562.74
31
0
0
LINE
8
00_THAM_CHIEU_C52
10
-230482.85
20
-59236.22
30
0
11
-230482.85
21
-12523.7
31
0
0
LINE
8
00_THAM_CHIEU_C52
10
-229082.85
20
-59236.22
30
0
11
-229082.85
21
-12562.74
31
0
0
LINE
8
00_THAM_CHIEU_C52
10
-227972.85
20
-59236.22
30
0
11
-227972.85
21
-12523.7
31
0
0
LINE
8
00_THAM_CHIEU_C52
10
-226572.85
20
-59236.22
30
0
11
-226572.85
21
-12562.74
31
0
0
LINE
8
00_THAM_CHIEU_C52
10
-225462.85
20
-59236.22
30
0
11
-225462.85
21
-12523.7
31
0
0
LINE
8
00_THAM_CHIEU_C52
10
-224062.85
20
-59236.22
30
0
11
-224062.85
21
-12562.74
31
0
0
LINE
8
00_THAM_CHIEU_C52
10
-222952.85
20
-59236.22
30
0
11
-222952.85
21
-12523.7
31
0
0
LINE
8
00_THAM_CHIEU_C52
10
-221552.85
20
-59236.22
30
0
11
-221552.85
21
-12562.74
31
0
0
LINE
8
00_THAM_CHIEU_C52
10
-220422.85
20
-59236.22
30
0
11
-220422.85
21
-12523.7
31
0
0
LINE
8
00_THAM_CHIEU_C52
10
-219022.85
20
-59236.22
30
0
11
-219022.85
21
-12562.74
31
0
0
LINE
8
00_THAM_CHIEU_C52
10
-217922.85
20
-59236.22
30
0
11
-217922.85
21
-12523.7
31
0
0
LINE
8
00_THAM_CHIEU_C52
10
-216532.85
20
-59236.22
30
0
11
-216532.85
21
-12562.74
31
0
0
LINE
8
00_THAM_CHIEU_C52
10
-215427.85
20
-59251.22
30
0
11
-215427.85
21
-12538.7
31
0
0
LINE
8
00_THAM_CHIEU_C52
10
-214022.85
20
-59236.22
30
0
11
-214022.85
21
-12562.74
31
0
0
LINE
8
00_THAM_CHIEU_C52
10
-212902.85
20
-59236.22
30
0
11
-212902.85
21
-12523.7
31
0
0
LINE
8
00_THAM_CHIEU_C52
10
-211522.85
20
-59236.22
30
0
11
-211522.85
21
-12562.74
31
0
0
LINE
8
00_THAM_CHIEU_C52
10
-210392.85
20
-59236.22
30
0
11
-210392.85
21
-12523.7
31
0
0
LINE
8
00_THAM_CHIEU_C52
10
-209002.85
20
-59236.22
30
0
11
-209002.85
21
-12562.74
31
0
0
LINE
8
00_THAM_CHIEU_C52
10
-207897.85
20
-59251.22
30
0
11
-207897.85
21
-12538.7
31
0
0
LINE
8
00_THAM_CHIEU_C52
10
-206492.85
20
-59236.22
30
0
11
-206492.85
21
-12562.74
31
0
0
LINE
8
00_THAM_CHIEU_C52
10
-205367.85
20
-59236.22
30
0
11
-205367.85
21
-12523.7
31
0
0
LINE
8
00_THAM_CHIEU_C52
10
-203982.85
20
-59236.22
30
0
11
-203982.85
21
-12562.74
31
0
0
LINE
8
00_THAM_CHIEU_C52
10
-202862.85
20
-59236.22
30
0
11
-202862.85
21
-12523.7
31
0
0
LINE
8
00_THAM_CHIEU_C52
10
-201462.85
20
-59236.22
30
0
11
-201462.85
21
-12562.74
31
0
0
LINE
8
00_THAM_CHIEU_C52
10
-200364.68
20
-59236.22
30
0
11
-200364.68
21
-12523.7
31
0
0
LINE
8
00_THAM_CHIEU_C52
10
-198954.68
20
-59236.22
30
0
11
-198954.68
21
-12523.7
31
0
0
LINE
8
00_THAM_CHIEU_C52
10
-197842.25
20
-59236.22
30
0
11
-197842.25
21
-12523.7
31
0
0
LINE
8
00_THAM_CHIEU_C52
10
-196442.25
20
-59236.22
30
0
11
-196442.25
21
-12562.74
31
0
0
LINE
8
00_THAM_CHIEU_C52
10
-195332.25
20
-59236.22
30
0
11
-195332.25
21
-12523.7
31
0
0
LINE
8
00_THAM_CHIEU_C52
10
-193932.25
20
-59236.22
30
0
11
-193932.25
21
-12562.74
31
0
0
LINE
8
00_THAM_CHIEU_C52
10
-192822.25
20
-59236.22
30
0
11
-192822.25
21
-12523.7
31
0
0
LINE
8
00_THAM_CHIEU_C52
10
-191422.25
20
-59236.22
30
0
11
-191422.25
21
-12562.74
31
0
0
LINE
8
00_THAM_CHIEU_C52
10
-190312.25
20
-59236.22
30
0
11
-190312.25
21
-12523.7
31
0
0
LINE
8
00_THAM_CHIEU_C52
10
-188912.25
20
-59236.22
30
0
11
-188912.25
21
-12562.74
31
0
0
LINE
8
00_THAM_CHIEU_C52
10
-187802.25
20
-59236.22
30
0
11
-187802.25
21
-12523.7
31
0
0
LINE
8
00_THAM_CHIEU_C52
10
-186402.25
20
-59236.22
30
0
11
-186402.25
21
-12562.74
31
0
0
LINE
8
00_THAM_CHIEU_C52
10
-185292.25
20
-59236.22
30
0
11
-185292.25
21
-12523.7
31
0
0
LINE
8
00_THAM_CHIEU_C52
10
-183892.25
20
-59236.22
30
0
11
-183892.25
21
-12562.74
31
0
0
LINE
8
00_THAM_CHIEU_C52
10
-182782.25
20
-59236.22
30
0
11
-182782.25
21
-12523.7
31
0
0
LINE
8
00_THAM_CHIEU_C52
10
-181382.25
20
-59236.22
30
0
11
-181382.25
21
-12562.74
31
0
0
LINE
8
00_THAM_CHIEU_C52
10
-180272.25
20
-59236.22
30
0
11
-180272.25
21
-12523.7
31
0
0
LINE
8
00_THAM_CHIEU_C52
10
-178872.25
20
-59236.22
30
0
11
-178872.25
21
-12562.74
31
0
0
LINE
8
00_THAM_CHIEU_C52
10
-177762.25
20
-59236.22
30
0
11
-177762.25
21
-12523.7
31
0
0
LINE
8
00_THAM_CHIEU_C52
10
-176362.25
20
-59236.22
30
0
11
-176362.25
21
-12562.74
31
0
0
LINE
8
00_THAM_CHIEU_C52
10
-175252.25
20
-59236.22
30
0
11
-175252.25
21
-12523.7
31
0
0
LINE
8
00_THAM_CHIEU_C52
10
-173852.25
20
-59236.22
30
0
11
-173852.25
21
-12562.74
31
0
0
LINE
8
00_THAM_CHIEU_C52
10
-172742.25
20
-59236.22
30
0
11
-172742.25
21
-12523.7
31
0
0
LINE
8
00_THAM_CHIEU_C52
10
-171342.25
20
-59236.22
30
0
11
-171342.25
21
-12562.74
31
0
0
LINE
8
00_THAM_CHIEU_C52
10
-170232.25
20
-59236.22
30
0
11
-170232.25
21
-12523.7
31
0
0
LINE
8
00_THAM_CHIEU_C52
10
-168832.25
20
-59236.22
30
0
11
-168832.25
21
-12562.74
31
0
0
LINE
8
00_THAM_CHIEU_C52
10
-167722.25
20
-59236.22
30
0
11
-167722.25
21
-12523.7
31
0
0
LINE
8
00_THAM_CHIEU_C52
10
-166322.25
20
-59236.22
30
0
11
-166322.25
21
-12562.74
31
0
0
LINE
8
00_THAM_CHIEU_C52
10
-165212.25
20
-59236.22
30
0
11
-165212.25
21
-12523.7
31
0
0
LINE
8
00_THAM_CHIEU_C52
10
-163826.26
20
-59236.22
30
0
11
-163826.26
21
-12562.74
31
0
0
LINE
8
00_THAM_CHIEU_C52
10
-162704.9
20
-59256.22
30
0
11
-162704.9
21
-12543.7
31
0
0
LINE
8
00_THAM_CHIEU_C52
10
-161314.9
20
-59236.22
30
0
11
-161314.9
21
-12523.7
31
0
0
LINE
8
00_THAM_CHIEU_C52
10
-160199.9
20
-59236.22
30
0
11
-160199.9
21
-18665.53
31
0
0
LINE
8
00_THAM_CHIEU_C52
10
-158799.9
20
-59236.22
30
0
11
-158799.9
21
-18704.58
31
0
0
LINE
8
00_THAM_CHIEU_C52
10
-157689.9
20
-59236.22
30
0
11
-157689.9
21
-18665.53
31
0
0
LINE
8
00_THAM_CHIEU_C52
10
-156289.9
20
-59236.22
30
0
11
-156289.9
21
-18704.58
31
0
0
LINE
8
00_THAM_CHIEU_C52
10
-155179.9
20
-59236.22
30
0
11
-155179.9
21
-18665.53
31
0
0
LINE
8
00_THAM_CHIEU_C52
10
-153779.9
20
-59236.22
30
0
11
-153779.9
21
-18704.58
31
0
0
LINE
8
00_THAM_CHIEU_C52
10
-152669.9
20
-59236.22
30
0
11
-152669.9
21
-18665.53
31
0
0
LINE
8
00_THAM_CHIEU_C52
10
-151269.9
20
-59236.22
30
0
11
-151269.9
21
-18704.58
31
0
0
LINE
8
00_THAM_CHIEU_C52
10
-150159.9
20
-59236.22
30
0
11
-150159.9
21
-18665.53
31
0
0
LINE
8
00_THAM_CHIEU_C52
10
-148759.9
20
-59236.22
30
0
11
-148759.9
21
-18704.58
31
0
0
LINE
8
00_THAM_CHIEU_C52
10
-147649.9
20
-59236.22
30
0
11
-147649.9
21
-18665.53
31
0
0
LINE
8
00_THAM_CHIEU_C52
10
-146259.9
20
-59236.22
30
0
11
-146259.9
21
-18704.58
31
0
0
LINE
8
00_THAM_CHIEU_C52
10
-145139.9
20
-59236.22
30
0
11
-145139.9
21
-18665.53
31
0
0
LINE
8
00_THAM_CHIEU_C52
10
-143739.9
20
-59236.22
30
0
11
-143739.9
21
-18704.58
31
0
0
LINE
8
00_THAM_CHIEU_C52
10
-142839.9
20
-59236.22
30
0
11
-142839.9
21
-18665.53
31
0
0
LINE
8
00_THAM_CHIEU_C52
10
-141969.9
20
-59236.22
30
0
11
-141969.9
21
-18665.53
31
0
0
LINE
8
00_THAM_CHIEU_HANG_PHAO
10
-237679.01
20
-58959
30
0
11
-141469.9
21
-58959
31
0
0
LINE
8
00_THAM_CHIEU_HANG_PHAO
10
-237679.01
20
-56959
30
0
11
-141469.9
21
-56959
31
0
0
LINE
8
00_THAM_CHIEU_HANG_PHAO
10
-237679.01
20
-54959
30
0
11
-141469.9
21
-54959
31
0
0
LINE
8
00_THAM_CHIEU_HANG_PHAO
10
-237679.01
20
-52959
30
0
11
-141469.9
21
-52959
31
0
0
LINE
8
00_THAM_CHIEU_HANG_PHAO
10
-237679.01
20
-50959
30
0
11
-141469.9
21
-50959
31
0
0
LINE
8
00_THAM_CHIEU_HANG_PHAO
10
-237679.01
20
-48959
30
0
11
-141469.9
21
-48959
31
0
0
LINE
8
00_THAM_CHIEU_HANG_PHAO
10
-237679.01
20
-46959
30
0
11
-141469.9
21
-46959
31
0
0
LINE
8
00_THAM_CHIEU_HANG_PHAO
10
-237679.01
20
-44959
30
0
11
-141469.9
21
-44959
31
0
0
LINE
8
00_THAM_CHIEU_HANG_PHAO
10
-237679.01
20
-42959
30
0
11
-141469.9
21
-42959
31
0
0
LINE
8
00_THAM_CHIEU_HANG_PHAO
10
-237679.01
20
-40959
30
0
11
-141469.9
21
-40959
31
0
0
LINE
8
00_THAM_CHIEU_HANG_PHAO
10
-237679.01
20
-38959
30
0
11
-141469.9
21
-38959
31
0
0
LINE
8
00_THAM_CHIEU_HANG_PHAO
10
-237679.01
20
-36959
30
0
11
-141469.9
21
-36959
31
0
0
LINE
8
00_THAM_CHIEU_HANG_PHAO
10
-237679.01
20
-34959
30
0
11
-141469.9
21
-34959
31
0
0
LINE
8
00_THAM_CHIEU_HANG_PHAO
10
-237679.01
20
-32959
30
0
11
-141469.9
21
-32959
31
0
0
LINE
8
00_THAM_CHIEU_HANG_PHAO
10
-237679.01
20
-30959
30
0
11
-141469.9
21
-30959
31
0
0
LINE
8
00_THAM_CHIEU_HANG_PHAO
10
-237679.01
20
-28959
30
0
11
-141469.9
21
-28959
31
0
0
LINE
8
00_THAM_CHIEU_HANG_PHAO
10
-237679.01
20
-26959
30
0
11
-141469.9
21
-26959
31
0
0
LINE
8
00_THAM_CHIEU_HANG_PHAO
10
-237679.01
20
-24959
30
0
11
-141469.9
21
-24959
31
0
0
LINE
8
00_THAM_CHIEU_HANG_PHAO
10
-237679.01
20
-22959
30
0
11
-141469.9
21
-22959
31
0
0
LINE
8
00_THAM_CHIEU_HANG_PHAO
10
-237679.01
20
-20959
30
0
11
-141469.9
21
-20959
31
0
0
LINE
8
00_THAM_CHIEU_HANG_PHAO
10
-237679.01
20
-18959
30
0
11
-141469.9
21
-18959
31
0
0
LINE
8
00_THAM_CHIEU_HANG_PHAO
10
-237679.01
20
-16959
30
0
11
-141469.9
21
-16959
31
0
0
LINE
8
00_THAM_CHIEU_HANG_PHAO
10
-237679.01
20
-14959
30
0
11
-141469.9
21
-14959
31
0
0
LINE
8
00_THAM_CHIEU_HANG_PHAO
10
-237679.01
20
-12959
30
0
11
-141469.9
21
-12959
31
0
0
LINE
8
09_ONG_40X60_NEO
10
-237479.01
20
-58689
30
0
11
-223762.85
21
-58689
31
0
0
LINE
8
09_ONG_40X60_NEO
10
-223762.85
20
-58689
30
0
11
-223762.85
21
-58629
31
0
0
LINE
8
09_ONG_40X60_NEO
10
-223762.85
20
-58629
30
0
11
-237479.01
21
-58629
31
0
0
LINE
8
09_ONG_40X60_NEO
10
-237479.01
20
-58629
30
0
11
-237479.01
21
-58689
31
0
0
LINE
8
09_ONG_40X60_NEO
10
-237479.01
20
-13289
30
0
11
-223762.85
21
-13289
31
0
0
LINE
8
09_ONG_40X60_NEO
10
-223762.85
20
-13289
30
0
11
-223762.85
21
-13229
31
0
0
LINE
8
09_ONG_40X60_NEO
10
-223762.85
20
-13229
30
0
11
-237479.01
21
-13229
31
0
0
LINE
8
09_ONG_40X60_NEO
10
-237479.01
20
-13229
30
0
11
-237479.01
21
-13289
31
0
0
LINE
8
09_ONG_40X60_NEO
10
-230782.85
20
-56689
30
0
11
-216232.85
21
-56689
31
0
0
LINE
8
09_ONG_40X60_NEO
10
-216232.85
20
-56689
30
0
11
-216232.85
21
-56629
31
0
0
LINE
8
09_ONG_40X60_NEO
10
-216232.85
20
-56629
30
0
11
-230782.85
21
-56629
31
0
0
LINE
8
09_ONG_40X60_NEO
10
-230782.85
20
-56629
30
0
11
-230782.85
21
-56689
31
0
0
LINE
8
09_ONG_40X60_NEO
10
-229382.85
20
-15289
30
0
11
-215127.85
21
-15289
31
0
0
LINE
8
09_ONG_40X60_NEO
10
-215127.85
20
-15289
30
0
11
-215127.85
21
-15229
31
0
0
LINE
8
09_ONG_40X60_NEO
10
-215127.85
20
-15229
30
0
11
-229382.85
21
-15229
31
0
0
LINE
8
09_ONG_40X60_NEO
10
-229382.85
20
-15229
30
0
11
-229382.85
21
-15289
31
0
0
LINE
8
09_ONG_40X60_NEO
10
-219322.85
20
-13289
30
0
11
-205067.85
21
-13289
31
0
0
LINE
8
09_ONG_40X60_NEO
10
-205067.85
20
-13289
30
0
11
-205067.85
21
-13229
31
0
0
LINE
8
09_ONG_40X60_NEO
10
-205067.85
20
-13229
30
0
11
-219322.85
21
-13229
31
0
0
LINE
8
09_ONG_40X60_NEO
10
-219322.85
20
-13229
30
0
11
-219322.85
21
-13289
31
0
0
LINE
8
09_ONG_40X60_NEO
10
-218222.85
20
-58689
30
0
11
-203682.85
21
-58689
31
0
0
LINE
8
09_ONG_40X60_NEO
10
-203682.85
20
-58689
30
0
11
-203682.85
21
-58629
31
0
0
LINE
8
09_ONG_40X60_NEO
10
-203682.85
20
-58629
30
0
11
-218222.85
21
-58629
31
0
0
LINE
8
09_ONG_40X60_NEO
10
-218222.85
20
-58629
30
0
11
-218222.85
21
-58689
31
0
0
LINE
8
09_ONG_40X60_NEO
10
-195632.25
20
-58689
30
0
11
-181082.25
21
-58689
31
0
0
LINE
8
09_ONG_40X60_NEO
10
-181082.25
20
-58689
30
0
11
-181082.25
21
-58629
31
0
0
LINE
8
09_ONG_40X60_NEO
10
-181082.25
20
-58629
30
0
11
-195632.25
21
-58629
31
0
0
LINE
8
09_ONG_40X60_NEO
10
-195632.25
20
-58629
30
0
11
-195632.25
21
-58689
31
0
0
LINE
8
09_ONG_40X60_NEO
10
-184192.25
20
-56689
30
0
11
-169932.25
21
-56689
31
0
0
LINE
8
09_ONG_40X60_NEO
10
-169932.25
20
-56689
30
0
11
-169932.25
21
-56629
31
0
0
LINE
8
09_ONG_40X60_NEO
10
-169932.25
20
-56629
30
0
11
-184192.25
21
-56629
31
0
0
LINE
8
09_ONG_40X60_NEO
10
-184192.25
20
-56629
30
0
11
-184192.25
21
-56689
31
0
0
LINE
8
09_ONG_40X60_NEO
10
-180572.25
20
-13289
30
0
11
-166022.25
21
-13289
31
0
0
LINE
8
09_ONG_40X60_NEO
10
-166022.25
20
-13289
30
0
11
-166022.25
21
-13229
31
0
0
LINE
8
09_ONG_40X60_NEO
10
-166022.25
20
-13229
30
0
11
-180572.25
21
-13229
31
0
0
LINE
8
09_ONG_40X60_NEO
10
-180572.25
20
-13229
30
0
11
-180572.25
21
-13289
31
0
0
LINE
8
09_ONG_40X60_NEO
10
-176662.25
20
-15289
30
0
11
-162404.9
21
-15289
31
0
0
LINE
8
09_ONG_40X60_NEO
10
-162404.9
20
-15289
30
0
11
-162404.9
21
-15229
31
0
0
LINE
8
09_ONG_40X60_NEO
10
-162404.9
20
-15229
30
0
11
-176662.25
21
-15229
31
0
0
LINE
8
09_ONG_40X60_NEO
10
-176662.25
20
-15229
30
0
11
-176662.25
21
-15289
31
0
0
LINE
8
09_ONG_40X60_NEO
10
-170532.25
20
-58689
30
0
11
-155989.9
21
-58689
31
0
0
LINE
8
09_ONG_40X60_NEO
10
-155989.9
20
-58689
30
0
11
-155989.9
21
-58629
31
0
0
LINE
8
09_ONG_40X60_NEO
10
-155989.9
20
-58629
30
0
11
-170532.25
21
-58629
31
0
0
LINE
8
09_ONG_40X60_NEO
10
-170532.25
20
-58629
30
0
11
-170532.25
21
-58689
31
0
0
LINE
8
09_ONG_40X60_NEO
10
-175552.25
20
-17289
30
0
11
-161014.9
21
-17289
31
0
0
LINE
8
09_ONG_40X60_NEO
10
-161014.9
20
-17289
30
0
11
-161014.9
21
-17229
31
0
0
LINE
8
09_ONG_40X60_NEO
10
-161014.9
20
-17229
30
0
11
-175552.25
21
-17229
31
0
0
LINE
8
09_ONG_40X60_NEO
10
-175552.25
20
-17229
30
0
11
-175552.25
21
-17289
31
0
0
LINE
8
09_ONG_40X60_NEO
10
-155479.9
20
-58689
30
0
11
-141669.9
21
-58689
31
0
0
LINE
8
09_ONG_40X60_NEO
10
-141669.9
20
-58689
30
0
11
-141669.9
21
-58629
31
0
0
LINE
8
09_ONG_40X60_NEO
10
-141669.9
20
-58629
30
0
11
-155479.9
21
-58629
31
0
0
LINE
8
09_ONG_40X60_NEO
10
-155479.9
20
-58629
30
0
11
-155479.9
21
-58689
31
0
0
LINE
8
09_ONG_40X60_NEO
10
-155479.9
20
-19289
30
0
11
-141669.9
21
-19289
31
0
0
LINE
8
09_ONG_40X60_NEO
10
-141669.9
20
-19289
30
0
11
-141669.9
21
-19229
31
0
0
LINE
8
09_ONG_40X60_NEO
10
-141669.9
20
-19229
30
0
11
-155479.9
21
-19229
31
0
0
LINE
8
09_ONG_40X60_NEO
10
-155479.9
20
-19229
30
0
11
-155479.9
21
-19289
31
0
0
LINE
8
09_ONG_40X60_NEO
10
-156589.9
20
-52689
30
0
11
-141669.9
21
-52689
31
0
0
LINE
8
09_ONG_40X60_NEO
10
-141669.9
20
-52689
30
0
11
-141669.9
21
-52629
31
0
0
LINE
8
09_ONG_40X60_NEO
10
-141669.9
20
-52629
30
0
11
-156589.9
21
-52629
31
0
0
LINE
8
09_ONG_40X60_NEO
10
-156589.9
20
-52629
30
0
11
-156589.9
21
-52689
31
0
0
LINE
8
09_ONG_40X60_NEO
10
-156589.9
20
-54689
30
0
11
-141669.9
21
-54689
31
0
0
LINE
8
09_ONG_40X60_NEO
10
-141669.9
20
-54689
30
0
11
-141669.9
21
-54629
31
0
0
LINE
8
09_ONG_40X60_NEO
10
-141669.9
20
-54629
30
0
11
-156589.9
21
-54629
31
0
0
LINE
8
09_ONG_40X60_NEO
10
-156589.9
20
-54629
30
0
11
-156589.9
21
-54689
31
0
0
LINE
8
09_ONG_40X60_NEO
10
-156589.9
20
-38689
30
0
11
-141669.9
21
-38689
31
0
0
LINE
8
09_ONG_40X60_NEO
10
-141669.9
20
-38689
30
0
11
-141669.9
21
-38629
31
0
0
LINE
8
09_ONG_40X60_NEO
10
-141669.9
20
-38629
30
0
11
-156589.9
21
-38629
31
0
0
LINE
8
09_ONG_40X60_NEO
10
-156589.9
20
-38629
30
0
11
-156589.9
21
-38689
31
0
0
LINE
8
09_ONG_40X60_NEO
10
-156589.9
20
-36689
30
0
11
-141669.9
21
-36689
31
0
0
LINE
8
09_ONG_40X60_NEO
10
-141669.9
20
-36689
30
0
11
-141669.9
21
-36629
31
0
0
LINE
8
09_ONG_40X60_NEO
10
-141669.9
20
-36629
30
0
11
-156589.9
21
-36629
31
0
0
LINE
8
09_ONG_40X60_NEO
10
-156589.9
20
-36629
30
0
11
-156589.9
21
-36689
31
0
0
LINE
8
09_ONG_40X60_NEO
10
-156589.9
20
-24689
30
0
11
-141669.9
21
-24689
31
0
0
LINE
8
09_ONG_40X60_NEO
10
-141669.9
20
-24689
30
0
11
-141669.9
21
-24629
31
0
0
LINE
8
09_ONG_40X60_NEO
10
-141669.9
20
-24629
30
0
11
-156589.9
21
-24629
31
0
0
LINE
8
09_ONG_40X60_NEO
10
-156589.9
20
-24629
30
0
11
-156589.9
21
-24689
31
0
0
LINE
8
09_ONG_40X60_NEO
10
-156589.9
20
-22689
30
0
11
-141669.9
21
-22689
31
0
0
LINE
8
09_ONG_40X60_NEO
10
-141669.9
20
-22689
30
0
11
-141669.9
21
-22629
31
0
0
LINE
8
09_ONG_40X60_NEO
10
-141669.9
20
-22629
30
0
11
-156589.9
21
-22629
31
0
0
LINE
8
09_ONG_40X60_NEO
10
-156589.9
20
-22629
30
0
11
-156589.9
21
-22689
31
0
0
LINE
8
09_ONG_40X60_NEO
10
-237479.01
20
-22689
30
0
11
-222652.85
21
-22689
31
0
0
LINE
8
09_ONG_40X60_NEO
10
-222652.85
20
-22689
30
0
11
-222652.85
21
-22629
31
0
0
LINE
8
09_ONG_40X60_NEO
10
-222652.85
20
-22629
30
0
11
-237479.01
21
-22629
31
0
0
LINE
8
09_ONG_40X60_NEO
10
-237479.01
20
-22629
30
0
11
-237479.01
21
-22689
31
0
0
LINE
8
09_ONG_40X60_NEO
10
-237479.01
20
-20689
30
0
11
-222652.85
21
-20689
31
0
0
LINE
8
09_ONG_40X60_NEO
10
-222652.85
20
-20689
30
0
11
-222652.85
21
-20629
31
0
0
LINE
8
09_ONG_40X60_NEO
10
-222652.85
20
-20629
30
0
11
-237479.01
21
-20629
31
0
0
LINE
8
09_ONG_40X60_NEO
10
-237479.01
20
-20629
30
0
11
-237479.01
21
-20689
31
0
0
LINE
8
09_ONG_40X60_NEO
10
-237479.01
20
-38689
30
0
11
-222652.85
21
-38689
31
0
0
LINE
8
09_ONG_40X60_NEO
10
-222652.85
20
-38689
30
0
11
-222652.85
21
-38629
31
0
0
LINE
8
09_ONG_40X60_NEO
10
-222652.85
20
-38629
30
0
11
-237479.01
21
-38629
31
0
0
LINE
8
09_ONG_40X60_NEO
10
-237479.01
20
-38629
30
0
11
-237479.01
21
-38689
31
0
0
LINE
8
09_ONG_40X60_NEO
10
-237479.01
20
-40689
30
0
11
-222652.85
21
-40689
31
0
0
LINE
8
09_ONG_40X60_NEO
10
-222652.85
20
-40689
30
0
11
-222652.85
21
-40629
31
0
0
LINE
8
09_ONG_40X60_NEO
10
-222652.85
20
-40629
30
0
11
-237479.01
21
-40629
31
0
0
LINE
8
09_ONG_40X60_NEO
10
-237479.01
20
-40629
30
0
11
-237479.01
21
-40689
31
0
0
LINE
8
09_ONG_40X60_GIANG
10
-237479.01
20
-58689
30
0
11
-141669.9
21
-58689
31
0
0
LINE
8
09_ONG_40X60_GIANG
10
-141669.9
20
-58689
30
0
11
-141669.9
21
-58629
31
0
0
LINE
8
09_ONG_40X60_GIANG
10
-141669.9
20
-58629
30
0
11
-237479.01
21
-58629
31
0
0
LINE
8
09_ONG_40X60_GIANG
10
-237479.01
20
-58629
30
0
11
-237479.01
21
-58689
31
0
0
LINE
8
09_ONG_40X60_GIANG
10
-237479.01
20
-52689
30
0
11
-141669.9
21
-52689
31
0
0
LINE
8
09_ONG_40X60_GIANG
10
-141669.9
20
-52689
30
0
11
-141669.9
21
-52629
31
0
0
LINE
8
09_ONG_40X60_GIANG
10
-141669.9
20
-52629
30
0
11
-237479.01
21
-52629
31
0
0
LINE
8
09_ONG_40X60_GIANG
10
-237479.01
20
-52629
30
0
11
-237479.01
21
-52689
31
0
0
LINE
8
09_ONG_40X60_GIANG
10
-237479.01
20
-46689
30
0
11
-141669.9
21
-46689
31
0
0
LINE
8
09_ONG_40X60_GIANG
10
-141669.9
20
-46689
30
0
11
-141669.9
21
-46629
31
0
0
LINE
8
09_ONG_40X60_GIANG
10
-141669.9
20
-46629
30
0
11
-237479.01
21
-46629
31
0
0
LINE
8
09_ONG_40X60_GIANG
10
-237479.01
20
-46629
30
0
11
-237479.01
21
-46689
31
0
0
LINE
8
09_ONG_40X60_GIANG
10
-237479.01
20
-40689
30
0
11
-141669.9
21
-40689
31
0
0
LINE
8
09_ONG_40X60_GIANG
10
-141669.9
20
-40689
30
0
11
-141669.9
21
-40629
31
0
0
LINE
8
09_ONG_40X60_GIANG
10
-141669.9
20
-40629
30
0
11
-237479.01
21
-40629
31
0
0
LINE
8
09_ONG_40X60_GIANG
10
-237479.01
20
-40629
30
0
11
-237479.01
21
-40689
31
0
0
LINE
8
09_ONG_40X60_GIANG
10
-237479.01
20
-34689
30
0
11
-141669.9
21
-34689
31
0
0
LINE
8
09_ONG_40X60_GIANG
10
-141669.9
20
-34689
30
0
11
-141669.9
21
-34629
31
0
0
LINE
8
09_ONG_40X60_GIANG
10
-141669.9
20
-34629
30
0
11
-237479.01
21
-34629
31
0
0
LINE
8
09_ONG_40X60_GIANG
10
-237479.01
20
-34629
30
0
11
-237479.01
21
-34689
31
0
0
LINE
8
09_ONG_40X60_GIANG
10
-237479.01
20
-28689
30
0
11
-141669.9
21
-28689
31
0
0
LINE
8
09_ONG_40X60_GIANG
10
-141669.9
20
-28689
30
0
11
-141669.9
21
-28629
31
0
0
LINE
8
09_ONG_40X60_GIANG
10
-141669.9
20
-28629
30
0
11
-237479.01
21
-28629
31
0
0
LINE
8
09_ONG_40X60_GIANG
10
-237479.01
20
-28629
30
0
11
-237479.01
21
-28689
31
0
0
LINE
8
09_ONG_40X60_GIANG
10
-237479.01
20
-22689
30
0
11
-141669.9
21
-22689
31
0
0
LINE
8
09_ONG_40X60_GIANG
10
-141669.9
20
-22689
30
0
11
-141669.9
21
-22629
31
0
0
LINE
8
09_ONG_40X60_GIANG
10
-141669.9
20
-22629
30
0
11
-237479.01
21
-22629
31
0
0
LINE
8
09_ONG_40X60_GIANG
10
-237479.01
20
-22629
30
0
11
-237479.01
21
-22689
31
0
0
LINE
8
09_ONG_40X60_GIANG
10
-237479.01
20
-16689
30
0
11
-161014.9
21
-16689
31
0
0
LINE
8
09_ONG_40X60_GIANG
10
-161014.9
20
-16689
30
0
11
-161014.9
21
-16629
31
0
0
LINE
8
09_ONG_40X60_GIANG
10
-161014.9
20
-16629
30
0
11
-237479.01
21
-16629
31
0
0
LINE
8
09_ONG_40X60_GIANG
10
-237479.01
20
-16629
30
0
11
-237479.01
21
-16689
31
0
0
LINE
8
09_ONG_40X60_GIANG
10
-237479.01
20
-13289
30
0
11
-161014.9
21
-13289
31
0
0
LINE
8
09_ONG_40X60_GIANG
10
-161014.9
20
-13289
30
0
11
-161014.9
21
-13229
31
0
0
LINE
8
09_ONG_40X60_GIANG
10
-161014.9
20
-13229
30
0
11
-237479.01
21
-13229
31
0
0
LINE
8
09_ONG_40X60_GIANG
10
-237479.01
20
-13229
30
0
11
-237479.01
21
-13289
31
0
0
LINE
8
10_MOC_CHU_KI
10
-237239.01
20
-58729
30
0
11
-237119.01
21
-58729
31
0
0
LINE
8
10_MOC_CHU_KI
10
-237119.01
20
-58729
30
0
11
-237119.01
21
-58589
31
0
0
LINE
8
10_MOC_CHU_KI
10
-237119.01
20
-58589
30
0
11
-237239.01
21
-58589
31
0
0
LINE
8
10_MOC_CHU_KI
10
-237239.01
20
-58589
30
0
11
-237239.01
21
-58729
31
0
0
LINE
8
10_MOC_CHU_KI
10
-236384.01
20
-58729
30
0
11
-236264.01
21
-58729
31
0
0
LINE
8
10_MOC_CHU_KI
10
-236264.01
20
-58729
30
0
11
-236264.01
21
-58589
31
0
0
LINE
8
10_MOC_CHU_KI
10
-236264.01
20
-58589
30
0
11
-236384.01
21
-58589
31
0
0
LINE
8
10_MOC_CHU_KI
10
-236384.01
20
-58589
30
0
11
-236384.01
21
-58729
31
0
0
LINE
8
10_MOC_CHU_KI
10
-235562.85
20
-58729
30
0
11
-235442.85
21
-58729
31
0
0
LINE
8
10_MOC_CHU_KI
10
-235442.85
20
-58729
30
0
11
-235442.85
21
-58589
31
0
0
LINE
8
10_MOC_CHU_KI
10
-235442.85
20
-58589
30
0
11
-235562.85
21
-58589
31
0
0
LINE
8
10_MOC_CHU_KI
10
-235562.85
20
-58589
30
0
11
-235562.85
21
-58729
31
0
0
LINE
8
10_MOC_CHU_KI
10
-234162.85
20
-58729
30
0
11
-234042.85
21
-58729
31
0
0
LINE
8
10_MOC_CHU_KI
10
-234042.85
20
-58729
30
0
11
-234042.85
21
-58589
31
0
0
LINE
8
10_MOC_CHU_KI
10
-234042.85
20
-58589
30
0
11
-234162.85
21
-58589
31
0
0
LINE
8
10_MOC_CHU_KI
10
-234162.85
20
-58589
30
0
11
-234162.85
21
-58729
31
0
0
LINE
8
10_MOC_CHU_KI
10
-233052.85
20
-58729
30
0
11
-232932.85
21
-58729
31
0
0
LINE
8
10_MOC_CHU_KI
10
-232932.85
20
-58729
30
0
11
-232932.85
21
-58589
31
0
0
LINE
8
10_MOC_CHU_KI
10
-232932.85
20
-58589
30
0
11
-233052.85
21
-58589
31
0
0
LINE
8
10_MOC_CHU_KI
10
-233052.85
20
-58589
30
0
11
-233052.85
21
-58729
31
0
0
LINE
8
10_MOC_CHU_KI
10
-231652.85
20
-58729
30
0
11
-231532.85
21
-58729
31
0
0
LINE
8
10_MOC_CHU_KI
10
-231532.85
20
-58729
30
0
11
-231532.85
21
-58589
31
0
0
LINE
8
10_MOC_CHU_KI
10
-231532.85
20
-58589
30
0
11
-231652.85
21
-58589
31
0
0
LINE
8
10_MOC_CHU_KI
10
-231652.85
20
-58589
30
0
11
-231652.85
21
-58729
31
0
0
LINE
8
10_MOC_CHU_KI
10
-230542.85
20
-58729
30
0
11
-230422.85
21
-58729
31
0
0
LINE
8
10_MOC_CHU_KI
10
-230422.85
20
-58729
30
0
11
-230422.85
21
-58589
31
0
0
LINE
8
10_MOC_CHU_KI
10
-230422.85
20
-58589
30
0
11
-230542.85
21
-58589
31
0
0
LINE
8
10_MOC_CHU_KI
10
-230542.85
20
-58589
30
0
11
-230542.85
21
-58729
31
0
0
LINE
8
10_MOC_CHU_KI
10
-229142.85
20
-58729
30
0
11
-229022.85
21
-58729
31
0
0
LINE
8
10_MOC_CHU_KI
10
-229022.85
20
-58729
30
0
11
-229022.85
21
-58589
31
0
0
LINE
8
10_MOC_CHU_KI
10
-229022.85
20
-58589
30
0
11
-229142.85
21
-58589
31
0
0
LINE
8
10_MOC_CHU_KI
10
-229142.85
20
-58589
30
0
11
-229142.85
21
-58729
31
0
0
LINE
8
10_MOC_CHU_KI
10
-228032.85
20
-58729
30
0
11
-227912.85
21
-58729
31
0
0
LINE
8
10_MOC_CHU_KI
10
-227912.85
20
-58729
30
0
11
-227912.85
21
-58589
31
0
0
LINE
8
10_MOC_CHU_KI
10
-227912.85
20
-58589
30
0
11
-228032.85
21
-58589
31
0
0
LINE
8
10_MOC_CHU_KI
10
-228032.85
20
-58589
30
0
11
-228032.85
21
-58729
31
0
0
LINE
8
10_MOC_CHU_KI
10
-226632.85
20
-58729
30
0
11
-226512.85
21
-58729
31
0
0
LINE
8
10_MOC_CHU_KI
10
-226512.85
20
-58729
30
0
11
-226512.85
21
-58589
31
0
0
LINE
8
10_MOC_CHU_KI
10
-226512.85
20
-58589
30
0
11
-226632.85
21
-58589
31
0
0
LINE
8
10_MOC_CHU_KI
10
-226632.85
20
-58589
30
0
11
-226632.85
21
-58729
31
0
0
LINE
8
10_MOC_CHU_KI
10
-225522.85
20
-58729
30
0
11
-225402.85
21
-58729
31
0
0
LINE
8
10_MOC_CHU_KI
10
-225402.85
20
-58729
30
0
11
-225402.85
21
-58589
31
0
0
LINE
8
10_MOC_CHU_KI
10
-225402.85
20
-58589
30
0
11
-225522.85
21
-58589
31
0
0
LINE
8
10_MOC_CHU_KI
10
-225522.85
20
-58589
30
0
11
-225522.85
21
-58729
31
0
0
LINE
8
10_MOC_CHU_KI
10
-224122.85
20
-58729
30
0
11
-224002.85
21
-58729
31
0
0
LINE
8
10_MOC_CHU_KI
10
-224002.85
20
-58729
30
0
11
-224002.85
21
-58589
31
0
0
LINE
8
10_MOC_CHU_KI
10
-224002.85
20
-58589
30
0
11
-224122.85
21
-58589
31
0
0
LINE
8
10_MOC_CHU_KI
10
-224122.85
20
-58589
30
0
11
-224122.85
21
-58729
31
0
0
LINE
8
10_MOC_CHU_KI
10
-237239.01
20
-13329
30
0
11
-237119.01
21
-13329
31
0
0
LINE
8
10_MOC_CHU_KI
10
-237119.01
20
-13329
30
0
11
-237119.01
21
-13189
31
0
0
LINE
8
10_MOC_CHU_KI
10
-237119.01
20
-13189
30
0
11
-237239.01
21
-13189
31
0
0
LINE
8
10_MOC_CHU_KI
10
-237239.01
20
-13189
30
0
11
-237239.01
21
-13329
31
0
0
LINE
8
10_MOC_CHU_KI
10
-236384.01
20
-13329
30
0
11
-236264.01
21
-13329
31
0
0
LINE
8
10_MOC_CHU_KI
10
-236264.01
20
-13329
30
0
11
-236264.01
21
-13189
31
0
0
LINE
8
10_MOC_CHU_KI
10
-236264.01
20
-13189
30
0
11
-236384.01
21
-13189
31
0
0
LINE
8
10_MOC_CHU_KI
10
-236384.01
20
-13189
30
0
11
-236384.01
21
-13329
31
0
0
LINE
8
10_MOC_CHU_KI
10
-235562.85
20
-13329
30
0
11
-235442.85
21
-13329
31
0
0
LINE
8
10_MOC_CHU_KI
10
-235442.85
20
-13329
30
0
11
-235442.85
21
-13189
31
0
0
LINE
8
10_MOC_CHU_KI
10
-235442.85
20
-13189
30
0
11
-235562.85
21
-13189
31
0
0
LINE
8
10_MOC_CHU_KI
10
-235562.85
20
-13189
30
0
11
-235562.85
21
-13329
31
0
0
LINE
8
10_MOC_CHU_KI
10
-234162.85
20
-13329
30
0
11
-234042.85
21
-13329
31
0
0
LINE
8
10_MOC_CHU_KI
10
-234042.85
20
-13329
30
0
11
-234042.85
21
-13189
31
0
0
LINE
8
10_MOC_CHU_KI
10
-234042.85
20
-13189
30
0
11
-234162.85
21
-13189
31
0
0
LINE
8
10_MOC_CHU_KI
10
-234162.85
20
-13189
30
0
11
-234162.85
21
-13329
31
0
0
LINE
8
10_MOC_CHU_KI
10
-233052.85
20
-13329
30
0
11
-232932.85
21
-13329
31
0
0
LINE
8
10_MOC_CHU_KI
10
-232932.85
20
-13329
30
0
11
-232932.85
21
-13189
31
0
0
LINE
8
10_MOC_CHU_KI
10
-232932.85
20
-13189
30
0
11
-233052.85
21
-13189
31
0
0
LINE
8
10_MOC_CHU_KI
10
-233052.85
20
-13189
30
0
11
-233052.85
21
-13329
31
0
0
LINE
8
10_MOC_CHU_KI
10
-231652.85
20
-13329
30
0
11
-231532.85
21
-13329
31
0
0
LINE
8
10_MOC_CHU_KI
10
-231532.85
20
-13329
30
0
11
-231532.85
21
-13189
31
0
0
LINE
8
10_MOC_CHU_KI
10
-231532.85
20
-13189
30
0
11
-231652.85
21
-13189
31
0
0
LINE
8
10_MOC_CHU_KI
10
-231652.85
20
-13189
30
0
11
-231652.85
21
-13329
31
0
0
LINE
8
10_MOC_CHU_KI
10
-230542.85
20
-13329
30
0
11
-230422.85
21
-13329
31
0
0
LINE
8
10_MOC_CHU_KI
10
-230422.85
20
-13329
30
0
11
-230422.85
21
-13189
31
0
0
LINE
8
10_MOC_CHU_KI
10
-230422.85
20
-13189
30
0
11
-230542.85
21
-13189
31
0
0
LINE
8
10_MOC_CHU_KI
10
-230542.85
20
-13189
30
0
11
-230542.85
21
-13329
31
0
0
LINE
8
10_MOC_CHU_KI
10
-229142.85
20
-13329
30
0
11
-229022.85
21
-13329
31
0
0
LINE
8
10_MOC_CHU_KI
10
-229022.85
20
-13329
30
0
11
-229022.85
21
-13189
31
0
0
LINE
8
10_MOC_CHU_KI
10
-229022.85
20
-13189
30
0
11
-229142.85
21
-13189
31
0
0
LINE
8
10_MOC_CHU_KI
10
-229142.85
20
-13189
30
0
11
-229142.85
21
-13329
31
0
0
LINE
8
10_MOC_CHU_KI
10
-228032.85
20
-13329
30
0
11
-227912.85
21
-13329
31
0
0
LINE
8
10_MOC_CHU_KI
10
-227912.85
20
-13329
30
0
11
-227912.85
21
-13189
31
0
0
LINE
8
10_MOC_CHU_KI
10
-227912.85
20
-13189
30
0
11
-228032.85
21
-13189
31
0
0
LINE
8
10_MOC_CHU_KI
10
-228032.85
20
-13189
30
0
11
-228032.85
21
-13329
31
0
0
LINE
8
10_MOC_CHU_KI
10
-226632.85
20
-13329
30
0
11
-226512.85
21
-13329
31
0
0
LINE
8
10_MOC_CHU_KI
10
-226512.85
20
-13329
30
0
11
-226512.85
21
-13189
31
0
0
LINE
8
10_MOC_CHU_KI
10
-226512.85
20
-13189
30
0
11
-226632.85
21
-13189
31
0
0
LINE
8
10_MOC_CHU_KI
10
-226632.85
20
-13189
30
0
11
-226632.85
21
-13329
31
0
0
LINE
8
10_MOC_CHU_KI
10
-225522.85
20
-13329
30
0
11
-225402.85
21
-13329
31
0
0
LINE
8
10_MOC_CHU_KI
10
-225402.85
20
-13329
30
0
11
-225402.85
21
-13189
31
0
0
LINE
8
10_MOC_CHU_KI
10
-225402.85
20
-13189
30
0
11
-225522.85
21
-13189
31
0
0
LINE
8
10_MOC_CHU_KI
10
-225522.85
20
-13189
30
0
11
-225522.85
21
-13329
31
0
0
LINE
8
10_MOC_CHU_KI
10
-224122.85
20
-13329
30
0
11
-224002.85
21
-13329
31
0
0
LINE
8
10_MOC_CHU_KI
10
-224002.85
20
-13329
30
0
11
-224002.85
21
-13189
31
0
0
LINE
8
10_MOC_CHU_KI
10
-224002.85
20
-13189
30
0
11
-224122.85
21
-13189
31
0
0
LINE
8
10_MOC_CHU_KI
10
-224122.85
20
-13189
30
0
11
-224122.85
21
-13329
31
0
0
LINE
8
10_MOC_CHU_KI
10
-230542.85
20
-56729
30
0
11
-230422.85
21
-56729
31
0
0
LINE
8
10_MOC_CHU_KI
10
-230422.85
20
-56729
30
0
11
-230422.85
21
-56589
31
0
0
LINE
8
10_MOC_CHU_KI
10
-230422.85
20
-56589
30
0
11
-230542.85
21
-56589
31
0
0
LINE
8
10_MOC_CHU_KI
10
-230542.85
20
-56589
30
0
11
-230542.85
21
-56729
31
0
0
LINE
8
10_MOC_CHU_KI
10
-229142.85
20
-56729
30
0
11
-229022.85
21
-56729
31
0
0
LINE
8
10_MOC_CHU_KI
10
-229022.85
20
-56729
30
0
11
-229022.85
21
-56589
31
0
0
LINE
8
10_MOC_CHU_KI
10
-229022.85
20
-56589
30
0
11
-229142.85
21
-56589
31
0
0
LINE
8
10_MOC_CHU_KI
10
-229142.85
20
-56589
30
0
11
-229142.85
21
-56729
31
0
0
LINE
8
10_MOC_CHU_KI
10
-228032.85
20
-56729
30
0
11
-227912.85
21
-56729
31
0
0
LINE
8
10_MOC_CHU_KI
10
-227912.85
20
-56729
30
0
11
-227912.85
21
-56589
31
0
0
LINE
8
10_MOC_CHU_KI
10
-227912.85
20
-56589
30
0
11
-228032.85
21
-56589
31
0
0
LINE
8
10_MOC_CHU_KI
10
-228032.85
20
-56589
30
0
11
-228032.85
21
-56729
31
0
0
LINE
8
10_MOC_CHU_KI
10
-226632.85
20
-56729
30
0
11
-226512.85
21
-56729
31
0
0
LINE
8
10_MOC_CHU_KI
10
-226512.85
20
-56729
30
0
11
-226512.85
21
-56589
31
0
0
LINE
8
10_MOC_CHU_KI
10
-226512.85
20
-56589
30
0
11
-226632.85
21
-56589
31
0
0
LINE
8
10_MOC_CHU_KI
10
-226632.85
20
-56589
30
0
11
-226632.85
21
-56729
31
0
0
LINE
8
10_MOC_CHU_KI
10
-225522.85
20
-56729
30
0
11
-225402.85
21
-56729
31
0
0
LINE
8
10_MOC_CHU_KI
10
-225402.85
20
-56729
30
0
11
-225402.85
21
-56589
31
0
0
LINE
8
10_MOC_CHU_KI
10
-225402.85
20
-56589
30
0
11
-225522.85
21
-56589
31
0
0
LINE
8
10_MOC_CHU_KI
10
-225522.85
20
-56589
30
0
11
-225522.85
21
-56729
31
0
0
LINE
8
10_MOC_CHU_KI
10
-224122.85
20
-56729
30
0
11
-224002.85
21
-56729
31
0
0
LINE
8
10_MOC_CHU_KI
10
-224002.85
20
-56729
30
0
11
-224002.85
21
-56589
31
0
0
LINE
8
10_MOC_CHU_KI
10
-224002.85
20
-56589
30
0
11
-224122.85
21
-56589
31
0
0
LINE
8
10_MOC_CHU_KI
10
-224122.85
20
-56589
30
0
11
-224122.85
21
-56729
31
0
0
LINE
8
10_MOC_CHU_KI
10
-223012.85
20
-56729
30
0
11
-222892.85
21
-56729
31
0
0
LINE
8
10_MOC_CHU_KI
10
-222892.85
20
-56729
30
0
11
-222892.85
21
-56589
31
0
0
LINE
8
10_MOC_CHU_KI
10
-222892.85
20
-56589
30
0
11
-223012.85
21
-56589
31
0
0
LINE
8
10_MOC_CHU_KI
10
-223012.85
20
-56589
30
0
11
-223012.85
21
-56729
31
0
0
LINE
8
10_MOC_CHU_KI
10
-221612.85
20
-56729
30
0
11
-221492.85
21
-56729
31
0
0
LINE
8
10_MOC_CHU_KI
10
-221492.85
20
-56729
30
0
11
-221492.85
21
-56589
31
0
0
LINE
8
10_MOC_CHU_KI
10
-221492.85
20
-56589
30
0
11
-221612.85
21
-56589
31
0
0
LINE
8
10_MOC_CHU_KI
10
-221612.85
20
-56589
30
0
11
-221612.85
21
-56729
31
0
0
LINE
8
10_MOC_CHU_KI
10
-220482.85
20
-56729
30
0
11
-220362.85
21
-56729
31
0
0
LINE
8
10_MOC_CHU_KI
10
-220362.85
20
-56729
30
0
11
-220362.85
21
-56589
31
0
0
LINE
8
10_MOC_CHU_KI
10
-220362.85
20
-56589
30
0
11
-220482.85
21
-56589
31
0
0
LINE
8
10_MOC_CHU_KI
10
-220482.85
20
-56589
30
0
11
-220482.85
21
-56729
31
0
0
LINE
8
10_MOC_CHU_KI
10
-219082.85
20
-56729
30
0
11
-218962.85
21
-56729
31
0
0
LINE
8
10_MOC_CHU_KI
10
-218962.85
20
-56729
30
0
11
-218962.85
21
-56589
31
0
0
LINE
8
10_MOC_CHU_KI
10
-218962.85
20
-56589
30
0
11
-219082.85
21
-56589
31
0
0
LINE
8
10_MOC_CHU_KI
10
-219082.85
20
-56589
30
0
11
-219082.85
21
-56729
31
0
0
LINE
8
10_MOC_CHU_KI
10
-217982.85
20
-56729
30
0
11
-217862.85
21
-56729
31
0
0
LINE
8
10_MOC_CHU_KI
10
-217862.85
20
-56729
30
0
11
-217862.85
21
-56589
31
0
0
LINE
8
10_MOC_CHU_KI
10
-217862.85
20
-56589
30
0
11
-217982.85
21
-56589
31
0
0
LINE
8
10_MOC_CHU_KI
10
-217982.85
20
-56589
30
0
11
-217982.85
21
-56729
31
0
0
LINE
8
10_MOC_CHU_KI
10
-216592.85
20
-56729
30
0
11
-216472.85
21
-56729
31
0
0
LINE
8
10_MOC_CHU_KI
10
-216472.85
20
-56729
30
0
11
-216472.85
21
-56589
31
0
0
LINE
8
10_MOC_CHU_KI
10
-216472.85
20
-56589
30
0
11
-216592.85
21
-56589
31
0
0
LINE
8
10_MOC_CHU_KI
10
-216592.85
20
-56589
30
0
11
-216592.85
21
-56729
31
0
0
LINE
8
10_MOC_CHU_KI
10
-229142.85
20
-15329
30
0
11
-229022.85
21
-15329
31
0
0
LINE
8
10_MOC_CHU_KI
10
-229022.85
20
-15329
30
0
11
-229022.85
21
-15189
31
0
0
LINE
8
10_MOC_CHU_KI
10
-229022.85
20
-15189
30
0
11
-229142.85
21
-15189
31
0
0
LINE
8
10_MOC_CHU_KI
10
-229142.85
20
-15189
30
0
11
-229142.85
21
-15329
31
0
0
LINE
8
10_MOC_CHU_KI
10
-228032.85
20
-15329
30
0
11
-227912.85
21
-15329
31
0
0
LINE
8
10_MOC_CHU_KI
10
-227912.85
20
-15329
30
0
11
-227912.85
21
-15189
31
0
0
LINE
8
10_MOC_CHU_KI
10
-227912.85
20
-15189
30
0
11
-228032.85
21
-15189
31
0
0
LINE
8
10_MOC_CHU_KI
10
-228032.85
20
-15189
30
0
11
-228032.85
21
-15329
31
0
0
LINE
8
10_MOC_CHU_KI
10
-226632.85
20
-15329
30
0
11
-226512.85
21
-15329
31
0
0
LINE
8
10_MOC_CHU_KI
10
-226512.85
20
-15329
30
0
11
-226512.85
21
-15189
31
0
0
LINE
8
10_MOC_CHU_KI
10
-226512.85
20
-15189
30
0
11
-226632.85
21
-15189
31
0
0
LINE
8
10_MOC_CHU_KI
10
-226632.85
20
-15189
30
0
11
-226632.85
21
-15329
31
0
0
LINE
8
10_MOC_CHU_KI
10
-225522.85
20
-15329
30
0
11
-225402.85
21
-15329
31
0
0
LINE
8
10_MOC_CHU_KI
10
-225402.85
20
-15329
30
0
11
-225402.85
21
-15189
31
0
0
LINE
8
10_MOC_CHU_KI
10
-225402.85
20
-15189
30
0
11
-225522.85
21
-15189
31
0
0
LINE
8
10_MOC_CHU_KI
10
-225522.85
20
-15189
30
0
11
-225522.85
21
-15329
31
0
0
LINE
8
10_MOC_CHU_KI
10
-224122.85
20
-15329
30
0
11
-224002.85
21
-15329
31
0
0
LINE
8
10_MOC_CHU_KI
10
-224002.85
20
-15329
30
0
11
-224002.85
21
-15189
31
0
0
LINE
8
10_MOC_CHU_KI
10
-224002.85
20
-15189
30
0
11
-224122.85
21
-15189
31
0
0
LINE
8
10_MOC_CHU_KI
10
-224122.85
20
-15189
30
0
11
-224122.85
21
-15329
31
0
0
LINE
8
10_MOC_CHU_KI
10
-223012.85
20
-15329
30
0
11
-222892.85
21
-15329
31
0
0
LINE
8
10_MOC_CHU_KI
10
-222892.85
20
-15329
30
0
11
-222892.85
21
-15189
31
0
0
LINE
8
10_MOC_CHU_KI
10
-222892.85
20
-15189
30
0
11
-223012.85
21
-15189
31
0
0
LINE
8
10_MOC_CHU_KI
10
-223012.85
20
-15189
30
0
11
-223012.85
21
-15329
31
0
0
LINE
8
10_MOC_CHU_KI
10
-221612.85
20
-15329
30
0
11
-221492.85
21
-15329
31
0
0
LINE
8
10_MOC_CHU_KI
10
-221492.85
20
-15329
30
0
11
-221492.85
21
-15189
31
0
0
LINE
8
10_MOC_CHU_KI
10
-221492.85
20
-15189
30
0
11
-221612.85
21
-15189
31
0
0
LINE
8
10_MOC_CHU_KI
10
-221612.85
20
-15189
30
0
11
-221612.85
21
-15329
31
0
0
LINE
8
10_MOC_CHU_KI
10
-220482.85
20
-15329
30
0
11
-220362.85
21
-15329
31
0
0
LINE
8
10_MOC_CHU_KI
10
-220362.85
20
-15329
30
0
11
-220362.85
21
-15189
31
0
0
LINE
8
10_MOC_CHU_KI
10
-220362.85
20
-15189
30
0
11
-220482.85
21
-15189
31
0
0
LINE
8
10_MOC_CHU_KI
10
-220482.85
20
-15189
30
0
11
-220482.85
21
-15329
31
0
0
LINE
8
10_MOC_CHU_KI
10
-219082.85
20
-15329
30
0
11
-218962.85
21
-15329
31
0
0
LINE
8
10_MOC_CHU_KI
10
-218962.85
20
-15329
30
0
11
-218962.85
21
-15189
31
0
0
LINE
8
10_MOC_CHU_KI
10
-218962.85
20
-15189
30
0
11
-219082.85
21
-15189
31
0
0
LINE
8
10_MOC_CHU_KI
10
-219082.85
20
-15189
30
0
11
-219082.85
21
-15329
31
0
0
LINE
8
10_MOC_CHU_KI
10
-217982.85
20
-15329
30
0
11
-217862.85
21
-15329
31
0
0
LINE
8
10_MOC_CHU_KI
10
-217862.85
20
-15329
30
0
11
-217862.85
21
-15189
31
0
0
LINE
8
10_MOC_CHU_KI
10
-217862.85
20
-15189
30
0
11
-217982.85
21
-15189
31
0
0
LINE
8
10_MOC_CHU_KI
10
-217982.85
20
-15189
30
0
11
-217982.85
21
-15329
31
0
0
LINE
8
10_MOC_CHU_KI
10
-216592.85
20
-15329
30
0
11
-216472.85
21
-15329
31
0
0
LINE
8
10_MOC_CHU_KI
10
-216472.85
20
-15329
30
0
11
-216472.85
21
-15189
31
0
0
LINE
8
10_MOC_CHU_KI
10
-216472.85
20
-15189
30
0
11
-216592.85
21
-15189
31
0
0
LINE
8
10_MOC_CHU_KI
10
-216592.85
20
-15189
30
0
11
-216592.85
21
-15329
31
0
0
LINE
8
10_MOC_CHU_KI
10
-215487.85
20
-15329
30
0
11
-215367.85
21
-15329
31
0
0
LINE
8
10_MOC_CHU_KI
10
-215367.85
20
-15329
30
0
11
-215367.85
21
-15189
31
0
0
LINE
8
10_MOC_CHU_KI
10
-215367.85
20
-15189
30
0
11
-215487.85
21
-15189
31
0
0
LINE
8
10_MOC_CHU_KI
10
-215487.85
20
-15189
30
0
11
-215487.85
21
-15329
31
0
0
LINE
8
10_MOC_CHU_KI
10
-219082.85
20
-13329
30
0
11
-218962.85
21
-13329
31
0
0
LINE
8
10_MOC_CHU_KI
10
-218962.85
20
-13329
30
0
11
-218962.85
21
-13189
31
0
0
LINE
8
10_MOC_CHU_KI
10
-218962.85
20
-13189
30
0
11
-219082.85
21
-13189
31
0
0
LINE
8
10_MOC_CHU_KI
10
-219082.85
20
-13189
30
0
11
-219082.85
21
-13329
31
0
0
LINE
8
10_MOC_CHU_KI
10
-217982.85
20
-13329
30
0
11
-217862.85
21
-13329
31
0
0
LINE
8
10_MOC_CHU_KI
10
-217862.85
20
-13329
30
0
11
-217862.85
21
-13189
31
0
0
LINE
8
10_MOC_CHU_KI
10
-217862.85
20
-13189
30
0
11
-217982.85
21
-13189
31
0
0
LINE
8
10_MOC_CHU_KI
10
-217982.85
20
-13189
30
0
11
-217982.85
21
-13329
31
0
0
LINE
8
10_MOC_CHU_KI
10
-216592.85
20
-13329
30
0
11
-216472.85
21
-13329
31
0
0
LINE
8
10_MOC_CHU_KI
10
-216472.85
20
-13329
30
0
11
-216472.85
21
-13189
31
0
0
LINE
8
10_MOC_CHU_KI
10
-216472.85
20
-13189
30
0
11
-216592.85
21
-13189
31
0
0
LINE
8
10_MOC_CHU_KI
10
-216592.85
20
-13189
30
0
11
-216592.85
21
-13329
31
0
0
LINE
8
10_MOC_CHU_KI
10
-215487.85
20
-13329
30
0
11
-215367.85
21
-13329
31
0
0
LINE
8
10_MOC_CHU_KI
10
-215367.85
20
-13329
30
0
11
-215367.85
21
-13189
31
0
0
LINE
8
10_MOC_CHU_KI
10
-215367.85
20
-13189
30
0
11
-215487.85
21
-13189
31
0
0
LINE
8
10_MOC_CHU_KI
10
-215487.85
20
-13189
30
0
11
-215487.85
21
-13329
31
0
0
LINE
8
10_MOC_CHU_KI
10
-214082.85
20
-13329
30
0
11
-213962.85
21
-13329
31
0
0
LINE
8
10_MOC_CHU_KI
10
-213962.85
20
-13329
30
0
11
-213962.85
21
-13189
31
0
0
LINE
8
10_MOC_CHU_KI
10
-213962.85
20
-13189
30
0
11
-214082.85
21
-13189
31
0
0
LINE
8
10_MOC_CHU_KI
10
-214082.85
20
-13189
30
0
11
-214082.85
21
-13329
31
0
0
LINE
8
10_MOC_CHU_KI
10
-212962.85
20
-13329
30
0
11
-212842.85
21
-13329
31
0
0
LINE
8
10_MOC_CHU_KI
10
-212842.85
20
-13329
30
0
11
-212842.85
21
-13189
31
0
0
LINE
8
10_MOC_CHU_KI
10
-212842.85
20
-13189
30
0
11
-212962.85
21
-13189
31
0
0
LINE
8
10_MOC_CHU_KI
10
-212962.85
20
-13189
30
0
11
-212962.85
21
-13329
31
0
0
LINE
8
10_MOC_CHU_KI
10
-211582.85
20
-13329
30
0
11
-211462.85
21
-13329
31
0
0
LINE
8
10_MOC_CHU_KI
10
-211462.85
20
-13329
30
0
11
-211462.85
21
-13189
31
0
0
LINE
8
10_MOC_CHU_KI
10
-211462.85
20
-13189
30
0
11
-211582.85
21
-13189
31
0
0
LINE
8
10_MOC_CHU_KI
10
-211582.85
20
-13189
30
0
11
-211582.85
21
-13329
31
0
0
LINE
8
10_MOC_CHU_KI
10
-210452.85
20
-13329
30
0
11
-210332.85
21
-13329
31
0
0
LINE
8
10_MOC_CHU_KI
10
-210332.85
20
-13329
30
0
11
-210332.85
21
-13189
31
0
0
LINE
8
10_MOC_CHU_KI
10
-210332.85
20
-13189
30
0
11
-210452.85
21
-13189
31
0
0
LINE
8
10_MOC_CHU_KI
10
-210452.85
20
-13189
30
0
11
-210452.85
21
-13329
31
0
0
LINE
8
10_MOC_CHU_KI
10
-209062.85
20
-13329
30
0
11
-208942.85
21
-13329
31
0
0
LINE
8
10_MOC_CHU_KI
10
-208942.85
20
-13329
30
0
11
-208942.85
21
-13189
31
0
0
LINE
8
10_MOC_CHU_KI
10
-208942.85
20
-13189
30
0
11
-209062.85
21
-13189
31
0
0
LINE
8
10_MOC_CHU_KI
10
-209062.85
20
-13189
30
0
11
-209062.85
21
-13329
31
0
0
LINE
8
10_MOC_CHU_KI
10
-207957.85
20
-13329
30
0
11
-207837.85
21
-13329
31
0
0
LINE
8
10_MOC_CHU_KI
10
-207837.85
20
-13329
30
0
11
-207837.85
21
-13189
31
0
0
LINE
8
10_MOC_CHU_KI
10
-207837.85
20
-13189
30
0
11
-207957.85
21
-13189
31
0
0
LINE
8
10_MOC_CHU_KI
10
-207957.85
20
-13189
30
0
11
-207957.85
21
-13329
31
0
0
LINE
8
10_MOC_CHU_KI
10
-206552.85
20
-13329
30
0
11
-206432.85
21
-13329
31
0
0
LINE
8
10_MOC_CHU_KI
10
-206432.85
20
-13329
30
0
11
-206432.85
21
-13189
31
0
0
LINE
8
10_MOC_CHU_KI
10
-206432.85
20
-13189
30
0
11
-206552.85
21
-13189
31
0
0
LINE
8
10_MOC_CHU_KI
10
-206552.85
20
-13189
30
0
11
-206552.85
21
-13329
31
0
0
LINE
8
10_MOC_CHU_KI
10
-205427.85
20
-13329
30
0
11
-205307.85
21
-13329
31
0
0
LINE
8
10_MOC_CHU_KI
10
-205307.85
20
-13329
30
0
11
-205307.85
21
-13189
31
0
0
LINE
8
10_MOC_CHU_KI
10
-205307.85
20
-13189
30
0
11
-205427.85
21
-13189
31
0
0
LINE
8
10_MOC_CHU_KI
10
-205427.85
20
-13189
30
0
11
-205427.85
21
-13329
31
0
0
LINE
8
10_MOC_CHU_KI
10
-217982.85
20
-58729
30
0
11
-217862.85
21
-58729
31
0
0
LINE
8
10_MOC_CHU_KI
10
-217862.85
20
-58729
30
0
11
-217862.85
21
-58589
31
0
0
LINE
8
10_MOC_CHU_KI
10
-217862.85
20
-58589
30
0
11
-217982.85
21
-58589
31
0
0
LINE
8
10_MOC_CHU_KI
10
-217982.85
20
-58589
30
0
11
-217982.85
21
-58729
31
0
0
LINE
8
10_MOC_CHU_KI
10
-216592.85
20
-58729
30
0
11
-216472.85
21
-58729
31
0
0
LINE
8
10_MOC_CHU_KI
10
-216472.85
20
-58729
30
0
11
-216472.85
21
-58589
31
0
0
LINE
8
10_MOC_CHU_KI
10
-216472.85
20
-58589
30
0
11
-216592.85
21
-58589
31
0
0
LINE
8
10_MOC_CHU_KI
10
-216592.85
20
-58589
30
0
11
-216592.85
21
-58729
31
0
0
LINE
8
10_MOC_CHU_KI
10
-215487.85
20
-58729
30
0
11
-215367.85
21
-58729
31
0
0
LINE
8
10_MOC_CHU_KI
10
-215367.85
20
-58729
30
0
11
-215367.85
21
-58589
31
0
0
LINE
8
10_MOC_CHU_KI
10
-215367.85
20
-58589
30
0
11
-215487.85
21
-58589
31
0
0
LINE
8
10_MOC_CHU_KI
10
-215487.85
20
-58589
30
0
11
-215487.85
21
-58729
31
0
0
LINE
8
10_MOC_CHU_KI
10
-214082.85
20
-58729
30
0
11
-213962.85
21
-58729
31
0
0
LINE
8
10_MOC_CHU_KI
10
-213962.85
20
-58729
30
0
11
-213962.85
21
-58589
31
0
0
LINE
8
10_MOC_CHU_KI
10
-213962.85
20
-58589
30
0
11
-214082.85
21
-58589
31
0
0
LINE
8
10_MOC_CHU_KI
10
-214082.85
20
-58589
30
0
11
-214082.85
21
-58729
31
0
0
LINE
8
10_MOC_CHU_KI
10
-212962.85
20
-58729
30
0
11
-212842.85
21
-58729
31
0
0
LINE
8
10_MOC_CHU_KI
10
-212842.85
20
-58729
30
0
11
-212842.85
21
-58589
31
0
0
LINE
8
10_MOC_CHU_KI
10
-212842.85
20
-58589
30
0
11
-212962.85
21
-58589
31
0
0
LINE
8
10_MOC_CHU_KI
10
-212962.85
20
-58589
30
0
11
-212962.85
21
-58729
31
0
0
LINE
8
10_MOC_CHU_KI
10
-211582.85
20
-58729
30
0
11
-211462.85
21
-58729
31
0
0
LINE
8
10_MOC_CHU_KI
10
-211462.85
20
-58729
30
0
11
-211462.85
21
-58589
31
0
0
LINE
8
10_MOC_CHU_KI
10
-211462.85
20
-58589
30
0
11
-211582.85
21
-58589
31
0
0
LINE
8
10_MOC_CHU_KI
10
-211582.85
20
-58589
30
0
11
-211582.85
21
-58729
31
0
0
LINE
8
10_MOC_CHU_KI
10
-210452.85
20
-58729
30
0
11
-210332.85
21
-58729
31
0
0
LINE
8
10_MOC_CHU_KI
10
-210332.85
20
-58729
30
0
11
-210332.85
21
-58589
31
0
0
LINE
8
10_MOC_CHU_KI
10
-210332.85
20
-58589
30
0
11
-210452.85
21
-58589
31
0
0
LINE
8
10_MOC_CHU_KI
10
-210452.85
20
-58589
30
0
11
-210452.85
21
-58729
31
0
0
LINE
8
10_MOC_CHU_KI
10
-209062.85
20
-58729
30
0
11
-208942.85
21
-58729
31
0
0
LINE
8
10_MOC_CHU_KI
10
-208942.85
20
-58729
30
0
11
-208942.85
21
-58589
31
0
0
LINE
8
10_MOC_CHU_KI
10
-208942.85
20
-58589
30
0
11
-209062.85
21
-58589
31
0
0
LINE
8
10_MOC_CHU_KI
10
-209062.85
20
-58589
30
0
11
-209062.85
21
-58729
31
0
0
LINE
8
10_MOC_CHU_KI
10
-207957.85
20
-58729
30
0
11
-207837.85
21
-58729
31
0
0
LINE
8
10_MOC_CHU_KI
10
-207837.85
20
-58729
30
0
11
-207837.85
21
-58589
31
0
0
LINE
8
10_MOC_CHU_KI
10
-207837.85
20
-58589
30
0
11
-207957.85
21
-58589
31
0
0
LINE
8
10_MOC_CHU_KI
10
-207957.85
20
-58589
30
0
11
-207957.85
21
-58729
31
0
0
LINE
8
10_MOC_CHU_KI
10
-206552.85
20
-58729
30
0
11
-206432.85
21
-58729
31
0
0
LINE
8
10_MOC_CHU_KI
10
-206432.85
20
-58729
30
0
11
-206432.85
21
-58589
31
0
0
LINE
8
10_MOC_CHU_KI
10
-206432.85
20
-58589
30
0
11
-206552.85
21
-58589
31
0
0
LINE
8
10_MOC_CHU_KI
10
-206552.85
20
-58589
30
0
11
-206552.85
21
-58729
31
0
0
LINE
8
10_MOC_CHU_KI
10
-205427.85
20
-58729
30
0
11
-205307.85
21
-58729
31
0
0
LINE
8
10_MOC_CHU_KI
10
-205307.85
20
-58729
30
0
11
-205307.85
21
-58589
31
0
0
LINE
8
10_MOC_CHU_KI
10
-205307.85
20
-58589
30
0
11
-205427.85
21
-58589
31
0
0
LINE
8
10_MOC_CHU_KI
10
-205427.85
20
-58589
30
0
11
-205427.85
21
-58729
31
0
0
LINE
8
10_MOC_CHU_KI
10
-204042.85
20
-58729
30
0
11
-203922.85
21
-58729
31
0
0
LINE
8
10_MOC_CHU_KI
10
-203922.85
20
-58729
30
0
11
-203922.85
21
-58589
31
0
0
LINE
8
10_MOC_CHU_KI
10
-203922.85
20
-58589
30
0
11
-204042.85
21
-58589
31
0
0
LINE
8
10_MOC_CHU_KI
10
-204042.85
20
-58589
30
0
11
-204042.85
21
-58729
31
0
0
LINE
8
10_MOC_CHU_KI
10
-195392.25
20
-58729
30
0
11
-195272.25
21
-58729
31
0
0
LINE
8
10_MOC_CHU_KI
10
-195272.25
20
-58729
30
0
11
-195272.25
21
-58589
31
0
0
LINE
8
10_MOC_CHU_KI
10
-195272.25
20
-58589
30
0
11
-195392.25
21
-58589
31
0
0
LINE
8
10_MOC_CHU_KI
10
-195392.25
20
-58589
30
0
11
-195392.25
21
-58729
31
0
0
LINE
8
10_MOC_CHU_KI
10
-193992.25
20
-58729
30
0
11
-193872.25
21
-58729
31
0
0
LINE
8
10_MOC_CHU_KI
10
-193872.25
20
-58729
30
0
11
-193872.25
21
-58589
31
0
0
LINE
8
10_MOC_CHU_KI
10
-193872.25
20
-58589
30
0
11
-193992.25
21
-58589
31
0
0
LINE
8
10_MOC_CHU_KI
10
-193992.25
20
-58589
30
0
11
-193992.25
21
-58729
31
0
0
LINE
8
10_MOC_CHU_KI
10
-192882.25
20
-58729
30
0
11
-192762.25
21
-58729
31
0
0
LINE
8
10_MOC_CHU_KI
10
-192762.25
20
-58729
30
0
11
-192762.25
21
-58589
31
0
0
LINE
8
10_MOC_CHU_KI
10
-192762.25
20
-58589
30
0
11
-192882.25
21
-58589
31
0
0
LINE
8
10_MOC_CHU_KI
10
-192882.25
20
-58589
30
0
11
-192882.25
21
-58729
31
0
0
LINE
8
10_MOC_CHU_KI
10
-191482.25
20
-58729
30
0
11
-191362.25
21
-58729
31
0
0
LINE
8
10_MOC_CHU_KI
10
-191362.25
20
-58729
30
0
11
-191362.25
21
-58589
31
0
0
LINE
8
10_MOC_CHU_KI
10
-191362.25
20
-58589
30
0
11
-191482.25
21
-58589
31
0
0
LINE
8
10_MOC_CHU_KI
10
-191482.25
20
-58589
30
0
11
-191482.25
21
-58729
31
0
0
LINE
8
10_MOC_CHU_KI
10
-190372.25
20
-58729
30
0
11
-190252.25
21
-58729
31
0
0
LINE
8
10_MOC_CHU_KI
10
-190252.25
20
-58729
30
0
11
-190252.25
21
-58589
31
0
0
LINE
8
10_MOC_CHU_KI
10
-190252.25
20
-58589
30
0
11
-190372.25
21
-58589
31
0
0
LINE
8
10_MOC_CHU_KI
10
-190372.25
20
-58589
30
0
11
-190372.25
21
-58729
31
0
0
LINE
8
10_MOC_CHU_KI
10
-188972.25
20
-58729
30
0
11
-188852.25
21
-58729
31
0
0
LINE
8
10_MOC_CHU_KI
10
-188852.25
20
-58729
30
0
11
-188852.25
21
-58589
31
0
0
LINE
8
10_MOC_CHU_KI
10
-188852.25
20
-58589
30
0
11
-188972.25
21
-58589
31
0
0
LINE
8
10_MOC_CHU_KI
10
-188972.25
20
-58589
30
0
11
-188972.25
21
-58729
31
0
0
LINE
8
10_MOC_CHU_KI
10
-187862.25
20
-58729
30
0
11
-187742.25
21
-58729
31
0
0
LINE
8
10_MOC_CHU_KI
10
-187742.25
20
-58729
30
0
11
-187742.25
21
-58589
31
0
0
LINE
8
10_MOC_CHU_KI
10
-187742.25
20
-58589
30
0
11
-187862.25
21
-58589
31
0
0
LINE
8
10_MOC_CHU_KI
10
-187862.25
20
-58589
30
0
11
-187862.25
21
-58729
31
0
0
LINE
8
10_MOC_CHU_KI
10
-186462.25
20
-58729
30
0
11
-186342.25
21
-58729
31
0
0
LINE
8
10_MOC_CHU_KI
10
-186342.25
20
-58729
30
0
11
-186342.25
21
-58589
31
0
0
LINE
8
10_MOC_CHU_KI
10
-186342.25
20
-58589
30
0
11
-186462.25
21
-58589
31
0
0
LINE
8
10_MOC_CHU_KI
10
-186462.25
20
-58589
30
0
11
-186462.25
21
-58729
31
0
0
LINE
8
10_MOC_CHU_KI
10
-185352.25
20
-58729
30
0
11
-185232.25
21
-58729
31
0
0
LINE
8
10_MOC_CHU_KI
10
-185232.25
20
-58729
30
0
11
-185232.25
21
-58589
31
0
0
LINE
8
10_MOC_CHU_KI
10
-185232.25
20
-58589
30
0
11
-185352.25
21
-58589
31
0
0
LINE
8
10_MOC_CHU_KI
10
-185352.25
20
-58589
30
0
11
-185352.25
21
-58729
31
0
0
LINE
8
10_MOC_CHU_KI
10
-183952.25
20
-58729
30
0
11
-183832.25
21
-58729
31
0
0
LINE
8
10_MOC_CHU_KI
10
-183832.25
20
-58729
30
0
11
-183832.25
21
-58589
31
0
0
LINE
8
10_MOC_CHU_KI
10
-183832.25
20
-58589
30
0
11
-183952.25
21
-58589
31
0
0
LINE
8
10_MOC_CHU_KI
10
-183952.25
20
-58589
30
0
11
-183952.25
21
-58729
31
0
0
LINE
8
10_MOC_CHU_KI
10
-182842.25
20
-58729
30
0
11
-182722.25
21
-58729
31
0
0
LINE
8
10_MOC_CHU_KI
10
-182722.25
20
-58729
30
0
11
-182722.25
21
-58589
31
0
0
LINE
8
10_MOC_CHU_KI
10
-182722.25
20
-58589
30
0
11
-182842.25
21
-58589
31
0
0
LINE
8
10_MOC_CHU_KI
10
-182842.25
20
-58589
30
0
11
-182842.25
21
-58729
31
0
0
LINE
8
10_MOC_CHU_KI
10
-181442.25
20
-58729
30
0
11
-181322.25
21
-58729
31
0
0
LINE
8
10_MOC_CHU_KI
10
-181322.25
20
-58729
30
0
11
-181322.25
21
-58589
31
0
0
LINE
8
10_MOC_CHU_KI
10
-181322.25
20
-58589
30
0
11
-181442.25
21
-58589
31
0
0
LINE
8
10_MOC_CHU_KI
10
-181442.25
20
-58589
30
0
11
-181442.25
21
-58729
31
0
0
LINE
8
10_MOC_CHU_KI
10
-183952.25
20
-56729
30
0
11
-183832.25
21
-56729
31
0
0
LINE
8
10_MOC_CHU_KI
10
-183832.25
20
-56729
30
0
11
-183832.25
21
-56589
31
0
0
LINE
8
10_MOC_CHU_KI
10
-183832.25
20
-56589
30
0
11
-183952.25
21
-56589
31
0
0
LINE
8
10_MOC_CHU_KI
10
-183952.25
20
-56589
30
0
11
-183952.25
21
-56729
31
0
0
LINE
8
10_MOC_CHU_KI
10
-182842.25
20
-56729
30
0
11
-182722.25
21
-56729
31
0
0
LINE
8
10_MOC_CHU_KI
10
-182722.25
20
-56729
30
0
11
-182722.25
21
-56589
31
0
0
LINE
8
10_MOC_CHU_KI
10
-182722.25
20
-56589
30
0
11
-182842.25
21
-56589
31
0
0
LINE
8
10_MOC_CHU_KI
10
-182842.25
20
-56589
30
0
11
-182842.25
21
-56729
31
0
0
LINE
8
10_MOC_CHU_KI
10
-181442.25
20
-56729
30
0
11
-181322.25
21
-56729
31
0
0
LINE
8
10_MOC_CHU_KI
10
-181322.25
20
-56729
30
0
11
-181322.25
21
-56589
31
0
0
LINE
8
10_MOC_CHU_KI
10
-181322.25
20
-56589
30
0
11
-181442.25
21
-56589
31
0
0
LINE
8
10_MOC_CHU_KI
10
-181442.25
20
-56589
30
0
11
-181442.25
21
-56729
31
0
0
LINE
8
10_MOC_CHU_KI
10
-180332.25
20
-56729
30
0
11
-180212.25
21
-56729
31
0
0
LINE
8
10_MOC_CHU_KI
10
-180212.25
20
-56729
30
0
11
-180212.25
21
-56589
31
0
0
LINE
8
10_MOC_CHU_KI
10
-180212.25
20
-56589
30
0
11
-180332.25
21
-56589
31
0
0
LINE
8
10_MOC_CHU_KI
10
-180332.25
20
-56589
30
0
11
-180332.25
21
-56729
31
0
0
LINE
8
10_MOC_CHU_KI
10
-178932.25
20
-56729
30
0
11
-178812.25
21
-56729
31
0
0
LINE
8
10_MOC_CHU_KI
10
-178812.25
20
-56729
30
0
11
-178812.25
21
-56589
31
0
0
LINE
8
10_MOC_CHU_KI
10
-178812.25
20
-56589
30
0
11
-178932.25
21
-56589
31
0
0
LINE
8
10_MOC_CHU_KI
10
-178932.25
20
-56589
30
0
11
-178932.25
21
-56729
31
0
0
LINE
8
10_MOC_CHU_KI
10
-177822.25
20
-56729
30
0
11
-177702.25
21
-56729
31
0
0
LINE
8
10_MOC_CHU_KI
10
-177702.25
20
-56729
30
0
11
-177702.25
21
-56589
31
0
0
LINE
8
10_MOC_CHU_KI
10
-177702.25
20
-56589
30
0
11
-177822.25
21
-56589
31
0
0
LINE
8
10_MOC_CHU_KI
10
-177822.25
20
-56589
30
0
11
-177822.25
21
-56729
31
0
0
LINE
8
10_MOC_CHU_KI
10
-176422.25
20
-56729
30
0
11
-176302.25
21
-56729
31
0
0
LINE
8
10_MOC_CHU_KI
10
-176302.25
20
-56729
30
0
11
-176302.25
21
-56589
31
0
0
LINE
8
10_MOC_CHU_KI
10
-176302.25
20
-56589
30
0
11
-176422.25
21
-56589
31
0
0
LINE
8
10_MOC_CHU_KI
10
-176422.25
20
-56589
30
0
11
-176422.25
21
-56729
31
0
0
LINE
8
10_MOC_CHU_KI
10
-175312.25
20
-56729
30
0
11
-175192.25
21
-56729
31
0
0
LINE
8
10_MOC_CHU_KI
10
-175192.25
20
-56729
30
0
11
-175192.25
21
-56589
31
0
0
LINE
8
10_MOC_CHU_KI
10
-175192.25
20
-56589
30
0
11
-175312.25
21
-56589
31
0
0
LINE
8
10_MOC_CHU_KI
10
-175312.25
20
-56589
30
0
11
-175312.25
21
-56729
31
0
0
LINE
8
10_MOC_CHU_KI
10
-173912.25
20
-56729
30
0
11
-173792.25
21
-56729
31
0
0
LINE
8
10_MOC_CHU_KI
10
-173792.25
20
-56729
30
0
11
-173792.25
21
-56589
31
0
0
LINE
8
10_MOC_CHU_KI
10
-173792.25
20
-56589
30
0
11
-173912.25
21
-56589
31
0
0
LINE
8
10_MOC_CHU_KI
10
-173912.25
20
-56589
30
0
11
-173912.25
21
-56729
31
0
0
LINE
8
10_MOC_CHU_KI
10
-172802.25
20
-56729
30
0
11
-172682.25
21
-56729
31
0
0
LINE
8
10_MOC_CHU_KI
10
-172682.25
20
-56729
30
0
11
-172682.25
21
-56589
31
0
0
LINE
8
10_MOC_CHU_KI
10
-172682.25
20
-56589
30
0
11
-172802.25
21
-56589
31
0
0
LINE
8
10_MOC_CHU_KI
10
-172802.25
20
-56589
30
0
11
-172802.25
21
-56729
31
0
0
LINE
8
10_MOC_CHU_KI
10
-171402.25
20
-56729
30
0
11
-171282.25
21
-56729
31
0
0
LINE
8
10_MOC_CHU_KI
10
-171282.25
20
-56729
30
0
11
-171282.25
21
-56589
31
0
0
LINE
8
10_MOC_CHU_KI
10
-171282.25
20
-56589
30
0
11
-171402.25
21
-56589
31
0
0
LINE
8
10_MOC_CHU_KI
10
-171402.25
20
-56589
30
0
11
-171402.25
21
-56729
31
0
0
LINE
8
10_MOC_CHU_KI
10
-170292.25
20
-56729
30
0
11
-170172.25
21
-56729
31
0
0
LINE
8
10_MOC_CHU_KI
10
-170172.25
20
-56729
30
0
11
-170172.25
21
-56589
31
0
0
LINE
8
10_MOC_CHU_KI
10
-170172.25
20
-56589
30
0
11
-170292.25
21
-56589
31
0
0
LINE
8
10_MOC_CHU_KI
10
-170292.25
20
-56589
30
0
11
-170292.25
21
-56729
31
0
0
LINE
8
10_MOC_CHU_KI
10
-180332.25
20
-13329
30
0
11
-180212.25
21
-13329
31
0
0
LINE
8
10_MOC_CHU_KI
10
-180212.25
20
-13329
30
0
11
-180212.25
21
-13189
31
0
0
LINE
8
10_MOC_CHU_KI
10
-180212.25
20
-13189
30
0
11
-180332.25
21
-13189
31
0
0
LINE
8
10_MOC_CHU_KI
10
-180332.25
20
-13189
30
0
11
-180332.25
21
-13329
31
0
0
LINE
8
10_MOC_CHU_KI
10
-178932.25
20
-13329
30
0
11
-178812.25
21
-13329
31
0
0
LINE
8
10_MOC_CHU_KI
10
-178812.25
20
-13329
30
0
11
-178812.25
21
-13189
31
0
0
LINE
8
10_MOC_CHU_KI
10
-178812.25
20
-13189
30
0
11
-178932.25
21
-13189
31
0
0
LINE
8
10_MOC_CHU_KI
10
-178932.25
20
-13189
30
0
11
-178932.25
21
-13329
31
0
0
LINE
8
10_MOC_CHU_KI
10
-177822.25
20
-13329
30
0
11
-177702.25
21
-13329
31
0
0
LINE
8
10_MOC_CHU_KI
10
-177702.25
20
-13329
30
0
11
-177702.25
21
-13189
31
0
0
LINE
8
10_MOC_CHU_KI
10
-177702.25
20
-13189
30
0
11
-177822.25
21
-13189
31
0
0
LINE
8
10_MOC_CHU_KI
10
-177822.25
20
-13189
30
0
11
-177822.25
21
-13329
31
0
0
LINE
8
10_MOC_CHU_KI
10
-176422.25
20
-13329
30
0
11
-176302.25
21
-13329
31
0
0
LINE
8
10_MOC_CHU_KI
10
-176302.25
20
-13329
30
0
11
-176302.25
21
-13189
31
0
0
LINE
8
10_MOC_CHU_KI
10
-176302.25
20
-13189
30
0
11
-176422.25
21
-13189
31
0
0
LINE
8
10_MOC_CHU_KI
10
-176422.25
20
-13189
30
0
11
-176422.25
21
-13329
31
0
0
LINE
8
10_MOC_CHU_KI
10
-175312.25
20
-13329
30
0
11
-175192.25
21
-13329
31
0
0
LINE
8
10_MOC_CHU_KI
10
-175192.25
20
-13329
30
0
11
-175192.25
21
-13189
31
0
0
LINE
8
10_MOC_CHU_KI
10
-175192.25
20
-13189
30
0
11
-175312.25
21
-13189
31
0
0
LINE
8
10_MOC_CHU_KI
10
-175312.25
20
-13189
30
0
11
-175312.25
21
-13329
31
0
0
LINE
8
10_MOC_CHU_KI
10
-173912.25
20
-13329
30
0
11
-173792.25
21
-13329
31
0
0
LINE
8
10_MOC_CHU_KI
10
-173792.25
20
-13329
30
0
11
-173792.25
21
-13189
31
0
0
LINE
8
10_MOC_CHU_KI
10
-173792.25
20
-13189
30
0
11
-173912.25
21
-13189
31
0
0
LINE
8
10_MOC_CHU_KI
10
-173912.25
20
-13189
30
0
11
-173912.25
21
-13329
31
0
0
LINE
8
10_MOC_CHU_KI
10
-172802.25
20
-13329
30
0
11
-172682.25
21
-13329
31
0
0
LINE
8
10_MOC_CHU_KI
10
-172682.25
20
-13329
30
0
11
-172682.25
21
-13189
31
0
0
LINE
8
10_MOC_CHU_KI
10
-172682.25
20
-13189
30
0
11
-172802.25
21
-13189
31
0
0
LINE
8
10_MOC_CHU_KI
10
-172802.25
20
-13189
30
0
11
-172802.25
21
-13329
31
0
0
LINE
8
10_MOC_CHU_KI
10
-171402.25
20
-13329
30
0
11
-171282.25
21
-13329
31
0
0
LINE
8
10_MOC_CHU_KI
10
-171282.25
20
-13329
30
0
11
-171282.25
21
-13189
31
0
0
LINE
8
10_MOC_CHU_KI
10
-171282.25
20
-13189
30
0
11
-171402.25
21
-13189
31
0
0
LINE
8
10_MOC_CHU_KI
10
-171402.25
20
-13189
30
0
11
-171402.25
21
-13329
31
0
0
LINE
8
10_MOC_CHU_KI
10
-170292.25
20
-13329
30
0
11
-170172.25
21
-13329
31
0
0
LINE
8
10_MOC_CHU_KI
10
-170172.25
20
-13329
30
0
11
-170172.25
21
-13189
31
0
0
LINE
8
10_MOC_CHU_KI
10
-170172.25
20
-13189
30
0
11
-170292.25
21
-13189
31
0
0
LINE
8
10_MOC_CHU_KI
10
-170292.25
20
-13189
30
0
11
-170292.25
21
-13329
31
0
0
LINE
8
10_MOC_CHU_KI
10
-168892.25
20
-13329
30
0
11
-168772.25
21
-13329
31
0
0
LINE
8
10_MOC_CHU_KI
10
-168772.25
20
-13329
30
0
11
-168772.25
21
-13189
31
0
0
LINE
8
10_MOC_CHU_KI
10
-168772.25
20
-13189
30
0
11
-168892.25
21
-13189
31
0
0
LINE
8
10_MOC_CHU_KI
10
-168892.25
20
-13189
30
0
11
-168892.25
21
-13329
31
0
0
LINE
8
10_MOC_CHU_KI
10
-167782.25
20
-13329
30
0
11
-167662.25
21
-13329
31
0
0
LINE
8
10_MOC_CHU_KI
10
-167662.25
20
-13329
30
0
11
-167662.25
21
-13189
31
0
0
LINE
8
10_MOC_CHU_KI
10
-167662.25
20
-13189
30
0
11
-167782.25
21
-13189
31
0
0
LINE
8
10_MOC_CHU_KI
10
-167782.25
20
-13189
30
0
11
-167782.25
21
-13329
31
0
0
LINE
8
10_MOC_CHU_KI
10
-166382.25
20
-13329
30
0
11
-166262.25
21
-13329
31
0
0
LINE
8
10_MOC_CHU_KI
10
-166262.25
20
-13329
30
0
11
-166262.25
21
-13189
31
0
0
LINE
8
10_MOC_CHU_KI
10
-166262.25
20
-13189
30
0
11
-166382.25
21
-13189
31
0
0
LINE
8
10_MOC_CHU_KI
10
-166382.25
20
-13189
30
0
11
-166382.25
21
-13329
31
0
0
LINE
8
10_MOC_CHU_KI
10
-176422.25
20
-15329
30
0
11
-176302.25
21
-15329
31
0
0
LINE
8
10_MOC_CHU_KI
10
-176302.25
20
-15329
30
0
11
-176302.25
21
-15189
31
0
0
LINE
8
10_MOC_CHU_KI
10
-176302.25
20
-15189
30
0
11
-176422.25
21
-15189
31
0
0
LINE
8
10_MOC_CHU_KI
10
-176422.25
20
-15189
30
0
11
-176422.25
21
-15329
31
0
0
LINE
8
10_MOC_CHU_KI
10
-175312.25
20
-15329
30
0
11
-175192.25
21
-15329
31
0
0
LINE
8
10_MOC_CHU_KI
10
-175192.25
20
-15329
30
0
11
-175192.25
21
-15189
31
0
0
LINE
8
10_MOC_CHU_KI
10
-175192.25
20
-15189
30
0
11
-175312.25
21
-15189
31
0
0
LINE
8
10_MOC_CHU_KI
10
-175312.25
20
-15189
30
0
11
-175312.25
21
-15329
31
0
0
LINE
8
10_MOC_CHU_KI
10
-173912.25
20
-15329
30
0
11
-173792.25
21
-15329
31
0
0
LINE
8
10_MOC_CHU_KI
10
-173792.25
20
-15329
30
0
11
-173792.25
21
-15189
31
0
0
LINE
8
10_MOC_CHU_KI
10
-173792.25
20
-15189
30
0
11
-173912.25
21
-15189
31
0
0
LINE
8
10_MOC_CHU_KI
10
-173912.25
20
-15189
30
0
11
-173912.25
21
-15329
31
0
0
LINE
8
10_MOC_CHU_KI
10
-172802.25
20
-15329
30
0
11
-172682.25
21
-15329
31
0
0
LINE
8
10_MOC_CHU_KI
10
-172682.25
20
-15329
30
0
11
-172682.25
21
-15189
31
0
0
LINE
8
10_MOC_CHU_KI
10
-172682.25
20
-15189
30
0
11
-172802.25
21
-15189
31
0
0
LINE
8
10_MOC_CHU_KI
10
-172802.25
20
-15189
30
0
11
-172802.25
21
-15329
31
0
0
LINE
8
10_MOC_CHU_KI
10
-171402.25
20
-15329
30
0
11
-171282.25
21
-15329
31
0
0
LINE
8
10_MOC_CHU_KI
10
-171282.25
20
-15329
30
0
11
-171282.25
21
-15189
31
0
0
LINE
8
10_MOC_CHU_KI
10
-171282.25
20
-15189
30
0
11
-171402.25
21
-15189
31
0
0
LINE
8
10_MOC_CHU_KI
10
-171402.25
20
-15189
30
0
11
-171402.25
21
-15329
31
0
0
LINE
8
10_MOC_CHU_KI
10
-170292.25
20
-15329
30
0
11
-170172.25
21
-15329
31
0
0
LINE
8
10_MOC_CHU_KI
10
-170172.25
20
-15329
30
0
11
-170172.25
21
-15189
31
0
0
LINE
8
10_MOC_CHU_KI
10
-170172.25
20
-15189
30
0
11
-170292.25
21
-15189
31
0
0
LINE
8
10_MOC_CHU_KI
10
-170292.25
20
-15189
30
0
11
-170292.25
21
-15329
31
0
0
LINE
8
10_MOC_CHU_KI
10
-168892.25
20
-15329
30
0
11
-168772.25
21
-15329
31
0
0
LINE
8
10_MOC_CHU_KI
10
-168772.25
20
-15329
30
0
11
-168772.25
21
-15189
31
0
0
LINE
8
10_MOC_CHU_KI
10
-168772.25
20
-15189
30
0
11
-168892.25
21
-15189
31
0
0
LINE
8
10_MOC_CHU_KI
10
-168892.25
20
-15189
30
0
11
-168892.25
21
-15329
31
0
0
LINE
8
10_MOC_CHU_KI
10
-167782.25
20
-15329
30
0
11
-167662.25
21
-15329
31
0
0
LINE
8
10_MOC_CHU_KI
10
-167662.25
20
-15329
30
0
11
-167662.25
21
-15189
31
0
0
LINE
8
10_MOC_CHU_KI
10
-167662.25
20
-15189
30
0
11
-167782.25
21
-15189
31
0
0
LINE
8
10_MOC_CHU_KI
10
-167782.25
20
-15189
30
0
11
-167782.25
21
-15329
31
0
0
LINE
8
10_MOC_CHU_KI
10
-166382.25
20
-15329
30
0
11
-166262.25
21
-15329
31
0
0
LINE
8
10_MOC_CHU_KI
10
-166262.25
20
-15329
30
0
11
-166262.25
21
-15189
31
0
0
LINE
8
10_MOC_CHU_KI
10
-166262.25
20
-15189
30
0
11
-166382.25
21
-15189
31
0
0
LINE
8
10_MOC_CHU_KI
10
-166382.25
20
-15189
30
0
11
-166382.25
21
-15329
31
0
0
LINE
8
10_MOC_CHU_KI
10
-165272.25
20
-15329
30
0
11
-165152.25
21
-15329
31
0
0
LINE
8
10_MOC_CHU_KI
10
-165152.25
20
-15329
30
0
11
-165152.25
21
-15189
31
0
0
LINE
8
10_MOC_CHU_KI
10
-165152.25
20
-15189
30
0
11
-165272.25
21
-15189
31
0
0
LINE
8
10_MOC_CHU_KI
10
-165272.25
20
-15189
30
0
11
-165272.25
21
-15329
31
0
0
LINE
8
10_MOC_CHU_KI
10
-163886.26
20
-15329
30
0
11
-163766.26
21
-15329
31
0
0
LINE
8
10_MOC_CHU_KI
10
-163766.26
20
-15329
30
0
11
-163766.26
21
-15189
31
0
0
LINE
8
10_MOC_CHU_KI
10
-163766.26
20
-15189
30
0
11
-163886.26
21
-15189
31
0
0
LINE
8
10_MOC_CHU_KI
10
-163886.26
20
-15189
30
0
11
-163886.26
21
-15329
31
0
0
LINE
8
10_MOC_CHU_KI
10
-162764.9
20
-15329
30
0
11
-162644.9
21
-15329
31
0
0
LINE
8
10_MOC_CHU_KI
10
-162644.9
20
-15329
30
0
11
-162644.9
21
-15189
31
0
0
LINE
8
10_MOC_CHU_KI
10
-162644.9
20
-15189
30
0
11
-162764.9
21
-15189
31
0
0
LINE
8
10_MOC_CHU_KI
10
-162764.9
20
-15189
30
0
11
-162764.9
21
-15329
31
0
0
LINE
8
10_MOC_CHU_KI
10
-170292.25
20
-58729
30
0
11
-170172.25
21
-58729
31
0
0
LINE
8
10_MOC_CHU_KI
10
-170172.25
20
-58729
30
0
11
-170172.25
21
-58589
31
0
0
LINE
8
10_MOC_CHU_KI
10
-170172.25
20
-58589
30
0
11
-170292.25
21
-58589
31
0
0
LINE
8
10_MOC_CHU_KI
10
-170292.25
20
-58589
30
0
11
-170292.25
21
-58729
31
0
0
LINE
8
10_MOC_CHU_KI
10
-168892.25
20
-58729
30
0
11
-168772.25
21
-58729
31
0
0
LINE
8
10_MOC_CHU_KI
10
-168772.25
20
-58729
30
0
11
-168772.25
21
-58589
31
0
0
LINE
8
10_MOC_CHU_KI
10
-168772.25
20
-58589
30
0
11
-168892.25
21
-58589
31
0
0
LINE
8
10_MOC_CHU_KI
10
-168892.25
20
-58589
30
0
11
-168892.25
21
-58729
31
0
0
LINE
8
10_MOC_CHU_KI
10
-167782.25
20
-58729
30
0
11
-167662.25
21
-58729
31
0
0
LINE
8
10_MOC_CHU_KI
10
-167662.25
20
-58729
30
0
11
-167662.25
21
-58589
31
0
0
LINE
8
10_MOC_CHU_KI
10
-167662.25
20
-58589
30
0
11
-167782.25
21
-58589
31
0
0
LINE
8
10_MOC_CHU_KI
10
-167782.25
20
-58589
30
0
11
-167782.25
21
-58729
31
0
0
LINE
8
10_MOC_CHU_KI
10
-166382.25
20
-58729
30
0
11
-166262.25
21
-58729
31
0
0
LINE
8
10_MOC_CHU_KI
10
-166262.25
20
-58729
30
0
11
-166262.25
21
-58589
31
0
0
LINE
8
10_MOC_CHU_KI
10
-166262.25
20
-58589
30
0
11
-166382.25
21
-58589
31
0
0
LINE
8
10_MOC_CHU_KI
10
-166382.25
20
-58589
30
0
11
-166382.25
21
-58729
31
0
0
LINE
8
10_MOC_CHU_KI
10
-165272.25
20
-58729
30
0
11
-165152.25
21
-58729
31
0
0
LINE
8
10_MOC_CHU_KI
10
-165152.25
20
-58729
30
0
11
-165152.25
21
-58589
31
0
0
LINE
8
10_MOC_CHU_KI
10
-165152.25
20
-58589
30
0
11
-165272.25
21
-58589
31
0
0
LINE
8
10_MOC_CHU_KI
10
-165272.25
20
-58589
30
0
11
-165272.25
21
-58729
31
0
0
LINE
8
10_MOC_CHU_KI
10
-163886.26
20
-58729
30
0
11
-163766.26
21
-58729
31
0
0
LINE
8
10_MOC_CHU_KI
10
-163766.26
20
-58729
30
0
11
-163766.26
21
-58589
31
0
0
LINE
8
10_MOC_CHU_KI
10
-163766.26
20
-58589
30
0
11
-163886.26
21
-58589
31
0
0
LINE
8
10_MOC_CHU_KI
10
-163886.26
20
-58589
30
0
11
-163886.26
21
-58729
31
0
0
LINE
8
10_MOC_CHU_KI
10
-162764.9
20
-58729
30
0
11
-162644.9
21
-58729
31
0
0
LINE
8
10_MOC_CHU_KI
10
-162644.9
20
-58729
30
0
11
-162644.9
21
-58589
31
0
0
LINE
8
10_MOC_CHU_KI
10
-162644.9
20
-58589
30
0
11
-162764.9
21
-58589
31
0
0
LINE
8
10_MOC_CHU_KI
10
-162764.9
20
-58589
30
0
11
-162764.9
21
-58729
31
0
0
LINE
8
10_MOC_CHU_KI
10
-161374.9
20
-58729
30
0
11
-161254.9
21
-58729
31
0
0
LINE
8
10_MOC_CHU_KI
10
-161254.9
20
-58729
30
0
11
-161254.9
21
-58589
31
0
0
LINE
8
10_MOC_CHU_KI
10
-161254.9
20
-58589
30
0
11
-161374.9
21
-58589
31
0
0
LINE
8
10_MOC_CHU_KI
10
-161374.9
20
-58589
30
0
11
-161374.9
21
-58729
31
0
0
LINE
8
10_MOC_CHU_KI
10
-160259.9
20
-58729
30
0
11
-160139.9
21
-58729
31
0
0
LINE
8
10_MOC_CHU_KI
10
-160139.9
20
-58729
30
0
11
-160139.9
21
-58589
31
0
0
LINE
8
10_MOC_CHU_KI
10
-160139.9
20
-58589
30
0
11
-160259.9
21
-58589
31
0
0
LINE
8
10_MOC_CHU_KI
10
-160259.9
20
-58589
30
0
11
-160259.9
21
-58729
31
0
0
LINE
8
10_MOC_CHU_KI
10
-158859.9
20
-58729
30
0
11
-158739.9
21
-58729
31
0
0
LINE
8
10_MOC_CHU_KI
10
-158739.9
20
-58729
30
0
11
-158739.9
21
-58589
31
0
0
LINE
8
10_MOC_CHU_KI
10
-158739.9
20
-58589
30
0
11
-158859.9
21
-58589
31
0
0
LINE
8
10_MOC_CHU_KI
10
-158859.9
20
-58589
30
0
11
-158859.9
21
-58729
31
0
0
LINE
8
10_MOC_CHU_KI
10
-157749.9
20
-58729
30
0
11
-157629.9
21
-58729
31
0
0
LINE
8
10_MOC_CHU_KI
10
-157629.9
20
-58729
30
0
11
-157629.9
21
-58589
31
0
0
LINE
8
10_MOC_CHU_KI
10
-157629.9
20
-58589
30
0
11
-157749.9
21
-58589
31
0
0
LINE
8
10_MOC_CHU_KI
10
-157749.9
20
-58589
30
0
11
-157749.9
21
-58729
31
0
0
LINE
8
10_MOC_CHU_KI
10
-156349.9
20
-58729
30
0
11
-156229.9
21
-58729
31
0
0
LINE
8
10_MOC_CHU_KI
10
-156229.9
20
-58729
30
0
11
-156229.9
21
-58589
31
0
0
LINE
8
10_MOC_CHU_KI
10
-156229.9
20
-58589
30
0
11
-156349.9
21
-58589
31
0
0
LINE
8
10_MOC_CHU_KI
10
-156349.9
20
-58589
30
0
11
-156349.9
21
-58729
31
0
0
LINE
8
10_MOC_CHU_KI
10
-175312.25
20
-17329
30
0
11
-175192.25
21
-17329
31
0
0
LINE
8
10_MOC_CHU_KI
10
-175192.25
20
-17329
30
0
11
-175192.25
21
-17189
31
0
0
LINE
8
10_MOC_CHU_KI
10
-175192.25
20
-17189
30
0
11
-175312.25
21
-17189
31
0
0
LINE
8
10_MOC_CHU_KI
10
-175312.25
20
-17189
30
0
11
-175312.25
21
-17329
31
0
0
LINE
8
10_MOC_CHU_KI
10
-173912.25
20
-17329
30
0
11
-173792.25
21
-17329
31
0
0
LINE
8
10_MOC_CHU_KI
10
-173792.25
20
-17329
30
0
11
-173792.25
21
-17189
31
0
0
LINE
8
10_MOC_CHU_KI
10
-173792.25
20
-17189
30
0
11
-173912.25
21
-17189
31
0
0
LINE
8
10_MOC_CHU_KI
10
-173912.25
20
-17189
30
0
11
-173912.25
21
-17329
31
0
0
LINE
8
10_MOC_CHU_KI
10
-172802.25
20
-17329
30
0
11
-172682.25
21
-17329
31
0
0
LINE
8
10_MOC_CHU_KI
10
-172682.25
20
-17329
30
0
11
-172682.25
21
-17189
31
0
0
LINE
8
10_MOC_CHU_KI
10
-172682.25
20
-17189
30
0
11
-172802.25
21
-17189
31
0
0
LINE
8
10_MOC_CHU_KI
10
-172802.25
20
-17189
30
0
11
-172802.25
21
-17329
31
0
0
LINE
8
10_MOC_CHU_KI
10
-171402.25
20
-17329
30
0
11
-171282.25
21
-17329
31
0
0
LINE
8
10_MOC_CHU_KI
10
-171282.25
20
-17329
30
0
11
-171282.25
21
-17189
31
0
0
LINE
8
10_MOC_CHU_KI
10
-171282.25
20
-17189
30
0
11
-171402.25
21
-17189
31
0
0
LINE
8
10_MOC_CHU_KI
10
-171402.25
20
-17189
30
0
11
-171402.25
21
-17329
31
0
0
LINE
8
10_MOC_CHU_KI
10
-170292.25
20
-17329
30
0
11
-170172.25
21
-17329
31
0
0
LINE
8
10_MOC_CHU_KI
10
-170172.25
20
-17329
30
0
11
-170172.25
21
-17189
31
0
0
LINE
8
10_MOC_CHU_KI
10
-170172.25
20
-17189
30
0
11
-170292.25
21
-17189
31
0
0
LINE
8
10_MOC_CHU_KI
10
-170292.25
20
-17189
30
0
11
-170292.25
21
-17329
31
0
0
LINE
8
10_MOC_CHU_KI
10
-168892.25
20
-17329
30
0
11
-168772.25
21
-17329
31
0
0
LINE
8
10_MOC_CHU_KI
10
-168772.25
20
-17329
30
0
11
-168772.25
21
-17189
31
0
0
LINE
8
10_MOC_CHU_KI
10
-168772.25
20
-17189
30
0
11
-168892.25
21
-17189
31
0
0
LINE
8
10_MOC_CHU_KI
10
-168892.25
20
-17189
30
0
11
-168892.25
21
-17329
31
0
0
LINE
8
10_MOC_CHU_KI
10
-167782.25
20
-17329
30
0
11
-167662.25
21
-17329
31
0
0
LINE
8
10_MOC_CHU_KI
10
-167662.25
20
-17329
30
0
11
-167662.25
21
-17189
31
0
0
LINE
8
10_MOC_CHU_KI
10
-167662.25
20
-17189
30
0
11
-167782.25
21
-17189
31
0
0
LINE
8
10_MOC_CHU_KI
10
-167782.25
20
-17189
30
0
11
-167782.25
21
-17329
31
0
0
LINE
8
10_MOC_CHU_KI
10
-166382.25
20
-17329
30
0
11
-166262.25
21
-17329
31
0
0
LINE
8
10_MOC_CHU_KI
10
-166262.25
20
-17329
30
0
11
-166262.25
21
-17189
31
0
0
LINE
8
10_MOC_CHU_KI
10
-166262.25
20
-17189
30
0
11
-166382.25
21
-17189
31
0
0
LINE
8
10_MOC_CHU_KI
10
-166382.25
20
-17189
30
0
11
-166382.25
21
-17329
31
0
0
LINE
8
10_MOC_CHU_KI
10
-165272.25
20
-17329
30
0
11
-165152.25
21
-17329
31
0
0
LINE
8
10_MOC_CHU_KI
10
-165152.25
20
-17329
30
0
11
-165152.25
21
-17189
31
0
0
LINE
8
10_MOC_CHU_KI
10
-165152.25
20
-17189
30
0
11
-165272.25
21
-17189
31
0
0
LINE
8
10_MOC_CHU_KI
10
-165272.25
20
-17189
30
0
11
-165272.25
21
-17329
31
0
0
LINE
8
10_MOC_CHU_KI
10
-163886.26
20
-17329
30
0
11
-163766.26
21
-17329
31
0
0
LINE
8
10_MOC_CHU_KI
10
-163766.26
20
-17329
30
0
11
-163766.26
21
-17189
31
0
0
LINE
8
10_MOC_CHU_KI
10
-163766.26
20
-17189
30
0
11
-163886.26
21
-17189
31
0
0
LINE
8
10_MOC_CHU_KI
10
-163886.26
20
-17189
30
0
11
-163886.26
21
-17329
31
0
0
LINE
8
10_MOC_CHU_KI
10
-162764.9
20
-17329
30
0
11
-162644.9
21
-17329
31
0
0
LINE
8
10_MOC_CHU_KI
10
-162644.9
20
-17329
30
0
11
-162644.9
21
-17189
31
0
0
LINE
8
10_MOC_CHU_KI
10
-162644.9
20
-17189
30
0
11
-162764.9
21
-17189
31
0
0
LINE
8
10_MOC_CHU_KI
10
-162764.9
20
-17189
30
0
11
-162764.9
21
-17329
31
0
0
LINE
8
10_MOC_CHU_KI
10
-161374.9
20
-17329
30
0
11
-161254.9
21
-17329
31
0
0
LINE
8
10_MOC_CHU_KI
10
-161254.9
20
-17329
30
0
11
-161254.9
21
-17189
31
0
0
LINE
8
10_MOC_CHU_KI
10
-161254.9
20
-17189
30
0
11
-161374.9
21
-17189
31
0
0
LINE
8
10_MOC_CHU_KI
10
-161374.9
20
-17189
30
0
11
-161374.9
21
-17329
31
0
0
LINE
8
10_MOC_CHU_KI
10
-155239.9
20
-58729
30
0
11
-155119.9
21
-58729
31
0
0
LINE
8
10_MOC_CHU_KI
10
-155119.9
20
-58729
30
0
11
-155119.9
21
-58589
31
0
0
LINE
8
10_MOC_CHU_KI
10
-155119.9
20
-58589
30
0
11
-155239.9
21
-58589
31
0
0
LINE
8
10_MOC_CHU_KI
10
-155239.9
20
-58589
30
0
11
-155239.9
21
-58729
31
0
0
LINE
8
10_MOC_CHU_KI
10
-153839.9
20
-58729
30
0
11
-153719.9
21
-58729
31
0
0
LINE
8
10_MOC_CHU_KI
10
-153719.9
20
-58729
30
0
11
-153719.9
21
-58589
31
0
0
LINE
8
10_MOC_CHU_KI
10
-153719.9
20
-58589
30
0
11
-153839.9
21
-58589
31
0
0
LINE
8
10_MOC_CHU_KI
10
-153839.9
20
-58589
30
0
11
-153839.9
21
-58729
31
0
0
LINE
8
10_MOC_CHU_KI
10
-152729.9
20
-58729
30
0
11
-152609.9
21
-58729
31
0
0
LINE
8
10_MOC_CHU_KI
10
-152609.9
20
-58729
30
0
11
-152609.9
21
-58589
31
0
0
LINE
8
10_MOC_CHU_KI
10
-152609.9
20
-58589
30
0
11
-152729.9
21
-58589
31
0
0
LINE
8
10_MOC_CHU_KI
10
-152729.9
20
-58589
30
0
11
-152729.9
21
-58729
31
0
0
LINE
8
10_MOC_CHU_KI
10
-151329.9
20
-58729
30
0
11
-151209.9
21
-58729
31
0
0
LINE
8
10_MOC_CHU_KI
10
-151209.9
20
-58729
30
0
11
-151209.9
21
-58589
31
0
0
LINE
8
10_MOC_CHU_KI
10
-151209.9
20
-58589
30
0
11
-151329.9
21
-58589
31
0
0
LINE
8
10_MOC_CHU_KI
10
-151329.9
20
-58589
30
0
11
-151329.9
21
-58729
31
0
0
LINE
8
10_MOC_CHU_KI
10
-150219.9
20
-58729
30
0
11
-150099.9
21
-58729
31
0
0
LINE
8
10_MOC_CHU_KI
10
-150099.9
20
-58729
30
0
11
-150099.9
21
-58589
31
0
0
LINE
8
10_MOC_CHU_KI
10
-150099.9
20
-58589
30
0
11
-150219.9
21
-58589
31
0
0
LINE
8
10_MOC_CHU_KI
10
-150219.9
20
-58589
30
0
11
-150219.9
21
-58729
31
0
0
LINE
8
10_MOC_CHU_KI
10
-148819.9
20
-58729
30
0
11
-148699.9
21
-58729
31
0
0
LINE
8
10_MOC_CHU_KI
10
-148699.9
20
-58729
30
0
11
-148699.9
21
-58589
31
0
0
LINE
8
10_MOC_CHU_KI
10
-148699.9
20
-58589
30
0
11
-148819.9
21
-58589
31
0
0
LINE
8
10_MOC_CHU_KI
10
-148819.9
20
-58589
30
0
11
-148819.9
21
-58729
31
0
0
LINE
8
10_MOC_CHU_KI
10
-147709.9
20
-58729
30
0
11
-147589.9
21
-58729
31
0
0
LINE
8
10_MOC_CHU_KI
10
-147589.9
20
-58729
30
0
11
-147589.9
21
-58589
31
0
0
LINE
8
10_MOC_CHU_KI
10
-147589.9
20
-58589
30
0
11
-147709.9
21
-58589
31
0
0
LINE
8
10_MOC_CHU_KI
10
-147709.9
20
-58589
30
0
11
-147709.9
21
-58729
31
0
0
LINE
8
10_MOC_CHU_KI
10
-146319.9
20
-58729
30
0
11
-146199.9
21
-58729
31
0
0
LINE
8
10_MOC_CHU_KI
10
-146199.9
20
-58729
30
0
11
-146199.9
21
-58589
31
0
0
LINE
8
10_MOC_CHU_KI
10
-146199.9
20
-58589
30
0
11
-146319.9
21
-58589
31
0
0
LINE
8
10_MOC_CHU_KI
10
-146319.9
20
-58589
30
0
11
-146319.9
21
-58729
31
0
0
LINE
8
10_MOC_CHU_KI
10
-145199.9
20
-58729
30
0
11
-145079.9
21
-58729
31
0
0
LINE
8
10_MOC_CHU_KI
10
-145079.9
20
-58729
30
0
11
-145079.9
21
-58589
31
0
0
LINE
8
10_MOC_CHU_KI
10
-145079.9
20
-58589
30
0
11
-145199.9
21
-58589
31
0
0
LINE
8
10_MOC_CHU_KI
10
-145199.9
20
-58589
30
0
11
-145199.9
21
-58729
31
0
0
LINE
8
10_MOC_CHU_KI
10
-143799.9
20
-58729
30
0
11
-143679.9
21
-58729
31
0
0
LINE
8
10_MOC_CHU_KI
10
-143679.9
20
-58729
30
0
11
-143679.9
21
-58589
31
0
0
LINE
8
10_MOC_CHU_KI
10
-143679.9
20
-58589
30
0
11
-143799.9
21
-58589
31
0
0
LINE
8
10_MOC_CHU_KI
10
-143799.9
20
-58589
30
0
11
-143799.9
21
-58729
31
0
0
LINE
8
10_MOC_CHU_KI
10
-142899.9
20
-58729
30
0
11
-142779.9
21
-58729
31
0
0
LINE
8
10_MOC_CHU_KI
10
-142779.9
20
-58729
30
0
11
-142779.9
21
-58589
31
0
0
LINE
8
10_MOC_CHU_KI
10
-142779.9
20
-58589
30
0
11
-142899.9
21
-58589
31
0
0
LINE
8
10_MOC_CHU_KI
10
-142899.9
20
-58589
30
0
11
-142899.9
21
-58729
31
0
0
LINE
8
10_MOC_CHU_KI
10
-142029.9
20
-58729
30
0
11
-141909.9
21
-58729
31
0
0
LINE
8
10_MOC_CHU_KI
10
-141909.9
20
-58729
30
0
11
-141909.9
21
-58589
31
0
0
LINE
8
10_MOC_CHU_KI
10
-141909.9
20
-58589
30
0
11
-142029.9
21
-58589
31
0
0
LINE
8
10_MOC_CHU_KI
10
-142029.9
20
-58589
30
0
11
-142029.9
21
-58729
31
0
0
LINE
8
10_MOC_CHU_KI
10
-155239.9
20
-19329
30
0
11
-155119.9
21
-19329
31
0
0
LINE
8
10_MOC_CHU_KI
10
-155119.9
20
-19329
30
0
11
-155119.9
21
-19189
31
0
0
LINE
8
10_MOC_CHU_KI
10
-155119.9
20
-19189
30
0
11
-155239.9
21
-19189
31
0
0
LINE
8
10_MOC_CHU_KI
10
-155239.9
20
-19189
30
0
11
-155239.9
21
-19329
31
0
0
LINE
8
10_MOC_CHU_KI
10
-153839.9
20
-19329
30
0
11
-153719.9
21
-19329
31
0
0
LINE
8
10_MOC_CHU_KI
10
-153719.9
20
-19329
30
0
11
-153719.9
21
-19189
31
0
0
LINE
8
10_MOC_CHU_KI
10
-153719.9
20
-19189
30
0
11
-153839.9
21
-19189
31
0
0
LINE
8
10_MOC_CHU_KI
10
-153839.9
20
-19189
30
0
11
-153839.9
21
-19329
31
0
0
LINE
8
10_MOC_CHU_KI
10
-152729.9
20
-19329
30
0
11
-152609.9
21
-19329
31
0
0
LINE
8
10_MOC_CHU_KI
10
-152609.9
20
-19329
30
0
11
-152609.9
21
-19189
31
0
0
LINE
8
10_MOC_CHU_KI
10
-152609.9
20
-19189
30
0
11
-152729.9
21
-19189
31
0
0
LINE
8
10_MOC_CHU_KI
10
-152729.9
20
-19189
30
0
11
-152729.9
21
-19329
31
0
0
LINE
8
10_MOC_CHU_KI
10
-151329.9
20
-19329
30
0
11
-151209.9
21
-19329
31
0
0
LINE
8
10_MOC_CHU_KI
10
-151209.9
20
-19329
30
0
11
-151209.9
21
-19189
31
0
0
LINE
8
10_MOC_CHU_KI
10
-151209.9
20
-19189
30
0
11
-151329.9
21
-19189
31
0
0
LINE
8
10_MOC_CHU_KI
10
-151329.9
20
-19189
30
0
11
-151329.9
21
-19329
31
0
0
LINE
8
10_MOC_CHU_KI
10
-150219.9
20
-19329
30
0
11
-150099.9
21
-19329
31
0
0
LINE
8
10_MOC_CHU_KI
10
-150099.9
20
-19329
30
0
11
-150099.9
21
-19189
31
0
0
LINE
8
10_MOC_CHU_KI
10
-150099.9
20
-19189
30
0
11
-150219.9
21
-19189
31
0
0
LINE
8
10_MOC_CHU_KI
10
-150219.9
20
-19189
30
0
11
-150219.9
21
-19329
31
0
0
LINE
8
10_MOC_CHU_KI
10
-148819.9
20
-19329
30
0
11
-148699.9
21
-19329
31
0
0
LINE
8
10_MOC_CHU_KI
10
-148699.9
20
-19329
30
0
11
-148699.9
21
-19189
31
0
0
LINE
8
10_MOC_CHU_KI
10
-148699.9
20
-19189
30
0
11
-148819.9
21
-19189
31
0
0
LINE
8
10_MOC_CHU_KI
10
-148819.9
20
-19189
30
0
11
-148819.9
21
-19329
31
0
0
LINE
8
10_MOC_CHU_KI
10
-147709.9
20
-19329
30
0
11
-147589.9
21
-19329
31
0
0
LINE
8
10_MOC_CHU_KI
10
-147589.9
20
-19329
30
0
11
-147589.9
21
-19189
31
0
0
LINE
8
10_MOC_CHU_KI
10
-147589.9
20
-19189
30
0
11
-147709.9
21
-19189
31
0
0
LINE
8
10_MOC_CHU_KI
10
-147709.9
20
-19189
30
0
11
-147709.9
21
-19329
31
0
0
LINE
8
10_MOC_CHU_KI
10
-146319.9
20
-19329
30
0
11
-146199.9
21
-19329
31
0
0
LINE
8
10_MOC_CHU_KI
10
-146199.9
20
-19329
30
0
11
-146199.9
21
-19189
31
0
0
LINE
8
10_MOC_CHU_KI
10
-146199.9
20
-19189
30
0
11
-146319.9
21
-19189
31
0
0
LINE
8
10_MOC_CHU_KI
10
-146319.9
20
-19189
30
0
11
-146319.9
21
-19329
31
0
0
LINE
8
10_MOC_CHU_KI
10
-145199.9
20
-19329
30
0
11
-145079.9
21
-19329
31
0
0
LINE
8
10_MOC_CHU_KI
10
-145079.9
20
-19329
30
0
11
-145079.9
21
-19189
31
0
0
LINE
8
10_MOC_CHU_KI
10
-145079.9
20
-19189
30
0
11
-145199.9
21
-19189
31
0
0
LINE
8
10_MOC_CHU_KI
10
-145199.9
20
-19189
30
0
11
-145199.9
21
-19329
31
0
0
LINE
8
10_MOC_CHU_KI
10
-143799.9
20
-19329
30
0
11
-143679.9
21
-19329
31
0
0
LINE
8
10_MOC_CHU_KI
10
-143679.9
20
-19329
30
0
11
-143679.9
21
-19189
31
0
0
LINE
8
10_MOC_CHU_KI
10
-143679.9
20
-19189
30
0
11
-143799.9
21
-19189
31
0
0
LINE
8
10_MOC_CHU_KI
10
-143799.9
20
-19189
30
0
11
-143799.9
21
-19329
31
0
0
LINE
8
10_MOC_CHU_KI
10
-142899.9
20
-19329
30
0
11
-142779.9
21
-19329
31
0
0
LINE
8
10_MOC_CHU_KI
10
-142779.9
20
-19329
30
0
11
-142779.9
21
-19189
31
0
0
LINE
8
10_MOC_CHU_KI
10
-142779.9
20
-19189
30
0
11
-142899.9
21
-19189
31
0
0
LINE
8
10_MOC_CHU_KI
10
-142899.9
20
-19189
30
0
11
-142899.9
21
-19329
31
0
0
LINE
8
10_MOC_CHU_KI
10
-142029.9
20
-19329
30
0
11
-141909.9
21
-19329
31
0
0
LINE
8
10_MOC_CHU_KI
10
-141909.9
20
-19329
30
0
11
-141909.9
21
-19189
31
0
0
LINE
8
10_MOC_CHU_KI
10
-141909.9
20
-19189
30
0
11
-142029.9
21
-19189
31
0
0
LINE
8
10_MOC_CHU_KI
10
-142029.9
20
-19189
30
0
11
-142029.9
21
-19329
31
0
0
LINE
8
10_MOC_CHU_KI
10
-156349.9
20
-52729
30
0
11
-156229.9
21
-52729
31
0
0
LINE
8
10_MOC_CHU_KI
10
-156229.9
20
-52729
30
0
11
-156229.9
21
-52589
31
0
0
LINE
8
10_MOC_CHU_KI
10
-156229.9
20
-52589
30
0
11
-156349.9
21
-52589
31
0
0
LINE
8
10_MOC_CHU_KI
10
-156349.9
20
-52589
30
0
11
-156349.9
21
-52729
31
0
0
LINE
8
10_MOC_CHU_KI
10
-155239.9
20
-52729
30
0
11
-155119.9
21
-52729
31
0
0
LINE
8
10_MOC_CHU_KI
10
-155119.9
20
-52729
30
0
11
-155119.9
21
-52589
31
0
0
LINE
8
10_MOC_CHU_KI
10
-155119.9
20
-52589
30
0
11
-155239.9
21
-52589
31
0
0
LINE
8
10_MOC_CHU_KI
10
-155239.9
20
-52589
30
0
11
-155239.9
21
-52729
31
0
0
LINE
8
10_MOC_CHU_KI
10
-153839.9
20
-52729
30
0
11
-153719.9
21
-52729
31
0
0
LINE
8
10_MOC_CHU_KI
10
-153719.9
20
-52729
30
0
11
-153719.9
21
-52589
31
0
0
LINE
8
10_MOC_CHU_KI
10
-153719.9
20
-52589
30
0
11
-153839.9
21
-52589
31
0
0
LINE
8
10_MOC_CHU_KI
10
-153839.9
20
-52589
30
0
11
-153839.9
21
-52729
31
0
0
LINE
8
10_MOC_CHU_KI
10
-152729.9
20
-52729
30
0
11
-152609.9
21
-52729
31
0
0
LINE
8
10_MOC_CHU_KI
10
-152609.9
20
-52729
30
0
11
-152609.9
21
-52589
31
0
0
LINE
8
10_MOC_CHU_KI
10
-152609.9
20
-52589
30
0
11
-152729.9
21
-52589
31
0
0
LINE
8
10_MOC_CHU_KI
10
-152729.9
20
-52589
30
0
11
-152729.9
21
-52729
31
0
0
LINE
8
10_MOC_CHU_KI
10
-151329.9
20
-52729
30
0
11
-151209.9
21
-52729
31
0
0
LINE
8
10_MOC_CHU_KI
10
-151209.9
20
-52729
30
0
11
-151209.9
21
-52589
31
0
0
LINE
8
10_MOC_CHU_KI
10
-151209.9
20
-52589
30
0
11
-151329.9
21
-52589
31
0
0
LINE
8
10_MOC_CHU_KI
10
-151329.9
20
-52589
30
0
11
-151329.9
21
-52729
31
0
0
LINE
8
10_MOC_CHU_KI
10
-150219.9
20
-52729
30
0
11
-150099.9
21
-52729
31
0
0
LINE
8
10_MOC_CHU_KI
10
-150099.9
20
-52729
30
0
11
-150099.9
21
-52589
31
0
0
LINE
8
10_MOC_CHU_KI
10
-150099.9
20
-52589
30
0
11
-150219.9
21
-52589
31
0
0
LINE
8
10_MOC_CHU_KI
10
-150219.9
20
-52589
30
0
11
-150219.9
21
-52729
31
0
0
LINE
8
10_MOC_CHU_KI
10
-148819.9
20
-52729
30
0
11
-148699.9
21
-52729
31
0
0
LINE
8
10_MOC_CHU_KI
10
-148699.9
20
-52729
30
0
11
-148699.9
21
-52589
31
0
0
LINE
8
10_MOC_CHU_KI
10
-148699.9
20
-52589
30
0
11
-148819.9
21
-52589
31
0
0
LINE
8
10_MOC_CHU_KI
10
-148819.9
20
-52589
30
0
11
-148819.9
21
-52729
31
0
0
LINE
8
10_MOC_CHU_KI
10
-147709.9
20
-52729
30
0
11
-147589.9
21
-52729
31
0
0
LINE
8
10_MOC_CHU_KI
10
-147589.9
20
-52729
30
0
11
-147589.9
21
-52589
31
0
0
LINE
8
10_MOC_CHU_KI
10
-147589.9
20
-52589
30
0
11
-147709.9
21
-52589
31
0
0
LINE
8
10_MOC_CHU_KI
10
-147709.9
20
-52589
30
0
11
-147709.9
21
-52729
31
0
0
LINE
8
10_MOC_CHU_KI
10
-146319.9
20
-52729
30
0
11
-146199.9
21
-52729
31
0
0
LINE
8
10_MOC_CHU_KI
10
-146199.9
20
-52729
30
0
11
-146199.9
21
-52589
31
0
0
LINE
8
10_MOC_CHU_KI
10
-146199.9
20
-52589
30
0
11
-146319.9
21
-52589
31
0
0
LINE
8
10_MOC_CHU_KI
10
-146319.9
20
-52589
30
0
11
-146319.9
21
-52729
31
0
0
LINE
8
10_MOC_CHU_KI
10
-145199.9
20
-52729
30
0
11
-145079.9
21
-52729
31
0
0
LINE
8
10_MOC_CHU_KI
10
-145079.9
20
-52729
30
0
11
-145079.9
21
-52589
31
0
0
LINE
8
10_MOC_CHU_KI
10
-145079.9
20
-52589
30
0
11
-145199.9
21
-52589
31
0
0
LINE
8
10_MOC_CHU_KI
10
-145199.9
20
-52589
30
0
11
-145199.9
21
-52729
31
0
0
LINE
8
10_MOC_CHU_KI
10
-143799.9
20
-52729
30
0
11
-143679.9
21
-52729
31
0
0
LINE
8
10_MOC_CHU_KI
10
-143679.9
20
-52729
30
0
11
-143679.9
21
-52589
31
0
0
LINE
8
10_MOC_CHU_KI
10
-143679.9
20
-52589
30
0
11
-143799.9
21
-52589
31
0
0
LINE
8
10_MOC_CHU_KI
10
-143799.9
20
-52589
30
0
11
-143799.9
21
-52729
31
0
0
LINE
8
10_MOC_CHU_KI
10
-142899.9
20
-52729
30
0
11
-142779.9
21
-52729
31
0
0
LINE
8
10_MOC_CHU_KI
10
-142779.9
20
-52729
30
0
11
-142779.9
21
-52589
31
0
0
LINE
8
10_MOC_CHU_KI
10
-142779.9
20
-52589
30
0
11
-142899.9
21
-52589
31
0
0
LINE
8
10_MOC_CHU_KI
10
-142899.9
20
-52589
30
0
11
-142899.9
21
-52729
31
0
0
LINE
8
10_MOC_CHU_KI
10
-142029.9
20
-52729
30
0
11
-141909.9
21
-52729
31
0
0
LINE
8
10_MOC_CHU_KI
10
-141909.9
20
-52729
30
0
11
-141909.9
21
-52589
31
0
0
LINE
8
10_MOC_CHU_KI
10
-141909.9
20
-52589
30
0
11
-142029.9
21
-52589
31
0
0
LINE
8
10_MOC_CHU_KI
10
-142029.9
20
-52589
30
0
11
-142029.9
21
-52729
31
0
0
LINE
8
10_MOC_CHU_KI
10
-156349.9
20
-54729
30
0
11
-156229.9
21
-54729
31
0
0
LINE
8
10_MOC_CHU_KI
10
-156229.9
20
-54729
30
0
11
-156229.9
21
-54589
31
0
0
LINE
8
10_MOC_CHU_KI
10
-156229.9
20
-54589
30
0
11
-156349.9
21
-54589
31
0
0
LINE
8
10_MOC_CHU_KI
10
-156349.9
20
-54589
30
0
11
-156349.9
21
-54729
31
0
0
LINE
8
10_MOC_CHU_KI
10
-155239.9
20
-54729
30
0
11
-155119.9
21
-54729
31
0
0
LINE
8
10_MOC_CHU_KI
10
-155119.9
20
-54729
30
0
11
-155119.9
21
-54589
31
0
0
LINE
8
10_MOC_CHU_KI
10
-155119.9
20
-54589
30
0
11
-155239.9
21
-54589
31
0
0
LINE
8
10_MOC_CHU_KI
10
-155239.9
20
-54589
30
0
11
-155239.9
21
-54729
31
0
0
LINE
8
10_MOC_CHU_KI
10
-153839.9
20
-54729
30
0
11
-153719.9
21
-54729
31
0
0
LINE
8
10_MOC_CHU_KI
10
-153719.9
20
-54729
30
0
11
-153719.9
21
-54589
31
0
0
LINE
8
10_MOC_CHU_KI
10
-153719.9
20
-54589
30
0
11
-153839.9
21
-54589
31
0
0
LINE
8
10_MOC_CHU_KI
10
-153839.9
20
-54589
30
0
11
-153839.9
21
-54729
31
0
0
LINE
8
10_MOC_CHU_KI
10
-152729.9
20
-54729
30
0
11
-152609.9
21
-54729
31
0
0
LINE
8
10_MOC_CHU_KI
10
-152609.9
20
-54729
30
0
11
-152609.9
21
-54589
31
0
0
LINE
8
10_MOC_CHU_KI
10
-152609.9
20
-54589
30
0
11
-152729.9
21
-54589
31
0
0
LINE
8
10_MOC_CHU_KI
10
-152729.9
20
-54589
30
0
11
-152729.9
21
-54729
31
0
0
LINE
8
10_MOC_CHU_KI
10
-151329.9
20
-54729
30
0
11
-151209.9
21
-54729
31
0
0
LINE
8
10_MOC_CHU_KI
10
-151209.9
20
-54729
30
0
11
-151209.9
21
-54589
31
0
0
LINE
8
10_MOC_CHU_KI
10
-151209.9
20
-54589
30
0
11
-151329.9
21
-54589
31
0
0
LINE
8
10_MOC_CHU_KI
10
-151329.9
20
-54589
30
0
11
-151329.9
21
-54729
31
0
0
LINE
8
10_MOC_CHU_KI
10
-150219.9
20
-54729
30
0
11
-150099.9
21
-54729
31
0
0
LINE
8
10_MOC_CHU_KI
10
-150099.9
20
-54729
30
0
11
-150099.9
21
-54589
31
0
0
LINE
8
10_MOC_CHU_KI
10
-150099.9
20
-54589
30
0
11
-150219.9
21
-54589
31
0
0
LINE
8
10_MOC_CHU_KI
10
-150219.9
20
-54589
30
0
11
-150219.9
21
-54729
31
0
0
LINE
8
10_MOC_CHU_KI
10
-148819.9
20
-54729
30
0
11
-148699.9
21
-54729
31
0
0
LINE
8
10_MOC_CHU_KI
10
-148699.9
20
-54729
30
0
11
-148699.9
21
-54589
31
0
0
LINE
8
10_MOC_CHU_KI
10
-148699.9
20
-54589
30
0
11
-148819.9
21
-54589
31
0
0
LINE
8
10_MOC_CHU_KI
10
-148819.9
20
-54589
30
0
11
-148819.9
21
-54729
31
0
0
LINE
8
10_MOC_CHU_KI
10
-147709.9
20
-54729
30
0
11
-147589.9
21
-54729
31
0
0
LINE
8
10_MOC_CHU_KI
10
-147589.9
20
-54729
30
0
11
-147589.9
21
-54589
31
0
0
LINE
8
10_MOC_CHU_KI
10
-147589.9
20
-54589
30
0
11
-147709.9
21
-54589
31
0
0
LINE
8
10_MOC_CHU_KI
10
-147709.9
20
-54589
30
0
11
-147709.9
21
-54729
31
0
0
LINE
8
10_MOC_CHU_KI
10
-146319.9
20
-54729
30
0
11
-146199.9
21
-54729
31
0
0
LINE
8
10_MOC_CHU_KI
10
-146199.9
20
-54729
30
0
11
-146199.9
21
-54589
31
0
0
LINE
8
10_MOC_CHU_KI
10
-146199.9
20
-54589
30
0
11
-146319.9
21
-54589
31
0
0
LINE
8
10_MOC_CHU_KI
10
-146319.9
20
-54589
30
0
11
-146319.9
21
-54729
31
0
0
LINE
8
10_MOC_CHU_KI
10
-145199.9
20
-54729
30
0
11
-145079.9
21
-54729
31
0
0
LINE
8
10_MOC_CHU_KI
10
-145079.9
20
-54729
30
0
11
-145079.9
21
-54589
31
0
0
LINE
8
10_MOC_CHU_KI
10
-145079.9
20
-54589
30
0
11
-145199.9
21
-54589
31
0
0
LINE
8
10_MOC_CHU_KI
10
-145199.9
20
-54589
30
0
11
-145199.9
21
-54729
31
0
0
LINE
8
10_MOC_CHU_KI
10
-143799.9
20
-54729
30
0
11
-143679.9
21
-54729
31
0
0
LINE
8
10_MOC_CHU_KI
10
-143679.9
20
-54729
30
0
11
-143679.9
21
-54589
31
0
0
LINE
8
10_MOC_CHU_KI
10
-143679.9
20
-54589
30
0
11
-143799.9
21
-54589
31
0
0
LINE
8
10_MOC_CHU_KI
10
-143799.9
20
-54589
30
0
11
-143799.9
21
-54729
31
0
0
LINE
8
10_MOC_CHU_KI
10
-142899.9
20
-54729
30
0
11
-142779.9
21
-54729
31
0
0
LINE
8
10_MOC_CHU_KI
10
-142779.9
20
-54729
30
0
11
-142779.9
21
-54589
31
0
0
LINE
8
10_MOC_CHU_KI
10
-142779.9
20
-54589
30
0
11
-142899.9
21
-54589
31
0
0
LINE
8
10_MOC_CHU_KI
10
-142899.9
20
-54589
30
0
11
-142899.9
21
-54729
31
0
0
LINE
8
10_MOC_CHU_KI
10
-142029.9
20
-54729
30
0
11
-141909.9
21
-54729
31
0
0
LINE
8
10_MOC_CHU_KI
10
-141909.9
20
-54729
30
0
11
-141909.9
21
-54589
31
0
0
LINE
8
10_MOC_CHU_KI
10
-141909.9
20
-54589
30
0
11
-142029.9
21
-54589
31
0
0
LINE
8
10_MOC_CHU_KI
10
-142029.9
20
-54589
30
0
11
-142029.9
21
-54729
31
0
0
LINE
8
10_MOC_CHU_KI
10
-156349.9
20
-38729
30
0
11
-156229.9
21
-38729
31
0
0
LINE
8
10_MOC_CHU_KI
10
-156229.9
20
-38729
30
0
11
-156229.9
21
-38589
31
0
0
LINE
8
10_MOC_CHU_KI
10
-156229.9
20
-38589
30
0
11
-156349.9
21
-38589
31
0
0
LINE
8
10_MOC_CHU_KI
10
-156349.9
20
-38589
30
0
11
-156349.9
21
-38729
31
0
0
LINE
8
10_MOC_CHU_KI
10
-155239.9
20
-38729
30
0
11
-155119.9
21
-38729
31
0
0
LINE
8
10_MOC_CHU_KI
10
-155119.9
20
-38729
30
0
11
-155119.9
21
-38589
31
0
0
LINE
8
10_MOC_CHU_KI
10
-155119.9
20
-38589
30
0
11
-155239.9
21
-38589
31
0
0
LINE
8
10_MOC_CHU_KI
10
-155239.9
20
-38589
30
0
11
-155239.9
21
-38729
31
0
0
LINE
8
10_MOC_CHU_KI
10
-153839.9
20
-38729
30
0
11
-153719.9
21
-38729
31
0
0
LINE
8
10_MOC_CHU_KI
10
-153719.9
20
-38729
30
0
11
-153719.9
21
-38589
31
0
0
LINE
8
10_MOC_CHU_KI
10
-153719.9
20
-38589
30
0
11
-153839.9
21
-38589
31
0
0
LINE
8
10_MOC_CHU_KI
10
-153839.9
20
-38589
30
0
11
-153839.9
21
-38729
31
0
0
LINE
8
10_MOC_CHU_KI
10
-152729.9
20
-38729
30
0
11
-152609.9
21
-38729
31
0
0
LINE
8
10_MOC_CHU_KI
10
-152609.9
20
-38729
30
0
11
-152609.9
21
-38589
31
0
0
LINE
8
10_MOC_CHU_KI
10
-152609.9
20
-38589
30
0
11
-152729.9
21
-38589
31
0
0
LINE
8
10_MOC_CHU_KI
10
-152729.9
20
-38589
30
0
11
-152729.9
21
-38729
31
0
0
LINE
8
10_MOC_CHU_KI
10
-151329.9
20
-38729
30
0
11
-151209.9
21
-38729
31
0
0
LINE
8
10_MOC_CHU_KI
10
-151209.9
20
-38729
30
0
11
-151209.9
21
-38589
31
0
0
LINE
8
10_MOC_CHU_KI
10
-151209.9
20
-38589
30
0
11
-151329.9
21
-38589
31
0
0
LINE
8
10_MOC_CHU_KI
10
-151329.9
20
-38589
30
0
11
-151329.9
21
-38729
31
0
0
LINE
8
10_MOC_CHU_KI
10
-150219.9
20
-38729
30
0
11
-150099.9
21
-38729
31
0
0
LINE
8
10_MOC_CHU_KI
10
-150099.9
20
-38729
30
0
11
-150099.9
21
-38589
31
0
0
LINE
8
10_MOC_CHU_KI
10
-150099.9
20
-38589
30
0
11
-150219.9
21
-38589
31
0
0
LINE
8
10_MOC_CHU_KI
10
-150219.9
20
-38589
30
0
11
-150219.9
21
-38729
31
0
0
LINE
8
10_MOC_CHU_KI
10
-148819.9
20
-38729
30
0
11
-148699.9
21
-38729
31
0
0
LINE
8
10_MOC_CHU_KI
10
-148699.9
20
-38729
30
0
11
-148699.9
21
-38589
31
0
0
LINE
8
10_MOC_CHU_KI
10
-148699.9
20
-38589
30
0
11
-148819.9
21
-38589
31
0
0
LINE
8
10_MOC_CHU_KI
10
-148819.9
20
-38589
30
0
11
-148819.9
21
-38729
31
0
0
LINE
8
10_MOC_CHU_KI
10
-147709.9
20
-38729
30
0
11
-147589.9
21
-38729
31
0
0
LINE
8
10_MOC_CHU_KI
10
-147589.9
20
-38729
30
0
11
-147589.9
21
-38589
31
0
0
LINE
8
10_MOC_CHU_KI
10
-147589.9
20
-38589
30
0
11
-147709.9
21
-38589
31
0
0
LINE
8
10_MOC_CHU_KI
10
-147709.9
20
-38589
30
0
11
-147709.9
21
-38729
31
0
0
LINE
8
10_MOC_CHU_KI
10
-146319.9
20
-38729
30
0
11
-146199.9
21
-38729
31
0
0
LINE
8
10_MOC_CHU_KI
10
-146199.9
20
-38729
30
0
11
-146199.9
21
-38589
31
0
0
LINE
8
10_MOC_CHU_KI
10
-146199.9
20
-38589
30
0
11
-146319.9
21
-38589
31
0
0
LINE
8
10_MOC_CHU_KI
10
-146319.9
20
-38589
30
0
11
-146319.9
21
-38729
31
0
0
LINE
8
10_MOC_CHU_KI
10
-145199.9
20
-38729
30
0
11
-145079.9
21
-38729
31
0
0
LINE
8
10_MOC_CHU_KI
10
-145079.9
20
-38729
30
0
11
-145079.9
21
-38589
31
0
0
LINE
8
10_MOC_CHU_KI
10
-145079.9
20
-38589
30
0
11
-145199.9
21
-38589
31
0
0
LINE
8
10_MOC_CHU_KI
10
-145199.9
20
-38589
30
0
11
-145199.9
21
-38729
31
0
0
LINE
8
10_MOC_CHU_KI
10
-143799.9
20
-38729
30
0
11
-143679.9
21
-38729
31
0
0
LINE
8
10_MOC_CHU_KI
10
-143679.9
20
-38729
30
0
11
-143679.9
21
-38589
31
0
0
LINE
8
10_MOC_CHU_KI
10
-143679.9
20
-38589
30
0
11
-143799.9
21
-38589
31
0
0
LINE
8
10_MOC_CHU_KI
10
-143799.9
20
-38589
30
0
11
-143799.9
21
-38729
31
0
0
LINE
8
10_MOC_CHU_KI
10
-142899.9
20
-38729
30
0
11
-142779.9
21
-38729
31
0
0
LINE
8
10_MOC_CHU_KI
10
-142779.9
20
-38729
30
0
11
-142779.9
21
-38589
31
0
0
LINE
8
10_MOC_CHU_KI
10
-142779.9
20
-38589
30
0
11
-142899.9
21
-38589
31
0
0
LINE
8
10_MOC_CHU_KI
10
-142899.9
20
-38589
30
0
11
-142899.9
21
-38729
31
0
0
LINE
8
10_MOC_CHU_KI
10
-142029.9
20
-38729
30
0
11
-141909.9
21
-38729
31
0
0
LINE
8
10_MOC_CHU_KI
10
-141909.9
20
-38729
30
0
11
-141909.9
21
-38589
31
0
0
LINE
8
10_MOC_CHU_KI
10
-141909.9
20
-38589
30
0
11
-142029.9
21
-38589
31
0
0
LINE
8
10_MOC_CHU_KI
10
-142029.9
20
-38589
30
0
11
-142029.9
21
-38729
31
0
0
LINE
8
10_MOC_CHU_KI
10
-156349.9
20
-36729
30
0
11
-156229.9
21
-36729
31
0
0
LINE
8
10_MOC_CHU_KI
10
-156229.9
20
-36729
30
0
11
-156229.9
21
-36589
31
0
0
LINE
8
10_MOC_CHU_KI
10
-156229.9
20
-36589
30
0
11
-156349.9
21
-36589
31
0
0
LINE
8
10_MOC_CHU_KI
10
-156349.9
20
-36589
30
0
11
-156349.9
21
-36729
31
0
0
LINE
8
10_MOC_CHU_KI
10
-155239.9
20
-36729
30
0
11
-155119.9
21
-36729
31
0
0
LINE
8
10_MOC_CHU_KI
10
-155119.9
20
-36729
30
0
11
-155119.9
21
-36589
31
0
0
LINE
8
10_MOC_CHU_KI
10
-155119.9
20
-36589
30
0
11
-155239.9
21
-36589
31
0
0
LINE
8
10_MOC_CHU_KI
10
-155239.9
20
-36589
30
0
11
-155239.9
21
-36729
31
0
0
LINE
8
10_MOC_CHU_KI
10
-153839.9
20
-36729
30
0
11
-153719.9
21
-36729
31
0
0
LINE
8
10_MOC_CHU_KI
10
-153719.9
20
-36729
30
0
11
-153719.9
21
-36589
31
0
0
LINE
8
10_MOC_CHU_KI
10
-153719.9
20
-36589
30
0
11
-153839.9
21
-36589
31
0
0
LINE
8
10_MOC_CHU_KI
10
-153839.9
20
-36589
30
0
11
-153839.9
21
-36729
31
0
0
LINE
8
10_MOC_CHU_KI
10
-152729.9
20
-36729
30
0
11
-152609.9
21
-36729
31
0
0
LINE
8
10_MOC_CHU_KI
10
-152609.9
20
-36729
30
0
11
-152609.9
21
-36589
31
0
0
LINE
8
10_MOC_CHU_KI
10
-152609.9
20
-36589
30
0
11
-152729.9
21
-36589
31
0
0
LINE
8
10_MOC_CHU_KI
10
-152729.9
20
-36589
30
0
11
-152729.9
21
-36729
31
0
0
LINE
8
10_MOC_CHU_KI
10
-151329.9
20
-36729
30
0
11
-151209.9
21
-36729
31
0
0
LINE
8
10_MOC_CHU_KI
10
-151209.9
20
-36729
30
0
11
-151209.9
21
-36589
31
0
0
LINE
8
10_MOC_CHU_KI
10
-151209.9
20
-36589
30
0
11
-151329.9
21
-36589
31
0
0
LINE
8
10_MOC_CHU_KI
10
-151329.9
20
-36589
30
0
11
-151329.9
21
-36729
31
0
0
LINE
8
10_MOC_CHU_KI
10
-150219.9
20
-36729
30
0
11
-150099.9
21
-36729
31
0
0
LINE
8
10_MOC_CHU_KI
10
-150099.9
20
-36729
30
0
11
-150099.9
21
-36589
31
0
0
LINE
8
10_MOC_CHU_KI
10
-150099.9
20
-36589
30
0
11
-150219.9
21
-36589
31
0
0
LINE
8
10_MOC_CHU_KI
10
-150219.9
20
-36589
30
0
11
-150219.9
21
-36729
31
0
0
LINE
8
10_MOC_CHU_KI
10
-148819.9
20
-36729
30
0
11
-148699.9
21
-36729
31
0
0
LINE
8
10_MOC_CHU_KI
10
-148699.9
20
-36729
30
0
11
-148699.9
21
-36589
31
0
0
LINE
8
10_MOC_CHU_KI
10
-148699.9
20
-36589
30
0
11
-148819.9
21
-36589
31
0
0
LINE
8
10_MOC_CHU_KI
10
-148819.9
20
-36589
30
0
11
-148819.9
21
-36729
31
0
0
LINE
8
10_MOC_CHU_KI
10
-147709.9
20
-36729
30
0
11
-147589.9
21
-36729
31
0
0
LINE
8
10_MOC_CHU_KI
10
-147589.9
20
-36729
30
0
11
-147589.9
21
-36589
31
0
0
LINE
8
10_MOC_CHU_KI
10
-147589.9
20
-36589
30
0
11
-147709.9
21
-36589
31
0
0
LINE
8
10_MOC_CHU_KI
10
-147709.9
20
-36589
30
0
11
-147709.9
21
-36729
31
0
0
LINE
8
10_MOC_CHU_KI
10
-146319.9
20
-36729
30
0
11
-146199.9
21
-36729
31
0
0
LINE
8
10_MOC_CHU_KI
10
-146199.9
20
-36729
30
0
11
-146199.9
21
-36589
31
0
0
LINE
8
10_MOC_CHU_KI
10
-146199.9
20
-36589
30
0
11
-146319.9
21
-36589
31
0
0
LINE
8
10_MOC_CHU_KI
10
-146319.9
20
-36589
30
0
11
-146319.9
21
-36729
31
0
0
LINE
8
10_MOC_CHU_KI
10
-145199.9
20
-36729
30
0
11
-145079.9
21
-36729
31
0
0
LINE
8
10_MOC_CHU_KI
10
-145079.9
20
-36729
30
0
11
-145079.9
21
-36589
31
0
0
LINE
8
10_MOC_CHU_KI
10
-145079.9
20
-36589
30
0
11
-145199.9
21
-36589
31
0
0
LINE
8
10_MOC_CHU_KI
10
-145199.9
20
-36589
30
0
11
-145199.9
21
-36729
31
0
0
LINE
8
10_MOC_CHU_KI
10
-143799.9
20
-36729
30
0
11
-143679.9
21
-36729
31
0
0
LINE
8
10_MOC_CHU_KI
10
-143679.9
20
-36729
30
0
11
-143679.9
21
-36589
31
0
0
LINE
8
10_MOC_CHU_KI
10
-143679.9
20
-36589
30
0
11
-143799.9
21
-36589
31
0
0
LINE
8
10_MOC_CHU_KI
10
-143799.9
20
-36589
30
0
11
-143799.9
21
-36729
31
0
0
LINE
8
10_MOC_CHU_KI
10
-142899.9
20
-36729
30
0
11
-142779.9
21
-36729
31
0
0
LINE
8
10_MOC_CHU_KI
10
-142779.9
20
-36729
30
0
11
-142779.9
21
-36589
31
0
0
LINE
8
10_MOC_CHU_KI
10
-142779.9
20
-36589
30
0
11
-142899.9
21
-36589
31
0
0
LINE
8
10_MOC_CHU_KI
10
-142899.9
20
-36589
30
0
11
-142899.9
21
-36729
31
0
0
LINE
8
10_MOC_CHU_KI
10
-142029.9
20
-36729
30
0
11
-141909.9
21
-36729
31
0
0
LINE
8
10_MOC_CHU_KI
10
-141909.9
20
-36729
30
0
11
-141909.9
21
-36589
31
0
0
LINE
8
10_MOC_CHU_KI
10
-141909.9
20
-36589
30
0
11
-142029.9
21
-36589
31
0
0
LINE
8
10_MOC_CHU_KI
10
-142029.9
20
-36589
30
0
11
-142029.9
21
-36729
31
0
0
LINE
8
10_MOC_CHU_KI
10
-156349.9
20
-24729
30
0
11
-156229.9
21
-24729
31
0
0
LINE
8
10_MOC_CHU_KI
10
-156229.9
20
-24729
30
0
11
-156229.9
21
-24589
31
0
0
LINE
8
10_MOC_CHU_KI
10
-156229.9
20
-24589
30
0
11
-156349.9
21
-24589
31
0
0
LINE
8
10_MOC_CHU_KI
10
-156349.9
20
-24589
30
0
11
-156349.9
21
-24729
31
0
0
LINE
8
10_MOC_CHU_KI
10
-155239.9
20
-24729
30
0
11
-155119.9
21
-24729
31
0
0
LINE
8
10_MOC_CHU_KI
10
-155119.9
20
-24729
30
0
11
-155119.9
21
-24589
31
0
0
LINE
8
10_MOC_CHU_KI
10
-155119.9
20
-24589
30
0
11
-155239.9
21
-24589
31
0
0
LINE
8
10_MOC_CHU_KI
10
-155239.9
20
-24589
30
0
11
-155239.9
21
-24729
31
0
0
LINE
8
10_MOC_CHU_KI
10
-153839.9
20
-24729
30
0
11
-153719.9
21
-24729
31
0
0
LINE
8
10_MOC_CHU_KI
10
-153719.9
20
-24729
30
0
11
-153719.9
21
-24589
31
0
0
LINE
8
10_MOC_CHU_KI
10
-153719.9
20
-24589
30
0
11
-153839.9
21
-24589
31
0
0
LINE
8
10_MOC_CHU_KI
10
-153839.9
20
-24589
30
0
11
-153839.9
21
-24729
31
0
0
LINE
8
10_MOC_CHU_KI
10
-152729.9
20
-24729
30
0
11
-152609.9
21
-24729
31
0
0
LINE
8
10_MOC_CHU_KI
10
-152609.9
20
-24729
30
0
11
-152609.9
21
-24589
31
0
0
LINE
8
10_MOC_CHU_KI
10
-152609.9
20
-24589
30
0
11
-152729.9
21
-24589
31
0
0
LINE
8
10_MOC_CHU_KI
10
-152729.9
20
-24589
30
0
11
-152729.9
21
-24729
31
0
0
LINE
8
10_MOC_CHU_KI
10
-151329.9
20
-24729
30
0
11
-151209.9
21
-24729
31
0
0
LINE
8
10_MOC_CHU_KI
10
-151209.9
20
-24729
30
0
11
-151209.9
21
-24589
31
0
0
LINE
8
10_MOC_CHU_KI
10
-151209.9
20
-24589
30
0
11
-151329.9
21
-24589
31
0
0
LINE
8
10_MOC_CHU_KI
10
-151329.9
20
-24589
30
0
11
-151329.9
21
-24729
31
0
0
LINE
8
10_MOC_CHU_KI
10
-150219.9
20
-24729
30
0
11
-150099.9
21
-24729
31
0
0
LINE
8
10_MOC_CHU_KI
10
-150099.9
20
-24729
30
0
11
-150099.9
21
-24589
31
0
0
LINE
8
10_MOC_CHU_KI
10
-150099.9
20
-24589
30
0
11
-150219.9
21
-24589
31
0
0
LINE
8
10_MOC_CHU_KI
10
-150219.9
20
-24589
30
0
11
-150219.9
21
-24729
31
0
0
LINE
8
10_MOC_CHU_KI
10
-148819.9
20
-24729
30
0
11
-148699.9
21
-24729
31
0
0
LINE
8
10_MOC_CHU_KI
10
-148699.9
20
-24729
30
0
11
-148699.9
21
-24589
31
0
0
LINE
8
10_MOC_CHU_KI
10
-148699.9
20
-24589
30
0
11
-148819.9
21
-24589
31
0
0
LINE
8
10_MOC_CHU_KI
10
-148819.9
20
-24589
30
0
11
-148819.9
21
-24729
31
0
0
LINE
8
10_MOC_CHU_KI
10
-147709.9
20
-24729
30
0
11
-147589.9
21
-24729
31
0
0
LINE
8
10_MOC_CHU_KI
10
-147589.9
20
-24729
30
0
11
-147589.9
21
-24589
31
0
0
LINE
8
10_MOC_CHU_KI
10
-147589.9
20
-24589
30
0
11
-147709.9
21
-24589
31
0
0
LINE
8
10_MOC_CHU_KI
10
-147709.9
20
-24589
30
0
11
-147709.9
21
-24729
31
0
0
LINE
8
10_MOC_CHU_KI
10
-146319.9
20
-24729
30
0
11
-146199.9
21
-24729
31
0
0
LINE
8
10_MOC_CHU_KI
10
-146199.9
20
-24729
30
0
11
-146199.9
21
-24589
31
0
0
LINE
8
10_MOC_CHU_KI
10
-146199.9
20
-24589
30
0
11
-146319.9
21
-24589
31
0
0
LINE
8
10_MOC_CHU_KI
10
-146319.9
20
-24589
30
0
11
-146319.9
21
-24729
31
0
0
LINE
8
10_MOC_CHU_KI
10
-145199.9
20
-24729
30
0
11
-145079.9
21
-24729
31
0
0
LINE
8
10_MOC_CHU_KI
10
-145079.9
20
-24729
30
0
11
-145079.9
21
-24589
31
0
0
LINE
8
10_MOC_CHU_KI
10
-145079.9
20
-24589
30
0
11
-145199.9
21
-24589
31
0
0
LINE
8
10_MOC_CHU_KI
10
-145199.9
20
-24589
30
0
11
-145199.9
21
-24729
31
0
0
LINE
8
10_MOC_CHU_KI
10
-143799.9
20
-24729
30
0
11
-143679.9
21
-24729
31
0
0
LINE
8
10_MOC_CHU_KI
10
-143679.9
20
-24729
30
0
11
-143679.9
21
-24589
31
0
0
LINE
8
10_MOC_CHU_KI
10
-143679.9
20
-24589
30
0
11
-143799.9
21
-24589
31
0
0
LINE
8
10_MOC_CHU_KI
10
-143799.9
20
-24589
30
0
11
-143799.9
21
-24729
31
0
0
LINE
8
10_MOC_CHU_KI
10
-142899.9
20
-24729
30
0
11
-142779.9
21
-24729
31
0
0
LINE
8
10_MOC_CHU_KI
10
-142779.9
20
-24729
30
0
11
-142779.9
21
-24589
31
0
0
LINE
8
10_MOC_CHU_KI
10
-142779.9
20
-24589
30
0
11
-142899.9
21
-24589
31
0
0
LINE
8
10_MOC_CHU_KI
10
-142899.9
20
-24589
30
0
11
-142899.9
21
-24729
31
0
0
LINE
8
10_MOC_CHU_KI
10
-142029.9
20
-24729
30
0
11
-141909.9
21
-24729
31
0
0
LINE
8
10_MOC_CHU_KI
10
-141909.9
20
-24729
30
0
11
-141909.9
21
-24589
31
0
0
LINE
8
10_MOC_CHU_KI
10
-141909.9
20
-24589
30
0
11
-142029.9
21
-24589
31
0
0
LINE
8
10_MOC_CHU_KI
10
-142029.9
20
-24589
30
0
11
-142029.9
21
-24729
31
0
0
LINE
8
10_MOC_CHU_KI
10
-156349.9
20
-22729
30
0
11
-156229.9
21
-22729
31
0
0
LINE
8
10_MOC_CHU_KI
10
-156229.9
20
-22729
30
0
11
-156229.9
21
-22589
31
0
0
LINE
8
10_MOC_CHU_KI
10
-156229.9
20
-22589
30
0
11
-156349.9
21
-22589
31
0
0
LINE
8
10_MOC_CHU_KI
10
-156349.9
20
-22589
30
0
11
-156349.9
21
-22729
31
0
0
LINE
8
10_MOC_CHU_KI
10
-155239.9
20
-22729
30
0
11
-155119.9
21
-22729
31
0
0
LINE
8
10_MOC_CHU_KI
10
-155119.9
20
-22729
30
0
11
-155119.9
21
-22589
31
0
0
LINE
8
10_MOC_CHU_KI
10
-155119.9
20
-22589
30
0
11
-155239.9
21
-22589
31
0
0
LINE
8
10_MOC_CHU_KI
10
-155239.9
20
-22589
30
0
11
-155239.9
21
-22729
31
0
0
LINE
8
10_MOC_CHU_KI
10
-153839.9
20
-22729
30
0
11
-153719.9
21
-22729
31
0
0
LINE
8
10_MOC_CHU_KI
10
-153719.9
20
-22729
30
0
11
-153719.9
21
-22589
31
0
0
LINE
8
10_MOC_CHU_KI
10
-153719.9
20
-22589
30
0
11
-153839.9
21
-22589
31
0
0
LINE
8
10_MOC_CHU_KI
10
-153839.9
20
-22589
30
0
11
-153839.9
21
-22729
31
0
0
LINE
8
10_MOC_CHU_KI
10
-152729.9
20
-22729
30
0
11
-152609.9
21
-22729
31
0
0
LINE
8
10_MOC_CHU_KI
10
-152609.9
20
-22729
30
0
11
-152609.9
21
-22589
31
0
0
LINE
8
10_MOC_CHU_KI
10
-152609.9
20
-22589
30
0
11
-152729.9
21
-22589
31
0
0
LINE
8
10_MOC_CHU_KI
10
-152729.9
20
-22589
30
0
11
-152729.9
21
-22729
31
0
0
LINE
8
10_MOC_CHU_KI
10
-151329.9
20
-22729
30
0
11
-151209.9
21
-22729
31
0
0
LINE
8
10_MOC_CHU_KI
10
-151209.9
20
-22729
30
0
11
-151209.9
21
-22589
31
0
0
LINE
8
10_MOC_CHU_KI
10
-151209.9
20
-22589
30
0
11
-151329.9
21
-22589
31
0
0
LINE
8
10_MOC_CHU_KI
10
-151329.9
20
-22589
30
0
11
-151329.9
21
-22729
31
0
0
LINE
8
10_MOC_CHU_KI
10
-150219.9
20
-22729
30
0
11
-150099.9
21
-22729
31
0
0
LINE
8
10_MOC_CHU_KI
10
-150099.9
20
-22729
30
0
11
-150099.9
21
-22589
31
0
0
LINE
8
10_MOC_CHU_KI
10
-150099.9
20
-22589
30
0
11
-150219.9
21
-22589
31
0
0
LINE
8
10_MOC_CHU_KI
10
-150219.9
20
-22589
30
0
11
-150219.9
21
-22729
31
0
0
LINE
8
10_MOC_CHU_KI
10
-148819.9
20
-22729
30
0
11
-148699.9
21
-22729
31
0
0
LINE
8
10_MOC_CHU_KI
10
-148699.9
20
-22729
30
0
11
-148699.9
21
-22589
31
0
0
LINE
8
10_MOC_CHU_KI
10
-148699.9
20
-22589
30
0
11
-148819.9
21
-22589
31
0
0
LINE
8
10_MOC_CHU_KI
10
-148819.9
20
-22589
30
0
11
-148819.9
21
-22729
31
0
0
LINE
8
10_MOC_CHU_KI
10
-147709.9
20
-22729
30
0
11
-147589.9
21
-22729
31
0
0
LINE
8
10_MOC_CHU_KI
10
-147589.9
20
-22729
30
0
11
-147589.9
21
-22589
31
0
0
LINE
8
10_MOC_CHU_KI
10
-147589.9
20
-22589
30
0
11
-147709.9
21
-22589
31
0
0
LINE
8
10_MOC_CHU_KI
10
-147709.9
20
-22589
30
0
11
-147709.9
21
-22729
31
0
0
LINE
8
10_MOC_CHU_KI
10
-146319.9
20
-22729
30
0
11
-146199.9
21
-22729
31
0
0
LINE
8
10_MOC_CHU_KI
10
-146199.9
20
-22729
30
0
11
-146199.9
21
-22589
31
0
0
LINE
8
10_MOC_CHU_KI
10
-146199.9
20
-22589
30
0
11
-146319.9
21
-22589
31
0
0
LINE
8
10_MOC_CHU_KI
10
-146319.9
20
-22589
30
0
11
-146319.9
21
-22729
31
0
0
LINE
8
10_MOC_CHU_KI
10
-145199.9
20
-22729
30
0
11
-145079.9
21
-22729
31
0
0
LINE
8
10_MOC_CHU_KI
10
-145079.9
20
-22729
30
0
11
-145079.9
21
-22589
31
0
0
LINE
8
10_MOC_CHU_KI
10
-145079.9
20
-22589
30
0
11
-145199.9
21
-22589
31
0
0
LINE
8
10_MOC_CHU_KI
10
-145199.9
20
-22589
30
0
11
-145199.9
21
-22729
31
0
0
LINE
8
10_MOC_CHU_KI
10
-143799.9
20
-22729
30
0
11
-143679.9
21
-22729
31
0
0
LINE
8
10_MOC_CHU_KI
10
-143679.9
20
-22729
30
0
11
-143679.9
21
-22589
31
0
0
LINE
8
10_MOC_CHU_KI
10
-143679.9
20
-22589
30
0
11
-143799.9
21
-22589
31
0
0
LINE
8
10_MOC_CHU_KI
10
-143799.9
20
-22589
30
0
11
-143799.9
21
-22729
31
0
0
LINE
8
10_MOC_CHU_KI
10
-142899.9
20
-22729
30
0
11
-142779.9
21
-22729
31
0
0
LINE
8
10_MOC_CHU_KI
10
-142779.9
20
-22729
30
0
11
-142779.9
21
-22589
31
0
0
LINE
8
10_MOC_CHU_KI
10
-142779.9
20
-22589
30
0
11
-142899.9
21
-22589
31
0
0
LINE
8
10_MOC_CHU_KI
10
-142899.9
20
-22589
30
0
11
-142899.9
21
-22729
31
0
0
LINE
8
10_MOC_CHU_KI
10
-142029.9
20
-22729
30
0
11
-141909.9
21
-22729
31
0
0
LINE
8
10_MOC_CHU_KI
10
-141909.9
20
-22729
30
0
11
-141909.9
21
-22589
31
0
0
LINE
8
10_MOC_CHU_KI
10
-141909.9
20
-22589
30
0
11
-142029.9
21
-22589
31
0
0
LINE
8
10_MOC_CHU_KI
10
-142029.9
20
-22589
30
0
11
-142029.9
21
-22729
31
0
0
LINE
8
10_MOC_CHU_KI
10
-237239.01
20
-22729
30
0
11
-237119.01
21
-22729
31
0
0
LINE
8
10_MOC_CHU_KI
10
-237119.01
20
-22729
30
0
11
-237119.01
21
-22589
31
0
0
LINE
8
10_MOC_CHU_KI
10
-237119.01
20
-22589
30
0
11
-237239.01
21
-22589
31
0
0
LINE
8
10_MOC_CHU_KI
10
-237239.01
20
-22589
30
0
11
-237239.01
21
-22729
31
0
0
LINE
8
10_MOC_CHU_KI
10
-236384.01
20
-22729
30
0
11
-236264.01
21
-22729
31
0
0
LINE
8
10_MOC_CHU_KI
10
-236264.01
20
-22729
30
0
11
-236264.01
21
-22589
31
0
0
LINE
8
10_MOC_CHU_KI
10
-236264.01
20
-22589
30
0
11
-236384.01
21
-22589
31
0
0
LINE
8
10_MOC_CHU_KI
10
-236384.01
20
-22589
30
0
11
-236384.01
21
-22729
31
0
0
LINE
8
10_MOC_CHU_KI
10
-235562.85
20
-22729
30
0
11
-235442.85
21
-22729
31
0
0
LINE
8
10_MOC_CHU_KI
10
-235442.85
20
-22729
30
0
11
-235442.85
21
-22589
31
0
0
LINE
8
10_MOC_CHU_KI
10
-235442.85
20
-22589
30
0
11
-235562.85
21
-22589
31
0
0
LINE
8
10_MOC_CHU_KI
10
-235562.85
20
-22589
30
0
11
-235562.85
21
-22729
31
0
0
LINE
8
10_MOC_CHU_KI
10
-234162.85
20
-22729
30
0
11
-234042.85
21
-22729
31
0
0
LINE
8
10_MOC_CHU_KI
10
-234042.85
20
-22729
30
0
11
-234042.85
21
-22589
31
0
0
LINE
8
10_MOC_CHU_KI
10
-234042.85
20
-22589
30
0
11
-234162.85
21
-22589
31
0
0
LINE
8
10_MOC_CHU_KI
10
-234162.85
20
-22589
30
0
11
-234162.85
21
-22729
31
0
0
LINE
8
10_MOC_CHU_KI
10
-233052.85
20
-22729
30
0
11
-232932.85
21
-22729
31
0
0
LINE
8
10_MOC_CHU_KI
10
-232932.85
20
-22729
30
0
11
-232932.85
21
-22589
31
0
0
LINE
8
10_MOC_CHU_KI
10
-232932.85
20
-22589
30
0
11
-233052.85
21
-22589
31
0
0
LINE
8
10_MOC_CHU_KI
10
-233052.85
20
-22589
30
0
11
-233052.85
21
-22729
31
0
0
LINE
8
10_MOC_CHU_KI
10
-231652.85
20
-22729
30
0
11
-231532.85
21
-22729
31
0
0
LINE
8
10_MOC_CHU_KI
10
-231532.85
20
-22729
30
0
11
-231532.85
21
-22589
31
0
0
LINE
8
10_MOC_CHU_KI
10
-231532.85
20
-22589
30
0
11
-231652.85
21
-22589
31
0
0
LINE
8
10_MOC_CHU_KI
10
-231652.85
20
-22589
30
0
11
-231652.85
21
-22729
31
0
0
LINE
8
10_MOC_CHU_KI
10
-230542.85
20
-22729
30
0
11
-230422.85
21
-22729
31
0
0
LINE
8
10_MOC_CHU_KI
10
-230422.85
20
-22729
30
0
11
-230422.85
21
-22589
31
0
0
LINE
8
10_MOC_CHU_KI
10
-230422.85
20
-22589
30
0
11
-230542.85
21
-22589
31
0
0
LINE
8
10_MOC_CHU_KI
10
-230542.85
20
-22589
30
0
11
-230542.85
21
-22729
31
0
0
LINE
8
10_MOC_CHU_KI
10
-229142.85
20
-22729
30
0
11
-229022.85
21
-22729
31
0
0
LINE
8
10_MOC_CHU_KI
10
-229022.85
20
-22729
30
0
11
-229022.85
21
-22589
31
0
0
LINE
8
10_MOC_CHU_KI
10
-229022.85
20
-22589
30
0
11
-229142.85
21
-22589
31
0
0
LINE
8
10_MOC_CHU_KI
10
-229142.85
20
-22589
30
0
11
-229142.85
21
-22729
31
0
0
LINE
8
10_MOC_CHU_KI
10
-228032.85
20
-22729
30
0
11
-227912.85
21
-22729
31
0
0
LINE
8
10_MOC_CHU_KI
10
-227912.85
20
-22729
30
0
11
-227912.85
21
-22589
31
0
0
LINE
8
10_MOC_CHU_KI
10
-227912.85
20
-22589
30
0
11
-228032.85
21
-22589
31
0
0
LINE
8
10_MOC_CHU_KI
10
-228032.85
20
-22589
30
0
11
-228032.85
21
-22729
31
0
0
LINE
8
10_MOC_CHU_KI
10
-226632.85
20
-22729
30
0
11
-226512.85
21
-22729
31
0
0
LINE
8
10_MOC_CHU_KI
10
-226512.85
20
-22729
30
0
11
-226512.85
21
-22589
31
0
0
LINE
8
10_MOC_CHU_KI
10
-226512.85
20
-22589
30
0
11
-226632.85
21
-22589
31
0
0
LINE
8
10_MOC_CHU_KI
10
-226632.85
20
-22589
30
0
11
-226632.85
21
-22729
31
0
0
LINE
8
10_MOC_CHU_KI
10
-225522.85
20
-22729
30
0
11
-225402.85
21
-22729
31
0
0
LINE
8
10_MOC_CHU_KI
10
-225402.85
20
-22729
30
0
11
-225402.85
21
-22589
31
0
0
LINE
8
10_MOC_CHU_KI
10
-225402.85
20
-22589
30
0
11
-225522.85
21
-22589
31
0
0
LINE
8
10_MOC_CHU_KI
10
-225522.85
20
-22589
30
0
11
-225522.85
21
-22729
31
0
0
LINE
8
10_MOC_CHU_KI
10
-224122.85
20
-22729
30
0
11
-224002.85
21
-22729
31
0
0
LINE
8
10_MOC_CHU_KI
10
-224002.85
20
-22729
30
0
11
-224002.85
21
-22589
31
0
0
LINE
8
10_MOC_CHU_KI
10
-224002.85
20
-22589
30
0
11
-224122.85
21
-22589
31
0
0
LINE
8
10_MOC_CHU_KI
10
-224122.85
20
-22589
30
0
11
-224122.85
21
-22729
31
0
0
LINE
8
10_MOC_CHU_KI
10
-223012.85
20
-22729
30
0
11
-222892.85
21
-22729
31
0
0
LINE
8
10_MOC_CHU_KI
10
-222892.85
20
-22729
30
0
11
-222892.85
21
-22589
31
0
0
LINE
8
10_MOC_CHU_KI
10
-222892.85
20
-22589
30
0
11
-223012.85
21
-22589
31
0
0
LINE
8
10_MOC_CHU_KI
10
-223012.85
20
-22589
30
0
11
-223012.85
21
-22729
31
0
0
LINE
8
10_MOC_CHU_KI
10
-237239.01
20
-20729
30
0
11
-237119.01
21
-20729
31
0
0
LINE
8
10_MOC_CHU_KI
10
-237119.01
20
-20729
30
0
11
-237119.01
21
-20589
31
0
0
LINE
8
10_MOC_CHU_KI
10
-237119.01
20
-20589
30
0
11
-237239.01
21
-20589
31
0
0
LINE
8
10_MOC_CHU_KI
10
-237239.01
20
-20589
30
0
11
-237239.01
21
-20729
31
0
0
LINE
8
10_MOC_CHU_KI
10
-236384.01
20
-20729
30
0
11
-236264.01
21
-20729
31
0
0
LINE
8
10_MOC_CHU_KI
10
-236264.01
20
-20729
30
0
11
-236264.01
21
-20589
31
0
0
LINE
8
10_MOC_CHU_KI
10
-236264.01
20
-20589
30
0
11
-236384.01
21
-20589
31
0
0
LINE
8
10_MOC_CHU_KI
10
-236384.01
20
-20589
30
0
11
-236384.01
21
-20729
31
0
0
LINE
8
10_MOC_CHU_KI
10
-235562.85
20
-20729
30
0
11
-235442.85
21
-20729
31
0
0
LINE
8
10_MOC_CHU_KI
10
-235442.85
20
-20729
30
0
11
-235442.85
21
-20589
31
0
0
LINE
8
10_MOC_CHU_KI
10
-235442.85
20
-20589
30
0
11
-235562.85
21
-20589
31
0
0
LINE
8
10_MOC_CHU_KI
10
-235562.85
20
-20589
30
0
11
-235562.85
21
-20729
31
0
0
LINE
8
10_MOC_CHU_KI
10
-234162.85
20
-20729
30
0
11
-234042.85
21
-20729
31
0
0
LINE
8
10_MOC_CHU_KI
10
-234042.85
20
-20729
30
0
11
-234042.85
21
-20589
31
0
0
LINE
8
10_MOC_CHU_KI
10
-234042.85
20
-20589
30
0
11
-234162.85
21
-20589
31
0
0
LINE
8
10_MOC_CHU_KI
10
-234162.85
20
-20589
30
0
11
-234162.85
21
-20729
31
0
0
LINE
8
10_MOC_CHU_KI
10
-233052.85
20
-20729
30
0
11
-232932.85
21
-20729
31
0
0
LINE
8
10_MOC_CHU_KI
10
-232932.85
20
-20729
30
0
11
-232932.85
21
-20589
31
0
0
LINE
8
10_MOC_CHU_KI
10
-232932.85
20
-20589
30
0
11
-233052.85
21
-20589
31
0
0
LINE
8
10_MOC_CHU_KI
10
-233052.85
20
-20589
30
0
11
-233052.85
21
-20729
31
0
0
LINE
8
10_MOC_CHU_KI
10
-231652.85
20
-20729
30
0
11
-231532.85
21
-20729
31
0
0
LINE
8
10_MOC_CHU_KI
10
-231532.85
20
-20729
30
0
11
-231532.85
21
-20589
31
0
0
LINE
8
10_MOC_CHU_KI
10
-231532.85
20
-20589
30
0
11
-231652.85
21
-20589
31
0
0
LINE
8
10_MOC_CHU_KI
10
-231652.85
20
-20589
30
0
11
-231652.85
21
-20729
31
0
0
LINE
8
10_MOC_CHU_KI
10
-230542.85
20
-20729
30
0
11
-230422.85
21
-20729
31
0
0
LINE
8
10_MOC_CHU_KI
10
-230422.85
20
-20729
30
0
11
-230422.85
21
-20589
31
0
0
LINE
8
10_MOC_CHU_KI
10
-230422.85
20
-20589
30
0
11
-230542.85
21
-20589
31
0
0
LINE
8
10_MOC_CHU_KI
10
-230542.85
20
-20589
30
0
11
-230542.85
21
-20729
31
0
0
LINE
8
10_MOC_CHU_KI
10
-229142.85
20
-20729
30
0
11
-229022.85
21
-20729
31
0
0
LINE
8
10_MOC_CHU_KI
10
-229022.85
20
-20729
30
0
11
-229022.85
21
-20589
31
0
0
LINE
8
10_MOC_CHU_KI
10
-229022.85
20
-20589
30
0
11
-229142.85
21
-20589
31
0
0
LINE
8
10_MOC_CHU_KI
10
-229142.85
20
-20589
30
0
11
-229142.85
21
-20729
31
0
0
LINE
8
10_MOC_CHU_KI
10
-228032.85
20
-20729
30
0
11
-227912.85
21
-20729
31
0
0
LINE
8
10_MOC_CHU_KI
10
-227912.85
20
-20729
30
0
11
-227912.85
21
-20589
31
0
0
LINE
8
10_MOC_CHU_KI
10
-227912.85
20
-20589
30
0
11
-228032.85
21
-20589
31
0
0
LINE
8
10_MOC_CHU_KI
10
-228032.85
20
-20589
30
0
11
-228032.85
21
-20729
31
0
0
LINE
8
10_MOC_CHU_KI
10
-226632.85
20
-20729
30
0
11
-226512.85
21
-20729
31
0
0
LINE
8
10_MOC_CHU_KI
10
-226512.85
20
-20729
30
0
11
-226512.85
21
-20589
31
0
0
LINE
8
10_MOC_CHU_KI
10
-226512.85
20
-20589
30
0
11
-226632.85
21
-20589
31
0
0
LINE
8
10_MOC_CHU_KI
10
-226632.85
20
-20589
30
0
11
-226632.85
21
-20729
31
0
0
LINE
8
10_MOC_CHU_KI
10
-225522.85
20
-20729
30
0
11
-225402.85
21
-20729
31
0
0
LINE
8
10_MOC_CHU_KI
10
-225402.85
20
-20729
30
0
11
-225402.85
21
-20589
31
0
0
LINE
8
10_MOC_CHU_KI
10
-225402.85
20
-20589
30
0
11
-225522.85
21
-20589
31
0
0
LINE
8
10_MOC_CHU_KI
10
-225522.85
20
-20589
30
0
11
-225522.85
21
-20729
31
0
0
LINE
8
10_MOC_CHU_KI
10
-224122.85
20
-20729
30
0
11
-224002.85
21
-20729
31
0
0
LINE
8
10_MOC_CHU_KI
10
-224002.85
20
-20729
30
0
11
-224002.85
21
-20589
31
0
0
LINE
8
10_MOC_CHU_KI
10
-224002.85
20
-20589
30
0
11
-224122.85
21
-20589
31
0
0
LINE
8
10_MOC_CHU_KI
10
-224122.85
20
-20589
30
0
11
-224122.85
21
-20729
31
0
0
LINE
8
10_MOC_CHU_KI
10
-223012.85
20
-20729
30
0
11
-222892.85
21
-20729
31
0
0
LINE
8
10_MOC_CHU_KI
10
-222892.85
20
-20729
30
0
11
-222892.85
21
-20589
31
0
0
LINE
8
10_MOC_CHU_KI
10
-222892.85
20
-20589
30
0
11
-223012.85
21
-20589
31
0
0
LINE
8
10_MOC_CHU_KI
10
-223012.85
20
-20589
30
0
11
-223012.85
21
-20729
31
0
0
LINE
8
10_MOC_CHU_KI
10
-237239.01
20
-38729
30
0
11
-237119.01
21
-38729
31
0
0
LINE
8
10_MOC_CHU_KI
10
-237119.01
20
-38729
30
0
11
-237119.01
21
-38589
31
0
0
LINE
8
10_MOC_CHU_KI
10
-237119.01
20
-38589
30
0
11
-237239.01
21
-38589
31
0
0
LINE
8
10_MOC_CHU_KI
10
-237239.01
20
-38589
30
0
11
-237239.01
21
-38729
31
0
0
LINE
8
10_MOC_CHU_KI
10
-236384.01
20
-38729
30
0
11
-236264.01
21
-38729
31
0
0
LINE
8
10_MOC_CHU_KI
10
-236264.01
20
-38729
30
0
11
-236264.01
21
-38589
31
0
0
LINE
8
10_MOC_CHU_KI
10
-236264.01
20
-38589
30
0
11
-236384.01
21
-38589
31
0
0
LINE
8
10_MOC_CHU_KI
10
-236384.01
20
-38589
30
0
11
-236384.01
21
-38729
31
0
0
LINE
8
10_MOC_CHU_KI
10
-235562.85
20
-38729
30
0
11
-235442.85
21
-38729
31
0
0
LINE
8
10_MOC_CHU_KI
10
-235442.85
20
-38729
30
0
11
-235442.85
21
-38589
31
0
0
LINE
8
10_MOC_CHU_KI
10
-235442.85
20
-38589
30
0
11
-235562.85
21
-38589
31
0
0
LINE
8
10_MOC_CHU_KI
10
-235562.85
20
-38589
30
0
11
-235562.85
21
-38729
31
0
0
LINE
8
10_MOC_CHU_KI
10
-234162.85
20
-38729
30
0
11
-234042.85
21
-38729
31
0
0
LINE
8
10_MOC_CHU_KI
10
-234042.85
20
-38729
30
0
11
-234042.85
21
-38589
31
0
0
LINE
8
10_MOC_CHU_KI
10
-234042.85
20
-38589
30
0
11
-234162.85
21
-38589
31
0
0
LINE
8
10_MOC_CHU_KI
10
-234162.85
20
-38589
30
0
11
-234162.85
21
-38729
31
0
0
LINE
8
10_MOC_CHU_KI
10
-233052.85
20
-38729
30
0
11
-232932.85
21
-38729
31
0
0
LINE
8
10_MOC_CHU_KI
10
-232932.85
20
-38729
30
0
11
-232932.85
21
-38589
31
0
0
LINE
8
10_MOC_CHU_KI
10
-232932.85
20
-38589
30
0
11
-233052.85
21
-38589
31
0
0
LINE
8
10_MOC_CHU_KI
10
-233052.85
20
-38589
30
0
11
-233052.85
21
-38729
31
0
0
LINE
8
10_MOC_CHU_KI
10
-231652.85
20
-38729
30
0
11
-231532.85
21
-38729
31
0
0
LINE
8
10_MOC_CHU_KI
10
-231532.85
20
-38729
30
0
11
-231532.85
21
-38589
31
0
0
LINE
8
10_MOC_CHU_KI
10
-231532.85
20
-38589
30
0
11
-231652.85
21
-38589
31
0
0
LINE
8
10_MOC_CHU_KI
10
-231652.85
20
-38589
30
0
11
-231652.85
21
-38729
31
0
0
LINE
8
10_MOC_CHU_KI
10
-230542.85
20
-38729
30
0
11
-230422.85
21
-38729
31
0
0
LINE
8
10_MOC_CHU_KI
10
-230422.85
20
-38729
30
0
11
-230422.85
21
-38589
31
0
0
LINE
8
10_MOC_CHU_KI
10
-230422.85
20
-38589
30
0
11
-230542.85
21
-38589
31
0
0
LINE
8
10_MOC_CHU_KI
10
-230542.85
20
-38589
30
0
11
-230542.85
21
-38729
31
0
0
LINE
8
10_MOC_CHU_KI
10
-229142.85
20
-38729
30
0
11
-229022.85
21
-38729
31
0
0
LINE
8
10_MOC_CHU_KI
10
-229022.85
20
-38729
30
0
11
-229022.85
21
-38589
31
0
0
LINE
8
10_MOC_CHU_KI
10
-229022.85
20
-38589
30
0
11
-229142.85
21
-38589
31
0
0
LINE
8
10_MOC_CHU_KI
10
-229142.85
20
-38589
30
0
11
-229142.85
21
-38729
31
0
0
LINE
8
10_MOC_CHU_KI
10
-228032.85
20
-38729
30
0
11
-227912.85
21
-38729
31
0
0
LINE
8
10_MOC_CHU_KI
10
-227912.85
20
-38729
30
0
11
-227912.85
21
-38589
31
0
0
LINE
8
10_MOC_CHU_KI
10
-227912.85
20
-38589
30
0
11
-228032.85
21
-38589
31
0
0
LINE
8
10_MOC_CHU_KI
10
-228032.85
20
-38589
30
0
11
-228032.85
21
-38729
31
0
0
LINE
8
10_MOC_CHU_KI
10
-226632.85
20
-38729
30
0
11
-226512.85
21
-38729
31
0
0
LINE
8
10_MOC_CHU_KI
10
-226512.85
20
-38729
30
0
11
-226512.85
21
-38589
31
0
0
LINE
8
10_MOC_CHU_KI
10
-226512.85
20
-38589
30
0
11
-226632.85
21
-38589
31
0
0
LINE
8
10_MOC_CHU_KI
10
-226632.85
20
-38589
30
0
11
-226632.85
21
-38729
31
0
0
LINE
8
10_MOC_CHU_KI
10
-225522.85
20
-38729
30
0
11
-225402.85
21
-38729
31
0
0
LINE
8
10_MOC_CHU_KI
10
-225402.85
20
-38729
30
0
11
-225402.85
21
-38589
31
0
0
LINE
8
10_MOC_CHU_KI
10
-225402.85
20
-38589
30
0
11
-225522.85
21
-38589
31
0
0
LINE
8
10_MOC_CHU_KI
10
-225522.85
20
-38589
30
0
11
-225522.85
21
-38729
31
0
0
LINE
8
10_MOC_CHU_KI
10
-224122.85
20
-38729
30
0
11
-224002.85
21
-38729
31
0
0
LINE
8
10_MOC_CHU_KI
10
-224002.85
20
-38729
30
0
11
-224002.85
21
-38589
31
0
0
LINE
8
10_MOC_CHU_KI
10
-224002.85
20
-38589
30
0
11
-224122.85
21
-38589
31
0
0
LINE
8
10_MOC_CHU_KI
10
-224122.85
20
-38589
30
0
11
-224122.85
21
-38729
31
0
0
LINE
8
10_MOC_CHU_KI
10
-223012.85
20
-38729
30
0
11
-222892.85
21
-38729
31
0
0
LINE
8
10_MOC_CHU_KI
10
-222892.85
20
-38729
30
0
11
-222892.85
21
-38589
31
0
0
LINE
8
10_MOC_CHU_KI
10
-222892.85
20
-38589
30
0
11
-223012.85
21
-38589
31
0
0
LINE
8
10_MOC_CHU_KI
10
-223012.85
20
-38589
30
0
11
-223012.85
21
-38729
31
0
0
LINE
8
10_MOC_CHU_KI
10
-237239.01
20
-40729
30
0
11
-237119.01
21
-40729
31
0
0
LINE
8
10_MOC_CHU_KI
10
-237119.01
20
-40729
30
0
11
-237119.01
21
-40589
31
0
0
LINE
8
10_MOC_CHU_KI
10
-237119.01
20
-40589
30
0
11
-237239.01
21
-40589
31
0
0
LINE
8
10_MOC_CHU_KI
10
-237239.01
20
-40589
30
0
11
-237239.01
21
-40729
31
0
0
LINE
8
10_MOC_CHU_KI
10
-236384.01
20
-40729
30
0
11
-236264.01
21
-40729
31
0
0
LINE
8
10_MOC_CHU_KI
10
-236264.01
20
-40729
30
0
11
-236264.01
21
-40589
31
0
0
LINE
8
10_MOC_CHU_KI
10
-236264.01
20
-40589
30
0
11
-236384.01
21
-40589
31
0
0
LINE
8
10_MOC_CHU_KI
10
-236384.01
20
-40589
30
0
11
-236384.01
21
-40729
31
0
0
LINE
8
10_MOC_CHU_KI
10
-235562.85
20
-40729
30
0
11
-235442.85
21
-40729
31
0
0
LINE
8
10_MOC_CHU_KI
10
-235442.85
20
-40729
30
0
11
-235442.85
21
-40589
31
0
0
LINE
8
10_MOC_CHU_KI
10
-235442.85
20
-40589
30
0
11
-235562.85
21
-40589
31
0
0
LINE
8
10_MOC_CHU_KI
10
-235562.85
20
-40589
30
0
11
-235562.85
21
-40729
31
0
0
LINE
8
10_MOC_CHU_KI
10
-234162.85
20
-40729
30
0
11
-234042.85
21
-40729
31
0
0
LINE
8
10_MOC_CHU_KI
10
-234042.85
20
-40729
30
0
11
-234042.85
21
-40589
31
0
0
LINE
8
10_MOC_CHU_KI
10
-234042.85
20
-40589
30
0
11
-234162.85
21
-40589
31
0
0
LINE
8
10_MOC_CHU_KI
10
-234162.85
20
-40589
30
0
11
-234162.85
21
-40729
31
0
0
LINE
8
10_MOC_CHU_KI
10
-233052.85
20
-40729
30
0
11
-232932.85
21
-40729
31
0
0
LINE
8
10_MOC_CHU_KI
10
-232932.85
20
-40729
30
0
11
-232932.85
21
-40589
31
0
0
LINE
8
10_MOC_CHU_KI
10
-232932.85
20
-40589
30
0
11
-233052.85
21
-40589
31
0
0
LINE
8
10_MOC_CHU_KI
10
-233052.85
20
-40589
30
0
11
-233052.85
21
-40729
31
0
0
LINE
8
10_MOC_CHU_KI
10
-231652.85
20
-40729
30
0
11
-231532.85
21
-40729
31
0
0
LINE
8
10_MOC_CHU_KI
10
-231532.85
20
-40729
30
0
11
-231532.85
21
-40589
31
0
0
LINE
8
10_MOC_CHU_KI
10
-231532.85
20
-40589
30
0
11
-231652.85
21
-40589
31
0
0
LINE
8
10_MOC_CHU_KI
10
-231652.85
20
-40589
30
0
11
-231652.85
21
-40729
31
0
0
LINE
8
10_MOC_CHU_KI
10
-230542.85
20
-40729
30
0
11
-230422.85
21
-40729
31
0
0
LINE
8
10_MOC_CHU_KI
10
-230422.85
20
-40729
30
0
11
-230422.85
21
-40589
31
0
0
LINE
8
10_MOC_CHU_KI
10
-230422.85
20
-40589
30
0
11
-230542.85
21
-40589
31
0
0
LINE
8
10_MOC_CHU_KI
10
-230542.85
20
-40589
30
0
11
-230542.85
21
-40729
31
0
0
LINE
8
10_MOC_CHU_KI
10
-229142.85
20
-40729
30
0
11
-229022.85
21
-40729
31
0
0
LINE
8
10_MOC_CHU_KI
10
-229022.85
20
-40729
30
0
11
-229022.85
21
-40589
31
0
0
LINE
8
10_MOC_CHU_KI
10
-229022.85
20
-40589
30
0
11
-229142.85
21
-40589
31
0
0
LINE
8
10_MOC_CHU_KI
10
-229142.85
20
-40589
30
0
11
-229142.85
21
-40729
31
0
0
LINE
8
10_MOC_CHU_KI
10
-228032.85
20
-40729
30
0
11
-227912.85
21
-40729
31
0
0
LINE
8
10_MOC_CHU_KI
10
-227912.85
20
-40729
30
0
11
-227912.85
21
-40589
31
0
0
LINE
8
10_MOC_CHU_KI
10
-227912.85
20
-40589
30
0
11
-228032.85
21
-40589
31
0
0
LINE
8
10_MOC_CHU_KI
10
-228032.85
20
-40589
30
0
11
-228032.85
21
-40729
31
0
0
LINE
8
10_MOC_CHU_KI
10
-226632.85
20
-40729
30
0
11
-226512.85
21
-40729
31
0
0
LINE
8
10_MOC_CHU_KI
10
-226512.85
20
-40729
30
0
11
-226512.85
21
-40589
31
0
0
LINE
8
10_MOC_CHU_KI
10
-226512.85
20
-40589
30
0
11
-226632.85
21
-40589
31
0
0
LINE
8
10_MOC_CHU_KI
10
-226632.85
20
-40589
30
0
11
-226632.85
21
-40729
31
0
0
LINE
8
10_MOC_CHU_KI
10
-225522.85
20
-40729
30
0
11
-225402.85
21
-40729
31
0
0
LINE
8
10_MOC_CHU_KI
10
-225402.85
20
-40729
30
0
11
-225402.85
21
-40589
31
0
0
LINE
8
10_MOC_CHU_KI
10
-225402.85
20
-40589
30
0
11
-225522.85
21
-40589
31
0
0
LINE
8
10_MOC_CHU_KI
10
-225522.85
20
-40589
30
0
11
-225522.85
21
-40729
31
0
0
LINE
8
10_MOC_CHU_KI
10
-224122.85
20
-40729
30
0
11
-224002.85
21
-40729
31
0
0
LINE
8
10_MOC_CHU_KI
10
-224002.85
20
-40729
30
0
11
-224002.85
21
-40589
31
0
0
LINE
8
10_MOC_CHU_KI
10
-224002.85
20
-40589
30
0
11
-224122.85
21
-40589
31
0
0
LINE
8
10_MOC_CHU_KI
10
-224122.85
20
-40589
30
0
11
-224122.85
21
-40729
31
0
0
LINE
8
10_MOC_CHU_KI
10
-223012.85
20
-40729
30
0
11
-222892.85
21
-40729
31
0
0
LINE
8
10_MOC_CHU_KI
10
-222892.85
20
-40729
30
0
11
-222892.85
21
-40589
31
0
0
LINE
8
10_MOC_CHU_KI
10
-222892.85
20
-40589
30
0
11
-223012.85
21
-40589
31
0
0
LINE
8
10_MOC_CHU_KI
10
-223012.85
20
-40589
30
0
11
-223012.85
21
-40729
31
0
0
CIRCLE
8
10_BU_LONG_M10X120
10
-222952.85
20
-58659
30
0
40
25
0
CIRCLE
8
10_BU_LONG_M10X120
10
-221552.85
20
-58659
30
0
40
25
0
CIRCLE
8
10_BU_LONG_M10X120
10
-220422.85
20
-58659
30
0
40
25
0
CIRCLE
8
10_BU_LONG_M10X120
10
-219022.85
20
-58659
30
0
40
25
0
CIRCLE
8
10_BU_LONG_M10X120
10
-202862.85
20
-58659
30
0
40
25
0
CIRCLE
8
10_BU_LONG_M10X120
10
-201462.85
20
-58659
30
0
40
25
0
CIRCLE
8
10_BU_LONG_M10X120
10
-200364.68
20
-58659
30
0
40
25
0
CIRCLE
8
10_BU_LONG_M10X120
10
-198954.68
20
-58659
30
0
40
25
0
CIRCLE
8
10_BU_LONG_M10X120
10
-197842.25
20
-58659
30
0
40
25
0
CIRCLE
8
10_BU_LONG_M10X120
10
-196442.25
20
-58659
30
0
40
25
0
CIRCLE
8
10_BU_LONG_M10X120
10
-180272.25
20
-58659
30
0
40
25
0
CIRCLE
8
10_BU_LONG_M10X120
10
-178872.25
20
-58659
30
0
40
25
0
CIRCLE
8
10_BU_LONG_M10X120
10
-177762.25
20
-58659
30
0
40
25
0
CIRCLE
8
10_BU_LONG_M10X120
10
-176362.25
20
-58659
30
0
40
25
0
CIRCLE
8
10_BU_LONG_M10X120
10
-175252.25
20
-58659
30
0
40
25
0
CIRCLE
8
10_BU_LONG_M10X120
10
-173852.25
20
-58659
30
0
40
25
0
CIRCLE
8
10_BU_LONG_M10X120
10
-172742.25
20
-58659
30
0
40
25
0
CIRCLE
8
10_BU_LONG_M10X120
10
-171342.25
20
-58659
30
0
40
25
0
CIRCLE
8
10_BU_LONG_M10X120
10
-237179.01
20
-52659
30
0
40
25
0
CIRCLE
8
10_BU_LONG_M10X120
10
-236324.01
20
-52659
30
0
40
25
0
CIRCLE
8
10_BU_LONG_M10X120
10
-235502.85
20
-52659
30
0
40
25
0
CIRCLE
8
10_BU_LONG_M10X120
10
-234102.85
20
-52659
30
0
40
25
0
CIRCLE
8
10_BU_LONG_M10X120
10
-232992.85
20
-52659
30
0
40
25
0
CIRCLE
8
10_BU_LONG_M10X120
10
-231592.85
20
-52659
30
0
40
25
0
CIRCLE
8
10_BU_LONG_M10X120
10
-230482.85
20
-52659
30
0
40
25
0
CIRCLE
8
10_BU_LONG_M10X120
10
-229082.85
20
-52659
30
0
40
25
0
CIRCLE
8
10_BU_LONG_M10X120
10
-227972.85
20
-52659
30
0
40
25
0
CIRCLE
8
10_BU_LONG_M10X120
10
-226572.85
20
-52659
30
0
40
25
0
CIRCLE
8
10_BU_LONG_M10X120
10
-225462.85
20
-52659
30
0
40
25
0
CIRCLE
8
10_BU_LONG_M10X120
10
-224062.85
20
-52659
30
0
40
25
0
CIRCLE
8
10_BU_LONG_M10X120
10
-222952.85
20
-52659
30
0
40
25
0
CIRCLE
8
10_BU_LONG_M10X120
10
-221552.85
20
-52659
30
0
40
25
0
CIRCLE
8
10_BU_LONG_M10X120
10
-220422.85
20
-52659
30
0
40
25
0
CIRCLE
8
10_BU_LONG_M10X120
10
-219022.85
20
-52659
30
0
40
25
0
CIRCLE
8
10_BU_LONG_M10X120
10
-217922.85
20
-52659
30
0
40
25
0
CIRCLE
8
10_BU_LONG_M10X120
10
-216532.85
20
-52659
30
0
40
25
0
CIRCLE
8
10_BU_LONG_M10X120
10
-215427.85
20
-52659
30
0
40
25
0
CIRCLE
8
10_BU_LONG_M10X120
10
-214022.85
20
-52659
30
0
40
25
0
CIRCLE
8
10_BU_LONG_M10X120
10
-212902.85
20
-52659
30
0
40
25
0
CIRCLE
8
10_BU_LONG_M10X120
10
-211522.85
20
-52659
30
0
40
25
0
CIRCLE
8
10_BU_LONG_M10X120
10
-210392.85
20
-52659
30
0
40
25
0
CIRCLE
8
10_BU_LONG_M10X120
10
-209002.85
20
-52659
30
0
40
25
0
CIRCLE
8
10_BU_LONG_M10X120
10
-207897.85
20
-52659
30
0
40
25
0
CIRCLE
8
10_BU_LONG_M10X120
10
-206492.85
20
-52659
30
0
40
25
0
CIRCLE
8
10_BU_LONG_M10X120
10
-205367.85
20
-52659
30
0
40
25
0
CIRCLE
8
10_BU_LONG_M10X120
10
-203982.85
20
-52659
30
0
40
25
0
CIRCLE
8
10_BU_LONG_M10X120
10
-202862.85
20
-52659
30
0
40
25
0
CIRCLE
8
10_BU_LONG_M10X120
10
-201462.85
20
-52659
30
0
40
25
0
CIRCLE
8
10_BU_LONG_M10X120
10
-200364.68
20
-52659
30
0
40
25
0
CIRCLE
8
10_BU_LONG_M10X120
10
-198954.68
20
-52659
30
0
40
25
0
CIRCLE
8
10_BU_LONG_M10X120
10
-197842.25
20
-52659
30
0
40
25
0
CIRCLE
8
10_BU_LONG_M10X120
10
-196442.25
20
-52659
30
0
40
25
0
CIRCLE
8
10_BU_LONG_M10X120
10
-195332.25
20
-52659
30
0
40
25
0
CIRCLE
8
10_BU_LONG_M10X120
10
-193932.25
20
-52659
30
0
40
25
0
CIRCLE
8
10_BU_LONG_M10X120
10
-192822.25
20
-52659
30
0
40
25
0
CIRCLE
8
10_BU_LONG_M10X120
10
-191422.25
20
-52659
30
0
40
25
0
CIRCLE
8
10_BU_LONG_M10X120
10
-190312.25
20
-52659
30
0
40
25
0
CIRCLE
8
10_BU_LONG_M10X120
10
-188912.25
20
-52659
30
0
40
25
0
CIRCLE
8
10_BU_LONG_M10X120
10
-187802.25
20
-52659
30
0
40
25
0
CIRCLE
8
10_BU_LONG_M10X120
10
-186402.25
20
-52659
30
0
40
25
0
CIRCLE
8
10_BU_LONG_M10X120
10
-185292.25
20
-52659
30
0
40
25
0
CIRCLE
8
10_BU_LONG_M10X120
10
-183892.25
20
-52659
30
0
40
25
0
CIRCLE
8
10_BU_LONG_M10X120
10
-182782.25
20
-52659
30
0
40
25
0
CIRCLE
8
10_BU_LONG_M10X120
10
-181382.25
20
-52659
30
0
40
25
0
CIRCLE
8
10_BU_LONG_M10X120
10
-180272.25
20
-52659
30
0
40
25
0
CIRCLE
8
10_BU_LONG_M10X120
10
-178872.25
20
-52659
30
0
40
25
0
CIRCLE
8
10_BU_LONG_M10X120
10
-177762.25
20
-52659
30
0
40
25
0
CIRCLE
8
10_BU_LONG_M10X120
10
-176362.25
20
-52659
30
0
40
25
0
CIRCLE
8
10_BU_LONG_M10X120
10
-175252.25
20
-52659
30
0
40
25
0
CIRCLE
8
10_BU_LONG_M10X120
10
-173852.25
20
-52659
30
0
40
25
0
CIRCLE
8
10_BU_LONG_M10X120
10
-172742.25
20
-52659
30
0
40
25
0
CIRCLE
8
10_BU_LONG_M10X120
10
-171342.25
20
-52659
30
0
40
25
0
CIRCLE
8
10_BU_LONG_M10X120
10
-170232.25
20
-52659
30
0
40
25
0
CIRCLE
8
10_BU_LONG_M10X120
10
-168832.25
20
-52659
30
0
40
25
0
CIRCLE
8
10_BU_LONG_M10X120
10
-167722.25
20
-52659
30
0
40
25
0
CIRCLE
8
10_BU_LONG_M10X120
10
-166322.25
20
-52659
30
0
40
25
0
CIRCLE
8
10_BU_LONG_M10X120
10
-165212.25
20
-52659
30
0
40
25
0
CIRCLE
8
10_BU_LONG_M10X120
10
-163826.26
20
-52659
30
0
40
25
0
CIRCLE
8
10_BU_LONG_M10X120
10
-162704.9
20
-52659
30
0
40
25
0
CIRCLE
8
10_BU_LONG_M10X120
10
-161314.9
20
-52659
30
0
40
25
0
CIRCLE
8
10_BU_LONG_M10X120
10
-160199.9
20
-52659
30
0
40
25
0
CIRCLE
8
10_BU_LONG_M10X120
10
-158799.9
20
-52659
30
0
40
25
0
CIRCLE
8
10_BU_LONG_M10X120
10
-157689.9
20
-52659
30
0
40
25
0
CIRCLE
8
10_BU_LONG_M10X120
10
-237179.01
20
-46659
30
0
40
25
0
CIRCLE
8
10_BU_LONG_M10X120
10
-236324.01
20
-46659
30
0
40
25
0
CIRCLE
8
10_BU_LONG_M10X120
10
-235502.85
20
-46659
30
0
40
25
0
CIRCLE
8
10_BU_LONG_M10X120
10
-234102.85
20
-46659
30
0
40
25
0
CIRCLE
8
10_BU_LONG_M10X120
10
-232992.85
20
-46659
30
0
40
25
0
CIRCLE
8
10_BU_LONG_M10X120
10
-231592.85
20
-46659
30
0
40
25
0
CIRCLE
8
10_BU_LONG_M10X120
10
-230482.85
20
-46659
30
0
40
25
0
CIRCLE
8
10_BU_LONG_M10X120
10
-229082.85
20
-46659
30
0
40
25
0
CIRCLE
8
10_BU_LONG_M10X120
10
-227972.85
20
-46659
30
0
40
25
0
CIRCLE
8
10_BU_LONG_M10X120
10
-226572.85
20
-46659
30
0
40
25
0
CIRCLE
8
10_BU_LONG_M10X120
10
-225462.85
20
-46659
30
0
40
25
0
CIRCLE
8
10_BU_LONG_M10X120
10
-224062.85
20
-46659
30
0
40
25
0
CIRCLE
8
10_BU_LONG_M10X120
10
-222952.85
20
-46659
30
0
40
25
0
CIRCLE
8
10_BU_LONG_M10X120
10
-221552.85
20
-46659
30
0
40
25
0
CIRCLE
8
10_BU_LONG_M10X120
10
-220422.85
20
-46659
30
0
40
25
0
CIRCLE
8
10_BU_LONG_M10X120
10
-219022.85
20
-46659
30
0
40
25
0
CIRCLE
8
10_BU_LONG_M10X120
10
-217922.85
20
-46659
30
0
40
25
0
CIRCLE
8
10_BU_LONG_M10X120
10
-216532.85
20
-46659
30
0
40
25
0
CIRCLE
8
10_BU_LONG_M10X120
10
-215427.85
20
-46659
30
0
40
25
0
CIRCLE
8
10_BU_LONG_M10X120
10
-214022.85
20
-46659
30
0
40
25
0
CIRCLE
8
10_BU_LONG_M10X120
10
-212902.85
20
-46659
30
0
40
25
0
CIRCLE
8
10_BU_LONG_M10X120
10
-211522.85
20
-46659
30
0
40
25
0
CIRCLE
8
10_BU_LONG_M10X120
10
-210392.85
20
-46659
30
0
40
25
0
CIRCLE
8
10_BU_LONG_M10X120
10
-209002.85
20
-46659
30
0
40
25
0
CIRCLE
8
10_BU_LONG_M10X120
10
-207897.85
20
-46659
30
0
40
25
0
CIRCLE
8
10_BU_LONG_M10X120
10
-206492.85
20
-46659
30
0
40
25
0
CIRCLE
8
10_BU_LONG_M10X120
10
-205367.85
20
-46659
30
0
40
25
0
CIRCLE
8
10_BU_LONG_M10X120
10
-203982.85
20
-46659
30
0
40
25
0
CIRCLE
8
10_BU_LONG_M10X120
10
-202862.85
20
-46659
30
0
40
25
0
CIRCLE
8
10_BU_LONG_M10X120
10
-201462.85
20
-46659
30
0
40
25
0
CIRCLE
8
10_BU_LONG_M10X120
10
-200364.68
20
-46659
30
0
40
25
0
CIRCLE
8
10_BU_LONG_M10X120
10
-198954.68
20
-46659
30
0
40
25
0
CIRCLE
8
10_BU_LONG_M10X120
10
-197842.25
20
-46659
30
0
40
25
0
CIRCLE
8
10_BU_LONG_M10X120
10
-196442.25
20
-46659
30
0
40
25
0
CIRCLE
8
10_BU_LONG_M10X120
10
-195332.25
20
-46659
30
0
40
25
0
CIRCLE
8
10_BU_LONG_M10X120
10
-193932.25
20
-46659
30
0
40
25
0
CIRCLE
8
10_BU_LONG_M10X120
10
-192822.25
20
-46659
30
0
40
25
0
CIRCLE
8
10_BU_LONG_M10X120
10
-191422.25
20
-46659
30
0
40
25
0
CIRCLE
8
10_BU_LONG_M10X120
10
-190312.25
20
-46659
30
0
40
25
0
CIRCLE
8
10_BU_LONG_M10X120
10
-188912.25
20
-46659
30
0
40
25
0
CIRCLE
8
10_BU_LONG_M10X120
10
-187802.25
20
-46659
30
0
40
25
0
CIRCLE
8
10_BU_LONG_M10X120
10
-186402.25
20
-46659
30
0
40
25
0
CIRCLE
8
10_BU_LONG_M10X120
10
-185292.25
20
-46659
30
0
40
25
0
CIRCLE
8
10_BU_LONG_M10X120
10
-183892.25
20
-46659
30
0
40
25
0
CIRCLE
8
10_BU_LONG_M10X120
10
-182782.25
20
-46659
30
0
40
25
0
CIRCLE
8
10_BU_LONG_M10X120
10
-181382.25
20
-46659
30
0
40
25
0
CIRCLE
8
10_BU_LONG_M10X120
10
-180272.25
20
-46659
30
0
40
25
0
CIRCLE
8
10_BU_LONG_M10X120
10
-178872.25
20
-46659
30
0
40
25
0
CIRCLE
8
10_BU_LONG_M10X120
10
-177762.25
20
-46659
30
0
40
25
0
CIRCLE
8
10_BU_LONG_M10X120
10
-176362.25
20
-46659
30
0
40
25
0
CIRCLE
8
10_BU_LONG_M10X120
10
-175252.25
20
-46659
30
0
40
25
0
CIRCLE
8
10_BU_LONG_M10X120
10
-173852.25
20
-46659
30
0
40
25
0
CIRCLE
8
10_BU_LONG_M10X120
10
-172742.25
20
-46659
30
0
40
25
0
CIRCLE
8
10_BU_LONG_M10X120
10
-171342.25
20
-46659
30
0
40
25
0
CIRCLE
8
10_BU_LONG_M10X120
10
-170232.25
20
-46659
30
0
40
25
0
CIRCLE
8
10_BU_LONG_M10X120
10
-168832.25
20
-46659
30
0
40
25
0
CIRCLE
8
10_BU_LONG_M10X120
10
-167722.25
20
-46659
30
0
40
25
0
CIRCLE
8
10_BU_LONG_M10X120
10
-166322.25
20
-46659
30
0
40
25
0
CIRCLE
8
10_BU_LONG_M10X120
10
-165212.25
20
-46659
30
0
40
25
0
CIRCLE
8
10_BU_LONG_M10X120
10
-163826.26
20
-46659
30
0
40
25
0
CIRCLE
8
10_BU_LONG_M10X120
10
-162704.9
20
-46659
30
0
40
25
0
CIRCLE
8
10_BU_LONG_M10X120
10
-161314.9
20
-46659
30
0
40
25
0
CIRCLE
8
10_BU_LONG_M10X120
10
-160199.9
20
-46659
30
0
40
25
0
CIRCLE
8
10_BU_LONG_M10X120
10
-158799.9
20
-46659
30
0
40
25
0
CIRCLE
8
10_BU_LONG_M10X120
10
-157689.9
20
-46659
30
0
40
25
0
CIRCLE
8
10_BU_LONG_M10X120
10
-156289.9
20
-46659
30
0
40
25
0
CIRCLE
8
10_BU_LONG_M10X120
10
-155179.9
20
-46659
30
0
40
25
0
CIRCLE
8
10_BU_LONG_M10X120
10
-153779.9
20
-46659
30
0
40
25
0
CIRCLE
8
10_BU_LONG_M10X120
10
-152669.9
20
-46659
30
0
40
25
0
CIRCLE
8
10_BU_LONG_M10X120
10
-151269.9
20
-46659
30
0
40
25
0
CIRCLE
8
10_BU_LONG_M10X120
10
-150159.9
20
-46659
30
0
40
25
0
CIRCLE
8
10_BU_LONG_M10X120
10
-148759.9
20
-46659
30
0
40
25
0
CIRCLE
8
10_BU_LONG_M10X120
10
-147649.9
20
-46659
30
0
40
25
0
CIRCLE
8
10_BU_LONG_M10X120
10
-146259.9
20
-46659
30
0
40
25
0
CIRCLE
8
10_BU_LONG_M10X120
10
-145139.9
20
-46659
30
0
40
25
0
CIRCLE
8
10_BU_LONG_M10X120
10
-143739.9
20
-46659
30
0
40
25
0
CIRCLE
8
10_BU_LONG_M10X120
10
-142839.9
20
-46659
30
0
40
25
0
CIRCLE
8
10_BU_LONG_M10X120
10
-141969.9
20
-46659
30
0
40
25
0
CIRCLE
8
10_BU_LONG_M10X120
10
-221552.85
20
-40659
30
0
40
25
0
CIRCLE
8
10_BU_LONG_M10X120
10
-220422.85
20
-40659
30
0
40
25
0
CIRCLE
8
10_BU_LONG_M10X120
10
-219022.85
20
-40659
30
0
40
25
0
CIRCLE
8
10_BU_LONG_M10X120
10
-217922.85
20
-40659
30
0
40
25
0
CIRCLE
8
10_BU_LONG_M10X120
10
-216532.85
20
-40659
30
0
40
25
0
CIRCLE
8
10_BU_LONG_M10X120
10
-215427.85
20
-40659
30
0
40
25
0
CIRCLE
8
10_BU_LONG_M10X120
10
-214022.85
20
-40659
30
0
40
25
0
CIRCLE
8
10_BU_LONG_M10X120
10
-212902.85
20
-40659
30
0
40
25
0
CIRCLE
8
10_BU_LONG_M10X120
10
-211522.85
20
-40659
30
0
40
25
0
CIRCLE
8
10_BU_LONG_M10X120
10
-210392.85
20
-40659
30
0
40
25
0
CIRCLE
8
10_BU_LONG_M10X120
10
-209002.85
20
-40659
30
0
40
25
0
CIRCLE
8
10_BU_LONG_M10X120
10
-207897.85
20
-40659
30
0
40
25
0
CIRCLE
8
10_BU_LONG_M10X120
10
-206492.85
20
-40659
30
0
40
25
0
CIRCLE
8
10_BU_LONG_M10X120
10
-205367.85
20
-40659
30
0
40
25
0
CIRCLE
8
10_BU_LONG_M10X120
10
-203982.85
20
-40659
30
0
40
25
0
CIRCLE
8
10_BU_LONG_M10X120
10
-202862.85
20
-40659
30
0
40
25
0
CIRCLE
8
10_BU_LONG_M10X120
10
-201462.85
20
-40659
30
0
40
25
0
CIRCLE
8
10_BU_LONG_M10X120
10
-200364.68
20
-40659
30
0
40
25
0
CIRCLE
8
10_BU_LONG_M10X120
10
-198954.68
20
-40659
30
0
40
25
0
CIRCLE
8
10_BU_LONG_M10X120
10
-197842.25
20
-40659
30
0
40
25
0
CIRCLE
8
10_BU_LONG_M10X120
10
-196442.25
20
-40659
30
0
40
25
0
CIRCLE
8
10_BU_LONG_M10X120
10
-195332.25
20
-40659
30
0
40
25
0
CIRCLE
8
10_BU_LONG_M10X120
10
-193932.25
20
-40659
30
0
40
25
0
CIRCLE
8
10_BU_LONG_M10X120
10
-192822.25
20
-40659
30
0
40
25
0
CIRCLE
8
10_BU_LONG_M10X120
10
-191422.25
20
-40659
30
0
40
25
0
CIRCLE
8
10_BU_LONG_M10X120
10
-190312.25
20
-40659
30
0
40
25
0
CIRCLE
8
10_BU_LONG_M10X120
10
-188912.25
20
-40659
30
0
40
25
0
CIRCLE
8
10_BU_LONG_M10X120
10
-187802.25
20
-40659
30
0
40
25
0
CIRCLE
8
10_BU_LONG_M10X120
10
-186402.25
20
-40659
30
0
40
25
0
CIRCLE
8
10_BU_LONG_M10X120
10
-185292.25
20
-40659
30
0
40
25
0
CIRCLE
8
10_BU_LONG_M10X120
10
-183892.25
20
-40659
30
0
40
25
0
CIRCLE
8
10_BU_LONG_M10X120
10
-182782.25
20
-40659
30
0
40
25
0
CIRCLE
8
10_BU_LONG_M10X120
10
-181382.25
20
-40659
30
0
40
25
0
CIRCLE
8
10_BU_LONG_M10X120
10
-180272.25
20
-40659
30
0
40
25
0
CIRCLE
8
10_BU_LONG_M10X120
10
-178872.25
20
-40659
30
0
40
25
0
CIRCLE
8
10_BU_LONG_M10X120
10
-177762.25
20
-40659
30
0
40
25
0
CIRCLE
8
10_BU_LONG_M10X120
10
-176362.25
20
-40659
30
0
40
25
0
CIRCLE
8
10_BU_LONG_M10X120
10
-175252.25
20
-40659
30
0
40
25
0
CIRCLE
8
10_BU_LONG_M10X120
10
-173852.25
20
-40659
30
0
40
25
0
CIRCLE
8
10_BU_LONG_M10X120
10
-172742.25
20
-40659
30
0
40
25
0
CIRCLE
8
10_BU_LONG_M10X120
10
-171342.25
20
-40659
30
0
40
25
0
CIRCLE
8
10_BU_LONG_M10X120
10
-170232.25
20
-40659
30
0
40
25
0
CIRCLE
8
10_BU_LONG_M10X120
10
-168832.25
20
-40659
30
0
40
25
0
CIRCLE
8
10_BU_LONG_M10X120
10
-167722.25
20
-40659
30
0
40
25
0
CIRCLE
8
10_BU_LONG_M10X120
10
-166322.25
20
-40659
30
0
40
25
0
CIRCLE
8
10_BU_LONG_M10X120
10
-165212.25
20
-40659
30
0
40
25
0
CIRCLE
8
10_BU_LONG_M10X120
10
-163826.26
20
-40659
30
0
40
25
0
CIRCLE
8
10_BU_LONG_M10X120
10
-162704.9
20
-40659
30
0
40
25
0
CIRCLE
8
10_BU_LONG_M10X120
10
-161314.9
20
-40659
30
0
40
25
0
CIRCLE
8
10_BU_LONG_M10X120
10
-160199.9
20
-40659
30
0
40
25
0
CIRCLE
8
10_BU_LONG_M10X120
10
-158799.9
20
-40659
30
0
40
25
0
CIRCLE
8
10_BU_LONG_M10X120
10
-157689.9
20
-40659
30
0
40
25
0
CIRCLE
8
10_BU_LONG_M10X120
10
-156289.9
20
-40659
30
0
40
25
0
CIRCLE
8
10_BU_LONG_M10X120
10
-155179.9
20
-40659
30
0
40
25
0
CIRCLE
8
10_BU_LONG_M10X120
10
-153779.9
20
-40659
30
0
40
25
0
CIRCLE
8
10_BU_LONG_M10X120
10
-152669.9
20
-40659
30
0
40
25
0
CIRCLE
8
10_BU_LONG_M10X120
10
-151269.9
20
-40659
30
0
40
25
0
CIRCLE
8
10_BU_LONG_M10X120
10
-150159.9
20
-40659
30
0
40
25
0
CIRCLE
8
10_BU_LONG_M10X120
10
-148759.9
20
-40659
30
0
40
25
0
CIRCLE
8
10_BU_LONG_M10X120
10
-147649.9
20
-40659
30
0
40
25
0
CIRCLE
8
10_BU_LONG_M10X120
10
-146259.9
20
-40659
30
0
40
25
0
CIRCLE
8
10_BU_LONG_M10X120
10
-145139.9
20
-40659
30
0
40
25
0
CIRCLE
8
10_BU_LONG_M10X120
10
-143739.9
20
-40659
30
0
40
25
0
CIRCLE
8
10_BU_LONG_M10X120
10
-142839.9
20
-40659
30
0
40
25
0
CIRCLE
8
10_BU_LONG_M10X120
10
-141969.9
20
-40659
30
0
40
25
0
CIRCLE
8
10_BU_LONG_M10X120
10
-237179.01
20
-34659
30
0
40
25
0
CIRCLE
8
10_BU_LONG_M10X120
10
-236324.01
20
-34659
30
0
40
25
0
CIRCLE
8
10_BU_LONG_M10X120
10
-235502.85
20
-34659
30
0
40
25
0
CIRCLE
8
10_BU_LONG_M10X120
10
-234102.85
20
-34659
30
0
40
25
0
CIRCLE
8
10_BU_LONG_M10X120
10
-232992.85
20
-34659
30
0
40
25
0
CIRCLE
8
10_BU_LONG_M10X120
10
-231592.85
20
-34659
30
0
40
25
0
CIRCLE
8
10_BU_LONG_M10X120
10
-230482.85
20
-34659
30
0
40
25
0
CIRCLE
8
10_BU_LONG_M10X120
10
-229082.85
20
-34659
30
0
40
25
0
CIRCLE
8
10_BU_LONG_M10X120
10
-227972.85
20
-34659
30
0
40
25
0
CIRCLE
8
10_BU_LONG_M10X120
10
-226572.85
20
-34659
30
0
40
25
0
CIRCLE
8
10_BU_LONG_M10X120
10
-225462.85
20
-34659
30
0
40
25
0
CIRCLE
8
10_BU_LONG_M10X120
10
-224062.85
20
-34659
30
0
40
25
0
CIRCLE
8
10_BU_LONG_M10X120
10
-222952.85
20
-34659
30
0
40
25
0
CIRCLE
8
10_BU_LONG_M10X120
10
-221552.85
20
-34659
30
0
40
25
0
CIRCLE
8
10_BU_LONG_M10X120
10
-220422.85
20
-34659
30
0
40
25
0
CIRCLE
8
10_BU_LONG_M10X120
10
-219022.85
20
-34659
30
0
40
25
0
CIRCLE
8
10_BU_LONG_M10X120
10
-217922.85
20
-34659
30
0
40
25
0
CIRCLE
8
10_BU_LONG_M10X120
10
-216532.85
20
-34659
30
0
40
25
0
CIRCLE
8
10_BU_LONG_M10X120
10
-215427.85
20
-34659
30
0
40
25
0
CIRCLE
8
10_BU_LONG_M10X120
10
-214022.85
20
-34659
30
0
40
25
0
CIRCLE
8
10_BU_LONG_M10X120
10
-212902.85
20
-34659
30
0
40
25
0
CIRCLE
8
10_BU_LONG_M10X120
10
-211522.85
20
-34659
30
0
40
25
0
CIRCLE
8
10_BU_LONG_M10X120
10
-210392.85
20
-34659
30
0
40
25
0
CIRCLE
8
10_BU_LONG_M10X120
10
-209002.85
20
-34659
30
0
40
25
0
CIRCLE
8
10_BU_LONG_M10X120
10
-207897.85
20
-34659
30
0
40
25
0
CIRCLE
8
10_BU_LONG_M10X120
10
-206492.85
20
-34659
30
0
40
25
0
CIRCLE
8
10_BU_LONG_M10X120
10
-205367.85
20
-34659
30
0
40
25
0
CIRCLE
8
10_BU_LONG_M10X120
10
-203982.85
20
-34659
30
0
40
25
0
CIRCLE
8
10_BU_LONG_M10X120
10
-202862.85
20
-34659
30
0
40
25
0
CIRCLE
8
10_BU_LONG_M10X120
10
-201462.85
20
-34659
30
0
40
25
0
CIRCLE
8
10_BU_LONG_M10X120
10
-200364.68
20
-34659
30
0
40
25
0
CIRCLE
8
10_BU_LONG_M10X120
10
-198954.68
20
-34659
30
0
40
25
0
CIRCLE
8
10_BU_LONG_M10X120
10
-197842.25
20
-34659
30
0
40
25
0
CIRCLE
8
10_BU_LONG_M10X120
10
-196442.25
20
-34659
30
0
40
25
0
CIRCLE
8
10_BU_LONG_M10X120
10
-195332.25
20
-34659
30
0
40
25
0
CIRCLE
8
10_BU_LONG_M10X120
10
-193932.25
20
-34659
30
0
40
25
0
CIRCLE
8
10_BU_LONG_M10X120
10
-192822.25
20
-34659
30
0
40
25
0
CIRCLE
8
10_BU_LONG_M10X120
10
-191422.25
20
-34659
30
0
40
25
0
CIRCLE
8
10_BU_LONG_M10X120
10
-190312.25
20
-34659
30
0
40
25
0
CIRCLE
8
10_BU_LONG_M10X120
10
-188912.25
20
-34659
30
0
40
25
0
CIRCLE
8
10_BU_LONG_M10X120
10
-187802.25
20
-34659
30
0
40
25
0
CIRCLE
8
10_BU_LONG_M10X120
10
-186402.25
20
-34659
30
0
40
25
0
CIRCLE
8
10_BU_LONG_M10X120
10
-185292.25
20
-34659
30
0
40
25
0
CIRCLE
8
10_BU_LONG_M10X120
10
-183892.25
20
-34659
30
0
40
25
0
CIRCLE
8
10_BU_LONG_M10X120
10
-182782.25
20
-34659
30
0
40
25
0
CIRCLE
8
10_BU_LONG_M10X120
10
-181382.25
20
-34659
30
0
40
25
0
CIRCLE
8
10_BU_LONG_M10X120
10
-180272.25
20
-34659
30
0
40
25
0
CIRCLE
8
10_BU_LONG_M10X120
10
-178872.25
20
-34659
30
0
40
25
0
CIRCLE
8
10_BU_LONG_M10X120
10
-177762.25
20
-34659
30
0
40
25
0
CIRCLE
8
10_BU_LONG_M10X120
10
-176362.25
20
-34659
30
0
40
25
0
CIRCLE
8
10_BU_LONG_M10X120
10
-175252.25
20
-34659
30
0
40
25
0
CIRCLE
8
10_BU_LONG_M10X120
10
-173852.25
20
-34659
30
0
40
25
0
CIRCLE
8
10_BU_LONG_M10X120
10
-172742.25
20
-34659
30
0
40
25
0
CIRCLE
8
10_BU_LONG_M10X120
10
-171342.25
20
-34659
30
0
40
25
0
CIRCLE
8
10_BU_LONG_M10X120
10
-170232.25
20
-34659
30
0
40
25
0
CIRCLE
8
10_BU_LONG_M10X120
10
-168832.25
20
-34659
30
0
40
25
0
CIRCLE
8
10_BU_LONG_M10X120
10
-167722.25
20
-34659
30
0
40
25
0
CIRCLE
8
10_BU_LONG_M10X120
10
-166322.25
20
-34659
30
0
40
25
0
CIRCLE
8
10_BU_LONG_M10X120
10
-165212.25
20
-34659
30
0
40
25
0
CIRCLE
8
10_BU_LONG_M10X120
10
-163826.26
20
-34659
30
0
40
25
0
CIRCLE
8
10_BU_LONG_M10X120
10
-162704.9
20
-34659
30
0
40
25
0
CIRCLE
8
10_BU_LONG_M10X120
10
-161314.9
20
-34659
30
0
40
25
0
CIRCLE
8
10_BU_LONG_M10X120
10
-160199.9
20
-34659
30
0
40
25
0
CIRCLE
8
10_BU_LONG_M10X120
10
-158799.9
20
-34659
30
0
40
25
0
CIRCLE
8
10_BU_LONG_M10X120
10
-157689.9
20
-34659
30
0
40
25
0
CIRCLE
8
10_BU_LONG_M10X120
10
-156289.9
20
-34659
30
0
40
25
0
CIRCLE
8
10_BU_LONG_M10X120
10
-155179.9
20
-34659
30
0
40
25
0
CIRCLE
8
10_BU_LONG_M10X120
10
-153779.9
20
-34659
30
0
40
25
0
CIRCLE
8
10_BU_LONG_M10X120
10
-152669.9
20
-34659
30
0
40
25
0
CIRCLE
8
10_BU_LONG_M10X120
10
-151269.9
20
-34659
30
0
40
25
0
CIRCLE
8
10_BU_LONG_M10X120
10
-150159.9
20
-34659
30
0
40
25
0
CIRCLE
8
10_BU_LONG_M10X120
10
-148759.9
20
-34659
30
0
40
25
0
CIRCLE
8
10_BU_LONG_M10X120
10
-147649.9
20
-34659
30
0
40
25
0
CIRCLE
8
10_BU_LONG_M10X120
10
-146259.9
20
-34659
30
0
40
25
0
CIRCLE
8
10_BU_LONG_M10X120
10
-145139.9
20
-34659
30
0
40
25
0
CIRCLE
8
10_BU_LONG_M10X120
10
-143739.9
20
-34659
30
0
40
25
0
CIRCLE
8
10_BU_LONG_M10X120
10
-142839.9
20
-34659
30
0
40
25
0
CIRCLE
8
10_BU_LONG_M10X120
10
-141969.9
20
-34659
30
0
40
25
0
CIRCLE
8
10_BU_LONG_M10X120
10
-237179.01
20
-28659
30
0
40
25
0
CIRCLE
8
10_BU_LONG_M10X120
10
-236324.01
20
-28659
30
0
40
25
0
CIRCLE
8
10_BU_LONG_M10X120
10
-235502.85
20
-28659
30
0
40
25
0
CIRCLE
8
10_BU_LONG_M10X120
10
-234102.85
20
-28659
30
0
40
25
0
CIRCLE
8
10_BU_LONG_M10X120
10
-232992.85
20
-28659
30
0
40
25
0
CIRCLE
8
10_BU_LONG_M10X120
10
-231592.85
20
-28659
30
0
40
25
0
CIRCLE
8
10_BU_LONG_M10X120
10
-230482.85
20
-28659
30
0
40
25
0
CIRCLE
8
10_BU_LONG_M10X120
10
-229082.85
20
-28659
30
0
40
25
0
CIRCLE
8
10_BU_LONG_M10X120
10
-227972.85
20
-28659
30
0
40
25
0
CIRCLE
8
10_BU_LONG_M10X120
10
-226572.85
20
-28659
30
0
40
25
0
CIRCLE
8
10_BU_LONG_M10X120
10
-225462.85
20
-28659
30
0
40
25
0
CIRCLE
8
10_BU_LONG_M10X120
10
-224062.85
20
-28659
30
0
40
25
0
CIRCLE
8
10_BU_LONG_M10X120
10
-222952.85
20
-28659
30
0
40
25
0
CIRCLE
8
10_BU_LONG_M10X120
10
-221552.85
20
-28659
30
0
40
25
0
CIRCLE
8
10_BU_LONG_M10X120
10
-220422.85
20
-28659
30
0
40
25
0
CIRCLE
8
10_BU_LONG_M10X120
10
-219022.85
20
-28659
30
0
40
25
0
CIRCLE
8
10_BU_LONG_M10X120
10
-217922.85
20
-28659
30
0
40
25
0
CIRCLE
8
10_BU_LONG_M10X120
10
-216532.85
20
-28659
30
0
40
25
0
CIRCLE
8
10_BU_LONG_M10X120
10
-215427.85
20
-28659
30
0
40
25
0
CIRCLE
8
10_BU_LONG_M10X120
10
-214022.85
20
-28659
30
0
40
25
0
CIRCLE
8
10_BU_LONG_M10X120
10
-212902.85
20
-28659
30
0
40
25
0
CIRCLE
8
10_BU_LONG_M10X120
10
-211522.85
20
-28659
30
0
40
25
0
CIRCLE
8
10_BU_LONG_M10X120
10
-210392.85
20
-28659
30
0
40
25
0
CIRCLE
8
10_BU_LONG_M10X120
10
-209002.85
20
-28659
30
0
40
25
0
CIRCLE
8
10_BU_LONG_M10X120
10
-207897.85
20
-28659
30
0
40
25
0
CIRCLE
8
10_BU_LONG_M10X120
10
-206492.85
20
-28659
30
0
40
25
0
CIRCLE
8
10_BU_LONG_M10X120
10
-205367.85
20
-28659
30
0
40
25
0
CIRCLE
8
10_BU_LONG_M10X120
10
-203982.85
20
-28659
30
0
40
25
0
CIRCLE
8
10_BU_LONG_M10X120
10
-202862.85
20
-28659
30
0
40
25
0
CIRCLE
8
10_BU_LONG_M10X120
10
-201462.85
20
-28659
30
0
40
25
0
CIRCLE
8
10_BU_LONG_M10X120
10
-200364.68
20
-28659
30
0
40
25
0
CIRCLE
8
10_BU_LONG_M10X120
10
-198954.68
20
-28659
30
0
40
25
0
CIRCLE
8
10_BU_LONG_M10X120
10
-197842.25
20
-28659
30
0
40
25
0
CIRCLE
8
10_BU_LONG_M10X120
10
-196442.25
20
-28659
30
0
40
25
0
CIRCLE
8
10_BU_LONG_M10X120
10
-195332.25
20
-28659
30
0
40
25
0
CIRCLE
8
10_BU_LONG_M10X120
10
-193932.25
20
-28659
30
0
40
25
0
CIRCLE
8
10_BU_LONG_M10X120
10
-192822.25
20
-28659
30
0
40
25
0
CIRCLE
8
10_BU_LONG_M10X120
10
-191422.25
20
-28659
30
0
40
25
0
CIRCLE
8
10_BU_LONG_M10X120
10
-190312.25
20
-28659
30
0
40
25
0
CIRCLE
8
10_BU_LONG_M10X120
10
-188912.25
20
-28659
30
0
40
25
0
CIRCLE
8
10_BU_LONG_M10X120
10
-187802.25
20
-28659
30
0
40
25
0
CIRCLE
8
10_BU_LONG_M10X120
10
-186402.25
20
-28659
30
0
40
25
0
CIRCLE
8
10_BU_LONG_M10X120
10
-185292.25
20
-28659
30
0
40
25
0
CIRCLE
8
10_BU_LONG_M10X120
10
-183892.25
20
-28659
30
0
40
25
0
CIRCLE
8
10_BU_LONG_M10X120
10
-182782.25
20
-28659
30
0
40
25
0
CIRCLE
8
10_BU_LONG_M10X120
10
-181382.25
20
-28659
30
0
40
25
0
CIRCLE
8
10_BU_LONG_M10X120
10
-180272.25
20
-28659
30
0
40
25
0
CIRCLE
8
10_BU_LONG_M10X120
10
-178872.25
20
-28659
30
0
40
25
0
CIRCLE
8
10_BU_LONG_M10X120
10
-177762.25
20
-28659
30
0
40
25
0
CIRCLE
8
10_BU_LONG_M10X120
10
-176362.25
20
-28659
30
0
40
25
0
CIRCLE
8
10_BU_LONG_M10X120
10
-175252.25
20
-28659
30
0
40
25
0
CIRCLE
8
10_BU_LONG_M10X120
10
-173852.25
20
-28659
30
0
40
25
0
CIRCLE
8
10_BU_LONG_M10X120
10
-172742.25
20
-28659
30
0
40
25
0
CIRCLE
8
10_BU_LONG_M10X120
10
-171342.25
20
-28659
30
0
40
25
0
CIRCLE
8
10_BU_LONG_M10X120
10
-170232.25
20
-28659
30
0
40
25
0
CIRCLE
8
10_BU_LONG_M10X120
10
-168832.25
20
-28659
30
0
40
25
0
CIRCLE
8
10_BU_LONG_M10X120
10
-167722.25
20
-28659
30
0
40
25
0
CIRCLE
8
10_BU_LONG_M10X120
10
-166322.25
20
-28659
30
0
40
25
0
CIRCLE
8
10_BU_LONG_M10X120
10
-165212.25
20
-28659
30
0
40
25
0
CIRCLE
8
10_BU_LONG_M10X120
10
-163826.26
20
-28659
30
0
40
25
0
CIRCLE
8
10_BU_LONG_M10X120
10
-162704.9
20
-28659
30
0
40
25
0
CIRCLE
8
10_BU_LONG_M10X120
10
-161314.9
20
-28659
30
0
40
25
0
CIRCLE
8
10_BU_LONG_M10X120
10
-160199.9
20
-28659
30
0
40
25
0
CIRCLE
8
10_BU_LONG_M10X120
10
-158799.9
20
-28659
30
0
40
25
0
CIRCLE
8
10_BU_LONG_M10X120
10
-157689.9
20
-28659
30
0
40
25
0
CIRCLE
8
10_BU_LONG_M10X120
10
-156289.9
20
-28659
30
0
40
25
0
CIRCLE
8
10_BU_LONG_M10X120
10
-155179.9
20
-28659
30
0
40
25
0
CIRCLE
8
10_BU_LONG_M10X120
10
-153779.9
20
-28659
30
0
40
25
0
CIRCLE
8
10_BU_LONG_M10X120
10
-152669.9
20
-28659
30
0
40
25
0
CIRCLE
8
10_BU_LONG_M10X120
10
-151269.9
20
-28659
30
0
40
25
0
CIRCLE
8
10_BU_LONG_M10X120
10
-150159.9
20
-28659
30
0
40
25
0
CIRCLE
8
10_BU_LONG_M10X120
10
-148759.9
20
-28659
30
0
40
25
0
CIRCLE
8
10_BU_LONG_M10X120
10
-147649.9
20
-28659
30
0
40
25
0
CIRCLE
8
10_BU_LONG_M10X120
10
-146259.9
20
-28659
30
0
40
25
0
CIRCLE
8
10_BU_LONG_M10X120
10
-145139.9
20
-28659
30
0
40
25
0
CIRCLE
8
10_BU_LONG_M10X120
10
-143739.9
20
-28659
30
0
40
25
0
CIRCLE
8
10_BU_LONG_M10X120
10
-142839.9
20
-28659
30
0
40
25
0
CIRCLE
8
10_BU_LONG_M10X120
10
-141969.9
20
-28659
30
0
40
25
0
CIRCLE
8
10_BU_LONG_M10X120
10
-221552.85
20
-22659
30
0
40
25
0
CIRCLE
8
10_BU_LONG_M10X120
10
-220422.85
20
-22659
30
0
40
25
0
CIRCLE
8
10_BU_LONG_M10X120
10
-219022.85
20
-22659
30
0
40
25
0
CIRCLE
8
10_BU_LONG_M10X120
10
-217922.85
20
-22659
30
0
40
25
0
CIRCLE
8
10_BU_LONG_M10X120
10
-216532.85
20
-22659
30
0
40
25
0
CIRCLE
8
10_BU_LONG_M10X120
10
-215427.85
20
-22659
30
0
40
25
0
CIRCLE
8
10_BU_LONG_M10X120
10
-214022.85
20
-22659
30
0
40
25
0
CIRCLE
8
10_BU_LONG_M10X120
10
-212902.85
20
-22659
30
0
40
25
0
CIRCLE
8
10_BU_LONG_M10X120
10
-211522.85
20
-22659
30
0
40
25
0
CIRCLE
8
10_BU_LONG_M10X120
10
-210392.85
20
-22659
30
0
40
25
0
CIRCLE
8
10_BU_LONG_M10X120
10
-209002.85
20
-22659
30
0
40
25
0
CIRCLE
8
10_BU_LONG_M10X120
10
-207897.85
20
-22659
30
0
40
25
0
CIRCLE
8
10_BU_LONG_M10X120
10
-206492.85
20
-22659
30
0
40
25
0
CIRCLE
8
10_BU_LONG_M10X120
10
-205367.85
20
-22659
30
0
40
25
0
CIRCLE
8
10_BU_LONG_M10X120
10
-203982.85
20
-22659
30
0
40
25
0
CIRCLE
8
10_BU_LONG_M10X120
10
-202862.85
20
-22659
30
0
40
25
0
CIRCLE
8
10_BU_LONG_M10X120
10
-201462.85
20
-22659
30
0
40
25
0
CIRCLE
8
10_BU_LONG_M10X120
10
-200364.68
20
-22659
30
0
40
25
0
CIRCLE
8
10_BU_LONG_M10X120
10
-198954.68
20
-22659
30
0
40
25
0
CIRCLE
8
10_BU_LONG_M10X120
10
-197842.25
20
-22659
30
0
40
25
0
CIRCLE
8
10_BU_LONG_M10X120
10
-196442.25
20
-22659
30
0
40
25
0
CIRCLE
8
10_BU_LONG_M10X120
10
-195332.25
20
-22659
30
0
40
25
0
CIRCLE
8
10_BU_LONG_M10X120
10
-193932.25
20
-22659
30
0
40
25
0
CIRCLE
8
10_BU_LONG_M10X120
10
-192822.25
20
-22659
30
0
40
25
0
CIRCLE
8
10_BU_LONG_M10X120
10
-191422.25
20
-22659
30
0
40
25
0
CIRCLE
8
10_BU_LONG_M10X120
10
-190312.25
20
-22659
30
0
40
25
0
CIRCLE
8
10_BU_LONG_M10X120
10
-188912.25
20
-22659
30
0
40
25
0
CIRCLE
8
10_BU_LONG_M10X120
10
-187802.25
20
-22659
30
0
40
25
0
CIRCLE
8
10_BU_LONG_M10X120
10
-186402.25
20
-22659
30
0
40
25
0
CIRCLE
8
10_BU_LONG_M10X120
10
-185292.25
20
-22659
30
0
40
25
0
CIRCLE
8
10_BU_LONG_M10X120
10
-183892.25
20
-22659
30
0
40
25
0
CIRCLE
8
10_BU_LONG_M10X120
10
-182782.25
20
-22659
30
0
40
25
0
CIRCLE
8
10_BU_LONG_M10X120
10
-181382.25
20
-22659
30
0
40
25
0
CIRCLE
8
10_BU_LONG_M10X120
10
-180272.25
20
-22659
30
0
40
25
0
CIRCLE
8
10_BU_LONG_M10X120
10
-178872.25
20
-22659
30
0
40
25
0
CIRCLE
8
10_BU_LONG_M10X120
10
-177762.25
20
-22659
30
0
40
25
0
CIRCLE
8
10_BU_LONG_M10X120
10
-176362.25
20
-22659
30
0
40
25
0
CIRCLE
8
10_BU_LONG_M10X120
10
-175252.25
20
-22659
30
0
40
25
0
CIRCLE
8
10_BU_LONG_M10X120
10
-173852.25
20
-22659
30
0
40
25
0
CIRCLE
8
10_BU_LONG_M10X120
10
-172742.25
20
-22659
30
0
40
25
0
CIRCLE
8
10_BU_LONG_M10X120
10
-171342.25
20
-22659
30
0
40
25
0
CIRCLE
8
10_BU_LONG_M10X120
10
-170232.25
20
-22659
30
0
40
25
0
CIRCLE
8
10_BU_LONG_M10X120
10
-168832.25
20
-22659
30
0
40
25
0
CIRCLE
8
10_BU_LONG_M10X120
10
-167722.25
20
-22659
30
0
40
25
0
CIRCLE
8
10_BU_LONG_M10X120
10
-166322.25
20
-22659
30
0
40
25
0
CIRCLE
8
10_BU_LONG_M10X120
10
-165212.25
20
-22659
30
0
40
25
0
CIRCLE
8
10_BU_LONG_M10X120
10
-163826.26
20
-22659
30
0
40
25
0
CIRCLE
8
10_BU_LONG_M10X120
10
-162704.9
20
-22659
30
0
40
25
0
CIRCLE
8
10_BU_LONG_M10X120
10
-161314.9
20
-22659
30
0
40
25
0
CIRCLE
8
10_BU_LONG_M10X120
10
-160199.9
20
-22659
30
0
40
25
0
CIRCLE
8
10_BU_LONG_M10X120
10
-158799.9
20
-22659
30
0
40
25
0
CIRCLE
8
10_BU_LONG_M10X120
10
-157689.9
20
-22659
30
0
40
25
0
CIRCLE
8
10_BU_LONG_M10X120
10
-237179.01
20
-16659
30
0
40
25
0
CIRCLE
8
10_BU_LONG_M10X120
10
-236324.01
20
-16659
30
0
40
25
0
CIRCLE
8
10_BU_LONG_M10X120
10
-235502.85
20
-16659
30
0
40
25
0
CIRCLE
8
10_BU_LONG_M10X120
10
-234102.85
20
-16659
30
0
40
25
0
CIRCLE
8
10_BU_LONG_M10X120
10
-232992.85
20
-16659
30
0
40
25
0
CIRCLE
8
10_BU_LONG_M10X120
10
-231592.85
20
-16659
30
0
40
25
0
CIRCLE
8
10_BU_LONG_M10X120
10
-230482.85
20
-16659
30
0
40
25
0
CIRCLE
8
10_BU_LONG_M10X120
10
-229082.85
20
-16659
30
0
40
25
0
CIRCLE
8
10_BU_LONG_M10X120
10
-227972.85
20
-16659
30
0
40
25
0
CIRCLE
8
10_BU_LONG_M10X120
10
-226572.85
20
-16659
30
0
40
25
0
CIRCLE
8
10_BU_LONG_M10X120
10
-225462.85
20
-16659
30
0
40
25
0
CIRCLE
8
10_BU_LONG_M10X120
10
-224062.85
20
-16659
30
0
40
25
0
CIRCLE
8
10_BU_LONG_M10X120
10
-222952.85
20
-16659
30
0
40
25
0
CIRCLE
8
10_BU_LONG_M10X120
10
-221552.85
20
-16659
30
0
40
25
0
CIRCLE
8
10_BU_LONG_M10X120
10
-220422.85
20
-16659
30
0
40
25
0
CIRCLE
8
10_BU_LONG_M10X120
10
-219022.85
20
-16659
30
0
40
25
0
CIRCLE
8
10_BU_LONG_M10X120
10
-217922.85
20
-16659
30
0
40
25
0
CIRCLE
8
10_BU_LONG_M10X120
10
-216532.85
20
-16659
30
0
40
25
0
CIRCLE
8
10_BU_LONG_M10X120
10
-215427.85
20
-16659
30
0
40
25
0
CIRCLE
8
10_BU_LONG_M10X120
10
-214022.85
20
-16659
30
0
40
25
0
CIRCLE
8
10_BU_LONG_M10X120
10
-212902.85
20
-16659
30
0
40
25
0
CIRCLE
8
10_BU_LONG_M10X120
10
-211522.85
20
-16659
30
0
40
25
0
CIRCLE
8
10_BU_LONG_M10X120
10
-210392.85
20
-16659
30
0
40
25
0
CIRCLE
8
10_BU_LONG_M10X120
10
-209002.85
20
-16659
30
0
40
25
0
CIRCLE
8
10_BU_LONG_M10X120
10
-207897.85
20
-16659
30
0
40
25
0
CIRCLE
8
10_BU_LONG_M10X120
10
-206492.85
20
-16659
30
0
40
25
0
CIRCLE
8
10_BU_LONG_M10X120
10
-205367.85
20
-16659
30
0
40
25
0
CIRCLE
8
10_BU_LONG_M10X120
10
-203982.85
20
-16659
30
0
40
25
0
CIRCLE
8
10_BU_LONG_M10X120
10
-202862.85
20
-16659
30
0
40
25
0
CIRCLE
8
10_BU_LONG_M10X120
10
-201462.85
20
-16659
30
0
40
25
0
CIRCLE
8
10_BU_LONG_M10X120
10
-200364.68
20
-16659
30
0
40
25
0
CIRCLE
8
10_BU_LONG_M10X120
10
-198954.68
20
-16659
30
0
40
25
0
CIRCLE
8
10_BU_LONG_M10X120
10
-197842.25
20
-16659
30
0
40
25
0
CIRCLE
8
10_BU_LONG_M10X120
10
-196442.25
20
-16659
30
0
40
25
0
CIRCLE
8
10_BU_LONG_M10X120
10
-195332.25
20
-16659
30
0
40
25
0
CIRCLE
8
10_BU_LONG_M10X120
10
-193932.25
20
-16659
30
0
40
25
0
CIRCLE
8
10_BU_LONG_M10X120
10
-192822.25
20
-16659
30
0
40
25
0
CIRCLE
8
10_BU_LONG_M10X120
10
-191422.25
20
-16659
30
0
40
25
0
CIRCLE
8
10_BU_LONG_M10X120
10
-190312.25
20
-16659
30
0
40
25
0
CIRCLE
8
10_BU_LONG_M10X120
10
-188912.25
20
-16659
30
0
40
25
0
CIRCLE
8
10_BU_LONG_M10X120
10
-187802.25
20
-16659
30
0
40
25
0
CIRCLE
8
10_BU_LONG_M10X120
10
-186402.25
20
-16659
30
0
40
25
0
CIRCLE
8
10_BU_LONG_M10X120
10
-185292.25
20
-16659
30
0
40
25
0
CIRCLE
8
10_BU_LONG_M10X120
10
-183892.25
20
-16659
30
0
40
25
0
CIRCLE
8
10_BU_LONG_M10X120
10
-182782.25
20
-16659
30
0
40
25
0
CIRCLE
8
10_BU_LONG_M10X120
10
-181382.25
20
-16659
30
0
40
25
0
CIRCLE
8
10_BU_LONG_M10X120
10
-180272.25
20
-16659
30
0
40
25
0
CIRCLE
8
10_BU_LONG_M10X120
10
-178872.25
20
-16659
30
0
40
25
0
CIRCLE
8
10_BU_LONG_M10X120
10
-177762.25
20
-16659
30
0
40
25
0
CIRCLE
8
10_BU_LONG_M10X120
10
-176362.25
20
-16659
30
0
40
25
0
CIRCLE
8
10_BU_LONG_M10X120
10
-175252.25
20
-16659
30
0
40
25
0
CIRCLE
8
10_BU_LONG_M10X120
10
-173852.25
20
-16659
30
0
40
25
0
CIRCLE
8
10_BU_LONG_M10X120
10
-172742.25
20
-16659
30
0
40
25
0
CIRCLE
8
10_BU_LONG_M10X120
10
-171342.25
20
-16659
30
0
40
25
0
CIRCLE
8
10_BU_LONG_M10X120
10
-170232.25
20
-16659
30
0
40
25
0
CIRCLE
8
10_BU_LONG_M10X120
10
-168832.25
20
-16659
30
0
40
25
0
CIRCLE
8
10_BU_LONG_M10X120
10
-167722.25
20
-16659
30
0
40
25
0
CIRCLE
8
10_BU_LONG_M10X120
10
-166322.25
20
-16659
30
0
40
25
0
CIRCLE
8
10_BU_LONG_M10X120
10
-165212.25
20
-16659
30
0
40
25
0
CIRCLE
8
10_BU_LONG_M10X120
10
-163826.26
20
-16659
30
0
40
25
0
CIRCLE
8
10_BU_LONG_M10X120
10
-162704.9
20
-16659
30
0
40
25
0
CIRCLE
8
10_BU_LONG_M10X120
10
-161314.9
20
-16659
30
0
40
25
0
CIRCLE
8
10_BU_LONG_M10X120
10
-222952.85
20
-13259
30
0
40
25
0
CIRCLE
8
10_BU_LONG_M10X120
10
-221552.85
20
-13259
30
0
40
25
0
CIRCLE
8
10_BU_LONG_M10X120
10
-220422.85
20
-13259
30
0
40
25
0
CIRCLE
8
10_BU_LONG_M10X120
10
-203982.85
20
-13259
30
0
40
25
0
CIRCLE
8
10_BU_LONG_M10X120
10
-202862.85
20
-13259
30
0
40
25
0
CIRCLE
8
10_BU_LONG_M10X120
10
-201462.85
20
-13259
30
0
40
25
0
CIRCLE
8
10_BU_LONG_M10X120
10
-200364.68
20
-13259
30
0
40
25
0
CIRCLE
8
10_BU_LONG_M10X120
10
-198954.68
20
-13259
30
0
40
25
0
CIRCLE
8
10_BU_LONG_M10X120
10
-197842.25
20
-13259
30
0
40
25
0
CIRCLE
8
10_BU_LONG_M10X120
10
-196442.25
20
-13259
30
0
40
25
0
CIRCLE
8
10_BU_LONG_M10X120
10
-195332.25
20
-13259
30
0
40
25
0
CIRCLE
8
10_BU_LONG_M10X120
10
-193932.25
20
-13259
30
0
40
25
0
CIRCLE
8
10_BU_LONG_M10X120
10
-192822.25
20
-13259
30
0
40
25
0
CIRCLE
8
10_BU_LONG_M10X120
10
-191422.25
20
-13259
30
0
40
25
0
CIRCLE
8
10_BU_LONG_M10X120
10
-190312.25
20
-13259
30
0
40
25
0
CIRCLE
8
10_BU_LONG_M10X120
10
-188912.25
20
-13259
30
0
40
25
0
CIRCLE
8
10_BU_LONG_M10X120
10
-187802.25
20
-13259
30
0
40
25
0
CIRCLE
8
10_BU_LONG_M10X120
10
-186402.25
20
-13259
30
0
40
25
0
CIRCLE
8
10_BU_LONG_M10X120
10
-185292.25
20
-13259
30
0
40
25
0
CIRCLE
8
10_BU_LONG_M10X120
10
-183892.25
20
-13259
30
0
40
25
0
CIRCLE
8
10_BU_LONG_M10X120
10
-182782.25
20
-13259
30
0
40
25
0
CIRCLE
8
10_BU_LONG_M10X120
10
-181382.25
20
-13259
30
0
40
25
0
CIRCLE
8
10_BU_LONG_M10X120
10
-165212.25
20
-13259
30
0
40
25
0
CIRCLE
8
10_BU_LONG_M10X120
10
-163826.26
20
-13259
30
0
40
25
0
CIRCLE
8
10_BU_LONG_M10X120
10
-162704.9
20
-13259
30
0
40
25
0
CIRCLE
8
10_BU_LONG_M10X120
10
-161314.9
20
-13259
30
0
40
25
0
TEXT
8
12_CHI_TIET_GHI_CHU
10
-135969.9
20
-12003.7
30
0
40
400
1
CHI TIET LIEN KET ONG 40x60 - DAM C52 (TY LE PHONG 20:1, SO DO)
0
LINE
8
12_CHI_TIET_GHI_CHU
10
-135969.9
20
-15543.7
30
0
11
-135149.9
21
-15543.7
31
0
0
LINE
8
12_CHI_TIET_GHI_CHU
10
-135149.9
20
-15543.7
30
0
11
-135149.9
21
-14503.7
31
0
0
LINE
8
12_CHI_TIET_GHI_CHU
10
-135149.9
20
-14503.7
30
0
11
-135969.9
21
-14503.7
31
0
0
LINE
8
12_CHI_TIET_GHI_CHU
10
-135969.9
20
-14503.7
30
0
11
-135969.9
21
-15543.7
31
0
0
LINE
8
09_ONG_40X60_NEO
10
-137169.9
20
-14503.7
30
0
11
-133969.9
21
-14503.7
31
0
0
LINE
8
09_ONG_40X60_NEO
10
-133969.9
20
-14503.7
30
0
11
-133969.9
21
-13303.7
31
0
0
LINE
8
09_ONG_40X60_NEO
10
-133969.9
20
-13303.7
30
0
11
-137169.9
21
-13303.7
31
0
0
LINE
8
09_ONG_40X60_NEO
10
-137169.9
20
-13303.7
30
0
11
-137169.9
21
-14503.7
31
0
0
LINE
8
10_MOC_CHU_KI
10
-136469.9
20
-14503.7
30
0
11
-136469.9
21
-13223.7
31
0
0
LINE
8
10_MOC_CHU_KI
10
-136469.9
20
-13223.7
30
0
11
-134649.9
21
-13223.7
31
0
0
LINE
8
10_MOC_CHU_KI
10
-134649.9
20
-13223.7
30
0
11
-134649.9
21
-14503.7
31
0
0
LINE
8
10_MOC_CHU_KI
10
-137069.9
20
-14503.7
30
0
11
-136469.9
21
-14503.7
31
0
0
LINE
8
10_MOC_CHU_KI
10
-134649.9
20
-14503.7
30
0
11
-134049.9
21
-14503.7
31
0
0
CIRCLE
8
10_BU_LONG_M10X120
10
-135569.9
20
-13103.7
30
0
40
100
0
CIRCLE
8
10_BU_LONG_M10X120
10
-136769.9
20
-14423.7
30
0
40
100
0
CIRCLE
8
10_BU_LONG_M10X120
10
-134349.9
20
-14423.7
30
0
40
100
0
TEXT
8
12_CHI_TIET_GHI_CHU
10
-135969.9
20
-17003.7
30
0
40
350
1
Ong 40x60 dat tren dam C52, song song hang phao.
0
TEXT
8
12_CHI_TIET_GHI_CHU
10
-135969.9
20
-17803.7
30
0
40
350
1
ONG DUNG LAM DIEM NEO (mau xanh dam): moc chu KI tai MOI dam C52 = 1 bu long luc giac M10x120 (tren) + 2 bu long dai oc hinh thoi M10x30 (hai ben).
0
TEXT
8
12_CHI_TIET_GHI_CHU
10
-135969.9
20
-18603.7
30
0
40
350
1
ONG GIANG (mau xanh nhat): 1 bu long luc giac M10x120 tai moi dam C52, khong can moc.
0
TEXT
8
12_CHI_TIET_GHI_CHU
10
-135969.9
20
-19403.7
30
0
40
350
1
Luc keo thiet ke moi tuyen cap: 69 x 1.2 = 82.8 kN.
0
TEXT
8
12_CHI_TIET_GHI_CHU
10
-135969.9
20
-20203.7
30
0
40
350
1
KHONG moc cap vao MOT diem cua ong: mo men 29.0 kNm, ong chi chiu duoc 1.35 kNm.
0
TEXT
8
12_CHI_TIET_GHI_CHU
10
-135969.9
20
-21003.7
30
0
40
350
1
Cap neo chạc chu Y (2 nhanh, goc ~60 do) moc vao 2 tai neo tren ong 40x60. Ong 40x60 lam dam phan tai truyen deu sang 12 dam C52.
0
TEXT
8
12_CHI_TIET_GHI_CHU
10
-135969.9
20
-21803.7
30
0
40
350
1
Tuyen cap o dau hoi be (keo doc ong): 2 ong moi tuyen, 26 moc (moi moc 3.3 kN do dam C52 bi uon ngang).
0
TEXT
8
12_CHI_TIET_GHI_CHU
10
-135969.9
20
-22603.7
30
0
40
350
1
BAN VE DE XUAT - phai duoc nha cung cap he phao xac nhan suc chiu cua moc, dam C52 va tai phao truoc khi thi cong.
0
TEXT
8
12_CHI_TIET_GHI_CHU
10
-237179.01
20
-9003.7
30
0
40
700
1
BE 1 - MAT BANG BO TRI ONG HOP 40x60 TREN DAM C52 (ban ve de xuat, don vi mm)
0
TEXT
8
12_CHI_TIET_GHI_CHU
10
-135769.9
20
-24653.7
30
0
40
350
1
BANG THONG KE VAT TU BE 1
0
TEXT
8
12_CHI_TIET_GHI_CHU
10
-122769.9
20
-24653.7
30
0
40
350
1

0
LINE
8
12_CHI_TIET_GHI_CHU
10
-135969.9
20
-24903.7
30
0
11
-105969.9
21
-24903.7
31
0
0
TEXT
8
12_CHI_TIET_GHI_CHU
10
-135769.9
20
-25553.7
30
0
40
350
1
Ong hop 40x60x2 - ong neo
0
TEXT
8
12_CHI_TIET_GHI_CHU
10
-122769.9
20
-25553.7
30
0
40
350
1
24 thanh, 348.2 m
0
LINE
8
12_CHI_TIET_GHI_CHU
10
-135969.9
20
-25803.7
30
0
11
-105969.9
21
-25803.7
31
0
0
TEXT
8
12_CHI_TIET_GHI_CHU
10
-135769.9
20
-26453.7
30
0
40
350
1
Ong hop 40x60x2 - ong giang
0
TEXT
8
12_CHI_TIET_GHI_CHU
10
-122769.9
20
-26453.7
30
0
40
350
1
9 tuyen, 823.6 m
0
LINE
8
12_CHI_TIET_GHI_CHU
10
-135969.9
20
-26703.7
30
0
11
-105969.9
21
-26703.7
31
0
0
TEXT
8
12_CHI_TIET_GHI_CHU
10
-135769.9
20
-27353.7
30
0
40
350
1
Tong ong 40x60
0
TEXT
8
12_CHI_TIET_GHI_CHU
10
-122769.9
20
-27353.7
30
0
40
350
1
1171.8 m = 206 cay 6 m (gom 5% hao hut)
0
LINE
8
12_CHI_TIET_GHI_CHU
10
-135969.9
20
-27603.7
30
0
11
-105969.9
21
-27603.7
31
0
0
TEXT
8
12_CHI_TIET_GHI_CHU
10
-135769.9
20
-28253.7
30
0
40
350
1
Moc kep chu KI
0
TEXT
8
12_CHI_TIET_GHI_CHU
10
-122769.9
20
-28253.7
30
0
40
350
1
298 cai
0
LINE
8
12_CHI_TIET_GHI_CHU
10
-135969.9
20
-28503.7
30
0
11
-105969.9
21
-28503.7
31
0
0
TEXT
8
12_CHI_TIET_GHI_CHU
10
-135769.9
20
-29153.7
30
0
40
350
1
Bu long luc giac M10x120
0
TEXT
8
12_CHI_TIET_GHI_CHU
10
-122769.9
20
-29153.7
30
0
40
350
1
820 bo
0
LINE
8
12_CHI_TIET_GHI_CHU
10
-135969.9
20
-29403.7
30
0
11
-105969.9
21
-29403.7
31
0
0
TEXT
8
12_CHI_TIET_GHI_CHU
10
-135769.9
20
-30053.7
30
0
40
350
1
Bu long dai oc hinh thoi M10x30
0
TEXT
8
12_CHI_TIET_GHI_CHU
10
-122769.9
20
-30053.7
30
0
40
350
1
596 bo
0
LINE
8
12_CHI_TIET_GHI_CHU
10
-135969.9
20
-30303.7
30
0
11
-105969.9
21
-30303.7
31
0
0
LINE
8
12_CHI_TIET_GHI_CHU
10
-135969.9
20
-24003.7
30
0
11
-105969.9
21
-24003.7
31
0
0
LINE
8
12_CHI_TIET_GHI_CHU
10
-135969.9
20
-24003.7
30
0
11
-135969.9
21
-30303.7
31
0
0
LINE
8
12_CHI_TIET_GHI_CHU
10
-105969.9
20
-24003.7
30
0
11
-105969.9
21
-30303.7
31
0
0
LINE
8
12_CHI_TIET_GHI_CHU
10
-122969.9
20
-24903.7
30
0
11
-122969.9
21
-30303.7
31
0
0
CIRCLE
8
11_DIEM_NEO_CAP
10
-161990.21
20
-12503.7
30
0
40
250
0
TEXT
8
11_DIEM_NEO_CAP
10
-161690.21
20
-12203.7
30
0
40
350
1
B1-D01 T=69kN
0
CIRCLE
8
11_DIEM_NEO_CAP
10
-169251.05
20
-12503.7
30
0
40
250
0
TEXT
8
11_DIEM_NEO_CAP
10
-168951.05
20
-12203.7
30
0
40
350
1
B1-D02 T=69kN
0
CIRCLE
8
11_DIEM_NEO_CAP
10
-172855.62
20
-12503.7
30
0
40
250
0
TEXT
8
11_DIEM_NEO_CAP
10
-172555.62
20
-12203.7
30
0
40
350
1
B1-D03 T=69kN
0
CIRCLE
8
11_DIEM_NEO_CAP
10
-211908.47
20
-12503.7
30
0
40
250
0
TEXT
8
11_DIEM_NEO_CAP
10
-211608.47
20
-12203.7
30
0
40
350
1
B1-D04 T=69kN
0
CIRCLE
8
11_DIEM_NEO_CAP
10
-222300.32
20
-12503.7
30
0
40
250
0
TEXT
8
11_DIEM_NEO_CAP
10
-222000.32
20
-12203.7
30
0
40
350
1
B1-D05 T=69kN
0
CIRCLE
8
11_DIEM_NEO_CAP
10
-231701.71
20
-12505.11
30
0
40
250
0
TEXT
8
11_DIEM_NEO_CAP
10
-231401.71
20
-12205.11
30
0
40
350
1
B1-D06 T=69kN
0
CIRCLE
8
11_DIEM_NEO_CAP
10
-144452.19
20
-18594.43
30
0
40
250
0
TEXT
8
11_DIEM_NEO_CAP
10
-144152.19
20
-18294.43
30
0
40
350
1
B1-D07 T=69kN
0
CIRCLE
8
11_DIEM_NEO_CAP
10
-141969.9
20
-52962.52
30
0
40
250
0
TEXT
8
11_DIEM_NEO_CAP
10
-141669.9
20
-52662.52
30
0
40
350
1
B1-D08 T=69kN
0
CIRCLE
8
11_DIEM_NEO_CAP
10
-141969.9
20
-38729.58
30
0
40
250
0
TEXT
8
11_DIEM_NEO_CAP
10
-141669.9
20
-38429.58
30
0
40
350
1
B1-D09 T=69kN
0
CIRCLE
8
11_DIEM_NEO_CAP
10
-141971.56
20
-24285.16
30
0
40
250
0
TEXT
8
11_DIEM_NEO_CAP
10
-141671.56
20
-23985.16
30
0
40
350
1
B1-D10 T=69kN
0
CIRCLE
8
11_DIEM_NEO_CAP
10
-223222.8
20
-59251.98
30
0
40
250
0
TEXT
8
11_DIEM_NEO_CAP
10
-222922.8
20
-58951.98
30
0
40
350
1
B1-D11 T=69kN
0
CIRCLE
8
11_DIEM_NEO_CAP
10
-211312.96
20
-59250.75
30
0
40
250
0
TEXT
8
11_DIEM_NEO_CAP
10
-211012.96
20
-58950.75
30
0
40
350
1
B1-D12 T=69kN
0
CIRCLE
8
11_DIEM_NEO_CAP
10
-188368.19
20
-59256.22
30
0
40
250
0
TEXT
8
11_DIEM_NEO_CAP
10
-188068.19
20
-58956.22
30
0
40
350
1
B1-D13 T=69kN
0
CIRCLE
8
11_DIEM_NEO_CAP
10
-176747.97
20
-59256.22
30
0
40
250
0
TEXT
8
11_DIEM_NEO_CAP
10
-176447.97
20
-58956.22
30
0
40
350
1
B1-D14 T=69kN
0
CIRCLE
8
11_DIEM_NEO_CAP
10
-162749.26
20
-59251.52
30
0
40
250
0
TEXT
8
11_DIEM_NEO_CAP
10
-162449.26
20
-58951.52
30
0
40
350
1
B1-D15 T=69kN
0
CIRCLE
8
11_DIEM_NEO_CAP
10
-148109.77
20
-59256.22
30
0
40
250
0
TEXT
8
11_DIEM_NEO_CAP
10
-147809.77
20
-58956.22
30
0
40
350
1
B1-D16 T=69kN
0
CIRCLE
8
11_DIEM_NEO_CAP
10
-237175.9
20
-59255.25
30
0
40
250
0
TEXT
8
11_DIEM_NEO_CAP
10
-236875.9
20
-58955.25
30
0
40
350
1
B1-D17 T=69kN
0
CIRCLE
8
11_DIEM_NEO_CAP
10
-237179.01
20
-21998.67
30
0
40
250
0
TEXT
8
11_DIEM_NEO_CAP
10
-236879.01
20
-21698.67
30
0
40
350
1
B1-D18 T=69kN
0
CIRCLE
8
11_DIEM_NEO_CAP
10
-237179.01
20
-39811.7
30
0
40
250
0
TEXT
8
11_DIEM_NEO_CAP
10
-236879.01
20
-39511.7
30
0
40
350
1
B1-D19 T=69kN
0
LINE
8
11_DIEM_NEO_CAP
10
-161990.21
20
-12503.7
30
0
11
-171342.25
21
-17259
31
0
0
LINE
8
11_DIEM_NEO_CAP
10
-161990.21
20
-12503.7
30
0
11
-163826.26
21
-17259
31
0
0
CIRCLE
8
11_DIEM_NEO_CAP
10
-171342.25
20
-17259
30
0
40
120
0
CIRCLE
8
11_DIEM_NEO_CAP
10
-163826.26
20
-17259
30
0
40
120
0
LINE
8
11_DIEM_NEO_CAP
10
-169251.05
20
-12503.7
30
0
11
-172742.25
21
-15259
31
0
0
LINE
8
11_DIEM_NEO_CAP
10
-169251.05
20
-12503.7
30
0
11
-165212.25
21
-15259
31
0
0
CIRCLE
8
11_DIEM_NEO_CAP
10
-172742.25
20
-15259
30
0
40
120
0
CIRCLE
8
11_DIEM_NEO_CAP
10
-165212.25
20
-15259
30
0
40
120
0
LINE
8
11_DIEM_NEO_CAP
10
-172855.62
20
-12503.7
30
0
11
-176362.25
21
-13259
31
0
0
LINE
8
11_DIEM_NEO_CAP
10
-172855.62
20
-12503.7
30
0
11
-168832.25
21
-13259
31
0
0
CIRCLE
8
11_DIEM_NEO_CAP
10
-176362.25
20
-13259
30
0
40
120
0
CIRCLE
8
11_DIEM_NEO_CAP
10
-168832.25
20
-13259
30
0
40
120
0
LINE
8
11_DIEM_NEO_CAP
10
-211908.47
20
-12503.7
30
0
11
-215427.85
21
-13259
31
0
0
LINE
8
11_DIEM_NEO_CAP
10
-211908.47
20
-12503.7
30
0
11
-207897.85
21
-13259
31
0
0
CIRCLE
8
11_DIEM_NEO_CAP
10
-215427.85
20
-13259
30
0
40
120
0
CIRCLE
8
11_DIEM_NEO_CAP
10
-207897.85
20
-13259
30
0
40
120
0
LINE
8
11_DIEM_NEO_CAP
10
-222300.32
20
-12503.7
30
0
11
-225462.85
21
-15259
31
0
0
LINE
8
11_DIEM_NEO_CAP
10
-222300.32
20
-12503.7
30
0
11
-217922.85
21
-15259
31
0
0
CIRCLE
8
11_DIEM_NEO_CAP
10
-225462.85
20
-15259
30
0
40
120
0
CIRCLE
8
11_DIEM_NEO_CAP
10
-217922.85
20
-15259
30
0
40
120
0
LINE
8
11_DIEM_NEO_CAP
10
-231701.71
20
-12505.11
30
0
11
-234102.85
21
-13259
31
0
0
LINE
8
11_DIEM_NEO_CAP
10
-231701.71
20
-12505.11
30
0
11
-226572.85
21
-13259
31
0
0
CIRCLE
8
11_DIEM_NEO_CAP
10
-234102.85
20
-13259
30
0
40
120
0
CIRCLE
8
11_DIEM_NEO_CAP
10
-226572.85
20
-13259
30
0
40
120
0
LINE
8
11_DIEM_NEO_CAP
10
-144452.19
20
-18594.43
30
0
11
-151269.9
21
-19259
31
0
0
LINE
8
11_DIEM_NEO_CAP
10
-144452.19
20
-18594.43
30
0
11
-143739.9
21
-19259
31
0
0
CIRCLE
8
11_DIEM_NEO_CAP
10
-151269.9
20
-19259
30
0
40
120
0
CIRCLE
8
11_DIEM_NEO_CAP
10
-143739.9
20
-19259
30
0
40
120
0
LINE
8
11_DIEM_NEO_CAP
10
-141969.9
20
-52962.52
30
0
11
-141969.9
21
-52659
31
0
0
LINE
8
11_DIEM_NEO_CAP
10
-141969.9
20
-52962.52
30
0
11
-141969.9
21
-54659
31
0
0
CIRCLE
8
11_DIEM_NEO_CAP
10
-141969.9
20
-52659
30
0
40
120
0
CIRCLE
8
11_DIEM_NEO_CAP
10
-141969.9
20
-54659
30
0
40
120
0
LINE
8
11_DIEM_NEO_CAP
10
-141969.9
20
-38729.58
30
0
11
-141969.9
21
-38659
31
0
0
LINE
8
11_DIEM_NEO_CAP
10
-141969.9
20
-38729.58
30
0
11
-141969.9
21
-36659
31
0
0
CIRCLE
8
11_DIEM_NEO_CAP
10
-141969.9
20
-38659
30
0
40
120
0
CIRCLE
8
11_DIEM_NEO_CAP
10
-141969.9
20
-36659
30
0
40
120
0
LINE
8
11_DIEM_NEO_CAP
10
-141971.56
20
-24285.16
30
0
11
-141969.9
21
-24659
31
0
0
LINE
8
11_DIEM_NEO_CAP
10
-141971.56
20
-24285.16
30
0
11
-141969.9
21
-22659
31
0
0
CIRCLE
8
11_DIEM_NEO_CAP
10
-141969.9
20
-24659
30
0
40
120
0
CIRCLE
8
11_DIEM_NEO_CAP
10
-141969.9
20
-22659
30
0
40
120
0
LINE
8
11_DIEM_NEO_CAP
10
-223222.8
20
-59251.98
30
0
11
-226572.85
21
-56659
31
0
0
LINE
8
11_DIEM_NEO_CAP
10
-223222.8
20
-59251.98
30
0
11
-219022.85
21
-56659
31
0
0
CIRCLE
8
11_DIEM_NEO_CAP
10
-226572.85
20
-56659
30
0
40
120
0
CIRCLE
8
11_DIEM_NEO_CAP
10
-219022.85
20
-56659
30
0
40
120
0
LINE
8
11_DIEM_NEO_CAP
10
-211312.96
20
-59250.75
30
0
11
-214022.85
21
-58659
31
0
0
LINE
8
11_DIEM_NEO_CAP
10
-211312.96
20
-59250.75
30
0
11
-206492.85
21
-58659
31
0
0
CIRCLE
8
11_DIEM_NEO_CAP
10
-214022.85
20
-58659
30
0
40
120
0
CIRCLE
8
11_DIEM_NEO_CAP
10
-206492.85
20
-58659
30
0
40
120
0
LINE
8
11_DIEM_NEO_CAP
10
-188368.19
20
-59256.22
30
0
11
-191422.25
21
-58659
31
0
0
LINE
8
11_DIEM_NEO_CAP
10
-188368.19
20
-59256.22
30
0
11
-183892.25
21
-58659
31
0
0
CIRCLE
8
11_DIEM_NEO_CAP
10
-191422.25
20
-58659
30
0
40
120
0
CIRCLE
8
11_DIEM_NEO_CAP
10
-183892.25
20
-58659
30
0
40
120
0
LINE
8
11_DIEM_NEO_CAP
10
-176747.97
20
-59256.22
30
0
11
-180272.25
21
-56659
31
0
0
LINE
8
11_DIEM_NEO_CAP
10
-176747.97
20
-59256.22
30
0
11
-172742.25
21
-56659
31
0
0
CIRCLE
8
11_DIEM_NEO_CAP
10
-180272.25
20
-56659
30
0
40
120
0
CIRCLE
8
11_DIEM_NEO_CAP
10
-172742.25
20
-56659
30
0
40
120
0
LINE
8
11_DIEM_NEO_CAP
10
-162749.26
20
-59251.52
30
0
11
-166322.25
21
-58659
31
0
0
LINE
8
11_DIEM_NEO_CAP
10
-162749.26
20
-59251.52
30
0
11
-158799.9
21
-58659
31
0
0
CIRCLE
8
11_DIEM_NEO_CAP
10
-166322.25
20
-58659
30
0
40
120
0
CIRCLE
8
11_DIEM_NEO_CAP
10
-158799.9
20
-58659
30
0
40
120
0
LINE
8
11_DIEM_NEO_CAP
10
-148109.77
20
-59256.22
30
0
11
-151269.9
21
-58659
31
0
0
LINE
8
11_DIEM_NEO_CAP
10
-148109.77
20
-59256.22
30
0
11
-143739.9
21
-58659
31
0
0
CIRCLE
8
11_DIEM_NEO_CAP
10
-151269.9
20
-58659
30
0
40
120
0
CIRCLE
8
11_DIEM_NEO_CAP
10
-143739.9
20
-58659
30
0
40
120
0
LINE
8
11_DIEM_NEO_CAP
10
-237175.9
20
-59255.25
30
0
11
-234102.85
21
-58659
31
0
0
LINE
8
11_DIEM_NEO_CAP
10
-237175.9
20
-59255.25
30
0
11
-226572.85
21
-58659
31
0
0
CIRCLE
8
11_DIEM_NEO_CAP
10
-234102.85
20
-58659
30
0
40
120
0
CIRCLE
8
11_DIEM_NEO_CAP
10
-226572.85
20
-58659
30
0
40
120
0
LINE
8
11_DIEM_NEO_CAP
10
-237179.01
20
-21998.67
30
0
11
-237179.01
21
-22659
31
0
0
LINE
8
11_DIEM_NEO_CAP
10
-237179.01
20
-21998.67
30
0
11
-237179.01
21
-20659
31
0
0
CIRCLE
8
11_DIEM_NEO_CAP
10
-237179.01
20
-22659
30
0
40
120
0
CIRCLE
8
11_DIEM_NEO_CAP
10
-237179.01
20
-20659
30
0
40
120
0
LINE
8
11_DIEM_NEO_CAP
10
-237179.01
20
-39811.7
30
0
11
-237179.01
21
-38659
31
0
0
LINE
8
11_DIEM_NEO_CAP
10
-237179.01
20
-39811.7
30
0
11
-237179.01
21
-40659
31
0
0
CIRCLE
8
11_DIEM_NEO_CAP
10
-237179.01
20
-38659
30
0
40
120
0
CIRCLE
8
11_DIEM_NEO_CAP
10
-237179.01
20
-40659
30
0
40
120
0
ENDSEC
0
ENDSEC
0
EOF
